<?xml version="1.0" encoding="UTF-8" standalone="no"?>
<!DOCTYPE svg PUBLIC "-//W3C//DTD SVG 1.1//EN"
 "http://www.w3.org/Graphics/SVG/1.1/DTD/svg11.dtd">
<!-- Generated by graphviz version 2.43.0 (0)
 -->
<!-- Title: %3 Pages: 1 -->
<svg width="193pt" height="710pt"
 viewBox="0.00 0.00 192.51 710.39" xmlns="http://www.w3.org/2000/svg" xmlns:xlink="http://www.w3.org/1999/xlink">
<g id="graph0" class="graph" transform="scale(1 1) rotate(0) translate(4 706.39)">
<title>%3</title>
<polygon fill="white" stroke="transparent" points="-4,4 -4,-706.39 188.51,-706.39 188.51,4 -4,4"/>
<!-- 0 -->
<g id="node1" class="node">
<title>0</title>
<polygon fill="none" stroke="black" points="117.96,-702.39 55.96,-702.39 55.96,-649.39 117.96,-649.39 117.96,-702.39"/>
<text text-anchor="middle" x="86.96" y="-687.19" font-family="Times,serif" font-size="14.00">[0]</text>
<text text-anchor="middle" x="86.96" y="-672.19" font-family="Times,serif" font-size="14.00">C: 1</text>
<text text-anchor="middle" x="86.96" y="-657.19" font-family="Times,serif" font-size="14.00">T: 100</text>
</g>
<!-- 1 -->
<g id="node2" class="node">
<title>1</title>
<ellipse fill="none" stroke="black" cx="86.96" cy="-586.52" rx="44.6" ry="26.74"/>
<text text-anchor="middle" x="86.96" y="-590.32" font-family="Times,serif" font-size="14.00">[1]</text>
<text text-anchor="middle" x="86.96" y="-575.32" font-family="Times,serif" font-size="14.00">C: 121</text>
</g>
<!-- 0&#45;&gt;1 -->
<g id="edge1" class="edge">
<title>0&#45;&gt;1</title>
<path fill="none" stroke="black" d="M86.96,-649.15C86.96,-641.21 86.96,-632.31 86.96,-623.79"/>
<polygon fill="black" stroke="black" points="90.47,-623.69 86.96,-613.69 83.47,-623.69 90.47,-623.69"/>
</g>
<!-- 2 -->
<g id="node3" class="node">
<title>2</title>
<ellipse fill="none" stroke="black" cx="86.96" cy="-496.78" rx="31.64" ry="26.74"/>
<text text-anchor="middle" x="86.96" y="-500.58" font-family="Times,serif" font-size="14.00">[2]</text>
<text text-anchor="middle" x="86.96" y="-485.58" font-family="Times,serif" font-size="14.00">C: 3</text>
</g>
<!-- 1&#45;&gt;2 -->
<g id="edge2" class="edge">
<title>1&#45;&gt;2</title>
<path fill="none" stroke="black" d="M86.96,-559.2C86.96,-551.23 86.96,-542.34 86.96,-533.85"/>
<polygon fill="black" stroke="black" points="90.47,-533.79 86.96,-523.79 83.47,-533.79 90.47,-533.79"/>
</g>
<!-- 3 -->
<g id="node4" class="node">
<title>3</title>
<ellipse fill="none" stroke="black" cx="86.96" cy="-407.04" rx="38.37" ry="26.74"/>
<text text-anchor="middle" x="86.96" y="-410.84" font-family="Times,serif" font-size="14.00">[3]</text>
<text text-anchor="middle" x="86.96" y="-395.84" font-family="Times,serif" font-size="14.00">C: 59</text>
</g>
<!-- 2&#45;&gt;3 -->
<g id="edge3" class="edge">
<title>2&#45;&gt;3</title>
<path fill="none" stroke="black" d="M86.96,-469.46C86.96,-461.49 86.96,-452.6 86.96,-444.11"/>
<polygon fill="black" stroke="black" points="90.47,-444.05 86.96,-434.05 83.47,-444.05 90.47,-444.05"/>
</g>
<!-- 4 -->
<g id="node5" class="node">
<title>4</title>
<ellipse fill="none" stroke="black" cx="86.96" cy="-317.3" rx="38.37" ry="26.74"/>
<text text-anchor="middle" x="86.96" y="-321.1" font-family="Times,serif" font-size="14.00">[4]</text>
<text text-anchor="middle" x="86.96" y="-306.1" font-family="Times,serif" font-size="14.00">C: 10</text>
</g>
<!-- 3&#45;&gt;4 -->
<g id="edge4" class="edge">
<title>3&#45;&gt;4</title>
<path fill="none" stroke="black" d="M86.96,-379.72C86.96,-371.75 86.96,-362.86 86.96,-354.37"/>
<polygon fill="black" stroke="black" points="90.47,-354.31 86.96,-344.31 83.47,-354.31 90.47,-354.31"/>
</g>
<!-- 5 -->
<g id="node6" class="node">
<title>5</title>
<ellipse fill="none" stroke="black" cx="45.96" cy="-227.56" rx="31.64" ry="26.74"/>
<text text-anchor="middle" x="45.96" y="-231.36" font-family="Times,serif" font-size="14.00">[5]</text>
<text text-anchor="middle" x="45.96" y="-216.36" font-family="Times,serif" font-size="14.00">C: 1</text>
</g>
<!-- 4&#45;&gt;5 -->
<g id="edge5" class="edge">
<title>4&#45;&gt;5</title>
<path fill="none" stroke="black" d="M75.33,-291.4C71.06,-282.26 66.15,-271.76 61.59,-262"/>
<polygon fill="black" stroke="black" points="64.75,-260.51 57.35,-252.93 58.41,-263.47 64.75,-260.51"/>
</g>
<!-- 7 -->
<g id="node8" class="node">
<title>7</title>
<ellipse fill="none" stroke="black" cx="133.96" cy="-227.56" rx="31.64" ry="26.74"/>
<text text-anchor="middle" x="133.96" y="-231.36" font-family="Times,serif" font-size="14.00">[7]</text>
<text text-anchor="middle" x="133.96" y="-216.36" font-family="Times,serif" font-size="14.00">C: 7</text>
</g>
<!-- 4&#45;&gt;7 -->
<g id="edge6" class="edge">
<title>4&#45;&gt;7</title>
<path fill="none" stroke="black" d="M100.06,-291.86C105.13,-282.39 111.02,-271.4 116.45,-261.27"/>
<polygon fill="black" stroke="black" points="119.63,-262.74 121.27,-252.27 113.46,-259.43 119.63,-262.74"/>
</g>
<!-- 6 -->
<g id="node7" class="node">
<title>6</title>
<ellipse fill="none" stroke="black" stroke-width="2" cx="45.96" cy="-37.48" rx="45.01" ry="37.45"/>
<text text-anchor="middle" x="45.96" y="-48.78" font-family="Times,serif" font-size="14.00">[6]</text>
<text text-anchor="middle" x="45.96" y="-33.78" font-family="Times,serif" font-size="14.00">C: 3</text>
<text text-anchor="middle" x="45.96" y="-18.78" font-family="Times,serif" font-size="14.00">D: 364</text>
</g>
<!-- 5&#45;&gt;6 -->
<g id="edge7" class="edge">
<title>5&#45;&gt;6</title>
<path fill="none" stroke="black" d="M27.54,-205.55C18.87,-194.26 9.46,-179.62 4.96,-164.69 -1.92,-141.82 -1.12,-134.05 4.96,-110.95 7.84,-100.04 12.77,-89.03 18.25,-79.02"/>
<polygon fill="black" stroke="black" points="21.41,-80.53 23.38,-70.12 15.35,-77.03 21.41,-80.53"/>
</g>
<!-- 9 -->
<g id="node10" class="node">
<title>9</title>
<ellipse fill="none" stroke="black" cx="45.96" cy="-137.82" rx="31.64" ry="26.74"/>
<text text-anchor="middle" x="45.96" y="-141.62" font-family="Times,serif" font-size="14.00">[9]</text>
<text text-anchor="middle" x="45.96" y="-126.62" font-family="Times,serif" font-size="14.00">C: 5</text>
</g>
<!-- 5&#45;&gt;9 -->
<g id="edge8" class="edge">
<title>5&#45;&gt;9</title>
<path fill="none" stroke="black" d="M45.96,-200.24C45.96,-192.27 45.96,-183.38 45.96,-174.89"/>
<polygon fill="black" stroke="black" points="49.47,-174.83 45.96,-164.83 42.47,-174.83 49.47,-174.83"/>
</g>
<!-- 8 -->
<g id="node9" class="node">
<title>8</title>
<ellipse fill="none" stroke="black" cx="139.96" cy="-137.82" rx="44.6" ry="26.74"/>
<text text-anchor="middle" x="139.96" y="-141.62" font-family="Times,serif" font-size="14.00">[8]</text>
<text text-anchor="middle" x="139.96" y="-126.62" font-family="Times,serif" font-size="14.00">C: 100</text>
</g>
<!-- 7&#45;&gt;8 -->
<g id="edge9" class="edge">
<title>7&#45;&gt;8</title>
<path fill="none" stroke="black" d="M135.73,-200.71C136.28,-192.66 136.9,-183.63 137.49,-175.01"/>
<polygon fill="black" stroke="black" points="141,-175.01 138.19,-164.79 134.01,-174.53 141,-175.01"/>
</g>
<!-- 8&#45;&gt;6 -->
<g id="edge10" class="edge">
<title>8&#45;&gt;6</title>
<path fill="none" stroke="black" d="M118.16,-114.01C107.1,-102.44 93.39,-88.1 80.91,-75.03"/>
<polygon fill="black" stroke="black" points="83.16,-72.33 73.72,-67.52 78.1,-77.17 83.16,-72.33"/>
</g>
<!-- 9&#45;&gt;6 -->
<g id="edge11" class="edge">
<title>9&#45;&gt;6</title>
<path fill="none" stroke="black" d="M45.96,-110.73C45.96,-102.87 45.96,-94.01 45.96,-85.24"/>
<polygon fill="black" stroke="black" points="49.47,-85.06 45.96,-75.06 42.47,-85.06 49.47,-85.06"/>
</g>
</g>
</svg>
