<?xml version="1.0" encoding="UTF-8" standalone="no"?>
<!DOCTYPE svg PUBLIC "-//W3C//DTD SVG 1.1//EN"
 "http://www.w3.org/Graphics/SVG/1.1/DTD/svg11.dtd">
<!-- Generated by graphviz version 2.43.0 (0)
 -->
<!-- Title: %3 Pages: 1 -->
<svg width="260pt" height="351pt"
 viewBox="0.00 0.00 260.37 351.43" xmlns="http://www.w3.org/2000/svg" xmlns:xlink="http://www.w3.org/1999/xlink">
<g id="graph0" class="graph" transform="scale(1 1) rotate(0) translate(4 347.43)">
<title>%3</title>
<polygon fill="white" stroke="transparent" points="-4,4 -4,-347.43 256.37,-347.43 256.37,4 -4,4"/>
<!-- 0 -->
<g id="node1" class="node">
<title>0</title>
<polygon fill="none" stroke="black" points="159.18,-343.43 105.18,-343.43 105.18,-290.43 159.18,-290.43 159.18,-343.43"/>
<text text-anchor="middle" x="132.18" y="-328.23" font-family="Times,serif" font-size="14.00">[0]</text>
<text text-anchor="middle" x="132.18" y="-313.23" font-family="Times,serif" font-size="14.00">C: 1</text>
<text text-anchor="middle" x="132.18" y="-298.23" font-family="Times,serif" font-size="14.00">T: 50</text>
</g>
<!-- 1 -->
<g id="node2" class="node">
<title>1</title>
<ellipse fill="none" stroke="black" cx="38.18" cy="-227.56" rx="38.37" ry="26.74"/>
<text text-anchor="middle" x="38.18" y="-231.36" font-family="Times,serif" font-size="14.00">[1]</text>
<text text-anchor="middle" x="38.18" y="-216.36" font-family="Times,serif" font-size="14.00">C: 36</text>
</g>
<!-- 0&#45;&gt;1 -->
<g id="edge1" class="edge">
<title>0&#45;&gt;1</title>
<path fill="none" stroke="black" d="M105,-290.66C93.43,-279.91 79.91,-267.34 68.06,-256.34"/>
<polygon fill="black" stroke="black" points="70.27,-253.61 60.56,-249.36 65.5,-258.73 70.27,-253.61"/>
</g>
<!-- 3 -->
<g id="node4" class="node">
<title>3</title>
<ellipse fill="none" stroke="black" cx="132.18" cy="-227.56" rx="38.37" ry="26.74"/>
<text text-anchor="middle" x="132.18" y="-231.36" font-family="Times,serif" font-size="14.00">[3]</text>
<text text-anchor="middle" x="132.18" y="-216.36" font-family="Times,serif" font-size="14.00">C: 16</text>
</g>
<!-- 0&#45;&gt;3 -->
<g id="edge2" class="edge">
<title>0&#45;&gt;3</title>
<path fill="none" stroke="black" d="M132.18,-290.19C132.18,-282.25 132.18,-273.35 132.18,-264.83"/>
<polygon fill="black" stroke="black" points="135.68,-264.73 132.18,-254.73 128.68,-264.73 135.68,-264.73"/>
</g>
<!-- 5 -->
<g id="node6" class="node">
<title>5</title>
<ellipse fill="none" stroke="black" cx="214.18" cy="-137.82" rx="38.37" ry="26.74"/>
<text text-anchor="middle" x="214.18" y="-141.62" font-family="Times,serif" font-size="14.00">[5]</text>
<text text-anchor="middle" x="214.18" y="-126.62" font-family="Times,serif" font-size="14.00">C: 74</text>
</g>
<!-- 0&#45;&gt;5 -->
<g id="edge3" class="edge">
<title>0&#45;&gt;5</title>
<path fill="none" stroke="black" d="M155,-290.39C163.52,-279.84 172.69,-267.11 179.18,-254.43 192.17,-229.07 201.23,-198.06 206.88,-174.54"/>
<polygon fill="black" stroke="black" points="210.33,-175.16 209.16,-164.63 203.5,-173.59 210.33,-175.16"/>
</g>
<!-- 2 -->
<g id="node3" class="node">
<title>2</title>
<ellipse fill="none" stroke="black" cx="38.18" cy="-137.82" rx="38.37" ry="26.74"/>
<text text-anchor="middle" x="38.18" y="-141.62" font-family="Times,serif" font-size="14.00">[2]</text>
<text text-anchor="middle" x="38.18" y="-126.62" font-family="Times,serif" font-size="14.00">C: 10</text>
</g>
<!-- 1&#45;&gt;2 -->
<g id="edge4" class="edge">
<title>1&#45;&gt;2</title>
<path fill="none" stroke="black" d="M38.18,-200.24C38.18,-192.27 38.18,-183.38 38.18,-174.89"/>
<polygon fill="black" stroke="black" points="41.68,-174.83 38.18,-164.83 34.68,-174.83 41.68,-174.83"/>
</g>
<!-- 6 -->
<g id="node7" class="node">
<title>6</title>
<ellipse fill="none" stroke="black" stroke-width="2" cx="126.18" cy="-37.48" rx="45.01" ry="37.45"/>
<text text-anchor="middle" x="126.18" y="-48.78" font-family="Times,serif" font-size="14.00">[6]</text>
<text text-anchor="middle" x="126.18" y="-33.78" font-family="Times,serif" font-size="14.00">C: 16</text>
<text text-anchor="middle" x="126.18" y="-18.78" font-family="Times,serif" font-size="14.00">D: 109</text>
</g>
<!-- 2&#45;&gt;6 -->
<g id="edge5" class="edge">
<title>2&#45;&gt;6</title>
<path fill="none" stroke="black" d="M58.15,-114.51C68.41,-103.04 81.18,-88.77 92.88,-75.69"/>
<polygon fill="black" stroke="black" points="95.56,-77.95 99.62,-68.17 90.34,-73.28 95.56,-77.95"/>
</g>
<!-- 4 -->
<g id="node5" class="node">
<title>4</title>
<ellipse fill="none" stroke="black" cx="126.18" cy="-137.82" rx="31.64" ry="26.74"/>
<text text-anchor="middle" x="126.18" y="-141.62" font-family="Times,serif" font-size="14.00">[4]</text>
<text text-anchor="middle" x="126.18" y="-126.62" font-family="Times,serif" font-size="14.00">C: 2</text>
</g>
<!-- 3&#45;&gt;4 -->
<g id="edge6" class="edge">
<title>3&#45;&gt;4</title>
<path fill="none" stroke="black" d="M130.42,-200.71C129.87,-192.66 129.25,-183.63 128.66,-175.01"/>
<polygon fill="black" stroke="black" points="132.13,-174.53 127.96,-164.79 125.15,-175.01 132.13,-174.53"/>
</g>
<!-- 4&#45;&gt;6 -->
<g id="edge7" class="edge">
<title>4&#45;&gt;6</title>
<path fill="none" stroke="black" d="M126.18,-110.73C126.18,-102.87 126.18,-94.01 126.18,-85.24"/>
<polygon fill="black" stroke="black" points="129.68,-85.06 126.18,-75.06 122.68,-85.06 129.68,-85.06"/>
</g>
<!-- 5&#45;&gt;6 -->
<g id="edge8" class="edge">
<title>5&#45;&gt;6</title>
<path fill="none" stroke="black" d="M194.22,-114.51C183.96,-103.04 171.18,-88.77 159.49,-75.69"/>
<polygon fill="black" stroke="black" points="162.03,-73.28 152.75,-68.17 156.81,-77.95 162.03,-73.28"/>
</g>
</g>
</svg>
