<?xml version="1.0" encoding="UTF-8" standalone="no"?>
<!DOCTYPE svg PUBLIC "-//W3C//DTD SVG 1.1//EN"
 "http://www.w3.org/Graphics/SVG/1.1/DTD/svg11.dtd">
<!-- Generated by graphviz version 2.43.0 (0)
 -->
<!-- Title: %3 Pages: 1 -->
<svg width="166pt" height="351pt"
 viewBox="0.00 0.00 166.00 351.43" xmlns="http://www.w3.org/2000/svg" xmlns:xlink="http://www.w3.org/1999/xlink">
<g id="graph0" class="graph" transform="scale(1 1) rotate(0) translate(4 347.43)">
<title>%3</title>
<polygon fill="white" stroke="transparent" points="-4,4 -4,-347.43 162,-347.43 162,4 -4,4"/>
<!-- 0 -->
<g id="node1" class="node">
<title>0</title>
<polygon fill="none" stroke="black" points="101.82,-343.43 47.82,-343.43 47.82,-290.43 101.82,-290.43 101.82,-343.43"/>
<text text-anchor="middle" x="74.82" y="-328.23" font-family="Times,serif" font-size="14.00">[0]</text>
<text text-anchor="middle" x="74.82" y="-313.23" font-family="Times,serif" font-size="14.00">C: 13</text>
<text text-anchor="middle" x="74.82" y="-298.23" font-family="Times,serif" font-size="14.00">T: 50</text>
</g>
<!-- 1 -->
<g id="node2" class="node">
<title>1</title>
<ellipse fill="none" stroke="black" cx="31.82" cy="-137.82" rx="31.64" ry="26.74"/>
<text text-anchor="middle" x="31.82" y="-141.62" font-family="Times,serif" font-size="14.00">[1]</text>
<text text-anchor="middle" x="31.82" y="-126.62" font-family="Times,serif" font-size="14.00">C: 9</text>
</g>
<!-- 0&#45;&gt;1 -->
<g id="edge1" class="edge">
<title>0&#45;&gt;1</title>
<path fill="none" stroke="black" d="M68.57,-290.18C61.16,-259.66 48.77,-208.64 40.45,-174.38"/>
<polygon fill="black" stroke="black" points="43.77,-173.21 38.01,-164.32 36.97,-174.86 43.77,-173.21"/>
</g>
<!-- 3 -->
<g id="node4" class="node">
<title>3</title>
<ellipse fill="none" stroke="black" cx="113.82" cy="-227.56" rx="38.37" ry="26.74"/>
<text text-anchor="middle" x="113.82" y="-231.36" font-family="Times,serif" font-size="14.00">[3]</text>
<text text-anchor="middle" x="113.82" y="-216.36" font-family="Times,serif" font-size="14.00">C: 25</text>
</g>
<!-- 0&#45;&gt;3 -->
<g id="edge2" class="edge">
<title>0&#45;&gt;3</title>
<path fill="none" stroke="black" d="M86.31,-290.19C90.15,-281.6 94.48,-271.89 98.56,-262.75"/>
<polygon fill="black" stroke="black" points="101.8,-264.08 102.68,-253.52 95.41,-261.22 101.8,-264.08"/>
</g>
<!-- 2 -->
<g id="node3" class="node">
<title>2</title>
<ellipse fill="none" stroke="black" stroke-width="2" cx="75.82" cy="-37.48" rx="45.01" ry="37.45"/>
<text text-anchor="middle" x="75.82" y="-48.78" font-family="Times,serif" font-size="14.00">[2]</text>
<text text-anchor="middle" x="75.82" y="-33.78" font-family="Times,serif" font-size="14.00">C: 79</text>
<text text-anchor="middle" x="75.82" y="-18.78" font-family="Times,serif" font-size="14.00">D: 175</text>
</g>
<!-- 1&#45;&gt;2 -->
<g id="edge3" class="edge">
<title>1&#45;&gt;2</title>
<path fill="none" stroke="black" d="M42.7,-112.51C46.79,-103.37 51.58,-92.66 56.22,-82.29"/>
<polygon fill="black" stroke="black" points="59.53,-83.45 60.42,-72.9 53.14,-80.6 59.53,-83.45"/>
</g>
<!-- 4 -->
<g id="node5" class="node">
<title>4</title>
<ellipse fill="none" stroke="black" cx="119.82" cy="-137.82" rx="38.37" ry="26.74"/>
<text text-anchor="middle" x="119.82" y="-141.62" font-family="Times,serif" font-size="14.00">[4]</text>
<text text-anchor="middle" x="119.82" y="-126.62" font-family="Times,serif" font-size="14.00">C: 29</text>
</g>
<!-- 3&#45;&gt;4 -->
<g id="edge4" class="edge">
<title>3&#45;&gt;4</title>
<path fill="none" stroke="black" d="M115.59,-200.71C116.14,-192.66 116.76,-183.63 117.35,-175.01"/>
<polygon fill="black" stroke="black" points="120.85,-175.01 118.04,-164.79 113.87,-174.53 120.85,-175.01"/>
</g>
<!-- 4&#45;&gt;2 -->
<g id="edge5" class="edge">
<title>4&#45;&gt;2</title>
<path fill="none" stroke="black" d="M108.72,-112.01C104.66,-102.94 99.95,-92.41 95.38,-82.19"/>
<polygon fill="black" stroke="black" points="98.52,-80.64 91.24,-72.94 92.13,-83.5 98.52,-80.64"/>
</g>
</g>
</svg>
