<?xml version="1.0" encoding="UTF-8" standalone="no"?>
<!DOCTYPE svg PUBLIC "-//W3C//DTD SVG 1.1//EN"
 "http://www.w3.org/Graphics/SVG/1.1/DTD/svg11.dtd">
<!-- Generated by graphviz version 2.43.0 (0)
 -->
<!-- Title: %3 Pages: 1 -->
<svg width="156pt" height="441pt"
 viewBox="0.00 0.00 156.00 441.17" xmlns="http://www.w3.org/2000/svg" xmlns:xlink="http://www.w3.org/1999/xlink">
<g id="graph0" class="graph" transform="scale(1 1) rotate(0) translate(4 437.17)">
<title>%3</title>
<polygon fill="white" stroke="transparent" points="-4,4 -4,-437.17 152,-437.17 152,4 -4,4"/>
<!-- 0 -->
<g id="node1" class="node">
<title>0</title>
<polygon fill="none" stroke="black" points="103.82,-433.17 41.82,-433.17 41.82,-380.17 103.82,-380.17 103.82,-433.17"/>
<text text-anchor="middle" x="72.82" y="-417.97" font-family="Times,serif" font-size="14.00">[0]</text>
<text text-anchor="middle" x="72.82" y="-402.97" font-family="Times,serif" font-size="14.00">C: 4</text>
<text text-anchor="middle" x="72.82" y="-387.97" font-family="Times,serif" font-size="14.00">T: 100</text>
</g>
<!-- 1 -->
<g id="node2" class="node">
<title>1</title>
<ellipse fill="none" stroke="black" cx="72.82" cy="-317.3" rx="44.6" ry="26.74"/>
<text text-anchor="middle" x="72.82" y="-321.1" font-family="Times,serif" font-size="14.00">[1]</text>
<text text-anchor="middle" x="72.82" y="-306.1" font-family="Times,serif" font-size="14.00">C: 224</text>
</g>
<!-- 0&#45;&gt;1 -->
<g id="edge1" class="edge">
<title>0&#45;&gt;1</title>
<path fill="none" stroke="black" d="M72.82,-379.93C72.82,-371.99 72.82,-363.09 72.82,-354.57"/>
<polygon fill="black" stroke="black" points="76.32,-354.47 72.82,-344.47 69.32,-354.47 76.32,-354.47"/>
</g>
<!-- 2 -->
<g id="node3" class="node">
<title>2</title>
<ellipse fill="none" stroke="black" cx="31.82" cy="-137.82" rx="31.64" ry="26.74"/>
<text text-anchor="middle" x="31.82" y="-141.62" font-family="Times,serif" font-size="14.00">[2]</text>
<text text-anchor="middle" x="31.82" y="-126.62" font-family="Times,serif" font-size="14.00">C: 1</text>
</g>
<!-- 1&#45;&gt;2 -->
<g id="edge2" class="edge">
<title>1&#45;&gt;2</title>
<path fill="none" stroke="black" d="M66.86,-290.5C59.79,-259.91 47.98,-208.79 40.05,-174.45"/>
<polygon fill="black" stroke="black" points="43.38,-173.33 37.72,-164.37 36.56,-174.9 43.38,-173.33"/>
</g>
<!-- 4 -->
<g id="node5" class="node">
<title>4</title>
<ellipse fill="none" stroke="black" cx="109.82" cy="-227.56" rx="38.37" ry="26.74"/>
<text text-anchor="middle" x="109.82" y="-231.36" font-family="Times,serif" font-size="14.00">[4]</text>
<text text-anchor="middle" x="109.82" y="-216.36" font-family="Times,serif" font-size="14.00">C: 73</text>
</g>
<!-- 1&#45;&gt;4 -->
<g id="edge3" class="edge">
<title>1&#45;&gt;4</title>
<path fill="none" stroke="black" d="M83.52,-290.93C87.2,-282.21 91.37,-272.3 95.3,-262.99"/>
<polygon fill="black" stroke="black" points="98.61,-264.16 99.27,-253.58 92.16,-261.44 98.61,-264.16"/>
</g>
<!-- 3 -->
<g id="node4" class="node">
<title>3</title>
<ellipse fill="none" stroke="black" stroke-width="2" cx="72.82" cy="-37.48" rx="45.01" ry="37.45"/>
<text text-anchor="middle" x="72.82" y="-48.78" font-family="Times,serif" font-size="14.00">[3]</text>
<text text-anchor="middle" x="72.82" y="-33.78" font-family="Times,serif" font-size="14.00">C: 1</text>
<text text-anchor="middle" x="72.82" y="-18.78" font-family="Times,serif" font-size="14.00">D: 401</text>
</g>
<!-- 2&#45;&gt;3 -->
<g id="edge4" class="edge">
<title>2&#45;&gt;3</title>
<path fill="none" stroke="black" d="M42.06,-112.26C45.84,-103.2 50.24,-92.64 54.52,-82.38"/>
<polygon fill="black" stroke="black" points="57.77,-83.68 58.38,-73.11 51.3,-80.99 57.77,-83.68"/>
</g>
<!-- 5 -->
<g id="node6" class="node">
<title>5</title>
<ellipse fill="none" stroke="black" cx="113.82" cy="-137.82" rx="31.64" ry="26.74"/>
<text text-anchor="middle" x="113.82" y="-141.62" font-family="Times,serif" font-size="14.00">[5]</text>
<text text-anchor="middle" x="113.82" y="-126.62" font-family="Times,serif" font-size="14.00">C: 7</text>
</g>
<!-- 4&#45;&gt;5 -->
<g id="edge5" class="edge">
<title>4&#45;&gt;5</title>
<path fill="none" stroke="black" d="M111.02,-200.24C111.38,-192.27 111.79,-183.38 112.18,-174.89"/>
<polygon fill="black" stroke="black" points="115.68,-174.98 112.63,-164.83 108.68,-174.66 115.68,-174.98"/>
</g>
<!-- 5&#45;&gt;3 -->
<g id="edge6" class="edge">
<title>5&#45;&gt;3</title>
<path fill="none" stroke="black" d="M103.58,-112.26C99.8,-103.2 95.4,-92.64 91.12,-82.38"/>
<polygon fill="black" stroke="black" points="94.34,-80.99 87.26,-73.11 87.87,-83.68 94.34,-80.99"/>
</g>
</g>
</svg>
