<?xml version="1.0" encoding="UTF-8" standalone="no"?>
<!DOCTYPE svg PUBLIC "-//W3C//DTD SVG 1.1//EN"
 "http://www.w3.org/Graphics/SVG/1.1/DTD/svg11.dtd">
<!-- Generated by graphviz version 2.43.0 (0)
 -->
<!-- Title: %3 Pages: 1 -->
<svg width="260pt" height="710pt"
 viewBox="0.00 0.00 259.64 710.39" xmlns="http://www.w3.org/2000/svg" xmlns:xlink="http://www.w3.org/1999/xlink">
<g id="graph0" class="graph" transform="scale(1 1) rotate(0) translate(4 706.39)">
<title>%3</title>
<polygon fill="white" stroke="transparent" points="-4,4 -4,-706.39 255.64,-706.39 255.64,4 -4,4"/>
<!-- 0 -->
<g id="node1" class="node">
<title>0</title>
<polygon fill="none" stroke="black" points="156.82,-702.39 94.82,-702.39 94.82,-649.39 156.82,-649.39 156.82,-702.39"/>
<text text-anchor="middle" x="125.82" y="-687.19" font-family="Times,serif" font-size="14.00">[0]</text>
<text text-anchor="middle" x="125.82" y="-672.19" font-family="Times,serif" font-size="14.00">C: 3</text>
<text text-anchor="middle" x="125.82" y="-657.19" font-family="Times,serif" font-size="14.00">T: 100</text>
</g>
<!-- 1 -->
<g id="node2" class="node">
<title>1</title>
<ellipse fill="none" stroke="black" cx="125.82" cy="-586.52" rx="38.37" ry="26.74"/>
<text text-anchor="middle" x="125.82" y="-590.32" font-family="Times,serif" font-size="14.00">[1]</text>
<text text-anchor="middle" x="125.82" y="-575.32" font-family="Times,serif" font-size="14.00">C: 21</text>
</g>
<!-- 0&#45;&gt;1 -->
<g id="edge1" class="edge">
<title>0&#45;&gt;1</title>
<path fill="none" stroke="black" d="M125.82,-649.15C125.82,-641.21 125.82,-632.31 125.82,-623.79"/>
<polygon fill="black" stroke="black" points="129.32,-623.69 125.82,-613.69 122.32,-623.69 129.32,-623.69"/>
</g>
<!-- 2 -->
<g id="node3" class="node">
<title>2</title>
<ellipse fill="none" stroke="black" cx="125.82" cy="-496.78" rx="31.64" ry="26.74"/>
<text text-anchor="middle" x="125.82" y="-500.58" font-family="Times,serif" font-size="14.00">[2]</text>
<text text-anchor="middle" x="125.82" y="-485.58" font-family="Times,serif" font-size="14.00">C: 1</text>
</g>
<!-- 1&#45;&gt;2 -->
<g id="edge2" class="edge">
<title>1&#45;&gt;2</title>
<path fill="none" stroke="black" d="M125.82,-559.2C125.82,-551.23 125.82,-542.34 125.82,-533.85"/>
<polygon fill="black" stroke="black" points="129.32,-533.79 125.82,-523.79 122.32,-533.79 129.32,-533.79"/>
</g>
<!-- 3 -->
<g id="node4" class="node">
<title>3</title>
<ellipse fill="none" stroke="black" cx="125.82" cy="-407.04" rx="38.37" ry="26.74"/>
<text text-anchor="middle" x="125.82" y="-410.84" font-family="Times,serif" font-size="14.00">[3]</text>
<text text-anchor="middle" x="125.82" y="-395.84" font-family="Times,serif" font-size="14.00">C: 90</text>
</g>
<!-- 2&#45;&gt;3 -->
<g id="edge3" class="edge">
<title>2&#45;&gt;3</title>
<path fill="none" stroke="black" d="M125.82,-469.46C125.82,-461.49 125.82,-452.6 125.82,-444.11"/>
<polygon fill="black" stroke="black" points="129.32,-444.05 125.82,-434.05 122.32,-444.05 129.32,-444.05"/>
</g>
<!-- 4 -->
<g id="node5" class="node">
<title>4</title>
<ellipse fill="none" stroke="black" cx="125.82" cy="-317.3" rx="31.64" ry="26.74"/>
<text text-anchor="middle" x="125.82" y="-321.1" font-family="Times,serif" font-size="14.00">[4]</text>
<text text-anchor="middle" x="125.82" y="-306.1" font-family="Times,serif" font-size="14.00">C: 5</text>
</g>
<!-- 3&#45;&gt;4 -->
<g id="edge4" class="edge">
<title>3&#45;&gt;4</title>
<path fill="none" stroke="black" d="M125.82,-379.72C125.82,-371.75 125.82,-362.86 125.82,-354.37"/>
<polygon fill="black" stroke="black" points="129.32,-354.31 125.82,-344.31 122.32,-354.31 129.32,-354.31"/>
</g>
<!-- 5 -->
<g id="node6" class="node">
<title>5</title>
<ellipse fill="none" stroke="black" cx="48.82" cy="-227.56" rx="31.64" ry="26.74"/>
<text text-anchor="middle" x="48.82" y="-231.36" font-family="Times,serif" font-size="14.00">[5]</text>
<text text-anchor="middle" x="48.82" y="-216.36" font-family="Times,serif" font-size="14.00">C: 6</text>
</g>
<!-- 4&#45;&gt;5 -->
<g id="edge5" class="edge">
<title>4&#45;&gt;5</title>
<path fill="none" stroke="black" d="M107.18,-295.06C97.25,-283.75 84.89,-269.67 74.11,-257.38"/>
<polygon fill="black" stroke="black" points="76.51,-254.81 67.29,-249.61 71.25,-259.43 76.51,-254.81"/>
</g>
<!-- 7 -->
<g id="node8" class="node">
<title>7</title>
<ellipse fill="none" stroke="black" cx="125.82" cy="-137.82" rx="44.6" ry="26.74"/>
<text text-anchor="middle" x="125.82" y="-141.62" font-family="Times,serif" font-size="14.00">[7]</text>
<text text-anchor="middle" x="125.82" y="-126.62" font-family="Times,serif" font-size="14.00">C: 159</text>
</g>
<!-- 4&#45;&gt;7 -->
<g id="edge6" class="edge">
<title>4&#45;&gt;7</title>
<path fill="none" stroke="black" d="M125.82,-290.12C125.82,-259.62 125.82,-209.07 125.82,-174.88"/>
<polygon fill="black" stroke="black" points="129.32,-174.83 125.82,-164.83 122.32,-174.83 129.32,-174.83"/>
</g>
<!-- 9 -->
<g id="node10" class="node">
<title>9</title>
<ellipse fill="none" stroke="black" cx="205.82" cy="-227.56" rx="38.37" ry="26.74"/>
<text text-anchor="middle" x="205.82" y="-231.36" font-family="Times,serif" font-size="14.00">[9]</text>
<text text-anchor="middle" x="205.82" y="-216.36" font-family="Times,serif" font-size="14.00">C: 10</text>
</g>
<!-- 4&#45;&gt;9 -->
<g id="edge7" class="edge">
<title>4&#45;&gt;9</title>
<path fill="none" stroke="black" d="M144.78,-295.51C154.86,-284.45 167.44,-270.66 178.55,-258.47"/>
<polygon fill="black" stroke="black" points="181.45,-260.49 185.6,-250.74 176.27,-255.77 181.45,-260.49"/>
</g>
<!-- 6 -->
<g id="node7" class="node">
<title>6</title>
<ellipse fill="none" stroke="black" cx="31.82" cy="-137.82" rx="31.64" ry="26.74"/>
<text text-anchor="middle" x="31.82" y="-141.62" font-family="Times,serif" font-size="14.00">[6]</text>
<text text-anchor="middle" x="31.82" y="-126.62" font-family="Times,serif" font-size="14.00">C: 2</text>
</g>
<!-- 5&#45;&gt;6 -->
<g id="edge8" class="edge">
<title>5&#45;&gt;6</title>
<path fill="none" stroke="black" d="M43.81,-200.71C42.22,-192.5 40.43,-183.27 38.73,-174.5"/>
<polygon fill="black" stroke="black" points="42.13,-173.64 36.79,-164.49 35.26,-174.97 42.13,-173.64"/>
</g>
<!-- 8 -->
<g id="node9" class="node">
<title>8</title>
<ellipse fill="none" stroke="black" stroke-width="2" cx="125.82" cy="-37.48" rx="45.01" ry="37.45"/>
<text text-anchor="middle" x="125.82" y="-48.78" font-family="Times,serif" font-size="14.00">[8]</text>
<text text-anchor="middle" x="125.82" y="-33.78" font-family="Times,serif" font-size="14.00">C: 5</text>
<text text-anchor="middle" x="125.82" y="-18.78" font-family="Times,serif" font-size="14.00">D: 397</text>
</g>
<!-- 6&#45;&gt;8 -->
<g id="edge9" class="edge">
<title>6&#45;&gt;8</title>
<path fill="none" stroke="black" d="M51.3,-116.45C62.73,-104.48 77.52,-89.01 90.91,-75"/>
<polygon fill="black" stroke="black" points="93.79,-77.05 98.17,-67.41 88.73,-72.22 93.79,-77.05"/>
</g>
<!-- 7&#45;&gt;8 -->
<g id="edge10" class="edge">
<title>7&#45;&gt;8</title>
<path fill="none" stroke="black" d="M125.82,-110.73C125.82,-102.87 125.82,-94.01 125.82,-85.24"/>
<polygon fill="black" stroke="black" points="129.32,-85.06 125.82,-75.06 122.32,-85.06 129.32,-85.06"/>
</g>
<!-- 10 -->
<g id="node11" class="node">
<title>10</title>
<ellipse fill="none" stroke="black" cx="219.82" cy="-137.82" rx="31.64" ry="26.74"/>
<text text-anchor="middle" x="219.82" y="-141.62" font-family="Times,serif" font-size="14.00">[10]</text>
<text text-anchor="middle" x="219.82" y="-126.62" font-family="Times,serif" font-size="14.00">C: 8</text>
</g>
<!-- 9&#45;&gt;10 -->
<g id="edge11" class="edge">
<title>9&#45;&gt;10</title>
<path fill="none" stroke="black" d="M209.94,-200.71C211.25,-192.5 212.73,-183.27 214.13,-174.5"/>
<polygon fill="black" stroke="black" points="217.61,-174.92 215.72,-164.49 210.69,-173.81 217.61,-174.92"/>
</g>
<!-- 10&#45;&gt;8 -->
<g id="edge12" class="edge">
<title>10&#45;&gt;8</title>
<path fill="none" stroke="black" d="M200.34,-116.45C188.91,-104.48 174.12,-89.01 160.73,-75"/>
<polygon fill="black" stroke="black" points="162.91,-72.22 153.47,-67.41 157.85,-77.05 162.91,-72.22"/>
</g>
</g>
</svg>
