<?xml version="1.0" encoding="UTF-8" standalone="no"?>
<!DOCTYPE svg PUBLIC "-//W3C//DTD SVG 1.1//EN"
 "http://www.w3.org/Graphics/SVG/1.1/DTD/svg11.dtd">
<!-- Generated by graphviz version 2.43.0 (0)
 -->
<!-- Title: %3 Pages: 1 -->
<svg width="248pt" height="710pt"
 viewBox="0.00 0.00 248.00 710.39" xmlns="http://www.w3.org/2000/svg" xmlns:xlink="http://www.w3.org/1999/xlink">
<g id="graph0" class="graph" transform="scale(1 1) rotate(0) translate(4 706.39)">
<title>%3</title>
<polygon fill="white" stroke="transparent" points="-4,4 -4,-706.39 244,-706.39 244,4 -4,4"/>
<!-- 0 -->
<g id="node1" class="node">
<title>0</title>
<polygon fill="none" stroke="black" points="184.82,-702.39 130.82,-702.39 130.82,-649.39 184.82,-649.39 184.82,-702.39"/>
<text text-anchor="middle" x="157.82" y="-687.19" font-family="Times,serif" font-size="14.00">[0]</text>
<text text-anchor="middle" x="157.82" y="-672.19" font-family="Times,serif" font-size="14.00">C: 2</text>
<text text-anchor="middle" x="157.82" y="-657.19" font-family="Times,serif" font-size="14.00">T: 50</text>
</g>
<!-- 1 -->
<g id="node2" class="node">
<title>1</title>
<ellipse fill="none" stroke="black" cx="157.82" cy="-586.52" rx="31.64" ry="26.74"/>
<text text-anchor="middle" x="157.82" y="-590.32" font-family="Times,serif" font-size="14.00">[1]</text>
<text text-anchor="middle" x="157.82" y="-575.32" font-family="Times,serif" font-size="14.00">C: 1</text>
</g>
<!-- 0&#45;&gt;1 -->
<g id="edge1" class="edge">
<title>0&#45;&gt;1</title>
<path fill="none" stroke="black" d="M157.82,-649.15C157.82,-641.21 157.82,-632.31 157.82,-623.79"/>
<polygon fill="black" stroke="black" points="161.32,-623.69 157.82,-613.69 154.32,-623.69 161.32,-623.69"/>
</g>
<!-- 2 -->
<g id="node3" class="node">
<title>2</title>
<ellipse fill="none" stroke="black" cx="113.82" cy="-496.78" rx="38.37" ry="26.74"/>
<text text-anchor="middle" x="113.82" y="-500.58" font-family="Times,serif" font-size="14.00">[2]</text>
<text text-anchor="middle" x="113.82" y="-485.58" font-family="Times,serif" font-size="14.00">C: 81</text>
</g>
<!-- 1&#45;&gt;2 -->
<g id="edge2" class="edge">
<title>1&#45;&gt;2</title>
<path fill="none" stroke="black" d="M145.8,-561.55C141.12,-552.23 135.68,-541.38 130.63,-531.31"/>
<polygon fill="black" stroke="black" points="133.75,-529.71 126.13,-522.34 127.49,-532.85 133.75,-529.71"/>
</g>
<!-- 7 -->
<g id="node8" class="node">
<title>7</title>
<ellipse fill="none" stroke="black" cx="201.82" cy="-496.78" rx="31.64" ry="26.74"/>
<text text-anchor="middle" x="201.82" y="-500.58" font-family="Times,serif" font-size="14.00">[7]</text>
<text text-anchor="middle" x="201.82" y="-485.58" font-family="Times,serif" font-size="14.00">C: 1</text>
</g>
<!-- 1&#45;&gt;7 -->
<g id="edge3" class="edge">
<title>1&#45;&gt;7</title>
<path fill="none" stroke="black" d="M169.84,-561.55C174.6,-552.07 180.14,-541.02 185.26,-530.81"/>
<polygon fill="black" stroke="black" points="188.46,-532.24 189.81,-521.73 182.2,-529.1 188.46,-532.24"/>
</g>
<!-- 3 -->
<g id="node4" class="node">
<title>3</title>
<ellipse fill="none" stroke="black" cx="113.82" cy="-407.04" rx="31.64" ry="26.74"/>
<text text-anchor="middle" x="113.82" y="-410.84" font-family="Times,serif" font-size="14.00">[3]</text>
<text text-anchor="middle" x="113.82" y="-395.84" font-family="Times,serif" font-size="14.00">C: 1</text>
</g>
<!-- 2&#45;&gt;3 -->
<g id="edge4" class="edge">
<title>2&#45;&gt;3</title>
<path fill="none" stroke="black" d="M113.82,-469.46C113.82,-461.49 113.82,-452.6 113.82,-444.11"/>
<polygon fill="black" stroke="black" points="117.32,-444.05 113.82,-434.05 110.32,-444.05 117.32,-444.05"/>
</g>
<!-- 4 -->
<g id="node5" class="node">
<title>4</title>
<ellipse fill="none" stroke="black" cx="31.82" cy="-317.3" rx="31.64" ry="26.74"/>
<text text-anchor="middle" x="31.82" y="-321.1" font-family="Times,serif" font-size="14.00">[4]</text>
<text text-anchor="middle" x="31.82" y="-306.1" font-family="Times,serif" font-size="14.00">C: 2</text>
</g>
<!-- 3&#45;&gt;4 -->
<g id="edge5" class="edge">
<title>3&#45;&gt;4</title>
<path fill="none" stroke="black" d="M94.39,-385.25C83.56,-373.67 69.93,-359.09 58.16,-346.49"/>
<polygon fill="black" stroke="black" points="60.5,-343.86 51.11,-338.95 55.38,-348.64 60.5,-343.86"/>
</g>
<!-- 12 -->
<g id="node13" class="node">
<title>12</title>
<ellipse fill="none" stroke="black" cx="113.82" cy="-317.3" rx="31.64" ry="26.74"/>
<text text-anchor="middle" x="113.82" y="-321.1" font-family="Times,serif" font-size="14.00">[12]</text>
<text text-anchor="middle" x="113.82" y="-306.1" font-family="Times,serif" font-size="14.00">C: 1</text>
</g>
<!-- 3&#45;&gt;12 -->
<g id="edge6" class="edge">
<title>3&#45;&gt;12</title>
<path fill="none" stroke="black" d="M113.82,-379.72C113.82,-371.75 113.82,-362.86 113.82,-354.37"/>
<polygon fill="black" stroke="black" points="117.32,-354.31 113.82,-344.31 110.32,-354.31 117.32,-354.31"/>
</g>
<!-- 5 -->
<g id="node6" class="node">
<title>5</title>
<ellipse fill="none" stroke="black" cx="31.82" cy="-227.56" rx="31.64" ry="26.74"/>
<text text-anchor="middle" x="31.82" y="-231.36" font-family="Times,serif" font-size="14.00">[5]</text>
<text text-anchor="middle" x="31.82" y="-216.36" font-family="Times,serif" font-size="14.00">C: 1</text>
</g>
<!-- 4&#45;&gt;5 -->
<g id="edge7" class="edge">
<title>4&#45;&gt;5</title>
<path fill="none" stroke="black" d="M31.82,-289.98C31.82,-282.01 31.82,-273.12 31.82,-264.63"/>
<polygon fill="black" stroke="black" points="35.32,-264.57 31.82,-254.57 28.32,-264.57 35.32,-264.57"/>
</g>
<!-- 6 -->
<g id="node7" class="node">
<title>6</title>
<ellipse fill="none" stroke="black" cx="31.82" cy="-137.82" rx="31.64" ry="26.74"/>
<text text-anchor="middle" x="31.82" y="-141.62" font-family="Times,serif" font-size="14.00">[6]</text>
<text text-anchor="middle" x="31.82" y="-126.62" font-family="Times,serif" font-size="14.00">C: 3</text>
</g>
<!-- 5&#45;&gt;6 -->
<g id="edge8" class="edge">
<title>5&#45;&gt;6</title>
<path fill="none" stroke="black" d="M31.82,-200.24C31.82,-192.27 31.82,-183.38 31.82,-174.89"/>
<polygon fill="black" stroke="black" points="35.32,-174.83 31.82,-164.83 28.32,-174.83 35.32,-174.83"/>
</g>
<!-- 11 -->
<g id="node12" class="node">
<title>11</title>
<ellipse fill="none" stroke="black" stroke-width="2" cx="113.82" cy="-37.48" rx="45.01" ry="37.45"/>
<text text-anchor="middle" x="113.82" y="-48.78" font-family="Times,serif" font-size="14.00">[11]</text>
<text text-anchor="middle" x="113.82" y="-33.78" font-family="Times,serif" font-size="14.00">C: 23</text>
<text text-anchor="middle" x="113.82" y="-18.78" font-family="Times,serif" font-size="14.00">D: 136</text>
</g>
<!-- 6&#45;&gt;11 -->
<g id="edge9" class="edge">
<title>6&#45;&gt;11</title>
<path fill="none" stroke="black" d="M49.61,-115.48C59.05,-104.16 70.94,-89.91 81.91,-76.75"/>
<polygon fill="black" stroke="black" points="84.88,-78.65 88.6,-68.73 79.5,-74.17 84.88,-78.65"/>
</g>
<!-- 8 -->
<g id="node9" class="node">
<title>8</title>
<ellipse fill="none" stroke="black" cx="201.82" cy="-407.04" rx="38.37" ry="26.74"/>
<text text-anchor="middle" x="201.82" y="-410.84" font-family="Times,serif" font-size="14.00">[8]</text>
<text text-anchor="middle" x="201.82" y="-395.84" font-family="Times,serif" font-size="14.00">C: 15</text>
</g>
<!-- 7&#45;&gt;8 -->
<g id="edge10" class="edge">
<title>7&#45;&gt;8</title>
<path fill="none" stroke="black" d="M201.82,-469.46C201.82,-461.49 201.82,-452.6 201.82,-444.11"/>
<polygon fill="black" stroke="black" points="205.32,-444.05 201.82,-434.05 198.32,-444.05 205.32,-444.05"/>
</g>
<!-- 9 -->
<g id="node10" class="node">
<title>9</title>
<ellipse fill="none" stroke="black" cx="201.82" cy="-317.3" rx="38.37" ry="26.74"/>
<text text-anchor="middle" x="201.82" y="-321.1" font-family="Times,serif" font-size="14.00">[9]</text>
<text text-anchor="middle" x="201.82" y="-306.1" font-family="Times,serif" font-size="14.00">C: 13</text>
</g>
<!-- 8&#45;&gt;9 -->
<g id="edge11" class="edge">
<title>8&#45;&gt;9</title>
<path fill="none" stroke="black" d="M201.82,-379.72C201.82,-371.75 201.82,-362.86 201.82,-354.37"/>
<polygon fill="black" stroke="black" points="205.32,-354.31 201.82,-344.31 198.32,-354.31 205.32,-354.31"/>
</g>
<!-- 10 -->
<g id="node11" class="node">
<title>10</title>
<ellipse fill="none" stroke="black" cx="198.82" cy="-137.82" rx="31.64" ry="26.74"/>
<text text-anchor="middle" x="198.82" y="-141.62" font-family="Times,serif" font-size="14.00">[10]</text>
<text text-anchor="middle" x="198.82" y="-126.62" font-family="Times,serif" font-size="14.00">C: 6</text>
</g>
<!-- 9&#45;&gt;10 -->
<g id="edge12" class="edge">
<title>9&#45;&gt;10</title>
<path fill="none" stroke="black" d="M201.38,-290.12C200.86,-259.62 200.01,-209.07 199.43,-174.88"/>
<polygon fill="black" stroke="black" points="202.93,-174.77 199.26,-164.83 195.93,-174.89 202.93,-174.77"/>
</g>
<!-- 10&#45;&gt;11 -->
<g id="edge13" class="edge">
<title>10&#45;&gt;11</title>
<path fill="none" stroke="black" d="M180.38,-115.48C170.42,-103.96 157.83,-89.4 146.29,-76.04"/>
<polygon fill="black" stroke="black" points="148.83,-73.63 139.64,-68.36 143.53,-78.21 148.83,-73.63"/>
</g>
<!-- 13 -->
<g id="node14" class="node">
<title>13</title>
<ellipse fill="none" stroke="black" cx="113.82" cy="-227.56" rx="31.64" ry="26.74"/>
<text text-anchor="middle" x="113.82" y="-231.36" font-family="Times,serif" font-size="14.00">[13]</text>
<text text-anchor="middle" x="113.82" y="-216.36" font-family="Times,serif" font-size="14.00">C: 3</text>
</g>
<!-- 12&#45;&gt;13 -->
<g id="edge14" class="edge">
<title>12&#45;&gt;13</title>
<path fill="none" stroke="black" d="M113.82,-289.98C113.82,-282.01 113.82,-273.12 113.82,-264.63"/>
<polygon fill="black" stroke="black" points="117.32,-264.57 113.82,-254.57 110.32,-264.57 117.32,-264.57"/>
</g>
<!-- 14 -->
<g id="node15" class="node">
<title>14</title>
<ellipse fill="none" stroke="black" cx="113.82" cy="-137.82" rx="31.64" ry="26.74"/>
<text text-anchor="middle" x="113.82" y="-141.62" font-family="Times,serif" font-size="14.00">[14]</text>
<text text-anchor="middle" x="113.82" y="-126.62" font-family="Times,serif" font-size="14.00">C: 2</text>
</g>
<!-- 13&#45;&gt;14 -->
<g id="edge15" class="edge">
<title>13&#45;&gt;14</title>
<path fill="none" stroke="black" d="M113.82,-200.24C113.82,-192.27 113.82,-183.38 113.82,-174.89"/>
<polygon fill="black" stroke="black" points="117.32,-174.83 113.82,-164.83 110.32,-174.83 117.32,-174.83"/>
</g>
<!-- 14&#45;&gt;11 -->
<g id="edge16" class="edge">
<title>14&#45;&gt;11</title>
<path fill="none" stroke="black" d="M113.82,-110.73C113.82,-102.87 113.82,-94.01 113.82,-85.24"/>
<polygon fill="black" stroke="black" points="117.32,-85.06 113.82,-75.06 110.32,-85.06 117.32,-85.06"/>
</g>
</g>
</svg>
