<?xml version="1.0" encoding="UTF-8" standalone="no"?>
<!DOCTYPE svg PUBLIC "-//W3C//DTD SVG 1.1//EN"
 "http://www.w3.org/Graphics/SVG/1.1/DTD/svg11.dtd">
<!-- Generated by graphviz version 2.43.0 (0)
 -->
<!-- Title: %3 Pages: 1 -->
<svg width="204pt" height="351pt"
 viewBox="0.00 0.00 204.00 351.43" xmlns="http://www.w3.org/2000/svg" xmlns:xlink="http://www.w3.org/1999/xlink">
<g id="graph0" class="graph" transform="scale(1 1) rotate(0) translate(4 347.43)">
<title>%3</title>
<polygon fill="white" stroke="transparent" points="-4,4 -4,-347.43 200,-347.43 200,4 -4,4"/>
<!-- 0 -->
<g id="node1" class="node">
<title>0</title>
<polygon fill="none" stroke="black" points="144.18,-343.43 90.18,-343.43 90.18,-290.43 144.18,-290.43 144.18,-343.43"/>
<text text-anchor="middle" x="117.18" y="-328.23" font-family="Times,serif" font-size="14.00">[0]</text>
<text text-anchor="middle" x="117.18" y="-313.23" font-family="Times,serif" font-size="14.00">C: 6</text>
<text text-anchor="middle" x="117.18" y="-298.23" font-family="Times,serif" font-size="14.00">T: 50</text>
</g>
<!-- 1 -->
<g id="node2" class="node">
<title>1</title>
<ellipse fill="none" stroke="black" cx="70.18" cy="-227.56" rx="44.6" ry="26.74"/>
<text text-anchor="middle" x="70.18" y="-231.36" font-family="Times,serif" font-size="14.00">[1]</text>
<text text-anchor="middle" x="70.18" y="-216.36" font-family="Times,serif" font-size="14.00">C: 101</text>
</g>
<!-- 0&#45;&gt;1 -->
<g id="edge1" class="edge">
<title>0&#45;&gt;1</title>
<path fill="none" stroke="black" d="M103.34,-290.19C98.62,-281.43 93.29,-271.51 88.29,-262.23"/>
<polygon fill="black" stroke="black" points="91.27,-260.37 83.45,-253.22 85.1,-263.69 91.27,-260.37"/>
</g>
<!-- 3 -->
<g id="node4" class="node">
<title>3</title>
<ellipse fill="none" stroke="black" cx="164.18" cy="-227.56" rx="31.64" ry="26.74"/>
<text text-anchor="middle" x="164.18" y="-231.36" font-family="Times,serif" font-size="14.00">[3]</text>
<text text-anchor="middle" x="164.18" y="-216.36" font-family="Times,serif" font-size="14.00">C: 7</text>
</g>
<!-- 0&#45;&gt;3 -->
<g id="edge2" class="edge">
<title>0&#45;&gt;3</title>
<path fill="none" stroke="black" d="M131.03,-290.19C135.91,-281.11 141.47,-270.78 146.62,-261.21"/>
<polygon fill="black" stroke="black" points="149.74,-262.79 151.4,-252.33 143.58,-259.48 149.74,-262.79"/>
</g>
<!-- 2 -->
<g id="node3" class="node">
<title>2</title>
<ellipse fill="none" stroke="black" cx="38.18" cy="-137.82" rx="38.37" ry="26.74"/>
<text text-anchor="middle" x="38.18" y="-141.62" font-family="Times,serif" font-size="14.00">[2]</text>
<text text-anchor="middle" x="38.18" y="-126.62" font-family="Times,serif" font-size="14.00">C: 36</text>
</g>
<!-- 1&#45;&gt;2 -->
<g id="edge3" class="edge">
<title>1&#45;&gt;2</title>
<path fill="none" stroke="black" d="M60.93,-201.19C57.81,-192.64 54.27,-182.94 50.94,-173.79"/>
<polygon fill="black" stroke="black" points="54.13,-172.34 47.42,-164.14 47.56,-174.74 54.13,-172.34"/>
</g>
<!-- 5 -->
<g id="node6" class="node">
<title>5</title>
<ellipse fill="none" stroke="black" stroke-width="2" cx="104.18" cy="-37.48" rx="45.01" ry="37.45"/>
<text text-anchor="middle" x="104.18" y="-48.78" font-family="Times,serif" font-size="14.00">[5]</text>
<text text-anchor="middle" x="104.18" y="-33.78" font-family="Times,serif" font-size="14.00">C: 3</text>
<text text-anchor="middle" x="104.18" y="-18.78" font-family="Times,serif" font-size="14.00">D: 189</text>
</g>
<!-- 1&#45;&gt;5 -->
<g id="edge4" class="edge">
<title>1&#45;&gt;5</title>
<path fill="none" stroke="black" d="M76.97,-200.79C79.75,-189.72 82.84,-176.62 85.18,-164.69 90.33,-138.46 94.84,-108.92 98.18,-85.02"/>
<polygon fill="black" stroke="black" points="101.69,-85.19 99.58,-74.8 94.75,-84.23 101.69,-85.19"/>
</g>
<!-- 2&#45;&gt;5 -->
<g id="edge5" class="edge">
<title>2&#45;&gt;5</title>
<path fill="none" stroke="black" d="M53.99,-113.27C60.87,-103.02 69.12,-90.72 76.93,-79.08"/>
<polygon fill="black" stroke="black" points="79.85,-81.02 82.52,-70.76 74.04,-77.12 79.85,-81.02"/>
</g>
<!-- 4 -->
<g id="node5" class="node">
<title>4</title>
<ellipse fill="none" stroke="black" cx="164.18" cy="-137.82" rx="31.64" ry="26.74"/>
<text text-anchor="middle" x="164.18" y="-141.62" font-family="Times,serif" font-size="14.00">[4]</text>
<text text-anchor="middle" x="164.18" y="-126.62" font-family="Times,serif" font-size="14.00">C: 2</text>
</g>
<!-- 3&#45;&gt;4 -->
<g id="edge6" class="edge">
<title>3&#45;&gt;4</title>
<path fill="none" stroke="black" d="M164.18,-200.24C164.18,-192.27 164.18,-183.38 164.18,-174.89"/>
<polygon fill="black" stroke="black" points="167.68,-174.83 164.18,-164.83 160.68,-174.83 167.68,-174.83"/>
</g>
<!-- 4&#45;&gt;5 -->
<g id="edge7" class="edge">
<title>4&#45;&gt;5</title>
<path fill="none" stroke="black" d="M149.96,-113.52C143.83,-103.47 136.47,-91.4 129.47,-79.92"/>
<polygon fill="black" stroke="black" points="132.4,-78 124.2,-71.29 126.42,-81.65 132.4,-78"/>
</g>
</g>
</svg>
