<?xml version="1.0" encoding="UTF-8" standalone="no"?>
<!DOCTYPE svg PUBLIC "-//W3C//DTD SVG 1.1//EN"
 "http://www.w3.org/Graphics/SVG/1.1/DTD/svg11.dtd">
<!-- Generated by graphviz version 2.43.0 (0)
 -->
<!-- Title: %3 Pages: 1 -->
<svg width="254pt" height="531pt"
 viewBox="0.00 0.00 254.00 530.91" xmlns="http://www.w3.org/2000/svg" xmlns:xlink="http://www.w3.org/1999/xlink">
<g id="graph0" class="graph" transform="scale(1 1) rotate(0) translate(4 526.91)">
<title>%3</title>
<polygon fill="white" stroke="transparent" points="-4,4 -4,-526.91 250,-526.91 250,4 -4,4"/>
<!-- 0 -->
<g id="node1" class="node">
<title>0</title>
<polygon fill="none" stroke="black" points="190.82,-522.91 136.82,-522.91 136.82,-469.91 190.82,-469.91 190.82,-522.91"/>
<text text-anchor="middle" x="163.82" y="-507.71" font-family="Times,serif" font-size="14.00">[0]</text>
<text text-anchor="middle" x="163.82" y="-492.71" font-family="Times,serif" font-size="14.00">C: 88</text>
<text text-anchor="middle" x="163.82" y="-477.71" font-family="Times,serif" font-size="14.00">T: 50</text>
</g>
<!-- 1 -->
<g id="node2" class="node">
<title>1</title>
<ellipse fill="none" stroke="black" cx="163.82" cy="-407.04" rx="31.64" ry="26.74"/>
<text text-anchor="middle" x="163.82" y="-410.84" font-family="Times,serif" font-size="14.00">[1]</text>
<text text-anchor="middle" x="163.82" y="-395.84" font-family="Times,serif" font-size="14.00">C: 3</text>
</g>
<!-- 0&#45;&gt;1 -->
<g id="edge1" class="edge">
<title>0&#45;&gt;1</title>
<path fill="none" stroke="black" d="M163.82,-469.67C163.82,-461.73 163.82,-452.83 163.82,-444.31"/>
<polygon fill="black" stroke="black" points="167.32,-444.21 163.82,-434.21 160.32,-444.21 167.32,-444.21"/>
</g>
<!-- 2 -->
<g id="node3" class="node">
<title>2</title>
<ellipse fill="none" stroke="black" cx="119.82" cy="-317.3" rx="31.64" ry="26.74"/>
<text text-anchor="middle" x="119.82" y="-321.1" font-family="Times,serif" font-size="14.00">[2]</text>
<text text-anchor="middle" x="119.82" y="-306.1" font-family="Times,serif" font-size="14.00">C: 2</text>
</g>
<!-- 1&#45;&gt;2 -->
<g id="edge2" class="edge">
<title>1&#45;&gt;2</title>
<path fill="none" stroke="black" d="M151.8,-382.07C147.04,-372.59 141.5,-361.54 136.38,-351.33"/>
<polygon fill="black" stroke="black" points="139.44,-349.62 131.83,-342.25 133.18,-352.76 139.44,-349.62"/>
</g>
<!-- 7 -->
<g id="node8" class="node">
<title>7</title>
<ellipse fill="none" stroke="black" cx="207.82" cy="-317.3" rx="38.37" ry="26.74"/>
<text text-anchor="middle" x="207.82" y="-321.1" font-family="Times,serif" font-size="14.00">[7]</text>
<text text-anchor="middle" x="207.82" y="-306.1" font-family="Times,serif" font-size="14.00">C: 15</text>
</g>
<!-- 1&#45;&gt;7 -->
<g id="edge3" class="edge">
<title>1&#45;&gt;7</title>
<path fill="none" stroke="black" d="M175.84,-382.07C180.52,-372.75 185.96,-361.9 191.01,-351.83"/>
<polygon fill="black" stroke="black" points="194.15,-353.37 195.5,-342.86 187.89,-350.23 194.15,-353.37"/>
</g>
<!-- 3 -->
<g id="node4" class="node">
<title>3</title>
<ellipse fill="none" stroke="black" cx="45.82" cy="-227.56" rx="31.64" ry="26.74"/>
<text text-anchor="middle" x="45.82" y="-231.36" font-family="Times,serif" font-size="14.00">[3]</text>
<text text-anchor="middle" x="45.82" y="-216.36" font-family="Times,serif" font-size="14.00">C: 1</text>
</g>
<!-- 2&#45;&gt;3 -->
<g id="edge4" class="edge">
<title>2&#45;&gt;3</title>
<path fill="none" stroke="black" d="M101.91,-295.06C92.43,-283.83 80.66,-269.87 70.35,-257.65"/>
<polygon fill="black" stroke="black" points="72.95,-255.3 63.82,-249.91 67.6,-259.81 72.95,-255.3"/>
</g>
<!-- 5 -->
<g id="node6" class="node">
<title>5</title>
<ellipse fill="none" stroke="black" cx="119.82" cy="-137.82" rx="38.37" ry="26.74"/>
<text text-anchor="middle" x="119.82" y="-141.62" font-family="Times,serif" font-size="14.00">[5]</text>
<text text-anchor="middle" x="119.82" y="-126.62" font-family="Times,serif" font-size="14.00">C: 14</text>
</g>
<!-- 2&#45;&gt;5 -->
<g id="edge5" class="edge">
<title>2&#45;&gt;5</title>
<path fill="none" stroke="black" d="M119.82,-290.12C119.82,-259.62 119.82,-209.07 119.82,-174.88"/>
<polygon fill="black" stroke="black" points="123.32,-174.83 119.82,-164.83 116.32,-174.83 123.32,-174.83"/>
</g>
<!-- 4 -->
<g id="node5" class="node">
<title>4</title>
<ellipse fill="none" stroke="black" cx="31.82" cy="-137.82" rx="31.64" ry="26.74"/>
<text text-anchor="middle" x="31.82" y="-141.62" font-family="Times,serif" font-size="14.00">[4]</text>
<text text-anchor="middle" x="31.82" y="-126.62" font-family="Times,serif" font-size="14.00">C: 1</text>
</g>
<!-- 3&#45;&gt;4 -->
<g id="edge6" class="edge">
<title>3&#45;&gt;4</title>
<path fill="none" stroke="black" d="M41.7,-200.71C40.38,-192.5 38.91,-183.27 37.51,-174.5"/>
<polygon fill="black" stroke="black" points="40.95,-173.81 35.92,-164.49 34.03,-174.92 40.95,-173.81"/>
</g>
<!-- 6 -->
<g id="node7" class="node">
<title>6</title>
<ellipse fill="none" stroke="black" stroke-width="2" cx="119.82" cy="-37.48" rx="45.01" ry="37.45"/>
<text text-anchor="middle" x="119.82" y="-48.78" font-family="Times,serif" font-size="14.00">[6]</text>
<text text-anchor="middle" x="119.82" y="-33.78" font-family="Times,serif" font-size="14.00">C: 28</text>
<text text-anchor="middle" x="119.82" y="-18.78" font-family="Times,serif" font-size="14.00">D: 205</text>
</g>
<!-- 4&#45;&gt;6 -->
<g id="edge7" class="edge">
<title>4&#45;&gt;6</title>
<path fill="none" stroke="black" d="M50.48,-115.97C60.86,-104.37 74.08,-89.59 86.2,-76.05"/>
<polygon fill="black" stroke="black" points="89.11,-78.05 93.17,-68.26 83.89,-73.38 89.11,-78.05"/>
</g>
<!-- 5&#45;&gt;6 -->
<g id="edge8" class="edge">
<title>5&#45;&gt;6</title>
<path fill="none" stroke="black" d="M119.82,-110.73C119.82,-102.87 119.82,-94.01 119.82,-85.24"/>
<polygon fill="black" stroke="black" points="123.32,-85.06 119.82,-75.06 116.32,-85.06 123.32,-85.06"/>
</g>
<!-- 8 -->
<g id="node9" class="node">
<title>8</title>
<ellipse fill="none" stroke="black" cx="207.82" cy="-227.56" rx="31.64" ry="26.74"/>
<text text-anchor="middle" x="207.82" y="-231.36" font-family="Times,serif" font-size="14.00">[8]</text>
<text text-anchor="middle" x="207.82" y="-216.36" font-family="Times,serif" font-size="14.00">C: 1</text>
</g>
<!-- 7&#45;&gt;8 -->
<g id="edge9" class="edge">
<title>7&#45;&gt;8</title>
<path fill="none" stroke="black" d="M207.82,-289.98C207.82,-282.01 207.82,-273.12 207.82,-264.63"/>
<polygon fill="black" stroke="black" points="211.32,-264.57 207.82,-254.57 204.32,-264.57 211.32,-264.57"/>
</g>
<!-- 9 -->
<g id="node10" class="node">
<title>9</title>
<ellipse fill="none" stroke="black" cx="207.82" cy="-137.82" rx="31.64" ry="26.74"/>
<text text-anchor="middle" x="207.82" y="-141.62" font-family="Times,serif" font-size="14.00">[9]</text>
<text text-anchor="middle" x="207.82" y="-126.62" font-family="Times,serif" font-size="14.00">C: 2</text>
</g>
<!-- 8&#45;&gt;9 -->
<g id="edge10" class="edge">
<title>8&#45;&gt;9</title>
<path fill="none" stroke="black" d="M207.82,-200.24C207.82,-192.27 207.82,-183.38 207.82,-174.89"/>
<polygon fill="black" stroke="black" points="211.32,-174.83 207.82,-164.83 204.32,-174.83 211.32,-174.83"/>
</g>
<!-- 9&#45;&gt;6 -->
<g id="edge11" class="edge">
<title>9&#45;&gt;6</title>
<path fill="none" stroke="black" d="M189.16,-115.97C178.78,-104.37 165.56,-89.59 153.44,-76.05"/>
<polygon fill="black" stroke="black" points="155.75,-73.38 146.47,-68.26 150.53,-78.05 155.75,-73.38"/>
</g>
</g>
</svg>
