<?xml version="1.0" encoding="UTF-8" standalone="no"?>
<!DOCTYPE svg PUBLIC "-//W3C//DTD SVG 1.1//EN"
 "http://www.w3.org/Graphics/SVG/1.1/DTD/svg11.dtd">
<!-- Generated by graphviz version 2.43.0 (0)
 -->
<!-- Title: %3 Pages: 1 -->
<svg width="186pt" height="531pt"
 viewBox="0.00 0.00 186.32 530.91" xmlns="http://www.w3.org/2000/svg" xmlns:xlink="http://www.w3.org/1999/xlink">
<g id="graph0" class="graph" transform="scale(1 1) rotate(0) translate(4 526.91)">
<title>%3</title>
<polygon fill="white" stroke="transparent" points="-4,4 -4,-526.91 182.32,-526.91 182.32,4 -4,4"/>
<!-- 0 -->
<g id="node1" class="node">
<title>0</title>
<polygon fill="none" stroke="black" points="124.14,-522.91 62.14,-522.91 62.14,-469.91 124.14,-469.91 124.14,-522.91"/>
<text text-anchor="middle" x="93.14" y="-507.71" font-family="Times,serif" font-size="14.00">[0]</text>
<text text-anchor="middle" x="93.14" y="-492.71" font-family="Times,serif" font-size="14.00">C: 12</text>
<text text-anchor="middle" x="93.14" y="-477.71" font-family="Times,serif" font-size="14.00">T: 100</text>
</g>
<!-- 1 -->
<g id="node2" class="node">
<title>1</title>
<ellipse fill="none" stroke="black" cx="93.14" cy="-407.04" rx="44.6" ry="26.74"/>
<text text-anchor="middle" x="93.14" y="-410.84" font-family="Times,serif" font-size="14.00">[1]</text>
<text text-anchor="middle" x="93.14" y="-395.84" font-family="Times,serif" font-size="14.00">C: 122</text>
</g>
<!-- 0&#45;&gt;1 -->
<g id="edge1" class="edge">
<title>0&#45;&gt;1</title>
<path fill="none" stroke="black" d="M93.14,-469.67C93.14,-461.73 93.14,-452.83 93.14,-444.31"/>
<polygon fill="black" stroke="black" points="96.64,-444.21 93.14,-434.21 89.64,-444.21 96.64,-444.21"/>
</g>
<!-- 2 -->
<g id="node3" class="node">
<title>2</title>
<ellipse fill="none" stroke="black" cx="93.14" cy="-317.3" rx="38.37" ry="26.74"/>
<text text-anchor="middle" x="93.14" y="-321.1" font-family="Times,serif" font-size="14.00">[2]</text>
<text text-anchor="middle" x="93.14" y="-306.1" font-family="Times,serif" font-size="14.00">C: 13</text>
</g>
<!-- 1&#45;&gt;2 -->
<g id="edge2" class="edge">
<title>1&#45;&gt;2</title>
<path fill="none" stroke="black" d="M93.14,-379.72C93.14,-371.75 93.14,-362.86 93.14,-354.37"/>
<polygon fill="black" stroke="black" points="96.64,-354.31 93.14,-344.31 89.64,-354.31 96.64,-354.31"/>
</g>
<!-- 3 -->
<g id="node4" class="node">
<title>3</title>
<ellipse fill="none" stroke="black" cx="46.14" cy="-227.56" rx="38.37" ry="26.74"/>
<text text-anchor="middle" x="46.14" y="-231.36" font-family="Times,serif" font-size="14.00">[3]</text>
<text text-anchor="middle" x="46.14" y="-216.36" font-family="Times,serif" font-size="14.00">C: 11</text>
</g>
<!-- 2&#45;&gt;3 -->
<g id="edge3" class="edge">
<title>2&#45;&gt;3</title>
<path fill="none" stroke="black" d="M80.05,-291.86C75.06,-282.55 69.28,-271.76 63.93,-261.77"/>
<polygon fill="black" stroke="black" points="66.97,-260.04 59.16,-252.87 60.8,-263.34 66.97,-260.04"/>
</g>
<!-- 5 -->
<g id="node6" class="node">
<title>5</title>
<ellipse fill="none" stroke="black" cx="140.14" cy="-227.56" rx="38.37" ry="26.74"/>
<text text-anchor="middle" x="140.14" y="-231.36" font-family="Times,serif" font-size="14.00">[5]</text>
<text text-anchor="middle" x="140.14" y="-216.36" font-family="Times,serif" font-size="14.00">C: 94</text>
</g>
<!-- 2&#45;&gt;5 -->
<g id="edge4" class="edge">
<title>2&#45;&gt;5</title>
<path fill="none" stroke="black" d="M106.23,-291.86C111.22,-282.55 117,-271.76 122.35,-261.77"/>
<polygon fill="black" stroke="black" points="125.48,-263.34 127.12,-252.87 119.31,-260.04 125.48,-263.34"/>
</g>
<!-- 4 -->
<g id="node5" class="node">
<title>4</title>
<ellipse fill="none" stroke="black" stroke-width="2" cx="52.14" cy="-37.48" rx="45.01" ry="37.45"/>
<text text-anchor="middle" x="52.14" y="-48.78" font-family="Times,serif" font-size="14.00">[4]</text>
<text text-anchor="middle" x="52.14" y="-33.78" font-family="Times,serif" font-size="14.00">C: 26</text>
<text text-anchor="middle" x="52.14" y="-18.78" font-family="Times,serif" font-size="14.00">D: 322</text>
</g>
<!-- 3&#45;&gt;4 -->
<g id="edge5" class="edge">
<title>3&#45;&gt;4</title>
<path fill="none" stroke="black" d="M26.63,-204.13C18.27,-193.05 9.45,-179.01 5.14,-164.69 -1.75,-141.82 -1.64,-133.86 5.14,-110.95 8.6,-99.27 14.59,-87.7 21.17,-77.35"/>
<polygon fill="black" stroke="black" points="24.13,-79.23 26.79,-68.97 18.31,-75.33 24.13,-79.23"/>
</g>
<!-- 7 -->
<g id="node8" class="node">
<title>7</title>
<ellipse fill="none" stroke="black" cx="52.14" cy="-137.82" rx="38.37" ry="26.74"/>
<text text-anchor="middle" x="52.14" y="-141.62" font-family="Times,serif" font-size="14.00">[7]</text>
<text text-anchor="middle" x="52.14" y="-126.62" font-family="Times,serif" font-size="14.00">C: 30</text>
</g>
<!-- 3&#45;&gt;7 -->
<g id="edge6" class="edge">
<title>3&#45;&gt;7</title>
<path fill="none" stroke="black" d="M47.91,-200.71C48.46,-192.66 49.07,-183.63 49.66,-175.01"/>
<polygon fill="black" stroke="black" points="53.17,-175.01 50.36,-164.79 46.19,-174.53 53.17,-175.01"/>
</g>
<!-- 6 -->
<g id="node7" class="node">
<title>6</title>
<ellipse fill="none" stroke="black" cx="140.14" cy="-137.82" rx="31.64" ry="26.74"/>
<text text-anchor="middle" x="140.14" y="-141.62" font-family="Times,serif" font-size="14.00">[6]</text>
<text text-anchor="middle" x="140.14" y="-126.62" font-family="Times,serif" font-size="14.00">C: 2</text>
</g>
<!-- 5&#45;&gt;6 -->
<g id="edge7" class="edge">
<title>5&#45;&gt;6</title>
<path fill="none" stroke="black" d="M140.14,-200.24C140.14,-192.27 140.14,-183.38 140.14,-174.89"/>
<polygon fill="black" stroke="black" points="143.64,-174.83 140.14,-164.83 136.64,-174.83 143.64,-174.83"/>
</g>
<!-- 6&#45;&gt;4 -->
<g id="edge8" class="edge">
<title>6&#45;&gt;4</title>
<path fill="none" stroke="black" d="M121.48,-115.97C111.1,-104.37 97.88,-89.59 85.76,-76.05"/>
<polygon fill="black" stroke="black" points="88.06,-73.38 78.79,-68.26 82.85,-78.05 88.06,-73.38"/>
</g>
<!-- 7&#45;&gt;4 -->
<g id="edge9" class="edge">
<title>7&#45;&gt;4</title>
<path fill="none" stroke="black" d="M52.14,-110.73C52.14,-102.87 52.14,-94.01 52.14,-85.24"/>
<polygon fill="black" stroke="black" points="55.64,-85.06 52.14,-75.06 48.64,-85.06 55.64,-85.06"/>
</g>
</g>
</svg>
