<?xml version="1.0" encoding="UTF-8" standalone="no"?>
<!DOCTYPE svg PUBLIC "-//W3C//DTD SVG 1.1//EN"
 "http://www.w3.org/Graphics/SVG/1.1/DTD/svg11.dtd">
<!-- Generated by graphviz version 2.43.0 (0)
 -->
<!-- Title: %3 Pages: 1 -->
<svg width="265pt" height="351pt"
 viewBox="0.00 0.00 264.73 351.43" xmlns="http://www.w3.org/2000/svg" xmlns:xlink="http://www.w3.org/1999/xlink">
<g id="graph0" class="graph" transform="scale(1 1) rotate(0) translate(4 347.43)">
<title>%3</title>
<polygon fill="white" stroke="transparent" points="-4,4 -4,-347.43 260.73,-347.43 260.73,4 -4,4"/>
<!-- 0 -->
<g id="node1" class="node">
<title>0</title>
<polygon fill="none" stroke="black" points="196.18,-343.43 134.18,-343.43 134.18,-290.43 196.18,-290.43 196.18,-343.43"/>
<text text-anchor="middle" x="165.18" y="-328.23" font-family="Times,serif" font-size="14.00">[0]</text>
<text text-anchor="middle" x="165.18" y="-313.23" font-family="Times,serif" font-size="14.00">C: 7</text>
<text text-anchor="middle" x="165.18" y="-298.23" font-family="Times,serif" font-size="14.00">T: 100</text>
</g>
<!-- 1 -->
<g id="node2" class="node">
<title>1</title>
<ellipse fill="none" stroke="black" cx="118.18" cy="-227.56" rx="31.64" ry="26.74"/>
<text text-anchor="middle" x="118.18" y="-231.36" font-family="Times,serif" font-size="14.00">[1]</text>
<text text-anchor="middle" x="118.18" y="-216.36" font-family="Times,serif" font-size="14.00">C: 7</text>
</g>
<!-- 0&#45;&gt;1 -->
<g id="edge1" class="edge">
<title>0&#45;&gt;1</title>
<path fill="none" stroke="black" d="M151.34,-290.19C146.45,-281.11 140.9,-270.78 135.75,-261.21"/>
<polygon fill="black" stroke="black" points="138.79,-259.48 130.97,-252.33 132.62,-262.79 138.79,-259.48"/>
</g>
<!-- 3 -->
<g id="node4" class="node">
<title>3</title>
<ellipse fill="none" stroke="black" cx="212.18" cy="-227.56" rx="44.6" ry="26.74"/>
<text text-anchor="middle" x="212.18" y="-231.36" font-family="Times,serif" font-size="14.00">[3]</text>
<text text-anchor="middle" x="212.18" y="-216.36" font-family="Times,serif" font-size="14.00">C: 126</text>
</g>
<!-- 0&#45;&gt;3 -->
<g id="edge2" class="edge">
<title>0&#45;&gt;3</title>
<path fill="none" stroke="black" d="M179.03,-290.19C183.74,-281.43 189.08,-271.51 194.08,-262.23"/>
<polygon fill="black" stroke="black" points="197.26,-263.69 198.92,-253.22 191.1,-260.37 197.26,-263.69"/>
</g>
<!-- 2 -->
<g id="node3" class="node">
<title>2</title>
<ellipse fill="none" stroke="black" cx="38.18" cy="-137.82" rx="38.37" ry="26.74"/>
<text text-anchor="middle" x="38.18" y="-141.62" font-family="Times,serif" font-size="14.00">[2]</text>
<text text-anchor="middle" x="38.18" y="-126.62" font-family="Times,serif" font-size="14.00">C: 21</text>
</g>
<!-- 1&#45;&gt;2 -->
<g id="edge3" class="edge">
<title>1&#45;&gt;2</title>
<path fill="none" stroke="black" d="M99.22,-205.77C89.14,-194.71 76.57,-180.92 65.46,-168.73"/>
<polygon fill="black" stroke="black" points="67.73,-166.03 58.41,-161 62.56,-170.75 67.73,-166.03"/>
</g>
<!-- 5 -->
<g id="node6" class="node">
<title>5</title>
<ellipse fill="none" stroke="black" cx="139.18" cy="-137.82" rx="44.6" ry="26.74"/>
<text text-anchor="middle" x="139.18" y="-141.62" font-family="Times,serif" font-size="14.00">[5]</text>
<text text-anchor="middle" x="139.18" y="-126.62" font-family="Times,serif" font-size="14.00">C: 102</text>
</g>
<!-- 1&#45;&gt;5 -->
<g id="edge4" class="edge">
<title>1&#45;&gt;5</title>
<path fill="none" stroke="black" d="M124.26,-201.19C126.26,-192.8 128.54,-183.31 130.69,-174.32"/>
<polygon fill="black" stroke="black" points="134.13,-174.99 133.05,-164.45 127.32,-173.36 134.13,-174.99"/>
</g>
<!-- 4 -->
<g id="node5" class="node">
<title>4</title>
<ellipse fill="none" stroke="black" stroke-width="2" cx="139.18" cy="-37.48" rx="45.01" ry="37.45"/>
<text text-anchor="middle" x="139.18" y="-48.78" font-family="Times,serif" font-size="14.00">[4]</text>
<text text-anchor="middle" x="139.18" y="-33.78" font-family="Times,serif" font-size="14.00">C: 7</text>
<text text-anchor="middle" x="139.18" y="-18.78" font-family="Times,serif" font-size="14.00">D: 168</text>
</g>
<!-- 2&#45;&gt;4 -->
<g id="edge5" class="edge">
<title>2&#45;&gt;4</title>
<path fill="none" stroke="black" d="M60.1,-115.48C72.65,-103.26 88.71,-87.63 103.07,-73.64"/>
<polygon fill="black" stroke="black" points="105.68,-75.98 110.4,-66.5 100.8,-70.97 105.68,-75.98"/>
</g>
<!-- 3&#45;&gt;4 -->
<g id="edge6" class="edge">
<title>3&#45;&gt;4</title>
<path fill="none" stroke="black" d="M211.4,-200.33C209.87,-176.23 205.51,-139.97 193.18,-110.95 187.95,-98.64 180.22,-86.49 172.22,-75.76"/>
<polygon fill="black" stroke="black" points="174.99,-73.61 166.1,-67.85 169.46,-77.9 174.99,-73.61"/>
</g>
<!-- 5&#45;&gt;4 -->
<g id="edge7" class="edge">
<title>5&#45;&gt;4</title>
<path fill="none" stroke="black" d="M139.18,-110.73C139.18,-102.87 139.18,-94.01 139.18,-85.24"/>
<polygon fill="black" stroke="black" points="142.68,-85.06 139.18,-75.06 135.68,-85.06 142.68,-85.06"/>
</g>
</g>
</svg>
