<?xml version="1.0" encoding="UTF-8" standalone="no"?>
<!DOCTYPE svg PUBLIC "-//W3C//DTD SVG 1.1//EN"
 "http://www.w3.org/Graphics/SVG/1.1/DTD/svg11.dtd">
<!-- Generated by graphviz version 2.43.0 (0)
 -->
<!-- Title: %3 Pages: 1 -->
<svg width="216pt" height="441pt"
 viewBox="0.00 0.00 216.37 441.17" xmlns="http://www.w3.org/2000/svg" xmlns:xlink="http://www.w3.org/1999/xlink">
<g id="graph0" class="graph" transform="scale(1 1) rotate(0) translate(4 437.17)">
<title>%3</title>
<polygon fill="white" stroke="transparent" points="-4,4 -4,-437.17 212.37,-437.17 212.37,4 -4,4"/>
<!-- 0 -->
<g id="node1" class="node">
<title>0</title>
<polygon fill="none" stroke="black" points="154.18,-433.17 92.18,-433.17 92.18,-380.17 154.18,-380.17 154.18,-433.17"/>
<text text-anchor="middle" x="123.18" y="-417.97" font-family="Times,serif" font-size="14.00">[0]</text>
<text text-anchor="middle" x="123.18" y="-402.97" font-family="Times,serif" font-size="14.00">C: 96</text>
<text text-anchor="middle" x="123.18" y="-387.97" font-family="Times,serif" font-size="14.00">T: 100</text>
</g>
<!-- 1 -->
<g id="node2" class="node">
<title>1</title>
<ellipse fill="none" stroke="black" cx="82.18" cy="-317.3" rx="31.64" ry="26.74"/>
<text text-anchor="middle" x="82.18" y="-321.1" font-family="Times,serif" font-size="14.00">[1]</text>
<text text-anchor="middle" x="82.18" y="-306.1" font-family="Times,serif" font-size="14.00">C: 8</text>
</g>
<!-- 0&#45;&gt;1 -->
<g id="edge1" class="edge">
<title>0&#45;&gt;1</title>
<path fill="none" stroke="black" d="M111.1,-379.93C106.96,-371.1 102.26,-361.08 97.87,-351.73"/>
<polygon fill="black" stroke="black" points="101.03,-350.23 93.61,-342.66 94.69,-353.2 101.03,-350.23"/>
</g>
<!-- 4 -->
<g id="node5" class="node">
<title>4</title>
<ellipse fill="none" stroke="black" cx="167.18" cy="-317.3" rx="31.64" ry="26.74"/>
<text text-anchor="middle" x="167.18" y="-321.1" font-family="Times,serif" font-size="14.00">[4]</text>
<text text-anchor="middle" x="167.18" y="-306.1" font-family="Times,serif" font-size="14.00">C: 5</text>
</g>
<!-- 0&#45;&gt;4 -->
<g id="edge2" class="edge">
<title>0&#45;&gt;4</title>
<path fill="none" stroke="black" d="M136.15,-379.93C140.63,-371.02 145.73,-360.91 150.47,-351.49"/>
<polygon fill="black" stroke="black" points="153.69,-352.87 155.07,-342.37 147.44,-349.72 153.69,-352.87"/>
</g>
<!-- 2 -->
<g id="node3" class="node">
<title>2</title>
<ellipse fill="none" stroke="black" cx="76.18" cy="-227.56" rx="38.37" ry="26.74"/>
<text text-anchor="middle" x="76.18" y="-231.36" font-family="Times,serif" font-size="14.00">[2]</text>
<text text-anchor="middle" x="76.18" y="-216.36" font-family="Times,serif" font-size="14.00">C: 41</text>
</g>
<!-- 1&#45;&gt;2 -->
<g id="edge3" class="edge">
<title>1&#45;&gt;2</title>
<path fill="none" stroke="black" d="M80.42,-290.45C79.87,-282.4 79.25,-273.37 78.66,-264.75"/>
<polygon fill="black" stroke="black" points="82.13,-264.27 77.96,-254.53 75.15,-264.75 82.13,-264.27"/>
</g>
<!-- 3 -->
<g id="node4" class="node">
<title>3</title>
<ellipse fill="none" stroke="black" cx="38.18" cy="-137.82" rx="38.37" ry="26.74"/>
<text text-anchor="middle" x="38.18" y="-141.62" font-family="Times,serif" font-size="14.00">[3]</text>
<text text-anchor="middle" x="38.18" y="-126.62" font-family="Times,serif" font-size="14.00">C: 11</text>
</g>
<!-- 2&#45;&gt;3 -->
<g id="edge4" class="edge">
<title>2&#45;&gt;3</title>
<path fill="none" stroke="black" d="M65.4,-201.66C61.55,-192.76 57.14,-182.59 53.01,-173.05"/>
<polygon fill="black" stroke="black" points="56.18,-171.58 49,-163.79 49.76,-174.36 56.18,-171.58"/>
</g>
<!-- 7 -->
<g id="node8" class="node">
<title>7</title>
<ellipse fill="none" stroke="black" stroke-width="2" cx="104.18" cy="-37.48" rx="45.01" ry="37.45"/>
<text text-anchor="middle" x="104.18" y="-48.78" font-family="Times,serif" font-size="14.00">[7]</text>
<text text-anchor="middle" x="104.18" y="-33.78" font-family="Times,serif" font-size="14.00">C: 11</text>
<text text-anchor="middle" x="104.18" y="-18.78" font-family="Times,serif" font-size="14.00">D: 315</text>
</g>
<!-- 2&#45;&gt;7 -->
<g id="edge5" class="edge">
<title>2&#45;&gt;7</title>
<path fill="none" stroke="black" d="M80.02,-200.81C84.45,-171.01 91.84,-121.37 97.29,-84.81"/>
<polygon fill="black" stroke="black" points="100.75,-85.28 98.76,-74.88 93.83,-84.25 100.75,-85.28"/>
</g>
<!-- 3&#45;&gt;7 -->
<g id="edge6" class="edge">
<title>3&#45;&gt;7</title>
<path fill="none" stroke="black" d="M53.99,-113.27C60.87,-103.02 69.12,-90.72 76.93,-79.08"/>
<polygon fill="black" stroke="black" points="79.85,-81.02 82.52,-70.76 74.04,-77.12 79.85,-81.02"/>
</g>
<!-- 5 -->
<g id="node6" class="node">
<title>5</title>
<ellipse fill="none" stroke="black" cx="170.18" cy="-227.56" rx="38.37" ry="26.74"/>
<text text-anchor="middle" x="170.18" y="-231.36" font-family="Times,serif" font-size="14.00">[5]</text>
<text text-anchor="middle" x="170.18" y="-216.36" font-family="Times,serif" font-size="14.00">C: 72</text>
</g>
<!-- 4&#45;&gt;5 -->
<g id="edge7" class="edge">
<title>4&#45;&gt;5</title>
<path fill="none" stroke="black" d="M168.08,-289.98C168.36,-282.01 168.66,-273.12 168.95,-264.63"/>
<polygon fill="black" stroke="black" points="172.45,-264.68 169.29,-254.57 165.45,-264.44 172.45,-264.68"/>
</g>
<!-- 6 -->
<g id="node7" class="node">
<title>6</title>
<ellipse fill="none" stroke="black" cx="170.18" cy="-137.82" rx="38.37" ry="26.74"/>
<text text-anchor="middle" x="170.18" y="-141.62" font-family="Times,serif" font-size="14.00">[6]</text>
<text text-anchor="middle" x="170.18" y="-126.62" font-family="Times,serif" font-size="14.00">C: 26</text>
</g>
<!-- 5&#45;&gt;6 -->
<g id="edge8" class="edge">
<title>5&#45;&gt;6</title>
<path fill="none" stroke="black" d="M170.18,-200.24C170.18,-192.27 170.18,-183.38 170.18,-174.89"/>
<polygon fill="black" stroke="black" points="173.68,-174.83 170.18,-164.83 166.68,-174.83 173.68,-174.83"/>
</g>
<!-- 6&#45;&gt;7 -->
<g id="edge9" class="edge">
<title>6&#45;&gt;7</title>
<path fill="none" stroke="black" d="M154.38,-113.27C147.5,-103.02 139.25,-90.72 131.44,-79.08"/>
<polygon fill="black" stroke="black" points="134.33,-77.12 125.85,-70.76 128.52,-81.02 134.33,-77.12"/>
</g>
</g>
</svg>
