<?xml version="1.0" encoding="UTF-8" standalone="no"?>
<!DOCTYPE svg PUBLIC "-//W3C//DTD SVG 1.1//EN"
 "http://www.w3.org/Graphics/SVG/1.1/DTD/svg11.dtd">
<!-- Generated by graphviz version 2.43.0 (0)
 -->
<!-- Title: %3 Pages: 1 -->
<svg width="204pt" height="621pt"
 viewBox="0.00 0.00 204.00 620.65" xmlns="http://www.w3.org/2000/svg" xmlns:xlink="http://www.w3.org/1999/xlink">
<g id="graph0" class="graph" transform="scale(1 1) rotate(0) translate(4 616.65)">
<title>%3</title>
<polygon fill="white" stroke="transparent" points="-4,4 -4,-616.65 200,-616.65 200,4 -4,4"/>
<!-- 0 -->
<g id="node1" class="node">
<title>0</title>
<polygon fill="none" stroke="black" points="140.82,-612.65 86.82,-612.65 86.82,-559.65 140.82,-559.65 140.82,-612.65"/>
<text text-anchor="middle" x="113.82" y="-597.45" font-family="Times,serif" font-size="14.00">[0]</text>
<text text-anchor="middle" x="113.82" y="-582.45" font-family="Times,serif" font-size="14.00">C: 30</text>
<text text-anchor="middle" x="113.82" y="-567.45" font-family="Times,serif" font-size="14.00">T: 50</text>
</g>
<!-- 1 -->
<g id="node2" class="node">
<title>1</title>
<ellipse fill="none" stroke="black" cx="69.82" cy="-496.78" rx="38.37" ry="26.74"/>
<text text-anchor="middle" x="69.82" y="-500.58" font-family="Times,serif" font-size="14.00">[1]</text>
<text text-anchor="middle" x="69.82" y="-485.58" font-family="Times,serif" font-size="14.00">C: 10</text>
</g>
<!-- 0&#45;&gt;1 -->
<g id="edge1" class="edge">
<title>0&#45;&gt;1</title>
<path fill="none" stroke="black" d="M100.86,-559.41C96.45,-550.65 91.45,-540.73 86.77,-531.45"/>
<polygon fill="black" stroke="black" points="89.86,-529.8 82.24,-522.44 83.61,-532.95 89.86,-529.8"/>
</g>
<!-- 7 -->
<g id="node8" class="node">
<title>7</title>
<ellipse fill="none" stroke="black" cx="157.82" cy="-496.78" rx="31.64" ry="26.74"/>
<text text-anchor="middle" x="157.82" y="-500.58" font-family="Times,serif" font-size="14.00">[7]</text>
<text text-anchor="middle" x="157.82" y="-485.58" font-family="Times,serif" font-size="14.00">C: 1</text>
</g>
<!-- 0&#45;&gt;7 -->
<g id="edge2" class="edge">
<title>0&#45;&gt;7</title>
<path fill="none" stroke="black" d="M126.78,-559.41C131.27,-550.5 136.36,-540.39 141.11,-530.97"/>
<polygon fill="black" stroke="black" points="144.33,-532.35 145.7,-521.85 138.08,-529.2 144.33,-532.35"/>
</g>
<!-- 2 -->
<g id="node3" class="node">
<title>2</title>
<ellipse fill="none" stroke="black" cx="69.82" cy="-407.04" rx="31.64" ry="26.74"/>
<text text-anchor="middle" x="69.82" y="-410.84" font-family="Times,serif" font-size="14.00">[2]</text>
<text text-anchor="middle" x="69.82" y="-395.84" font-family="Times,serif" font-size="14.00">C: 1</text>
</g>
<!-- 1&#45;&gt;2 -->
<g id="edge3" class="edge">
<title>1&#45;&gt;2</title>
<path fill="none" stroke="black" d="M69.82,-469.46C69.82,-461.49 69.82,-452.6 69.82,-444.11"/>
<polygon fill="black" stroke="black" points="73.32,-444.05 69.82,-434.05 66.32,-444.05 73.32,-444.05"/>
</g>
<!-- 3 -->
<g id="node4" class="node">
<title>3</title>
<ellipse fill="none" stroke="black" cx="69.82" cy="-317.3" rx="31.64" ry="26.74"/>
<text text-anchor="middle" x="69.82" y="-321.1" font-family="Times,serif" font-size="14.00">[3]</text>
<text text-anchor="middle" x="69.82" y="-306.1" font-family="Times,serif" font-size="14.00">C: 9</text>
</g>
<!-- 2&#45;&gt;3 -->
<g id="edge4" class="edge">
<title>2&#45;&gt;3</title>
<path fill="none" stroke="black" d="M69.82,-379.72C69.82,-371.75 69.82,-362.86 69.82,-354.37"/>
<polygon fill="black" stroke="black" points="73.32,-354.31 69.82,-344.31 66.32,-354.31 73.32,-354.31"/>
</g>
<!-- 4 -->
<g id="node5" class="node">
<title>4</title>
<ellipse fill="none" stroke="black" cx="69.82" cy="-227.56" rx="38.37" ry="26.74"/>
<text text-anchor="middle" x="69.82" y="-231.36" font-family="Times,serif" font-size="14.00">[4]</text>
<text text-anchor="middle" x="69.82" y="-216.36" font-family="Times,serif" font-size="14.00">C: 25</text>
</g>
<!-- 3&#45;&gt;4 -->
<g id="edge5" class="edge">
<title>3&#45;&gt;4</title>
<path fill="none" stroke="black" d="M69.82,-289.98C69.82,-282.01 69.82,-273.12 69.82,-264.63"/>
<polygon fill="black" stroke="black" points="73.32,-264.57 69.82,-254.57 66.32,-264.57 73.32,-264.57"/>
</g>
<!-- 5 -->
<g id="node6" class="node">
<title>5</title>
<ellipse fill="none" stroke="black" cx="31.82" cy="-137.82" rx="31.64" ry="26.74"/>
<text text-anchor="middle" x="31.82" y="-141.62" font-family="Times,serif" font-size="14.00">[5]</text>
<text text-anchor="middle" x="31.82" y="-126.62" font-family="Times,serif" font-size="14.00">C: 2</text>
</g>
<!-- 4&#45;&gt;5 -->
<g id="edge6" class="edge">
<title>4&#45;&gt;5</title>
<path fill="none" stroke="black" d="M59.03,-201.66C55.12,-192.61 50.62,-182.24 46.43,-172.56"/>
<polygon fill="black" stroke="black" points="49.56,-170.97 42.37,-163.19 43.13,-173.75 49.56,-170.97"/>
</g>
<!-- 6 -->
<g id="node7" class="node">
<title>6</title>
<ellipse fill="none" stroke="black" stroke-width="2" cx="91.82" cy="-37.48" rx="45.01" ry="37.45"/>
<text text-anchor="middle" x="91.82" y="-48.78" font-family="Times,serif" font-size="14.00">[6]</text>
<text text-anchor="middle" x="91.82" y="-33.78" font-family="Times,serif" font-size="14.00">C: 2</text>
<text text-anchor="middle" x="91.82" y="-18.78" font-family="Times,serif" font-size="14.00">D: 132</text>
</g>
<!-- 4&#45;&gt;6 -->
<g id="edge7" class="edge">
<title>4&#45;&gt;6</title>
<path fill="none" stroke="black" d="M72.88,-200.41C76.35,-170.74 82.08,-121.75 86.33,-85.42"/>
<polygon fill="black" stroke="black" points="89.86,-85.39 87.54,-75.06 82.9,-84.58 89.86,-85.39"/>
</g>
<!-- 5&#45;&gt;6 -->
<g id="edge8" class="edge">
<title>5&#45;&gt;6</title>
<path fill="none" stroke="black" d="M46.04,-113.52C52.17,-103.47 59.53,-91.4 66.54,-79.92"/>
<polygon fill="black" stroke="black" points="69.58,-81.65 71.8,-71.29 63.6,-78 69.58,-81.65"/>
</g>
<!-- 8 -->
<g id="node9" class="node">
<title>8</title>
<ellipse fill="none" stroke="black" cx="157.82" cy="-407.04" rx="38.37" ry="26.74"/>
<text text-anchor="middle" x="157.82" y="-410.84" font-family="Times,serif" font-size="14.00">[8]</text>
<text text-anchor="middle" x="157.82" y="-395.84" font-family="Times,serif" font-size="14.00">C: 12</text>
</g>
<!-- 7&#45;&gt;8 -->
<g id="edge9" class="edge">
<title>7&#45;&gt;8</title>
<path fill="none" stroke="black" d="M157.82,-469.46C157.82,-461.49 157.82,-452.6 157.82,-444.11"/>
<polygon fill="black" stroke="black" points="161.32,-444.05 157.82,-434.05 154.32,-444.05 161.32,-444.05"/>
</g>
<!-- 9 -->
<g id="node10" class="node">
<title>9</title>
<ellipse fill="none" stroke="black" cx="157.82" cy="-317.3" rx="31.64" ry="26.74"/>
<text text-anchor="middle" x="157.82" y="-321.1" font-family="Times,serif" font-size="14.00">[9]</text>
<text text-anchor="middle" x="157.82" y="-306.1" font-family="Times,serif" font-size="14.00">C: 1</text>
</g>
<!-- 8&#45;&gt;9 -->
<g id="edge10" class="edge">
<title>8&#45;&gt;9</title>
<path fill="none" stroke="black" d="M157.82,-379.72C157.82,-371.75 157.82,-362.86 157.82,-354.37"/>
<polygon fill="black" stroke="black" points="161.32,-354.31 157.82,-344.31 154.32,-354.31 161.32,-354.31"/>
</g>
<!-- 10 -->
<g id="node11" class="node">
<title>10</title>
<ellipse fill="none" stroke="black" cx="157.82" cy="-227.56" rx="31.64" ry="26.74"/>
<text text-anchor="middle" x="157.82" y="-231.36" font-family="Times,serif" font-size="14.00">[10]</text>
<text text-anchor="middle" x="157.82" y="-216.36" font-family="Times,serif" font-size="14.00">C: 1</text>
</g>
<!-- 9&#45;&gt;10 -->
<g id="edge11" class="edge">
<title>9&#45;&gt;10</title>
<path fill="none" stroke="black" d="M157.82,-289.98C157.82,-282.01 157.82,-273.12 157.82,-264.63"/>
<polygon fill="black" stroke="black" points="161.32,-264.57 157.82,-254.57 154.32,-264.57 161.32,-264.57"/>
</g>
<!-- 11 -->
<g id="node12" class="node">
<title>11</title>
<ellipse fill="none" stroke="black" cx="157.82" cy="-137.82" rx="38.37" ry="26.74"/>
<text text-anchor="middle" x="157.82" y="-141.62" font-family="Times,serif" font-size="14.00">[11]</text>
<text text-anchor="middle" x="157.82" y="-126.62" font-family="Times,serif" font-size="14.00">C: 41</text>
</g>
<!-- 10&#45;&gt;11 -->
<g id="edge12" class="edge">
<title>10&#45;&gt;11</title>
<path fill="none" stroke="black" d="M157.82,-200.24C157.82,-192.27 157.82,-183.38 157.82,-174.89"/>
<polygon fill="black" stroke="black" points="161.32,-174.83 157.82,-164.83 154.32,-174.83 161.32,-174.83"/>
</g>
<!-- 11&#45;&gt;6 -->
<g id="edge13" class="edge">
<title>11&#45;&gt;6</title>
<path fill="none" stroke="black" d="M142.01,-113.27C135.14,-103.02 126.88,-90.72 119.07,-79.08"/>
<polygon fill="black" stroke="black" points="121.97,-77.12 113.49,-70.76 116.15,-81.02 121.97,-77.12"/>
</g>
</g>
</svg>
