<?xml version="1.0" encoding="UTF-8" standalone="no"?>
<!DOCTYPE svg PUBLIC "-//W3C//DTD SVG 1.1//EN"
 "http://www.w3.org/Graphics/SVG/1.1/DTD/svg11.dtd">
<!-- Generated by graphviz version 2.43.0 (0)
 -->
<!-- Title: %3 Pages: 1 -->
<svg width="166pt" height="710pt"
 viewBox="0.00 0.00 166.00 710.39" xmlns="http://www.w3.org/2000/svg" xmlns:xlink="http://www.w3.org/1999/xlink">
<g id="graph0" class="graph" transform="scale(1 1) rotate(0) translate(4 706.39)">
<title>%3</title>
<polygon fill="white" stroke="transparent" points="-4,4 -4,-706.39 162,-706.39 162,4 -4,4"/>
<!-- 0 -->
<g id="node1" class="node">
<title>0</title>
<polygon fill="none" stroke="black" points="107.82,-702.39 45.82,-702.39 45.82,-649.39 107.82,-649.39 107.82,-702.39"/>
<text text-anchor="middle" x="76.82" y="-687.19" font-family="Times,serif" font-size="14.00">[0]</text>
<text text-anchor="middle" x="76.82" y="-672.19" font-family="Times,serif" font-size="14.00">C: 1</text>
<text text-anchor="middle" x="76.82" y="-657.19" font-family="Times,serif" font-size="14.00">T: 100</text>
</g>
<!-- 1 -->
<g id="node2" class="node">
<title>1</title>
<ellipse fill="none" stroke="black" cx="76.82" cy="-586.52" rx="38.37" ry="26.74"/>
<text text-anchor="middle" x="76.82" y="-590.32" font-family="Times,serif" font-size="14.00">[1]</text>
<text text-anchor="middle" x="76.82" y="-575.32" font-family="Times,serif" font-size="14.00">C: 20</text>
</g>
<!-- 0&#45;&gt;1 -->
<g id="edge1" class="edge">
<title>0&#45;&gt;1</title>
<path fill="none" stroke="black" d="M76.82,-649.15C76.82,-641.21 76.82,-632.31 76.82,-623.79"/>
<polygon fill="black" stroke="black" points="80.32,-623.69 76.82,-613.69 73.32,-623.69 80.32,-623.69"/>
</g>
<!-- 2 -->
<g id="node3" class="node">
<title>2</title>
<ellipse fill="none" stroke="black" cx="76.82" cy="-496.78" rx="31.64" ry="26.74"/>
<text text-anchor="middle" x="76.82" y="-500.58" font-family="Times,serif" font-size="14.00">[2]</text>
<text text-anchor="middle" x="76.82" y="-485.58" font-family="Times,serif" font-size="14.00">C: 4</text>
</g>
<!-- 1&#45;&gt;2 -->
<g id="edge2" class="edge">
<title>1&#45;&gt;2</title>
<path fill="none" stroke="black" d="M76.82,-559.2C76.82,-551.23 76.82,-542.34 76.82,-533.85"/>
<polygon fill="black" stroke="black" points="80.32,-533.79 76.82,-523.79 73.32,-533.79 80.32,-533.79"/>
</g>
<!-- 3 -->
<g id="node4" class="node">
<title>3</title>
<ellipse fill="none" stroke="black" cx="76.82" cy="-407.04" rx="31.64" ry="26.74"/>
<text text-anchor="middle" x="76.82" y="-410.84" font-family="Times,serif" font-size="14.00">[3]</text>
<text text-anchor="middle" x="76.82" y="-395.84" font-family="Times,serif" font-size="14.00">C: 1</text>
</g>
<!-- 2&#45;&gt;3 -->
<g id="edge3" class="edge">
<title>2&#45;&gt;3</title>
<path fill="none" stroke="black" d="M76.82,-469.46C76.82,-461.49 76.82,-452.6 76.82,-444.11"/>
<polygon fill="black" stroke="black" points="80.32,-444.05 76.82,-434.05 73.32,-444.05 80.32,-444.05"/>
</g>
<!-- 4 -->
<g id="node5" class="node">
<title>4</title>
<ellipse fill="none" stroke="black" cx="35.82" cy="-317.3" rx="31.64" ry="26.74"/>
<text text-anchor="middle" x="35.82" y="-321.1" font-family="Times,serif" font-size="14.00">[4]</text>
<text text-anchor="middle" x="35.82" y="-306.1" font-family="Times,serif" font-size="14.00">C: 8</text>
</g>
<!-- 3&#45;&gt;4 -->
<g id="edge4" class="edge">
<title>3&#45;&gt;4</title>
<path fill="none" stroke="black" d="M65.4,-381.6C61.09,-372.38 56.11,-361.72 51.48,-351.81"/>
<polygon fill="black" stroke="black" points="54.58,-350.19 47.18,-342.61 48.24,-353.15 54.58,-350.19"/>
</g>
<!-- 7 -->
<g id="node8" class="node">
<title>7</title>
<ellipse fill="none" stroke="black" cx="118.82" cy="-317.3" rx="31.64" ry="26.74"/>
<text text-anchor="middle" x="118.82" y="-321.1" font-family="Times,serif" font-size="14.00">[7]</text>
<text text-anchor="middle" x="118.82" y="-306.1" font-family="Times,serif" font-size="14.00">C: 1</text>
</g>
<!-- 3&#45;&gt;7 -->
<g id="edge5" class="edge">
<title>3&#45;&gt;7</title>
<path fill="none" stroke="black" d="M88.52,-381.6C92.93,-372.38 98.04,-361.72 102.78,-351.81"/>
<polygon fill="black" stroke="black" points="106.02,-353.14 107.18,-342.61 99.71,-350.12 106.02,-353.14"/>
</g>
<!-- 5 -->
<g id="node6" class="node">
<title>5</title>
<ellipse fill="none" stroke="black" cx="34.82" cy="-227.56" rx="31.64" ry="26.74"/>
<text text-anchor="middle" x="34.82" y="-231.36" font-family="Times,serif" font-size="14.00">[5]</text>
<text text-anchor="middle" x="34.82" y="-216.36" font-family="Times,serif" font-size="14.00">C: 1</text>
</g>
<!-- 4&#45;&gt;5 -->
<g id="edge6" class="edge">
<title>4&#45;&gt;5</title>
<path fill="none" stroke="black" d="M35.52,-289.98C35.43,-282.01 35.33,-273.12 35.23,-264.63"/>
<polygon fill="black" stroke="black" points="38.73,-264.53 35.12,-254.57 31.73,-264.61 38.73,-264.53"/>
</g>
<!-- 6 -->
<g id="node7" class="node">
<title>6</title>
<ellipse fill="none" stroke="black" cx="31.82" cy="-137.82" rx="31.64" ry="26.74"/>
<text text-anchor="middle" x="31.82" y="-141.62" font-family="Times,serif" font-size="14.00">[6]</text>
<text text-anchor="middle" x="31.82" y="-126.62" font-family="Times,serif" font-size="14.00">C: 1</text>
</g>
<!-- 5&#45;&gt;6 -->
<g id="edge7" class="edge">
<title>5&#45;&gt;6</title>
<path fill="none" stroke="black" d="M33.92,-200.24C33.65,-192.27 33.34,-183.38 33.05,-174.89"/>
<polygon fill="black" stroke="black" points="36.55,-174.7 32.71,-164.83 29.55,-174.94 36.55,-174.7"/>
</g>
<!-- 9 -->
<g id="node10" class="node">
<title>9</title>
<ellipse fill="none" stroke="black" stroke-width="2" cx="75.82" cy="-37.48" rx="45.01" ry="37.45"/>
<text text-anchor="middle" x="75.82" y="-48.78" font-family="Times,serif" font-size="14.00">[9]</text>
<text text-anchor="middle" x="75.82" y="-33.78" font-family="Times,serif" font-size="14.00">C: 158</text>
<text text-anchor="middle" x="75.82" y="-18.78" font-family="Times,serif" font-size="14.00">D: 338</text>
</g>
<!-- 6&#45;&gt;9 -->
<g id="edge8" class="edge">
<title>6&#45;&gt;9</title>
<path fill="none" stroke="black" d="M42.7,-112.51C46.79,-103.37 51.58,-92.66 56.22,-82.29"/>
<polygon fill="black" stroke="black" points="59.53,-83.45 60.42,-72.9 53.14,-80.6 59.53,-83.45"/>
</g>
<!-- 8 -->
<g id="node9" class="node">
<title>8</title>
<ellipse fill="none" stroke="black" cx="119.82" cy="-137.82" rx="38.37" ry="26.74"/>
<text text-anchor="middle" x="119.82" y="-141.62" font-family="Times,serif" font-size="14.00">[8]</text>
<text text-anchor="middle" x="119.82" y="-126.62" font-family="Times,serif" font-size="14.00">C: 75</text>
</g>
<!-- 7&#45;&gt;8 -->
<g id="edge9" class="edge">
<title>7&#45;&gt;8</title>
<path fill="none" stroke="black" d="M118.97,-290.12C119.14,-259.62 119.42,-209.07 119.62,-174.88"/>
<polygon fill="black" stroke="black" points="123.12,-174.85 119.67,-164.83 116.12,-174.81 123.12,-174.85"/>
</g>
<!-- 8&#45;&gt;9 -->
<g id="edge10" class="edge">
<title>8&#45;&gt;9</title>
<path fill="none" stroke="black" d="M108.72,-112.01C104.66,-102.94 99.95,-92.41 95.38,-82.19"/>
<polygon fill="black" stroke="black" points="98.52,-80.64 91.24,-72.94 92.13,-83.5 98.52,-80.64"/>
</g>
</g>
</svg>
