<?xml version="1.0" encoding="UTF-8" standalone="no"?>
<!DOCTYPE svg PUBLIC "-//W3C//DTD SVG 1.1//EN"
 "http://www.w3.org/Graphics/SVG/1.1/DTD/svg11.dtd">
<!-- Generated by graphviz version 2.43.0 (0)
 -->
<!-- Title: %3 Pages: 1 -->
<svg width="204pt" height="441pt"
 viewBox="0.00 0.00 204.00 441.17" xmlns="http://www.w3.org/2000/svg" xmlns:xlink="http://www.w3.org/1999/xlink">
<g id="graph0" class="graph" transform="scale(1 1) rotate(0) translate(4 437.17)">
<title>%3</title>
<polygon fill="white" stroke="transparent" points="-4,4 -4,-437.17 200,-437.17 200,4 -4,4"/>
<!-- 0 -->
<g id="node1" class="node">
<title>0</title>
<polygon fill="none" stroke="black" points="150.18,-433.17 96.18,-433.17 96.18,-380.17 150.18,-380.17 150.18,-433.17"/>
<text text-anchor="middle" x="123.18" y="-417.97" font-family="Times,serif" font-size="14.00">[0]</text>
<text text-anchor="middle" x="123.18" y="-402.97" font-family="Times,serif" font-size="14.00">C: 38</text>
<text text-anchor="middle" x="123.18" y="-387.97" font-family="Times,serif" font-size="14.00">T: 50</text>
</g>
<!-- 1 -->
<g id="node2" class="node">
<title>1</title>
<ellipse fill="none" stroke="black" cx="82.18" cy="-317.3" rx="31.64" ry="26.74"/>
<text text-anchor="middle" x="82.18" y="-321.1" font-family="Times,serif" font-size="14.00">[1]</text>
<text text-anchor="middle" x="82.18" y="-306.1" font-family="Times,serif" font-size="14.00">C: 2</text>
</g>
<!-- 0&#45;&gt;1 -->
<g id="edge1" class="edge">
<title>0&#45;&gt;1</title>
<path fill="none" stroke="black" d="M111.1,-379.93C106.96,-371.1 102.26,-361.08 97.87,-351.73"/>
<polygon fill="black" stroke="black" points="101.03,-350.23 93.61,-342.66 94.69,-353.2 101.03,-350.23"/>
</g>
<!-- 5 -->
<g id="node6" class="node">
<title>5</title>
<ellipse fill="none" stroke="black" cx="164.18" cy="-317.3" rx="31.64" ry="26.74"/>
<text text-anchor="middle" x="164.18" y="-321.1" font-family="Times,serif" font-size="14.00">[5]</text>
<text text-anchor="middle" x="164.18" y="-306.1" font-family="Times,serif" font-size="14.00">C: 1</text>
</g>
<!-- 0&#45;&gt;5 -->
<g id="edge2" class="edge">
<title>0&#45;&gt;5</title>
<path fill="none" stroke="black" d="M135.26,-379.93C139.41,-371.1 144.11,-361.08 148.5,-351.73"/>
<polygon fill="black" stroke="black" points="151.67,-353.2 152.75,-342.66 145.34,-350.23 151.67,-353.2"/>
</g>
<!-- 2 -->
<g id="node3" class="node">
<title>2</title>
<ellipse fill="none" stroke="black" cx="82.18" cy="-227.56" rx="31.64" ry="26.74"/>
<text text-anchor="middle" x="82.18" y="-231.36" font-family="Times,serif" font-size="14.00">[2]</text>
<text text-anchor="middle" x="82.18" y="-216.36" font-family="Times,serif" font-size="14.00">C: 5</text>
</g>
<!-- 1&#45;&gt;2 -->
<g id="edge3" class="edge">
<title>1&#45;&gt;2</title>
<path fill="none" stroke="black" d="M82.18,-289.98C82.18,-282.01 82.18,-273.12 82.18,-264.63"/>
<polygon fill="black" stroke="black" points="85.68,-264.57 82.18,-254.57 78.68,-264.57 85.68,-264.57"/>
</g>
<!-- 3 -->
<g id="node4" class="node">
<title>3</title>
<ellipse fill="none" stroke="black" cx="38.18" cy="-137.82" rx="38.37" ry="26.74"/>
<text text-anchor="middle" x="38.18" y="-141.62" font-family="Times,serif" font-size="14.00">[3]</text>
<text text-anchor="middle" x="38.18" y="-126.62" font-family="Times,serif" font-size="14.00">C: 86</text>
</g>
<!-- 2&#45;&gt;3 -->
<g id="edge4" class="edge">
<title>2&#45;&gt;3</title>
<path fill="none" stroke="black" d="M70.16,-202.59C65.49,-193.26 60.05,-182.42 55,-172.35"/>
<polygon fill="black" stroke="black" points="58.11,-170.75 50.5,-163.38 51.85,-173.89 58.11,-170.75"/>
</g>
<!-- 4 -->
<g id="node5" class="node">
<title>4</title>
<ellipse fill="none" stroke="black" stroke-width="2" cx="104.18" cy="-37.48" rx="45.01" ry="37.45"/>
<text text-anchor="middle" x="104.18" y="-48.78" font-family="Times,serif" font-size="14.00">[4]</text>
<text text-anchor="middle" x="104.18" y="-33.78" font-family="Times,serif" font-size="14.00">C: 1</text>
<text text-anchor="middle" x="104.18" y="-18.78" font-family="Times,serif" font-size="14.00">D: 184</text>
</g>
<!-- 2&#45;&gt;4 -->
<g id="edge5" class="edge">
<title>2&#45;&gt;4</title>
<path fill="none" stroke="black" d="M85.2,-200.81C88.68,-171.01 94.49,-121.37 98.76,-84.81"/>
<polygon fill="black" stroke="black" points="102.24,-85.22 99.93,-74.88 95.29,-84.4 102.24,-85.22"/>
</g>
<!-- 3&#45;&gt;4 -->
<g id="edge6" class="edge">
<title>3&#45;&gt;4</title>
<path fill="none" stroke="black" d="M53.99,-113.27C60.87,-103.02 69.12,-90.72 76.93,-79.08"/>
<polygon fill="black" stroke="black" points="79.85,-81.02 82.52,-70.76 74.04,-77.12 79.85,-81.02"/>
</g>
<!-- 6 -->
<g id="node7" class="node">
<title>6</title>
<ellipse fill="none" stroke="black" cx="164.18" cy="-227.56" rx="31.64" ry="26.74"/>
<text text-anchor="middle" x="164.18" y="-231.36" font-family="Times,serif" font-size="14.00">[6]</text>
<text text-anchor="middle" x="164.18" y="-216.36" font-family="Times,serif" font-size="14.00">C: 1</text>
</g>
<!-- 5&#45;&gt;6 -->
<g id="edge7" class="edge">
<title>5&#45;&gt;6</title>
<path fill="none" stroke="black" d="M164.18,-289.98C164.18,-282.01 164.18,-273.12 164.18,-264.63"/>
<polygon fill="black" stroke="black" points="167.68,-264.57 164.18,-254.57 160.68,-264.57 167.68,-264.57"/>
</g>
<!-- 7 -->
<g id="node8" class="node">
<title>7</title>
<ellipse fill="none" stroke="black" cx="164.18" cy="-137.82" rx="31.64" ry="26.74"/>
<text text-anchor="middle" x="164.18" y="-141.62" font-family="Times,serif" font-size="14.00">[7]</text>
<text text-anchor="middle" x="164.18" y="-126.62" font-family="Times,serif" font-size="14.00">C: 1</text>
</g>
<!-- 6&#45;&gt;7 -->
<g id="edge8" class="edge">
<title>6&#45;&gt;7</title>
<path fill="none" stroke="black" d="M164.18,-200.24C164.18,-192.27 164.18,-183.38 164.18,-174.89"/>
<polygon fill="black" stroke="black" points="167.68,-174.83 164.18,-164.83 160.68,-174.83 167.68,-174.83"/>
</g>
<!-- 7&#45;&gt;4 -->
<g id="edge9" class="edge">
<title>7&#45;&gt;4</title>
<path fill="none" stroke="black" d="M149.96,-113.52C143.83,-103.47 136.47,-91.4 129.47,-79.92"/>
<polygon fill="black" stroke="black" points="132.4,-78 124.2,-71.29 126.42,-81.65 132.4,-78"/>
</g>
</g>
</svg>
