<?xml version="1.0" encoding="UTF-8" standalone="no"?>
<!DOCTYPE svg PUBLIC "-//W3C//DTD SVG 1.1//EN"
 "http://www.w3.org/Graphics/SVG/1.1/DTD/svg11.dtd">
<!-- Generated by graphviz version 2.43.0 (0)
 -->
<!-- Title: %3 Pages: 1 -->
<svg width="166pt" height="710pt"
 viewBox="0.00 0.00 166.00 710.39" xmlns="http://www.w3.org/2000/svg" xmlns:xlink="http://www.w3.org/1999/xlink">
<g id="graph0" class="graph" transform="scale(1 1) rotate(0) translate(4 706.39)">
<title>%3</title>
<polygon fill="white" stroke="transparent" points="-4,4 -4,-706.39 162,-706.39 162,4 -4,4"/>
<!-- 0 -->
<g id="node1" class="node">
<title>0</title>
<polygon fill="none" stroke="black" points="102.82,-702.39 48.82,-702.39 48.82,-649.39 102.82,-649.39 102.82,-702.39"/>
<text text-anchor="middle" x="75.82" y="-687.19" font-family="Times,serif" font-size="14.00">[0]</text>
<text text-anchor="middle" x="75.82" y="-672.19" font-family="Times,serif" font-size="14.00">C: 13</text>
<text text-anchor="middle" x="75.82" y="-657.19" font-family="Times,serif" font-size="14.00">T: 50</text>
</g>
<!-- 1 -->
<g id="node2" class="node">
<title>1</title>
<ellipse fill="none" stroke="black" cx="75.82" cy="-586.52" rx="38.37" ry="26.74"/>
<text text-anchor="middle" x="75.82" y="-590.32" font-family="Times,serif" font-size="14.00">[1]</text>
<text text-anchor="middle" x="75.82" y="-575.32" font-family="Times,serif" font-size="14.00">C: 70</text>
</g>
<!-- 0&#45;&gt;1 -->
<g id="edge1" class="edge">
<title>0&#45;&gt;1</title>
<path fill="none" stroke="black" d="M75.82,-649.15C75.82,-641.21 75.82,-632.31 75.82,-623.79"/>
<polygon fill="black" stroke="black" points="79.32,-623.69 75.82,-613.69 72.32,-623.69 79.32,-623.69"/>
</g>
<!-- 2 -->
<g id="node3" class="node">
<title>2</title>
<ellipse fill="none" stroke="black" cx="75.82" cy="-496.78" rx="31.64" ry="26.74"/>
<text text-anchor="middle" x="75.82" y="-500.58" font-family="Times,serif" font-size="14.00">[2]</text>
<text text-anchor="middle" x="75.82" y="-485.58" font-family="Times,serif" font-size="14.00">C: 1</text>
</g>
<!-- 1&#45;&gt;2 -->
<g id="edge2" class="edge">
<title>1&#45;&gt;2</title>
<path fill="none" stroke="black" d="M75.82,-559.2C75.82,-551.23 75.82,-542.34 75.82,-533.85"/>
<polygon fill="black" stroke="black" points="79.32,-533.79 75.82,-523.79 72.32,-533.79 79.32,-533.79"/>
</g>
<!-- 3 -->
<g id="node4" class="node">
<title>3</title>
<ellipse fill="none" stroke="black" cx="75.82" cy="-407.04" rx="31.64" ry="26.74"/>
<text text-anchor="middle" x="75.82" y="-410.84" font-family="Times,serif" font-size="14.00">[3]</text>
<text text-anchor="middle" x="75.82" y="-395.84" font-family="Times,serif" font-size="14.00">C: 2</text>
</g>
<!-- 2&#45;&gt;3 -->
<g id="edge3" class="edge">
<title>2&#45;&gt;3</title>
<path fill="none" stroke="black" d="M75.82,-469.46C75.82,-461.49 75.82,-452.6 75.82,-444.11"/>
<polygon fill="black" stroke="black" points="79.32,-444.05 75.82,-434.05 72.32,-444.05 79.32,-444.05"/>
</g>
<!-- 4 -->
<g id="node5" class="node">
<title>4</title>
<ellipse fill="none" stroke="black" cx="75.82" cy="-317.3" rx="38.37" ry="26.74"/>
<text text-anchor="middle" x="75.82" y="-321.1" font-family="Times,serif" font-size="14.00">[4]</text>
<text text-anchor="middle" x="75.82" y="-306.1" font-family="Times,serif" font-size="14.00">C: 32</text>
</g>
<!-- 3&#45;&gt;4 -->
<g id="edge4" class="edge">
<title>3&#45;&gt;4</title>
<path fill="none" stroke="black" d="M75.82,-379.72C75.82,-371.75 75.82,-362.86 75.82,-354.37"/>
<polygon fill="black" stroke="black" points="79.32,-354.31 75.82,-344.31 72.32,-354.31 79.32,-354.31"/>
</g>
<!-- 5 -->
<g id="node6" class="node">
<title>5</title>
<ellipse fill="none" stroke="black" cx="45.82" cy="-227.56" rx="31.64" ry="26.74"/>
<text text-anchor="middle" x="45.82" y="-231.36" font-family="Times,serif" font-size="14.00">[5]</text>
<text text-anchor="middle" x="45.82" y="-216.36" font-family="Times,serif" font-size="14.00">C: 1</text>
</g>
<!-- 4&#45;&gt;5 -->
<g id="edge5" class="edge">
<title>4&#45;&gt;5</title>
<path fill="none" stroke="black" d="M67.14,-290.93C64.19,-282.3 60.85,-272.51 57.69,-263.29"/>
<polygon fill="black" stroke="black" points="60.92,-261.91 54.37,-253.58 54.3,-264.18 60.92,-261.91"/>
</g>
<!-- 7 -->
<g id="node8" class="node">
<title>7</title>
<ellipse fill="none" stroke="black" cx="119.82" cy="-137.82" rx="38.37" ry="26.74"/>
<text text-anchor="middle" x="119.82" y="-141.62" font-family="Times,serif" font-size="14.00">[7]</text>
<text text-anchor="middle" x="119.82" y="-126.62" font-family="Times,serif" font-size="14.00">C: 12</text>
</g>
<!-- 4&#45;&gt;7 -->
<g id="edge6" class="edge">
<title>4&#45;&gt;7</title>
<path fill="none" stroke="black" d="M82.22,-290.5C89.8,-259.91 102.47,-208.79 110.99,-174.45"/>
<polygon fill="black" stroke="black" points="114.48,-174.92 113.49,-164.37 107.68,-173.24 114.48,-174.92"/>
</g>
<!-- 6 -->
<g id="node7" class="node">
<title>6</title>
<ellipse fill="none" stroke="black" cx="31.82" cy="-137.82" rx="31.64" ry="26.74"/>
<text text-anchor="middle" x="31.82" y="-141.62" font-family="Times,serif" font-size="14.00">[6]</text>
<text text-anchor="middle" x="31.82" y="-126.62" font-family="Times,serif" font-size="14.00">C: 2</text>
</g>
<!-- 5&#45;&gt;6 -->
<g id="edge7" class="edge">
<title>5&#45;&gt;6</title>
<path fill="none" stroke="black" d="M41.7,-200.71C40.38,-192.5 38.91,-183.27 37.51,-174.5"/>
<polygon fill="black" stroke="black" points="40.95,-173.81 35.92,-164.49 34.03,-174.92 40.95,-173.81"/>
</g>
<!-- 8 -->
<g id="node9" class="node">
<title>8</title>
<ellipse fill="none" stroke="black" stroke-width="2" cx="75.82" cy="-37.48" rx="45.01" ry="37.45"/>
<text text-anchor="middle" x="75.82" y="-48.78" font-family="Times,serif" font-size="14.00">[8]</text>
<text text-anchor="middle" x="75.82" y="-33.78" font-family="Times,serif" font-size="14.00">C: 2</text>
<text text-anchor="middle" x="75.82" y="-18.78" font-family="Times,serif" font-size="14.00">D: 171</text>
</g>
<!-- 6&#45;&gt;8 -->
<g id="edge8" class="edge">
<title>6&#45;&gt;8</title>
<path fill="none" stroke="black" d="M42.7,-112.51C46.79,-103.37 51.58,-92.66 56.22,-82.29"/>
<polygon fill="black" stroke="black" points="59.53,-83.45 60.42,-72.9 53.14,-80.6 59.53,-83.45"/>
</g>
<!-- 7&#45;&gt;8 -->
<g id="edge9" class="edge">
<title>7&#45;&gt;8</title>
<path fill="none" stroke="black" d="M108.72,-112.01C104.66,-102.94 99.95,-92.41 95.38,-82.19"/>
<polygon fill="black" stroke="black" points="98.52,-80.64 91.24,-72.94 92.13,-83.5 98.52,-80.64"/>
</g>
</g>
</svg>
