<?xml version="1.0" encoding="UTF-8" standalone="no"?>
<!DOCTYPE svg PUBLIC "-//W3C//DTD SVG 1.1//EN"
 "http://www.w3.org/Graphics/SVG/1.1/DTD/svg11.dtd">
<!-- Generated by graphviz version 2.43.0 (0)
 -->
<!-- Title: %3 Pages: 1 -->
<svg width="168pt" height="262pt"
 viewBox="0.00 0.00 167.80 261.69" xmlns="http://www.w3.org/2000/svg" xmlns:xlink="http://www.w3.org/1999/xlink">
<g id="graph0" class="graph" transform="scale(1 1) rotate(0) translate(4 257.69)">
<title>%3</title>
<polygon fill="white" stroke="transparent" points="-4,4 -4,-257.69 163.8,-257.69 163.8,4 -4,4"/>
<!-- 0 -->
<g id="node1" class="node">
<title>0</title>
<polygon fill="none" stroke="black" points="145.32,-253.69 82.32,-253.69 82.32,-200.69 145.32,-200.69 145.32,-253.69"/>
<text text-anchor="middle" x="113.82" y="-238.49" font-family="Times,serif" font-size="14.00">[0]</text>
<text text-anchor="middle" x="113.82" y="-223.49" font-family="Times,serif" font-size="14.00">C: 136</text>
<text text-anchor="middle" x="113.82" y="-208.49" font-family="Times,serif" font-size="14.00">T: 50</text>
</g>
<!-- 1 -->
<g id="node2" class="node">
<title>1</title>
<ellipse fill="none" stroke="black" cx="31.82" cy="-137.82" rx="31.64" ry="26.74"/>
<text text-anchor="middle" x="31.82" y="-141.62" font-family="Times,serif" font-size="14.00">[1]</text>
<text text-anchor="middle" x="31.82" y="-126.62" font-family="Times,serif" font-size="14.00">C: 2</text>
</g>
<!-- 0&#45;&gt;1 -->
<g id="edge1" class="edge">
<title>0&#45;&gt;1</title>
<path fill="none" stroke="black" d="M89.66,-200.45C79.78,-189.92 68.31,-177.71 58.21,-166.94"/>
<polygon fill="black" stroke="black" points="60.53,-164.3 51.14,-159.4 55.43,-169.09 60.53,-164.3"/>
</g>
<!-- 2 -->
<g id="node3" class="node">
<title>2</title>
<ellipse fill="none" stroke="black" cx="113.82" cy="-137.82" rx="31.64" ry="26.74"/>
<text text-anchor="middle" x="113.82" y="-141.62" font-family="Times,serif" font-size="14.00">[2]</text>
<text text-anchor="middle" x="113.82" y="-126.62" font-family="Times,serif" font-size="14.00">C: 1</text>
</g>
<!-- 0&#45;&gt;2 -->
<g id="edge2" class="edge">
<title>0&#45;&gt;2</title>
<path fill="none" stroke="black" d="M113.82,-200.45C113.82,-192.51 113.82,-183.6 113.82,-175.09"/>
<polygon fill="black" stroke="black" points="117.32,-174.99 113.82,-164.99 110.32,-174.99 117.32,-174.99"/>
</g>
<!-- 3 -->
<g id="node4" class="node">
<title>3</title>
<ellipse fill="none" stroke="black" stroke-width="2" cx="113.82" cy="-37.48" rx="45.01" ry="37.45"/>
<text text-anchor="middle" x="113.82" y="-48.78" font-family="Times,serif" font-size="14.00">[3]</text>
<text text-anchor="middle" x="113.82" y="-33.78" font-family="Times,serif" font-size="14.00">C: 1</text>
<text text-anchor="middle" x="113.82" y="-18.78" font-family="Times,serif" font-size="14.00">D: 166</text>
</g>
<!-- 0&#45;&gt;3 -->
<g id="edge3" class="edge">
<title>0&#45;&gt;3</title>
<path fill="none" stroke="black" d="M135.93,-200.41C143.46,-190.01 150.95,-177.47 154.82,-164.69 161.74,-141.83 160.9,-134.05 154.82,-110.95 151.95,-100.04 147.01,-89.03 141.54,-79.02"/>
<polygon fill="black" stroke="black" points="144.43,-77.03 136.4,-70.12 138.37,-80.53 144.43,-77.03"/>
</g>
<!-- 1&#45;&gt;3 -->
<g id="edge4" class="edge">
<title>1&#45;&gt;3</title>
<path fill="none" stroke="black" d="M49.61,-115.48C59.05,-104.16 70.94,-89.91 81.91,-76.75"/>
<polygon fill="black" stroke="black" points="84.88,-78.65 88.6,-68.73 79.5,-74.17 84.88,-78.65"/>
</g>
<!-- 2&#45;&gt;3 -->
<g id="edge5" class="edge">
<title>2&#45;&gt;3</title>
<path fill="none" stroke="black" d="M113.82,-110.73C113.82,-102.87 113.82,-94.01 113.82,-85.24"/>
<polygon fill="black" stroke="black" points="117.32,-85.06 113.82,-75.06 110.32,-85.06 117.32,-85.06"/>
</g>
</g>
</svg>
