<?xml version="1.0" encoding="UTF-8" standalone="no"?>
<!DOCTYPE svg PUBLIC "-//W3C//DTD SVG 1.1//EN"
 "http://www.w3.org/Graphics/SVG/1.1/DTD/svg11.dtd">
<!-- Generated by graphviz version 2.43.0 (0)
 -->
<!-- Title: %3 Pages: 1 -->
<svg width="178pt" height="621pt"
 viewBox="0.00 0.00 178.37 620.65" xmlns="http://www.w3.org/2000/svg" xmlns:xlink="http://www.w3.org/1999/xlink">
<g id="graph0" class="graph" transform="scale(1 1) rotate(0) translate(4 616.65)">
<title>%3</title>
<polygon fill="white" stroke="transparent" points="-4,4 -4,-616.65 174.37,-616.65 174.37,4 -4,4"/>
<!-- 0 -->
<g id="node1" class="node">
<title>0</title>
<polygon fill="none" stroke="black" points="110.82,-612.65 48.82,-612.65 48.82,-559.65 110.82,-559.65 110.82,-612.65"/>
<text text-anchor="middle" x="79.82" y="-597.45" font-family="Times,serif" font-size="14.00">[0]</text>
<text text-anchor="middle" x="79.82" y="-582.45" font-family="Times,serif" font-size="14.00">C: 47</text>
<text text-anchor="middle" x="79.82" y="-567.45" font-family="Times,serif" font-size="14.00">T: 100</text>
</g>
<!-- 1 -->
<g id="node2" class="node">
<title>1</title>
<ellipse fill="none" stroke="black" cx="79.82" cy="-496.78" rx="38.37" ry="26.74"/>
<text text-anchor="middle" x="79.82" y="-500.58" font-family="Times,serif" font-size="14.00">[1]</text>
<text text-anchor="middle" x="79.82" y="-485.58" font-family="Times,serif" font-size="14.00">C: 59</text>
</g>
<!-- 0&#45;&gt;1 -->
<g id="edge1" class="edge">
<title>0&#45;&gt;1</title>
<path fill="none" stroke="black" d="M79.82,-559.41C79.82,-551.47 79.82,-542.57 79.82,-534.05"/>
<polygon fill="black" stroke="black" points="83.32,-533.95 79.82,-523.95 76.32,-533.95 83.32,-533.95"/>
</g>
<!-- 2 -->
<g id="node3" class="node">
<title>2</title>
<ellipse fill="none" stroke="black" cx="38.82" cy="-407.04" rx="31.64" ry="26.74"/>
<text text-anchor="middle" x="38.82" y="-410.84" font-family="Times,serif" font-size="14.00">[2]</text>
<text text-anchor="middle" x="38.82" y="-395.84" font-family="Times,serif" font-size="14.00">C: 1</text>
</g>
<!-- 1&#45;&gt;2 -->
<g id="edge2" class="edge">
<title>1&#45;&gt;2</title>
<path fill="none" stroke="black" d="M68.18,-470.88C63.91,-461.74 59.01,-451.24 54.44,-441.48"/>
<polygon fill="black" stroke="black" points="57.61,-439.99 50.2,-432.41 51.27,-442.95 57.61,-439.99"/>
</g>
<!-- 6 -->
<g id="node7" class="node">
<title>6</title>
<ellipse fill="none" stroke="black" cx="121.82" cy="-407.04" rx="31.64" ry="26.74"/>
<text text-anchor="middle" x="121.82" y="-410.84" font-family="Times,serif" font-size="14.00">[6]</text>
<text text-anchor="middle" x="121.82" y="-395.84" font-family="Times,serif" font-size="14.00">C: 2</text>
</g>
<!-- 1&#45;&gt;6 -->
<g id="edge3" class="edge">
<title>1&#45;&gt;6</title>
<path fill="none" stroke="black" d="M91.74,-470.88C96.15,-461.66 101.23,-451.06 105.93,-441.23"/>
<polygon fill="black" stroke="black" points="109.14,-442.64 110.3,-432.11 102.83,-439.61 109.14,-442.64"/>
</g>
<!-- 3 -->
<g id="node4" class="node">
<title>3</title>
<ellipse fill="none" stroke="black" cx="35.82" cy="-317.3" rx="31.64" ry="26.74"/>
<text text-anchor="middle" x="35.82" y="-321.1" font-family="Times,serif" font-size="14.00">[3]</text>
<text text-anchor="middle" x="35.82" y="-306.1" font-family="Times,serif" font-size="14.00">C: 4</text>
</g>
<!-- 2&#45;&gt;3 -->
<g id="edge4" class="edge">
<title>2&#45;&gt;3</title>
<path fill="none" stroke="black" d="M37.92,-379.72C37.65,-371.75 37.34,-362.86 37.05,-354.37"/>
<polygon fill="black" stroke="black" points="40.55,-354.18 36.71,-344.31 33.55,-354.42 40.55,-354.18"/>
</g>
<!-- 4 -->
<g id="node5" class="node">
<title>4</title>
<ellipse fill="none" stroke="black" cx="31.82" cy="-137.82" rx="31.64" ry="26.74"/>
<text text-anchor="middle" x="31.82" y="-141.62" font-family="Times,serif" font-size="14.00">[4]</text>
<text text-anchor="middle" x="31.82" y="-126.62" font-family="Times,serif" font-size="14.00">C: 2</text>
</g>
<!-- 3&#45;&gt;4 -->
<g id="edge5" class="edge">
<title>3&#45;&gt;4</title>
<path fill="none" stroke="black" d="M35.23,-290.12C34.54,-259.62 33.4,-209.07 32.63,-174.88"/>
<polygon fill="black" stroke="black" points="36.13,-174.75 32.41,-164.83 29.13,-174.91 36.13,-174.75"/>
</g>
<!-- 5 -->
<g id="node6" class="node">
<title>5</title>
<ellipse fill="none" stroke="black" stroke-width="2" cx="78.82" cy="-37.48" rx="45.01" ry="37.45"/>
<text text-anchor="middle" x="78.82" y="-48.78" font-family="Times,serif" font-size="14.00">[5]</text>
<text text-anchor="middle" x="78.82" y="-33.78" font-family="Times,serif" font-size="14.00">C: 8</text>
<text text-anchor="middle" x="78.82" y="-18.78" font-family="Times,serif" font-size="14.00">D: 354</text>
</g>
<!-- 4&#45;&gt;5 -->
<g id="edge6" class="edge">
<title>4&#45;&gt;5</title>
<path fill="none" stroke="black" d="M43.32,-112.77C47.77,-103.44 53.02,-92.47 58.09,-81.86"/>
<polygon fill="black" stroke="black" points="61.32,-83.22 62.47,-72.69 55,-80.2 61.32,-83.22"/>
</g>
<!-- 7 -->
<g id="node8" class="node">
<title>7</title>
<ellipse fill="none" stroke="black" cx="124.82" cy="-317.3" rx="38.37" ry="26.74"/>
<text text-anchor="middle" x="124.82" y="-321.1" font-family="Times,serif" font-size="14.00">[7]</text>
<text text-anchor="middle" x="124.82" y="-306.1" font-family="Times,serif" font-size="14.00">C: 12</text>
</g>
<!-- 6&#45;&gt;7 -->
<g id="edge7" class="edge">
<title>6&#45;&gt;7</title>
<path fill="none" stroke="black" d="M122.72,-379.72C122.99,-371.75 123.3,-362.86 123.59,-354.37"/>
<polygon fill="black" stroke="black" points="127.09,-354.42 123.93,-344.31 120.09,-354.18 127.09,-354.42"/>
</g>
<!-- 8 -->
<g id="node9" class="node">
<title>8</title>
<ellipse fill="none" stroke="black" cx="124.82" cy="-227.56" rx="31.64" ry="26.74"/>
<text text-anchor="middle" x="124.82" y="-231.36" font-family="Times,serif" font-size="14.00">[8]</text>
<text text-anchor="middle" x="124.82" y="-216.36" font-family="Times,serif" font-size="14.00">C: 2</text>
</g>
<!-- 7&#45;&gt;8 -->
<g id="edge8" class="edge">
<title>7&#45;&gt;8</title>
<path fill="none" stroke="black" d="M124.82,-289.98C124.82,-282.01 124.82,-273.12 124.82,-264.63"/>
<polygon fill="black" stroke="black" points="128.32,-264.57 124.82,-254.57 121.32,-264.57 128.32,-264.57"/>
</g>
<!-- 9 -->
<g id="node10" class="node">
<title>9</title>
<ellipse fill="none" stroke="black" cx="125.82" cy="-137.82" rx="44.6" ry="26.74"/>
<text text-anchor="middle" x="125.82" y="-141.62" font-family="Times,serif" font-size="14.00">[9]</text>
<text text-anchor="middle" x="125.82" y="-126.62" font-family="Times,serif" font-size="14.00">C: 143</text>
</g>
<!-- 8&#45;&gt;9 -->
<g id="edge9" class="edge">
<title>8&#45;&gt;9</title>
<path fill="none" stroke="black" d="M125.12,-200.24C125.21,-192.27 125.31,-183.38 125.41,-174.89"/>
<polygon fill="black" stroke="black" points="128.91,-174.87 125.52,-164.83 121.91,-174.79 128.91,-174.87"/>
</g>
<!-- 9&#45;&gt;5 -->
<g id="edge10" class="edge">
<title>9&#45;&gt;5</title>
<path fill="none" stroke="black" d="M113.84,-111.75C109.51,-102.69 104.48,-92.18 99.61,-81.99"/>
<polygon fill="black" stroke="black" points="102.68,-80.29 95.21,-72.78 96.37,-83.31 102.68,-80.29"/>
</g>
</g>
</svg>
