<?xml version="1.0" encoding="UTF-8" standalone="no"?>
<!DOCTYPE svg PUBLIC "-//W3C//DTD SVG 1.1//EN"
 "http://www.w3.org/Graphics/SVG/1.1/DTD/svg11.dtd">
<!-- Generated by graphviz version 2.43.0 (0)
 -->
<!-- Title: %3 Pages: 1 -->
<svg width="253pt" height="531pt"
 viewBox="0.00 0.00 253.00 530.91" xmlns="http://www.w3.org/2000/svg" xmlns:xlink="http://www.w3.org/1999/xlink">
<g id="graph0" class="graph" transform="scale(1 1) rotate(0) translate(4 526.91)">
<title>%3</title>
<polygon fill="white" stroke="transparent" points="-4,4 -4,-526.91 249,-526.91 249,4 -4,4"/>
<!-- 0 -->
<g id="node1" class="node">
<title>0</title>
<polygon fill="none" stroke="black" points="187.82,-522.91 133.82,-522.91 133.82,-469.91 187.82,-469.91 187.82,-522.91"/>
<text text-anchor="middle" x="160.82" y="-507.71" font-family="Times,serif" font-size="14.00">[0]</text>
<text text-anchor="middle" x="160.82" y="-492.71" font-family="Times,serif" font-size="14.00">C: 4</text>
<text text-anchor="middle" x="160.82" y="-477.71" font-family="Times,serif" font-size="14.00">T: 50</text>
</g>
<!-- 1 -->
<g id="node2" class="node">
<title>1</title>
<ellipse fill="none" stroke="black" cx="119.82" cy="-407.04" rx="31.64" ry="26.74"/>
<text text-anchor="middle" x="119.82" y="-410.84" font-family="Times,serif" font-size="14.00">[1]</text>
<text text-anchor="middle" x="119.82" y="-395.84" font-family="Times,serif" font-size="14.00">C: 1</text>
</g>
<!-- 0&#45;&gt;1 -->
<g id="edge1" class="edge">
<title>0&#45;&gt;1</title>
<path fill="none" stroke="black" d="M148.74,-469.67C144.59,-460.84 139.89,-450.82 135.5,-441.47"/>
<polygon fill="black" stroke="black" points="138.67,-439.97 131.25,-432.4 132.33,-442.94 138.67,-439.97"/>
</g>
<!-- 5 -->
<g id="node6" class="node">
<title>5</title>
<ellipse fill="none" stroke="black" cx="202.82" cy="-407.04" rx="31.64" ry="26.74"/>
<text text-anchor="middle" x="202.82" y="-410.84" font-family="Times,serif" font-size="14.00">[5]</text>
<text text-anchor="middle" x="202.82" y="-395.84" font-family="Times,serif" font-size="14.00">C: 1</text>
</g>
<!-- 0&#45;&gt;5 -->
<g id="edge2" class="edge">
<title>0&#45;&gt;5</title>
<path fill="none" stroke="black" d="M173.19,-469.67C177.48,-460.76 182.34,-450.65 186.87,-441.23"/>
<polygon fill="black" stroke="black" points="190.07,-442.63 191.25,-432.11 183.77,-439.6 190.07,-442.63"/>
</g>
<!-- 2 -->
<g id="node3" class="node">
<title>2</title>
<ellipse fill="none" stroke="black" cx="36.82" cy="-317.3" rx="31.64" ry="26.74"/>
<text text-anchor="middle" x="36.82" y="-321.1" font-family="Times,serif" font-size="14.00">[2]</text>
<text text-anchor="middle" x="36.82" y="-306.1" font-family="Times,serif" font-size="14.00">C: 8</text>
</g>
<!-- 1&#45;&gt;2 -->
<g id="edge3" class="edge">
<title>1&#45;&gt;2</title>
<path fill="none" stroke="black" d="M100.15,-385.25C89.19,-373.67 75.4,-359.09 63.48,-346.49"/>
<polygon fill="black" stroke="black" points="65.76,-343.81 56.35,-338.95 60.68,-348.62 65.76,-343.81"/>
</g>
<!-- 9 -->
<g id="node10" class="node">
<title>9</title>
<ellipse fill="none" stroke="black" cx="119.82" cy="-317.3" rx="31.64" ry="26.74"/>
<text text-anchor="middle" x="119.82" y="-321.1" font-family="Times,serif" font-size="14.00">[9]</text>
<text text-anchor="middle" x="119.82" y="-306.1" font-family="Times,serif" font-size="14.00">C: 1</text>
</g>
<!-- 1&#45;&gt;9 -->
<g id="edge4" class="edge">
<title>1&#45;&gt;9</title>
<path fill="none" stroke="black" d="M119.82,-379.72C119.82,-371.75 119.82,-362.86 119.82,-354.37"/>
<polygon fill="black" stroke="black" points="123.32,-354.31 119.82,-344.31 116.32,-354.31 123.32,-354.31"/>
</g>
<!-- 3 -->
<g id="node4" class="node">
<title>3</title>
<ellipse fill="none" stroke="black" cx="33.82" cy="-227.56" rx="31.64" ry="26.74"/>
<text text-anchor="middle" x="33.82" y="-231.36" font-family="Times,serif" font-size="14.00">[3]</text>
<text text-anchor="middle" x="33.82" y="-216.36" font-family="Times,serif" font-size="14.00">C: 1</text>
</g>
<!-- 2&#45;&gt;3 -->
<g id="edge5" class="edge">
<title>2&#45;&gt;3</title>
<path fill="none" stroke="black" d="M35.92,-289.98C35.65,-282.01 35.34,-273.12 35.05,-264.63"/>
<polygon fill="black" stroke="black" points="38.55,-264.44 34.71,-254.57 31.55,-264.68 38.55,-264.44"/>
</g>
<!-- 4 -->
<g id="node5" class="node">
<title>4</title>
<ellipse fill="none" stroke="black" cx="31.82" cy="-137.82" rx="31.64" ry="26.74"/>
<text text-anchor="middle" x="31.82" y="-141.62" font-family="Times,serif" font-size="14.00">[4]</text>
<text text-anchor="middle" x="31.82" y="-126.62" font-family="Times,serif" font-size="14.00">C: 1</text>
</g>
<!-- 3&#45;&gt;4 -->
<g id="edge6" class="edge">
<title>3&#45;&gt;4</title>
<path fill="none" stroke="black" d="M33.22,-200.24C33.04,-192.27 32.84,-183.38 32.64,-174.89"/>
<polygon fill="black" stroke="black" points="36.14,-174.74 32.41,-164.83 29.14,-174.9 36.14,-174.74"/>
</g>
<!-- 11 -->
<g id="node12" class="node">
<title>11</title>
<ellipse fill="none" stroke="black" stroke-width="2" cx="119.82" cy="-37.48" rx="45.01" ry="37.45"/>
<text text-anchor="middle" x="119.82" y="-48.78" font-family="Times,serif" font-size="14.00">[11]</text>
<text text-anchor="middle" x="119.82" y="-33.78" font-family="Times,serif" font-size="14.00">C: 46</text>
<text text-anchor="middle" x="119.82" y="-18.78" font-family="Times,serif" font-size="14.00">D: 122</text>
</g>
<!-- 4&#45;&gt;11 -->
<g id="edge7" class="edge">
<title>4&#45;&gt;11</title>
<path fill="none" stroke="black" d="M50.48,-115.97C60.86,-104.37 74.08,-89.59 86.2,-76.05"/>
<polygon fill="black" stroke="black" points="89.11,-78.05 93.17,-68.26 83.89,-73.38 89.11,-78.05"/>
</g>
<!-- 6 -->
<g id="node7" class="node">
<title>6</title>
<ellipse fill="none" stroke="black" cx="205.82" cy="-317.3" rx="31.64" ry="26.74"/>
<text text-anchor="middle" x="205.82" y="-321.1" font-family="Times,serif" font-size="14.00">[6]</text>
<text text-anchor="middle" x="205.82" y="-306.1" font-family="Times,serif" font-size="14.00">C: 8</text>
</g>
<!-- 5&#45;&gt;6 -->
<g id="edge8" class="edge">
<title>5&#45;&gt;6</title>
<path fill="none" stroke="black" d="M203.72,-379.72C203.99,-371.75 204.3,-362.86 204.59,-354.37"/>
<polygon fill="black" stroke="black" points="208.09,-354.42 204.93,-344.31 201.09,-354.18 208.09,-354.42"/>
</g>
<!-- 7 -->
<g id="node8" class="node">
<title>7</title>
<ellipse fill="none" stroke="black" cx="206.82" cy="-227.56" rx="38.37" ry="26.74"/>
<text text-anchor="middle" x="206.82" y="-231.36" font-family="Times,serif" font-size="14.00">[7]</text>
<text text-anchor="middle" x="206.82" y="-216.36" font-family="Times,serif" font-size="14.00">C: 47</text>
</g>
<!-- 6&#45;&gt;7 -->
<g id="edge9" class="edge">
<title>6&#45;&gt;7</title>
<path fill="none" stroke="black" d="M206.12,-289.98C206.21,-282.01 206.31,-273.12 206.41,-264.63"/>
<polygon fill="black" stroke="black" points="209.91,-264.61 206.52,-254.57 202.91,-264.53 209.91,-264.61"/>
</g>
<!-- 8 -->
<g id="node9" class="node">
<title>8</title>
<ellipse fill="none" stroke="black" cx="207.82" cy="-137.82" rx="31.64" ry="26.74"/>
<text text-anchor="middle" x="207.82" y="-141.62" font-family="Times,serif" font-size="14.00">[8]</text>
<text text-anchor="middle" x="207.82" y="-126.62" font-family="Times,serif" font-size="14.00">C: 5</text>
</g>
<!-- 7&#45;&gt;8 -->
<g id="edge10" class="edge">
<title>7&#45;&gt;8</title>
<path fill="none" stroke="black" d="M207.12,-200.24C207.21,-192.27 207.31,-183.38 207.41,-174.89"/>
<polygon fill="black" stroke="black" points="210.91,-174.87 207.52,-164.83 203.91,-174.79 210.91,-174.87"/>
</g>
<!-- 8&#45;&gt;11 -->
<g id="edge11" class="edge">
<title>8&#45;&gt;11</title>
<path fill="none" stroke="black" d="M189.16,-115.97C178.78,-104.37 165.56,-89.59 153.44,-76.05"/>
<polygon fill="black" stroke="black" points="155.75,-73.38 146.47,-68.26 150.53,-78.05 155.75,-73.38"/>
</g>
<!-- 10 -->
<g id="node11" class="node">
<title>10</title>
<ellipse fill="none" stroke="black" cx="119.82" cy="-137.82" rx="38.37" ry="26.74"/>
<text text-anchor="middle" x="119.82" y="-141.62" font-family="Times,serif" font-size="14.00">[10]</text>
<text text-anchor="middle" x="119.82" y="-126.62" font-family="Times,serif" font-size="14.00">C: 17</text>
</g>
<!-- 9&#45;&gt;10 -->
<g id="edge12" class="edge">
<title>9&#45;&gt;10</title>
<path fill="none" stroke="black" d="M119.82,-290.12C119.82,-259.62 119.82,-209.07 119.82,-174.88"/>
<polygon fill="black" stroke="black" points="123.32,-174.83 119.82,-164.83 116.32,-174.83 123.32,-174.83"/>
</g>
<!-- 10&#45;&gt;11 -->
<g id="edge13" class="edge">
<title>10&#45;&gt;11</title>
<path fill="none" stroke="black" d="M119.82,-110.73C119.82,-102.87 119.82,-94.01 119.82,-85.24"/>
<polygon fill="black" stroke="black" points="123.32,-85.06 119.82,-75.06 116.32,-85.06 123.32,-85.06"/>
</g>
</g>
</svg>
