<?xml version="1.0" encoding="UTF-8" standalone="no"?>
<!DOCTYPE svg PUBLIC "-//W3C//DTD SVG 1.1//EN"
 "http://www.w3.org/Graphics/SVG/1.1/DTD/svg11.dtd">
<!-- Generated by graphviz version 2.43.0 (0)
 -->
<!-- Title: %3 Pages: 1 -->
<svg width="220pt" height="531pt"
 viewBox="0.00 0.00 220.00 530.91" xmlns="http://www.w3.org/2000/svg" xmlns:xlink="http://www.w3.org/1999/xlink">
<g id="graph0" class="graph" transform="scale(1 1) rotate(0) translate(4 526.91)">
<title>%3</title>
<polygon fill="white" stroke="transparent" points="-4,4 -4,-526.91 216,-526.91 216,4 -4,4"/>
<!-- 0 -->
<g id="node1" class="node">
<title>0</title>
<polygon fill="none" stroke="black" points="153.82,-522.91 99.82,-522.91 99.82,-469.91 153.82,-469.91 153.82,-522.91"/>
<text text-anchor="middle" x="126.82" y="-507.71" font-family="Times,serif" font-size="14.00">[0]</text>
<text text-anchor="middle" x="126.82" y="-492.71" font-family="Times,serif" font-size="14.00">C: 1</text>
<text text-anchor="middle" x="126.82" y="-477.71" font-family="Times,serif" font-size="14.00">T: 50</text>
</g>
<!-- 1 -->
<g id="node2" class="node">
<title>1</title>
<ellipse fill="none" stroke="black" cx="79.82" cy="-407.04" rx="38.37" ry="26.74"/>
<text text-anchor="middle" x="79.82" y="-410.84" font-family="Times,serif" font-size="14.00">[1]</text>
<text text-anchor="middle" x="79.82" y="-395.84" font-family="Times,serif" font-size="14.00">C: 40</text>
</g>
<!-- 0&#45;&gt;1 -->
<g id="edge1" class="edge">
<title>0&#45;&gt;1</title>
<path fill="none" stroke="black" d="M112.97,-469.67C108.22,-460.84 102.83,-450.82 97.8,-441.47"/>
<polygon fill="black" stroke="black" points="100.74,-439.55 92.92,-432.4 94.58,-442.87 100.74,-439.55"/>
</g>
<!-- 5 -->
<g id="node6" class="node">
<title>5</title>
<ellipse fill="none" stroke="black" cx="173.82" cy="-407.04" rx="38.37" ry="26.74"/>
<text text-anchor="middle" x="173.82" y="-410.84" font-family="Times,serif" font-size="14.00">[5]</text>
<text text-anchor="middle" x="173.82" y="-395.84" font-family="Times,serif" font-size="14.00">C: 20</text>
</g>
<!-- 0&#45;&gt;5 -->
<g id="edge2" class="edge">
<title>0&#45;&gt;5</title>
<path fill="none" stroke="black" d="M140.67,-469.67C145.42,-460.84 150.81,-450.82 155.84,-441.47"/>
<polygon fill="black" stroke="black" points="159.06,-442.87 160.72,-432.4 152.9,-439.55 159.06,-442.87"/>
</g>
<!-- 2 -->
<g id="node3" class="node">
<title>2</title>
<ellipse fill="none" stroke="black" cx="79.82" cy="-317.3" rx="38.37" ry="26.74"/>
<text text-anchor="middle" x="79.82" y="-321.1" font-family="Times,serif" font-size="14.00">[2]</text>
<text text-anchor="middle" x="79.82" y="-306.1" font-family="Times,serif" font-size="14.00">C: 19</text>
</g>
<!-- 1&#45;&gt;2 -->
<g id="edge3" class="edge">
<title>1&#45;&gt;2</title>
<path fill="none" stroke="black" d="M79.82,-379.72C79.82,-371.75 79.82,-362.86 79.82,-354.37"/>
<polygon fill="black" stroke="black" points="83.32,-354.31 79.82,-344.31 76.32,-354.31 83.32,-354.31"/>
</g>
<!-- 3 -->
<g id="node4" class="node">
<title>3</title>
<ellipse fill="none" stroke="black" cx="79.82" cy="-227.56" rx="31.64" ry="26.74"/>
<text text-anchor="middle" x="79.82" y="-231.36" font-family="Times,serif" font-size="14.00">[3]</text>
<text text-anchor="middle" x="79.82" y="-216.36" font-family="Times,serif" font-size="14.00">C: 9</text>
</g>
<!-- 2&#45;&gt;3 -->
<g id="edge4" class="edge">
<title>2&#45;&gt;3</title>
<path fill="none" stroke="black" d="M79.82,-289.98C79.82,-282.01 79.82,-273.12 79.82,-264.63"/>
<polygon fill="black" stroke="black" points="83.32,-264.57 79.82,-254.57 76.32,-264.57 83.32,-264.57"/>
</g>
<!-- 4 -->
<g id="node5" class="node">
<title>4</title>
<ellipse fill="none" stroke="black" cx="31.82" cy="-137.82" rx="31.64" ry="26.74"/>
<text text-anchor="middle" x="31.82" y="-141.62" font-family="Times,serif" font-size="14.00">[4]</text>
<text text-anchor="middle" x="31.82" y="-126.62" font-family="Times,serif" font-size="14.00">C: 4</text>
</g>
<!-- 3&#45;&gt;4 -->
<g id="edge5" class="edge">
<title>3&#45;&gt;4</title>
<path fill="none" stroke="black" d="M66.7,-202.59C61.42,-192.93 55.25,-181.65 49.58,-171.28"/>
<polygon fill="black" stroke="black" points="52.62,-169.56 44.75,-162.47 46.48,-172.92 52.62,-169.56"/>
</g>
<!-- 9 -->
<g id="node10" class="node">
<title>9</title>
<ellipse fill="none" stroke="black" cx="113.82" cy="-137.82" rx="31.64" ry="26.74"/>
<text text-anchor="middle" x="113.82" y="-141.62" font-family="Times,serif" font-size="14.00">[9]</text>
<text text-anchor="middle" x="113.82" y="-126.62" font-family="Times,serif" font-size="14.00">C: 8</text>
</g>
<!-- 3&#45;&gt;9 -->
<g id="edge6" class="edge">
<title>3&#45;&gt;9</title>
<path fill="none" stroke="black" d="M89.47,-201.66C92.91,-192.78 96.85,-182.63 100.54,-173.1"/>
<polygon fill="black" stroke="black" points="103.91,-174.08 104.26,-163.49 97.38,-171.55 103.91,-174.08"/>
</g>
<!-- 8 -->
<g id="node9" class="node">
<title>8</title>
<ellipse fill="none" stroke="black" stroke-width="2" cx="113.82" cy="-37.48" rx="45.01" ry="37.45"/>
<text text-anchor="middle" x="113.82" y="-48.78" font-family="Times,serif" font-size="14.00">[8]</text>
<text text-anchor="middle" x="113.82" y="-33.78" font-family="Times,serif" font-size="14.00">C: 25</text>
<text text-anchor="middle" x="113.82" y="-18.78" font-family="Times,serif" font-size="14.00">D: 153</text>
</g>
<!-- 4&#45;&gt;8 -->
<g id="edge7" class="edge">
<title>4&#45;&gt;8</title>
<path fill="none" stroke="black" d="M49.61,-115.48C59.05,-104.16 70.94,-89.91 81.91,-76.75"/>
<polygon fill="black" stroke="black" points="84.88,-78.65 88.6,-68.73 79.5,-74.17 84.88,-78.65"/>
</g>
<!-- 6 -->
<g id="node7" class="node">
<title>6</title>
<ellipse fill="none" stroke="black" cx="173.82" cy="-317.3" rx="31.64" ry="26.74"/>
<text text-anchor="middle" x="173.82" y="-321.1" font-family="Times,serif" font-size="14.00">[6]</text>
<text text-anchor="middle" x="173.82" y="-306.1" font-family="Times,serif" font-size="14.00">C: 9</text>
</g>
<!-- 5&#45;&gt;6 -->
<g id="edge8" class="edge">
<title>5&#45;&gt;6</title>
<path fill="none" stroke="black" d="M173.82,-379.72C173.82,-371.75 173.82,-362.86 173.82,-354.37"/>
<polygon fill="black" stroke="black" points="177.32,-354.31 173.82,-344.31 170.32,-354.31 177.32,-354.31"/>
</g>
<!-- 7 -->
<g id="node8" class="node">
<title>7</title>
<ellipse fill="none" stroke="black" cx="173.82" cy="-227.56" rx="31.64" ry="26.74"/>
<text text-anchor="middle" x="173.82" y="-231.36" font-family="Times,serif" font-size="14.00">[7]</text>
<text text-anchor="middle" x="173.82" y="-216.36" font-family="Times,serif" font-size="14.00">C: 5</text>
</g>
<!-- 6&#45;&gt;7 -->
<g id="edge9" class="edge">
<title>6&#45;&gt;7</title>
<path fill="none" stroke="black" d="M173.82,-289.98C173.82,-282.01 173.82,-273.12 173.82,-264.63"/>
<polygon fill="black" stroke="black" points="177.32,-264.57 173.82,-254.57 170.32,-264.57 177.32,-264.57"/>
</g>
<!-- 7&#45;&gt;8 -->
<g id="edge10" class="edge">
<title>7&#45;&gt;8</title>
<path fill="none" stroke="black" d="M172.17,-200.66C170.05,-176.8 165.3,-140.69 154.82,-110.95 151.1,-100.41 145.89,-89.62 140.43,-79.7"/>
<polygon fill="black" stroke="black" points="143.38,-77.81 135.37,-70.87 137.3,-81.28 143.38,-77.81"/>
</g>
<!-- 9&#45;&gt;8 -->
<g id="edge11" class="edge">
<title>9&#45;&gt;8</title>
<path fill="none" stroke="black" d="M113.82,-110.73C113.82,-102.87 113.82,-94.01 113.82,-85.24"/>
<polygon fill="black" stroke="black" points="117.32,-85.06 113.82,-75.06 110.32,-85.06 117.32,-85.06"/>
</g>
</g>
</svg>
