<?xml version="1.0" encoding="UTF-8" standalone="no"?>
<!DOCTYPE svg PUBLIC "-//W3C//DTD SVG 1.1//EN"
 "http://www.w3.org/Graphics/SVG/1.1/DTD/svg11.dtd">
<!-- Generated by graphviz version 2.43.0 (0)
 -->
<!-- Title: %3 Pages: 1 -->
<svg width="248pt" height="710pt"
 viewBox="0.00 0.00 247.64 710.39" xmlns="http://www.w3.org/2000/svg" xmlns:xlink="http://www.w3.org/1999/xlink">
<g id="graph0" class="graph" transform="scale(1 1) rotate(0) translate(4 706.39)">
<title>%3</title>
<polygon fill="white" stroke="transparent" points="-4,4 -4,-706.39 243.64,-706.39 243.64,4 -4,4"/>
<!-- 0 -->
<g id="node1" class="node">
<title>0</title>
<polygon fill="none" stroke="black" points="150.82,-702.39 88.82,-702.39 88.82,-649.39 150.82,-649.39 150.82,-702.39"/>
<text text-anchor="middle" x="119.82" y="-687.19" font-family="Times,serif" font-size="14.00">[0]</text>
<text text-anchor="middle" x="119.82" y="-672.19" font-family="Times,serif" font-size="14.00">C: 1</text>
<text text-anchor="middle" x="119.82" y="-657.19" font-family="Times,serif" font-size="14.00">T: 100</text>
</g>
<!-- 1 -->
<g id="node2" class="node">
<title>1</title>
<ellipse fill="none" stroke="black" cx="119.82" cy="-586.52" rx="31.64" ry="26.74"/>
<text text-anchor="middle" x="119.82" y="-590.32" font-family="Times,serif" font-size="14.00">[1]</text>
<text text-anchor="middle" x="119.82" y="-575.32" font-family="Times,serif" font-size="14.00">C: 3</text>
</g>
<!-- 0&#45;&gt;1 -->
<g id="edge1" class="edge">
<title>0&#45;&gt;1</title>
<path fill="none" stroke="black" d="M119.82,-649.15C119.82,-641.21 119.82,-632.31 119.82,-623.79"/>
<polygon fill="black" stroke="black" points="123.32,-623.69 119.82,-613.69 116.32,-623.69 123.32,-623.69"/>
</g>
<!-- 2 -->
<g id="node3" class="node">
<title>2</title>
<ellipse fill="none" stroke="black" cx="119.82" cy="-496.78" rx="38.37" ry="26.74"/>
<text text-anchor="middle" x="119.82" y="-500.58" font-family="Times,serif" font-size="14.00">[2]</text>
<text text-anchor="middle" x="119.82" y="-485.58" font-family="Times,serif" font-size="14.00">C: 53</text>
</g>
<!-- 1&#45;&gt;2 -->
<g id="edge2" class="edge">
<title>1&#45;&gt;2</title>
<path fill="none" stroke="black" d="M119.82,-559.2C119.82,-551.23 119.82,-542.34 119.82,-533.85"/>
<polygon fill="black" stroke="black" points="123.32,-533.79 119.82,-523.79 116.32,-533.79 123.32,-533.79"/>
</g>
<!-- 3 -->
<g id="node4" class="node">
<title>3</title>
<ellipse fill="none" stroke="black" cx="119.82" cy="-407.04" rx="38.37" ry="26.74"/>
<text text-anchor="middle" x="119.82" y="-410.84" font-family="Times,serif" font-size="14.00">[3]</text>
<text text-anchor="middle" x="119.82" y="-395.84" font-family="Times,serif" font-size="14.00">C: 86</text>
</g>
<!-- 2&#45;&gt;3 -->
<g id="edge3" class="edge">
<title>2&#45;&gt;3</title>
<path fill="none" stroke="black" d="M119.82,-469.46C119.82,-461.49 119.82,-452.6 119.82,-444.11"/>
<polygon fill="black" stroke="black" points="123.32,-444.05 119.82,-434.05 116.32,-444.05 123.32,-444.05"/>
</g>
<!-- 4 -->
<g id="node5" class="node">
<title>4</title>
<ellipse fill="none" stroke="black" cx="119.82" cy="-317.3" rx="38.37" ry="26.74"/>
<text text-anchor="middle" x="119.82" y="-321.1" font-family="Times,serif" font-size="14.00">[4]</text>
<text text-anchor="middle" x="119.82" y="-306.1" font-family="Times,serif" font-size="14.00">C: 11</text>
</g>
<!-- 3&#45;&gt;4 -->
<g id="edge4" class="edge">
<title>3&#45;&gt;4</title>
<path fill="none" stroke="black" d="M119.82,-379.72C119.82,-371.75 119.82,-362.86 119.82,-354.37"/>
<polygon fill="black" stroke="black" points="123.32,-354.31 119.82,-344.31 116.32,-354.31 123.32,-354.31"/>
</g>
<!-- 5 -->
<g id="node6" class="node">
<title>5</title>
<ellipse fill="none" stroke="black" cx="45.82" cy="-227.56" rx="31.64" ry="26.74"/>
<text text-anchor="middle" x="45.82" y="-231.36" font-family="Times,serif" font-size="14.00">[5]</text>
<text text-anchor="middle" x="45.82" y="-216.36" font-family="Times,serif" font-size="14.00">C: 1</text>
</g>
<!-- 4&#45;&gt;5 -->
<g id="edge5" class="edge">
<title>4&#45;&gt;5</title>
<path fill="none" stroke="black" d="M100.76,-293.71C91.51,-282.73 80.28,-269.42 70.39,-257.69"/>
<polygon fill="black" stroke="black" points="72.92,-255.26 63.79,-249.87 67.57,-259.78 72.92,-255.26"/>
</g>
<!-- 7 -->
<g id="node8" class="node">
<title>7</title>
<ellipse fill="none" stroke="black" cx="119.82" cy="-137.82" rx="38.37" ry="26.74"/>
<text text-anchor="middle" x="119.82" y="-141.62" font-family="Times,serif" font-size="14.00">[7]</text>
<text text-anchor="middle" x="119.82" y="-126.62" font-family="Times,serif" font-size="14.00">C: 80</text>
</g>
<!-- 4&#45;&gt;7 -->
<g id="edge6" class="edge">
<title>4&#45;&gt;7</title>
<path fill="none" stroke="black" d="M119.82,-290.12C119.82,-259.62 119.82,-209.07 119.82,-174.88"/>
<polygon fill="black" stroke="black" points="123.32,-174.83 119.82,-164.83 116.32,-174.83 123.32,-174.83"/>
</g>
<!-- 9 -->
<g id="node10" class="node">
<title>9</title>
<ellipse fill="none" stroke="black" cx="193.82" cy="-227.56" rx="31.64" ry="26.74"/>
<text text-anchor="middle" x="193.82" y="-231.36" font-family="Times,serif" font-size="14.00">[9]</text>
<text text-anchor="middle" x="193.82" y="-216.36" font-family="Times,serif" font-size="14.00">C: 1</text>
</g>
<!-- 4&#45;&gt;9 -->
<g id="edge7" class="edge">
<title>4&#45;&gt;9</title>
<path fill="none" stroke="black" d="M138.88,-293.71C148.13,-282.73 159.36,-269.42 169.25,-257.69"/>
<polygon fill="black" stroke="black" points="172.07,-259.78 175.85,-249.87 166.72,-255.26 172.07,-259.78"/>
</g>
<!-- 6 -->
<g id="node7" class="node">
<title>6</title>
<ellipse fill="none" stroke="black" cx="31.82" cy="-137.82" rx="31.64" ry="26.74"/>
<text text-anchor="middle" x="31.82" y="-141.62" font-family="Times,serif" font-size="14.00">[6]</text>
<text text-anchor="middle" x="31.82" y="-126.62" font-family="Times,serif" font-size="14.00">C: 3</text>
</g>
<!-- 5&#45;&gt;6 -->
<g id="edge8" class="edge">
<title>5&#45;&gt;6</title>
<path fill="none" stroke="black" d="M41.7,-200.71C40.38,-192.5 38.91,-183.27 37.51,-174.5"/>
<polygon fill="black" stroke="black" points="40.95,-173.81 35.92,-164.49 34.03,-174.92 40.95,-173.81"/>
</g>
<!-- 8 -->
<g id="node9" class="node">
<title>8</title>
<ellipse fill="none" stroke="black" stroke-width="2" cx="119.82" cy="-37.48" rx="45.01" ry="37.45"/>
<text text-anchor="middle" x="119.82" y="-48.78" font-family="Times,serif" font-size="14.00">[8]</text>
<text text-anchor="middle" x="119.82" y="-33.78" font-family="Times,serif" font-size="14.00">C: 3</text>
<text text-anchor="middle" x="119.82" y="-18.78" font-family="Times,serif" font-size="14.00">D: 331</text>
</g>
<!-- 6&#45;&gt;8 -->
<g id="edge9" class="edge">
<title>6&#45;&gt;8</title>
<path fill="none" stroke="black" d="M50.48,-115.97C60.86,-104.37 74.08,-89.59 86.2,-76.05"/>
<polygon fill="black" stroke="black" points="89.11,-78.05 93.17,-68.26 83.89,-73.38 89.11,-78.05"/>
</g>
<!-- 7&#45;&gt;8 -->
<g id="edge10" class="edge">
<title>7&#45;&gt;8</title>
<path fill="none" stroke="black" d="M119.82,-110.73C119.82,-102.87 119.82,-94.01 119.82,-85.24"/>
<polygon fill="black" stroke="black" points="123.32,-85.06 119.82,-75.06 116.32,-85.06 123.32,-85.06"/>
</g>
<!-- 10 -->
<g id="node11" class="node">
<title>10</title>
<ellipse fill="none" stroke="black" cx="207.82" cy="-137.82" rx="31.64" ry="26.74"/>
<text text-anchor="middle" x="207.82" y="-141.62" font-family="Times,serif" font-size="14.00">[10]</text>
<text text-anchor="middle" x="207.82" y="-126.62" font-family="Times,serif" font-size="14.00">C: 8</text>
</g>
<!-- 9&#45;&gt;10 -->
<g id="edge11" class="edge">
<title>9&#45;&gt;10</title>
<path fill="none" stroke="black" d="M197.94,-200.71C199.25,-192.5 200.73,-183.27 202.13,-174.5"/>
<polygon fill="black" stroke="black" points="205.61,-174.92 203.72,-164.49 198.69,-173.81 205.61,-174.92"/>
</g>
<!-- 10&#45;&gt;8 -->
<g id="edge12" class="edge">
<title>10&#45;&gt;8</title>
<path fill="none" stroke="black" d="M189.16,-115.97C178.78,-104.37 165.56,-89.59 153.44,-76.05"/>
<polygon fill="black" stroke="black" points="155.75,-73.38 146.47,-68.26 150.53,-78.05 155.75,-73.38"/>
</g>
</g>
</svg>
