<?xml version="1.0" encoding="UTF-8" standalone="no"?>
<!DOCTYPE svg PUBLIC "-//W3C//DTD SVG 1.1//EN"
 "http://www.w3.org/Graphics/SVG/1.1/DTD/svg11.dtd">
<!-- Generated by graphviz version 2.43.0 (0)
 -->
<!-- Title: %3 Pages: 1 -->
<svg width="124pt" height="351pt"
 viewBox="0.00 0.00 124.44 351.43" xmlns="http://www.w3.org/2000/svg" xmlns:xlink="http://www.w3.org/1999/xlink">
<g id="graph0" class="graph" transform="scale(1 1) rotate(0) translate(4 347.43)">
<title>%3</title>
<polygon fill="white" stroke="transparent" points="-4,4 -4,-347.43 120.44,-347.43 120.44,4 -4,4"/>
<!-- 0 -->
<g id="node1" class="node">
<title>0</title>
<polygon fill="none" stroke="black" points="98.18,-343.43 44.18,-343.43 44.18,-290.43 98.18,-290.43 98.18,-343.43"/>
<text text-anchor="middle" x="71.18" y="-328.23" font-family="Times,serif" font-size="14.00">[0]</text>
<text text-anchor="middle" x="71.18" y="-313.23" font-family="Times,serif" font-size="14.00">C: 12</text>
<text text-anchor="middle" x="71.18" y="-298.23" font-family="Times,serif" font-size="14.00">T: 50</text>
</g>
<!-- 1 -->
<g id="node2" class="node">
<title>1</title>
<ellipse fill="none" stroke="black" cx="71.18" cy="-227.56" rx="38.37" ry="26.74"/>
<text text-anchor="middle" x="71.18" y="-231.36" font-family="Times,serif" font-size="14.00">[1]</text>
<text text-anchor="middle" x="71.18" y="-216.36" font-family="Times,serif" font-size="14.00">C: 34</text>
</g>
<!-- 0&#45;&gt;1 -->
<g id="edge1" class="edge">
<title>0&#45;&gt;1</title>
<path fill="none" stroke="black" d="M71.18,-290.19C71.18,-282.25 71.18,-273.35 71.18,-264.83"/>
<polygon fill="black" stroke="black" points="74.68,-264.73 71.18,-254.73 67.68,-264.73 74.68,-264.73"/>
</g>
<!-- 2 -->
<g id="node3" class="node">
<title>2</title>
<ellipse fill="none" stroke="black" cx="38.18" cy="-137.82" rx="38.37" ry="26.74"/>
<text text-anchor="middle" x="38.18" y="-141.62" font-family="Times,serif" font-size="14.00">[2]</text>
<text text-anchor="middle" x="38.18" y="-126.62" font-family="Times,serif" font-size="14.00">C: 53</text>
</g>
<!-- 1&#45;&gt;2 -->
<g id="edge2" class="edge">
<title>1&#45;&gt;2</title>
<path fill="none" stroke="black" d="M61.64,-201.19C58.42,-192.64 54.78,-182.94 51.33,-173.79"/>
<polygon fill="black" stroke="black" points="54.5,-172.27 47.71,-164.14 47.95,-174.74 54.5,-172.27"/>
</g>
<!-- 3 -->
<g id="node4" class="node">
<title>3</title>
<ellipse fill="none" stroke="black" stroke-width="2" cx="71.18" cy="-37.48" rx="45.01" ry="37.45"/>
<text text-anchor="middle" x="71.18" y="-48.78" font-family="Times,serif" font-size="14.00">[3]</text>
<text text-anchor="middle" x="71.18" y="-33.78" font-family="Times,serif" font-size="14.00">C: 26</text>
<text text-anchor="middle" x="71.18" y="-18.78" font-family="Times,serif" font-size="14.00">D: 175</text>
</g>
<!-- 1&#45;&gt;3 -->
<g id="edge3" class="edge">
<title>1&#45;&gt;3</title>
<path fill="none" stroke="black" d="M78.34,-200.89C81.06,-189.85 83.84,-176.73 85.18,-164.69 87.84,-140.96 87.46,-134.73 85.18,-110.95 84.36,-102.33 82.99,-93.22 81.43,-84.46"/>
<polygon fill="black" stroke="black" points="84.83,-83.58 79.53,-74.41 77.95,-84.88 84.83,-83.58"/>
</g>
<!-- 2&#45;&gt;3 -->
<g id="edge4" class="edge">
<title>2&#45;&gt;3</title>
<path fill="none" stroke="black" d="M46.68,-111.5C49.58,-102.87 52.9,-92.96 56.15,-83.28"/>
<polygon fill="black" stroke="black" points="59.49,-84.32 59.36,-73.72 52.86,-82.09 59.49,-84.32"/>
</g>
</g>
</svg>
