<?xml version="1.0" encoding="UTF-8" standalone="no"?>
<!DOCTYPE svg PUBLIC "-//W3C//DTD SVG 1.1//EN"
 "http://www.w3.org/Graphics/SVG/1.1/DTD/svg11.dtd">
<!-- Generated by graphviz version 2.43.0 (0)
 -->
<!-- Title: %3 Pages: 1 -->
<svg width="260pt" height="351pt"
 viewBox="0.00 0.00 259.64 351.43" xmlns="http://www.w3.org/2000/svg" xmlns:xlink="http://www.w3.org/1999/xlink">
<g id="graph0" class="graph" transform="scale(1 1) rotate(0) translate(4 347.43)">
<title>%3</title>
<polygon fill="white" stroke="transparent" points="-4,4 -4,-347.43 255.64,-347.43 255.64,4 -4,4"/>
<!-- 0 -->
<g id="node1" class="node">
<title>0</title>
<polygon fill="none" stroke="black" points="156.82,-343.43 94.82,-343.43 94.82,-290.43 156.82,-290.43 156.82,-343.43"/>
<text text-anchor="middle" x="125.82" y="-328.23" font-family="Times,serif" font-size="14.00">[0]</text>
<text text-anchor="middle" x="125.82" y="-313.23" font-family="Times,serif" font-size="14.00">C: 6</text>
<text text-anchor="middle" x="125.82" y="-298.23" font-family="Times,serif" font-size="14.00">T: 100</text>
</g>
<!-- 1 -->
<g id="node2" class="node">
<title>1</title>
<ellipse fill="none" stroke="black" cx="48.82" cy="-227.56" rx="31.64" ry="26.74"/>
<text text-anchor="middle" x="48.82" y="-231.36" font-family="Times,serif" font-size="14.00">[1]</text>
<text text-anchor="middle" x="48.82" y="-216.36" font-family="Times,serif" font-size="14.00">C: 8</text>
</g>
<!-- 0&#45;&gt;1 -->
<g id="edge1" class="edge">
<title>0&#45;&gt;1</title>
<path fill="none" stroke="black" d="M103.13,-290.19C94.08,-279.92 83.62,-268.05 74.31,-257.49"/>
<polygon fill="black" stroke="black" points="76.7,-254.9 67.46,-249.71 71.45,-259.53 76.7,-254.9"/>
</g>
<!-- 3 -->
<g id="node4" class="node">
<title>3</title>
<ellipse fill="none" stroke="black" cx="125.82" cy="-137.82" rx="44.6" ry="26.74"/>
<text text-anchor="middle" x="125.82" y="-141.62" font-family="Times,serif" font-size="14.00">[3]</text>
<text text-anchor="middle" x="125.82" y="-126.62" font-family="Times,serif" font-size="14.00">C: 157</text>
</g>
<!-- 0&#45;&gt;3 -->
<g id="edge2" class="edge">
<title>0&#45;&gt;3</title>
<path fill="none" stroke="black" d="M125.82,-290.18C125.82,-259.84 125.82,-209.22 125.82,-174.96"/>
<polygon fill="black" stroke="black" points="129.32,-174.9 125.82,-164.9 122.32,-174.9 129.32,-174.9"/>
</g>
<!-- 5 -->
<g id="node6" class="node">
<title>5</title>
<ellipse fill="none" stroke="black" cx="202.82" cy="-227.56" rx="31.64" ry="26.74"/>
<text text-anchor="middle" x="202.82" y="-231.36" font-family="Times,serif" font-size="14.00">[5]</text>
<text text-anchor="middle" x="202.82" y="-216.36" font-family="Times,serif" font-size="14.00">C: 2</text>
</g>
<!-- 0&#45;&gt;5 -->
<g id="edge3" class="edge">
<title>0&#45;&gt;5</title>
<path fill="none" stroke="black" d="M148.51,-290.19C157.56,-279.92 168.02,-268.05 177.33,-257.49"/>
<polygon fill="black" stroke="black" points="180.19,-259.53 184.18,-249.71 174.94,-254.9 180.19,-259.53"/>
</g>
<!-- 2 -->
<g id="node3" class="node">
<title>2</title>
<ellipse fill="none" stroke="black" cx="31.82" cy="-137.82" rx="31.64" ry="26.74"/>
<text text-anchor="middle" x="31.82" y="-141.62" font-family="Times,serif" font-size="14.00">[2]</text>
<text text-anchor="middle" x="31.82" y="-126.62" font-family="Times,serif" font-size="14.00">C: 5</text>
</g>
<!-- 1&#45;&gt;2 -->
<g id="edge4" class="edge">
<title>1&#45;&gt;2</title>
<path fill="none" stroke="black" d="M43.81,-200.71C42.22,-192.5 40.43,-183.27 38.73,-174.5"/>
<polygon fill="black" stroke="black" points="42.13,-173.64 36.79,-164.49 35.26,-174.97 42.13,-173.64"/>
</g>
<!-- 4 -->
<g id="node5" class="node">
<title>4</title>
<ellipse fill="none" stroke="black" stroke-width="2" cx="125.82" cy="-37.48" rx="45.01" ry="37.45"/>
<text text-anchor="middle" x="125.82" y="-48.78" font-family="Times,serif" font-size="14.00">[4]</text>
<text text-anchor="middle" x="125.82" y="-33.78" font-family="Times,serif" font-size="14.00">C: 68</text>
<text text-anchor="middle" x="125.82" y="-18.78" font-family="Times,serif" font-size="14.00">D: 323</text>
</g>
<!-- 2&#45;&gt;4 -->
<g id="edge5" class="edge">
<title>2&#45;&gt;4</title>
<path fill="none" stroke="black" d="M51.3,-116.45C62.73,-104.48 77.52,-89.01 90.91,-75"/>
<polygon fill="black" stroke="black" points="93.79,-77.05 98.17,-67.41 88.73,-72.22 93.79,-77.05"/>
</g>
<!-- 3&#45;&gt;4 -->
<g id="edge6" class="edge">
<title>3&#45;&gt;4</title>
<path fill="none" stroke="black" d="M125.82,-110.73C125.82,-102.87 125.82,-94.01 125.82,-85.24"/>
<polygon fill="black" stroke="black" points="129.32,-85.06 125.82,-75.06 122.32,-85.06 129.32,-85.06"/>
</g>
<!-- 6 -->
<g id="node7" class="node">
<title>6</title>
<ellipse fill="none" stroke="black" cx="219.82" cy="-137.82" rx="31.64" ry="26.74"/>
<text text-anchor="middle" x="219.82" y="-141.62" font-family="Times,serif" font-size="14.00">[6]</text>
<text text-anchor="middle" x="219.82" y="-126.62" font-family="Times,serif" font-size="14.00">C: 4</text>
</g>
<!-- 5&#45;&gt;6 -->
<g id="edge7" class="edge">
<title>5&#45;&gt;6</title>
<path fill="none" stroke="black" d="M207.83,-200.71C209.42,-192.5 211.21,-183.27 212.91,-174.5"/>
<polygon fill="black" stroke="black" points="216.38,-174.97 214.85,-164.49 209.51,-173.64 216.38,-174.97"/>
</g>
<!-- 6&#45;&gt;4 -->
<g id="edge8" class="edge">
<title>6&#45;&gt;4</title>
<path fill="none" stroke="black" d="M200.34,-116.45C188.91,-104.48 174.12,-89.01 160.73,-75"/>
<polygon fill="black" stroke="black" points="162.91,-72.22 153.47,-67.41 157.85,-77.05 162.91,-72.22"/>
</g>
</g>
</svg>
