<?xml version="1.0" encoding="UTF-8" standalone="no"?>
<!DOCTYPE svg PUBLIC "-//W3C//DTD SVG 1.1//EN"
 "http://www.w3.org/Graphics/SVG/1.1/DTD/svg11.dtd">
<!-- Generated by graphviz version 2.43.0 (0)
 -->
<!-- Title: %3 Pages: 1 -->
<svg width="192pt" height="441pt"
 viewBox="0.00 0.00 191.64 441.17" xmlns="http://www.w3.org/2000/svg" xmlns:xlink="http://www.w3.org/1999/xlink">
<g id="graph0" class="graph" transform="scale(1 1) rotate(0) translate(4 437.17)">
<title>%3</title>
<polygon fill="white" stroke="transparent" points="-4,4 -4,-437.17 187.64,-437.17 187.64,4 -4,4"/>
<!-- 0 -->
<g id="node1" class="node">
<title>0</title>
<polygon fill="none" stroke="black" points="122.82,-433.17 60.82,-433.17 60.82,-380.17 122.82,-380.17 122.82,-433.17"/>
<text text-anchor="middle" x="91.82" y="-417.97" font-family="Times,serif" font-size="14.00">[0]</text>
<text text-anchor="middle" x="91.82" y="-402.97" font-family="Times,serif" font-size="14.00">C: 41</text>
<text text-anchor="middle" x="91.82" y="-387.97" font-family="Times,serif" font-size="14.00">T: 100</text>
</g>
<!-- 1 -->
<g id="node2" class="node">
<title>1</title>
<ellipse fill="none" stroke="black" cx="91.82" cy="-317.3" rx="38.37" ry="26.74"/>
<text text-anchor="middle" x="91.82" y="-321.1" font-family="Times,serif" font-size="14.00">[1]</text>
<text text-anchor="middle" x="91.82" y="-306.1" font-family="Times,serif" font-size="14.00">C: 40</text>
</g>
<!-- 0&#45;&gt;1 -->
<g id="edge1" class="edge">
<title>0&#45;&gt;1</title>
<path fill="none" stroke="black" d="M91.82,-379.93C91.82,-371.99 91.82,-363.09 91.82,-354.57"/>
<polygon fill="black" stroke="black" points="95.32,-354.47 91.82,-344.47 88.32,-354.47 95.32,-354.47"/>
</g>
<!-- 2 -->
<g id="node3" class="node">
<title>2</title>
<ellipse fill="none" stroke="black" cx="91.82" cy="-227.56" rx="31.64" ry="26.74"/>
<text text-anchor="middle" x="91.82" y="-231.36" font-family="Times,serif" font-size="14.00">[2]</text>
<text text-anchor="middle" x="91.82" y="-216.36" font-family="Times,serif" font-size="14.00">C: 5</text>
</g>
<!-- 1&#45;&gt;2 -->
<g id="edge2" class="edge">
<title>1&#45;&gt;2</title>
<path fill="none" stroke="black" d="M91.82,-289.98C91.82,-282.01 91.82,-273.12 91.82,-264.63"/>
<polygon fill="black" stroke="black" points="95.32,-264.57 91.82,-254.57 88.32,-264.57 95.32,-264.57"/>
</g>
<!-- 3 -->
<g id="node4" class="node">
<title>3</title>
<ellipse fill="none" stroke="black" cx="31.82" cy="-137.82" rx="31.64" ry="26.74"/>
<text text-anchor="middle" x="31.82" y="-141.62" font-family="Times,serif" font-size="14.00">[3]</text>
<text text-anchor="middle" x="31.82" y="-126.62" font-family="Times,serif" font-size="14.00">C: 7</text>
</g>
<!-- 2&#45;&gt;3 -->
<g id="edge3" class="edge">
<title>2&#45;&gt;3</title>
<path fill="none" stroke="black" d="M76.37,-203.97C69.23,-193.53 60.64,-180.97 52.92,-169.68"/>
<polygon fill="black" stroke="black" points="55.75,-167.62 47.22,-161.34 49.97,-171.57 55.75,-167.62"/>
</g>
<!-- 4 -->
<g id="node5" class="node">
<title>4</title>
<ellipse fill="none" stroke="black" stroke-width="2" cx="91.82" cy="-37.48" rx="45.01" ry="37.45"/>
<text text-anchor="middle" x="91.82" y="-48.78" font-family="Times,serif" font-size="14.00">[4]</text>
<text text-anchor="middle" x="91.82" y="-33.78" font-family="Times,serif" font-size="14.00">C: 40</text>
<text text-anchor="middle" x="91.82" y="-18.78" font-family="Times,serif" font-size="14.00">D: 159</text>
</g>
<!-- 2&#45;&gt;4 -->
<g id="edge4" class="edge">
<title>2&#45;&gt;4</title>
<path fill="none" stroke="black" d="M91.82,-200.41C91.82,-170.74 91.82,-121.75 91.82,-85.42"/>
<polygon fill="black" stroke="black" points="95.32,-85.06 91.82,-75.06 88.32,-85.06 95.32,-85.06"/>
</g>
<!-- 5 -->
<g id="node6" class="node">
<title>5</title>
<ellipse fill="none" stroke="black" cx="151.82" cy="-137.82" rx="31.64" ry="26.74"/>
<text text-anchor="middle" x="151.82" y="-141.62" font-family="Times,serif" font-size="14.00">[5]</text>
<text text-anchor="middle" x="151.82" y="-126.62" font-family="Times,serif" font-size="14.00">C: 7</text>
</g>
<!-- 2&#45;&gt;5 -->
<g id="edge5" class="edge">
<title>2&#45;&gt;5</title>
<path fill="none" stroke="black" d="M107.27,-203.97C114.41,-193.53 123,-180.97 130.72,-169.68"/>
<polygon fill="black" stroke="black" points="133.66,-171.57 136.42,-161.34 127.89,-167.62 133.66,-171.57"/>
</g>
<!-- 3&#45;&gt;4 -->
<g id="edge6" class="edge">
<title>3&#45;&gt;4</title>
<path fill="none" stroke="black" d="M46.04,-113.52C52.17,-103.47 59.53,-91.4 66.54,-79.92"/>
<polygon fill="black" stroke="black" points="69.58,-81.65 71.8,-71.29 63.6,-78 69.58,-81.65"/>
</g>
<!-- 5&#45;&gt;4 -->
<g id="edge7" class="edge">
<title>5&#45;&gt;4</title>
<path fill="none" stroke="black" d="M137.6,-113.52C131.47,-103.47 124.11,-91.4 117.1,-79.92"/>
<polygon fill="black" stroke="black" points="120.04,-78 111.84,-71.29 114.06,-81.65 120.04,-78"/>
</g>
</g>
</svg>
