<?xml version="1.0" encoding="UTF-8" standalone="no"?>
<!DOCTYPE svg PUBLIC "-//W3C//DTD SVG 1.1//EN"
 "http://www.w3.org/Graphics/SVG/1.1/DTD/svg11.dtd">
<!-- Generated by graphviz version 2.43.0 (0)
 -->
<!-- Title: %3 Pages: 1 -->
<svg width="178pt" height="710pt"
 viewBox="0.00 0.00 178.37 710.39" xmlns="http://www.w3.org/2000/svg" xmlns:xlink="http://www.w3.org/1999/xlink">
<g id="graph0" class="graph" transform="scale(1 1) rotate(0) translate(4 706.39)">
<title>%3</title>
<polygon fill="white" stroke="transparent" points="-4,4 -4,-706.39 174.37,-706.39 174.37,4 -4,4"/>
<!-- 0 -->
<g id="node1" class="node">
<title>0</title>
<polygon fill="none" stroke="black" points="112.18,-702.39 58.18,-702.39 58.18,-649.39 112.18,-649.39 112.18,-702.39"/>
<text text-anchor="middle" x="85.18" y="-687.19" font-family="Times,serif" font-size="14.00">[0]</text>
<text text-anchor="middle" x="85.18" y="-672.19" font-family="Times,serif" font-size="14.00">C: 7</text>
<text text-anchor="middle" x="85.18" y="-657.19" font-family="Times,serif" font-size="14.00">T: 50</text>
</g>
<!-- 1 -->
<g id="node2" class="node">
<title>1</title>
<ellipse fill="none" stroke="black" cx="85.18" cy="-586.52" rx="38.37" ry="26.74"/>
<text text-anchor="middle" x="85.18" y="-590.32" font-family="Times,serif" font-size="14.00">[1]</text>
<text text-anchor="middle" x="85.18" y="-575.32" font-family="Times,serif" font-size="14.00">C: 12</text>
</g>
<!-- 0&#45;&gt;1 -->
<g id="edge1" class="edge">
<title>0&#45;&gt;1</title>
<path fill="none" stroke="black" d="M85.18,-649.15C85.18,-641.21 85.18,-632.31 85.18,-623.79"/>
<polygon fill="black" stroke="black" points="88.68,-623.69 85.18,-613.69 81.68,-623.69 88.68,-623.69"/>
</g>
<!-- 2 -->
<g id="node3" class="node">
<title>2</title>
<ellipse fill="none" stroke="black" cx="38.18" cy="-496.78" rx="38.37" ry="26.74"/>
<text text-anchor="middle" x="38.18" y="-500.58" font-family="Times,serif" font-size="14.00">[2]</text>
<text text-anchor="middle" x="38.18" y="-485.58" font-family="Times,serif" font-size="14.00">C: 10</text>
</g>
<!-- 1&#45;&gt;2 -->
<g id="edge2" class="edge">
<title>1&#45;&gt;2</title>
<path fill="none" stroke="black" d="M72.09,-561.08C67.1,-551.77 61.32,-540.98 55.97,-530.99"/>
<polygon fill="black" stroke="black" points="59.01,-529.26 51.21,-522.09 52.84,-532.56 59.01,-529.26"/>
</g>
<!-- 7 -->
<g id="node8" class="node">
<title>7</title>
<ellipse fill="none" stroke="black" cx="132.18" cy="-496.78" rx="38.37" ry="26.74"/>
<text text-anchor="middle" x="132.18" y="-500.58" font-family="Times,serif" font-size="14.00">[7]</text>
<text text-anchor="middle" x="132.18" y="-485.58" font-family="Times,serif" font-size="14.00">C: 19</text>
</g>
<!-- 1&#45;&gt;7 -->
<g id="edge3" class="edge">
<title>1&#45;&gt;7</title>
<path fill="none" stroke="black" d="M98.28,-561.08C103.27,-551.77 109.04,-540.98 114.4,-530.99"/>
<polygon fill="black" stroke="black" points="117.53,-532.56 119.16,-522.09 111.35,-529.26 117.53,-532.56"/>
</g>
<!-- 3 -->
<g id="node4" class="node">
<title>3</title>
<ellipse fill="none" stroke="black" cx="44.18" cy="-407.04" rx="31.64" ry="26.74"/>
<text text-anchor="middle" x="44.18" y="-410.84" font-family="Times,serif" font-size="14.00">[3]</text>
<text text-anchor="middle" x="44.18" y="-395.84" font-family="Times,serif" font-size="14.00">C: 1</text>
</g>
<!-- 2&#45;&gt;3 -->
<g id="edge4" class="edge">
<title>2&#45;&gt;3</title>
<path fill="none" stroke="black" d="M39.95,-469.93C40.5,-461.88 41.12,-452.85 41.71,-444.23"/>
<polygon fill="black" stroke="black" points="45.22,-444.23 42.41,-434.01 38.23,-443.75 45.22,-444.23"/>
</g>
<!-- 4 -->
<g id="node5" class="node">
<title>4</title>
<ellipse fill="none" stroke="black" cx="44.18" cy="-317.3" rx="31.64" ry="26.74"/>
<text text-anchor="middle" x="44.18" y="-321.1" font-family="Times,serif" font-size="14.00">[4]</text>
<text text-anchor="middle" x="44.18" y="-306.1" font-family="Times,serif" font-size="14.00">C: 2</text>
</g>
<!-- 3&#45;&gt;4 -->
<g id="edge5" class="edge">
<title>3&#45;&gt;4</title>
<path fill="none" stroke="black" d="M44.18,-379.72C44.18,-371.75 44.18,-362.86 44.18,-354.37"/>
<polygon fill="black" stroke="black" points="47.68,-354.31 44.18,-344.31 40.68,-354.31 47.68,-354.31"/>
</g>
<!-- 5 -->
<g id="node6" class="node">
<title>5</title>
<ellipse fill="none" stroke="black" cx="44.18" cy="-227.56" rx="31.64" ry="26.74"/>
<text text-anchor="middle" x="44.18" y="-231.36" font-family="Times,serif" font-size="14.00">[5]</text>
<text text-anchor="middle" x="44.18" y="-216.36" font-family="Times,serif" font-size="14.00">C: 2</text>
</g>
<!-- 4&#45;&gt;5 -->
<g id="edge6" class="edge">
<title>4&#45;&gt;5</title>
<path fill="none" stroke="black" d="M44.18,-289.98C44.18,-282.01 44.18,-273.12 44.18,-264.63"/>
<polygon fill="black" stroke="black" points="47.68,-264.57 44.18,-254.57 40.68,-264.57 47.68,-264.57"/>
</g>
<!-- 6 -->
<g id="node7" class="node">
<title>6</title>
<ellipse fill="none" stroke="black" cx="44.18" cy="-137.82" rx="31.64" ry="26.74"/>
<text text-anchor="middle" x="44.18" y="-141.62" font-family="Times,serif" font-size="14.00">[6]</text>
<text text-anchor="middle" x="44.18" y="-126.62" font-family="Times,serif" font-size="14.00">C: 5</text>
</g>
<!-- 5&#45;&gt;6 -->
<g id="edge7" class="edge">
<title>5&#45;&gt;6</title>
<path fill="none" stroke="black" d="M44.18,-200.24C44.18,-192.27 44.18,-183.38 44.18,-174.89"/>
<polygon fill="black" stroke="black" points="47.68,-174.83 44.18,-164.83 40.68,-174.83 47.68,-174.83"/>
</g>
<!-- 11 -->
<g id="node12" class="node">
<title>11</title>
<ellipse fill="none" stroke="black" stroke-width="2" cx="85.18" cy="-37.48" rx="38.78" ry="37.45"/>
<text text-anchor="middle" x="85.18" y="-48.78" font-family="Times,serif" font-size="14.00">[11]</text>
<text text-anchor="middle" x="85.18" y="-33.78" font-family="Times,serif" font-size="14.00">C: 4</text>
<text text-anchor="middle" x="85.18" y="-18.78" font-family="Times,serif" font-size="14.00">D: 75</text>
</g>
<!-- 6&#45;&gt;11 -->
<g id="edge8" class="edge">
<title>6&#45;&gt;11</title>
<path fill="none" stroke="black" d="M54.42,-112.26C58.24,-103.11 62.69,-92.43 67,-82.09"/>
<polygon fill="black" stroke="black" points="70.28,-83.31 70.9,-72.73 63.82,-80.62 70.28,-83.31"/>
</g>
<!-- 8 -->
<g id="node9" class="node">
<title>8</title>
<ellipse fill="none" stroke="black" cx="129.18" cy="-407.04" rx="31.64" ry="26.74"/>
<text text-anchor="middle" x="129.18" y="-410.84" font-family="Times,serif" font-size="14.00">[8]</text>
<text text-anchor="middle" x="129.18" y="-395.84" font-family="Times,serif" font-size="14.00">C: 2</text>
</g>
<!-- 7&#45;&gt;8 -->
<g id="edge9" class="edge">
<title>7&#45;&gt;8</title>
<path fill="none" stroke="black" d="M131.28,-469.46C131.01,-461.49 130.71,-452.6 130.42,-444.11"/>
<polygon fill="black" stroke="black" points="133.91,-443.92 130.07,-434.05 126.92,-444.16 133.91,-443.92"/>
</g>
<!-- 9 -->
<g id="node10" class="node">
<title>9</title>
<ellipse fill="none" stroke="black" cx="127.18" cy="-317.3" rx="31.64" ry="26.74"/>
<text text-anchor="middle" x="127.18" y="-321.1" font-family="Times,serif" font-size="14.00">[9]</text>
<text text-anchor="middle" x="127.18" y="-306.1" font-family="Times,serif" font-size="14.00">C: 1</text>
</g>
<!-- 8&#45;&gt;9 -->
<g id="edge10" class="edge">
<title>8&#45;&gt;9</title>
<path fill="none" stroke="black" d="M128.58,-379.72C128.4,-371.75 128.2,-362.86 128.01,-354.37"/>
<polygon fill="black" stroke="black" points="131.5,-354.23 127.78,-344.31 124.51,-354.38 131.5,-354.23"/>
</g>
<!-- 10 -->
<g id="node11" class="node">
<title>10</title>
<ellipse fill="none" stroke="black" cx="126.18" cy="-137.82" rx="31.64" ry="26.74"/>
<text text-anchor="middle" x="126.18" y="-141.62" font-family="Times,serif" font-size="14.00">[10]</text>
<text text-anchor="middle" x="126.18" y="-126.62" font-family="Times,serif" font-size="14.00">C: 5</text>
</g>
<!-- 9&#45;&gt;10 -->
<g id="edge11" class="edge">
<title>9&#45;&gt;10</title>
<path fill="none" stroke="black" d="M127.04,-290.12C126.86,-259.62 126.58,-209.07 126.39,-174.88"/>
<polygon fill="black" stroke="black" points="129.89,-174.81 126.33,-164.83 122.89,-174.85 129.89,-174.81"/>
</g>
<!-- 10&#45;&gt;11 -->
<g id="edge12" class="edge">
<title>10&#45;&gt;11</title>
<path fill="none" stroke="black" d="M115.94,-112.26C112.13,-103.11 107.68,-92.43 103.37,-82.09"/>
<polygon fill="black" stroke="black" points="106.54,-80.62 99.47,-72.73 100.08,-83.31 106.54,-80.62"/>
</g>
</g>
</svg>
