<?xml version="1.0" encoding="UTF-8" standalone="no"?>
<!DOCTYPE svg PUBLIC "-//W3C//DTD SVG 1.1//EN"
 "http://www.w3.org/Graphics/SVG/1.1/DTD/svg11.dtd">
<!-- Generated by graphviz version 2.43.0 (0)
 -->
<!-- Title: %3 Pages: 1 -->
<svg width="166pt" height="441pt"
 viewBox="0.00 0.00 166.00 441.17" xmlns="http://www.w3.org/2000/svg" xmlns:xlink="http://www.w3.org/1999/xlink">
<g id="graph0" class="graph" transform="scale(1 1) rotate(0) translate(4 437.17)">
<title>%3</title>
<polygon fill="white" stroke="transparent" points="-4,4 -4,-437.17 162,-437.17 162,4 -4,4"/>
<!-- 0 -->
<g id="node1" class="node">
<title>0</title>
<polygon fill="none" stroke="black" points="109.18,-433.17 55.18,-433.17 55.18,-380.17 109.18,-380.17 109.18,-433.17"/>
<text text-anchor="middle" x="82.18" y="-417.97" font-family="Times,serif" font-size="14.00">[0]</text>
<text text-anchor="middle" x="82.18" y="-402.97" font-family="Times,serif" font-size="14.00">C: 18</text>
<text text-anchor="middle" x="82.18" y="-387.97" font-family="Times,serif" font-size="14.00">T: 50</text>
</g>
<!-- 1 -->
<g id="node2" class="node">
<title>1</title>
<ellipse fill="none" stroke="black" cx="82.18" cy="-317.3" rx="38.37" ry="26.74"/>
<text text-anchor="middle" x="82.18" y="-321.1" font-family="Times,serif" font-size="14.00">[1]</text>
<text text-anchor="middle" x="82.18" y="-306.1" font-family="Times,serif" font-size="14.00">C: 32</text>
</g>
<!-- 0&#45;&gt;1 -->
<g id="edge1" class="edge">
<title>0&#45;&gt;1</title>
<path fill="none" stroke="black" d="M82.18,-379.93C82.18,-371.99 82.18,-363.09 82.18,-354.57"/>
<polygon fill="black" stroke="black" points="85.68,-354.47 82.18,-344.47 78.68,-354.47 85.68,-354.47"/>
</g>
<!-- 2 -->
<g id="node3" class="node">
<title>2</title>
<ellipse fill="none" stroke="black" cx="52.18" cy="-227.56" rx="31.64" ry="26.74"/>
<text text-anchor="middle" x="52.18" y="-231.36" font-family="Times,serif" font-size="14.00">[2]</text>
<text text-anchor="middle" x="52.18" y="-216.36" font-family="Times,serif" font-size="14.00">C: 6</text>
</g>
<!-- 1&#45;&gt;2 -->
<g id="edge2" class="edge">
<title>1&#45;&gt;2</title>
<path fill="none" stroke="black" d="M73.51,-290.93C70.56,-282.3 67.21,-272.51 64.06,-263.29"/>
<polygon fill="black" stroke="black" points="67.29,-261.91 60.74,-253.58 60.66,-264.18 67.29,-261.91"/>
</g>
<!-- 4 -->
<g id="node5" class="node">
<title>4</title>
<ellipse fill="none" stroke="black" cx="126.18" cy="-137.82" rx="31.64" ry="26.74"/>
<text text-anchor="middle" x="126.18" y="-141.62" font-family="Times,serif" font-size="14.00">[4]</text>
<text text-anchor="middle" x="126.18" y="-126.62" font-family="Times,serif" font-size="14.00">C: 1</text>
</g>
<!-- 1&#45;&gt;4 -->
<g id="edge3" class="edge">
<title>1&#45;&gt;4</title>
<path fill="none" stroke="black" d="M88.58,-290.5C96.16,-259.91 108.84,-208.79 117.35,-174.45"/>
<polygon fill="black" stroke="black" points="120.84,-174.92 119.85,-164.37 114.05,-173.24 120.84,-174.92"/>
</g>
<!-- 3 -->
<g id="node4" class="node">
<title>3</title>
<ellipse fill="none" stroke="black" cx="38.18" cy="-137.82" rx="38.37" ry="26.74"/>
<text text-anchor="middle" x="38.18" y="-141.62" font-family="Times,serif" font-size="14.00">[3]</text>
<text text-anchor="middle" x="38.18" y="-126.62" font-family="Times,serif" font-size="14.00">C: 12</text>
</g>
<!-- 2&#45;&gt;3 -->
<g id="edge4" class="edge">
<title>2&#45;&gt;3</title>
<path fill="none" stroke="black" d="M48.06,-200.71C46.76,-192.57 45.3,-183.43 43.91,-174.73"/>
<polygon fill="black" stroke="black" points="47.36,-174.12 42.33,-164.79 40.45,-175.22 47.36,-174.12"/>
</g>
<!-- 5 -->
<g id="node6" class="node">
<title>5</title>
<ellipse fill="none" stroke="black" stroke-width="2" cx="82.18" cy="-37.48" rx="38.78" ry="37.45"/>
<text text-anchor="middle" x="82.18" y="-48.78" font-family="Times,serif" font-size="14.00">[5]</text>
<text text-anchor="middle" x="82.18" y="-33.78" font-family="Times,serif" font-size="14.00">C: 1</text>
<text text-anchor="middle" x="82.18" y="-18.78" font-family="Times,serif" font-size="14.00">D: 75</text>
</g>
<!-- 3&#45;&gt;5 -->
<g id="edge5" class="edge">
<title>3&#45;&gt;5</title>
<path fill="none" stroke="black" d="M49.29,-112.01C53.42,-102.77 58.24,-92 62.89,-81.6"/>
<polygon fill="black" stroke="black" points="66.21,-82.76 67.1,-72.2 59.82,-79.9 66.21,-82.76"/>
</g>
<!-- 4&#45;&gt;5 -->
<g id="edge6" class="edge">
<title>4&#45;&gt;5</title>
<path fill="none" stroke="black" d="M115.31,-112.51C111.1,-103.1 106.14,-92.03 101.37,-81.37"/>
<polygon fill="black" stroke="black" points="104.53,-79.85 97.25,-72.15 98.14,-82.71 104.53,-79.85"/>
</g>
</g>
</svg>
