<?xml version="1.0" encoding="UTF-8" standalone="no"?>
<!DOCTYPE svg PUBLIC "-//W3C//DTD SVG 1.1//EN"
 "http://www.w3.org/Graphics/SVG/1.1/DTD/svg11.dtd">
<!-- Generated by graphviz version 2.43.0 (0)
 -->
<!-- Title: %3 Pages: 1 -->
<svg width="245pt" height="351pt"
 viewBox="0.00 0.00 244.73 351.43" xmlns="http://www.w3.org/2000/svg" xmlns:xlink="http://www.w3.org/1999/xlink">
<g id="graph0" class="graph" transform="scale(1 1) rotate(0) translate(4 347.43)">
<title>%3</title>
<polygon fill="white" stroke="transparent" points="-4,4 -4,-347.43 240.73,-347.43 240.73,4 -4,4"/>
<!-- 0 -->
<g id="node1" class="node">
<title>0</title>
<polygon fill="none" stroke="black" points="185.55,-343.43 123.55,-343.43 123.55,-290.43 185.55,-290.43 185.55,-343.43"/>
<text text-anchor="middle" x="154.55" y="-328.23" font-family="Times,serif" font-size="14.00">[0]</text>
<text text-anchor="middle" x="154.55" y="-313.23" font-family="Times,serif" font-size="14.00">C: 2</text>
<text text-anchor="middle" x="154.55" y="-298.23" font-family="Times,serif" font-size="14.00">T: 100</text>
</g>
<!-- 1 -->
<g id="node2" class="node">
<title>1</title>
<ellipse fill="none" stroke="black" cx="110.55" cy="-227.56" rx="31.64" ry="26.74"/>
<text text-anchor="middle" x="110.55" y="-231.36" font-family="Times,serif" font-size="14.00">[1]</text>
<text text-anchor="middle" x="110.55" y="-216.36" font-family="Times,serif" font-size="14.00">C: 2</text>
</g>
<!-- 0&#45;&gt;1 -->
<g id="edge1" class="edge">
<title>0&#45;&gt;1</title>
<path fill="none" stroke="black" d="M141.58,-290.19C137.1,-281.28 132,-271.17 127.26,-261.75"/>
<polygon fill="black" stroke="black" points="130.29,-259.98 122.67,-252.63 124.04,-263.13 130.29,-259.98"/>
</g>
<!-- 3 -->
<g id="node4" class="node">
<title>3</title>
<ellipse fill="none" stroke="black" cx="198.55" cy="-227.56" rx="38.37" ry="26.74"/>
<text text-anchor="middle" x="198.55" y="-231.36" font-family="Times,serif" font-size="14.00">[3]</text>
<text text-anchor="middle" x="198.55" y="-216.36" font-family="Times,serif" font-size="14.00">C: 20</text>
</g>
<!-- 0&#45;&gt;3 -->
<g id="edge2" class="edge">
<title>0&#45;&gt;3</title>
<path fill="none" stroke="black" d="M167.51,-290.19C171.92,-281.43 176.92,-271.51 181.6,-262.23"/>
<polygon fill="black" stroke="black" points="184.76,-263.73 186.13,-253.22 178.51,-260.58 184.76,-263.73"/>
</g>
<!-- 2 -->
<g id="node3" class="node">
<title>2</title>
<ellipse fill="none" stroke="black" cx="44.55" cy="-137.82" rx="44.6" ry="26.74"/>
<text text-anchor="middle" x="44.55" y="-141.62" font-family="Times,serif" font-size="14.00">[2]</text>
<text text-anchor="middle" x="44.55" y="-126.62" font-family="Times,serif" font-size="14.00">C: 102</text>
</g>
<!-- 1&#45;&gt;2 -->
<g id="edge3" class="edge">
<title>1&#45;&gt;2</title>
<path fill="none" stroke="black" d="M93.89,-204.42C86.22,-194.23 76.98,-181.94 68.58,-170.77"/>
<polygon fill="black" stroke="black" points="71.16,-168.38 62.35,-162.49 65.57,-172.59 71.16,-168.38"/>
</g>
<!-- 5 -->
<g id="node6" class="node">
<title>5</title>
<ellipse fill="none" stroke="black" cx="138.55" cy="-137.82" rx="31.64" ry="26.74"/>
<text text-anchor="middle" x="138.55" y="-141.62" font-family="Times,serif" font-size="14.00">[5]</text>
<text text-anchor="middle" x="138.55" y="-126.62" font-family="Times,serif" font-size="14.00">C: 6</text>
</g>
<!-- 1&#45;&gt;5 -->
<g id="edge4" class="edge">
<title>1&#45;&gt;5</title>
<path fill="none" stroke="black" d="M118.65,-201.19C121.4,-192.56 124.52,-182.77 127.47,-173.55"/>
<polygon fill="black" stroke="black" points="130.86,-174.43 130.56,-163.84 124.19,-172.3 130.86,-174.43"/>
</g>
<!-- 4 -->
<g id="node5" class="node">
<title>4</title>
<ellipse fill="none" stroke="black" stroke-width="2" cx="138.55" cy="-37.48" rx="45.01" ry="37.45"/>
<text text-anchor="middle" x="138.55" y="-48.78" font-family="Times,serif" font-size="14.00">[4]</text>
<text text-anchor="middle" x="138.55" y="-33.78" font-family="Times,serif" font-size="14.00">C: 8</text>
<text text-anchor="middle" x="138.55" y="-18.78" font-family="Times,serif" font-size="14.00">D: 125</text>
</g>
<!-- 2&#45;&gt;4 -->
<g id="edge5" class="edge">
<title>2&#45;&gt;4</title>
<path fill="none" stroke="black" d="M66.35,-114.01C77.41,-102.44 91.12,-88.1 103.61,-75.03"/>
<polygon fill="black" stroke="black" points="106.41,-77.17 110.79,-67.52 101.35,-72.33 106.41,-77.17"/>
</g>
<!-- 3&#45;&gt;4 -->
<g id="edge6" class="edge">
<title>3&#45;&gt;4</title>
<path fill="none" stroke="black" d="M196.9,-200.66C194.78,-176.8 190.03,-140.69 179.55,-110.95 175.83,-100.41 170.62,-89.62 165.15,-79.7"/>
<polygon fill="black" stroke="black" points="168.1,-77.81 160.1,-70.87 162.03,-81.28 168.1,-77.81"/>
</g>
<!-- 5&#45;&gt;4 -->
<g id="edge7" class="edge">
<title>5&#45;&gt;4</title>
<path fill="none" stroke="black" d="M138.55,-110.73C138.55,-102.87 138.55,-94.01 138.55,-85.24"/>
<polygon fill="black" stroke="black" points="142.05,-85.06 138.55,-75.06 135.05,-85.06 142.05,-85.06"/>
</g>
</g>
</svg>
