<?xml version="1.0" encoding="UTF-8" standalone="no"?>
<!DOCTYPE svg PUBLIC "-//W3C//DTD SVG 1.1//EN"
 "http://www.w3.org/Graphics/SVG/1.1/DTD/svg11.dtd">
<!-- Generated by graphviz version 2.43.0 (0)
 -->
<!-- Title: %3 Pages: 1 -->
<svg width="180pt" height="262pt"
 viewBox="0.00 0.00 180.34 261.69" xmlns="http://www.w3.org/2000/svg" xmlns:xlink="http://www.w3.org/1999/xlink">
<g id="graph0" class="graph" transform="scale(1 1) rotate(0) translate(4 257.69)">
<title>%3</title>
<polygon fill="white" stroke="transparent" points="-4,4 -4,-257.69 176.34,-257.69 176.34,4 -4,4"/>
<!-- 0 -->
<g id="node1" class="node">
<title>0</title>
<polygon fill="none" stroke="black" points="83.52,-253.69 21.52,-253.69 21.52,-200.69 83.52,-200.69 83.52,-253.69"/>
<text text-anchor="middle" x="52.52" y="-238.49" font-family="Times,serif" font-size="14.00">[0]</text>
<text text-anchor="middle" x="52.52" y="-223.49" font-family="Times,serif" font-size="14.00">C: 56</text>
<text text-anchor="middle" x="52.52" y="-208.49" font-family="Times,serif" font-size="14.00">T: 100</text>
</g>
<!-- 1 -->
<g id="node2" class="node">
<title>1</title>
<ellipse fill="none" stroke="black" stroke-width="2" cx="52.52" cy="-37.48" rx="45.01" ry="37.45"/>
<text text-anchor="middle" x="52.52" y="-48.78" font-family="Times,serif" font-size="14.00">[1]</text>
<text text-anchor="middle" x="52.52" y="-33.78" font-family="Times,serif" font-size="14.00">C: 36</text>
<text text-anchor="middle" x="52.52" y="-18.78" font-family="Times,serif" font-size="14.00">D: 179</text>
</g>
<!-- 0&#45;&gt;1 -->
<g id="edge1" class="edge">
<title>0&#45;&gt;1</title>
<path fill="none" stroke="black" d="M26.98,-200.6C18.43,-190.32 9.96,-177.8 5.52,-164.69 -2.13,-142.07 -1.25,-133.86 5.52,-110.95 8.98,-99.27 14.98,-87.7 21.55,-77.35"/>
<polygon fill="black" stroke="black" points="24.51,-79.23 27.17,-68.97 18.69,-75.33 24.51,-79.23"/>
</g>
<!-- 2 -->
<g id="node3" class="node">
<title>2</title>
<ellipse fill="none" stroke="black" cx="52.52" cy="-137.82" rx="38.37" ry="26.74"/>
<text text-anchor="middle" x="52.52" y="-141.62" font-family="Times,serif" font-size="14.00">[2]</text>
<text text-anchor="middle" x="52.52" y="-126.62" font-family="Times,serif" font-size="14.00">C: 46</text>
</g>
<!-- 0&#45;&gt;2 -->
<g id="edge2" class="edge">
<title>0&#45;&gt;2</title>
<path fill="none" stroke="black" d="M52.52,-200.45C52.52,-192.51 52.52,-183.6 52.52,-175.09"/>
<polygon fill="black" stroke="black" points="56.02,-174.99 52.52,-164.99 49.02,-174.99 56.02,-174.99"/>
</g>
<!-- 3 -->
<g id="node4" class="node">
<title>3</title>
<ellipse fill="none" stroke="black" cx="140.52" cy="-137.82" rx="31.64" ry="26.74"/>
<text text-anchor="middle" x="140.52" y="-141.62" font-family="Times,serif" font-size="14.00">[3]</text>
<text text-anchor="middle" x="140.52" y="-126.62" font-family="Times,serif" font-size="14.00">C: 2</text>
</g>
<!-- 0&#45;&gt;3 -->
<g id="edge3" class="edge">
<title>0&#45;&gt;3</title>
<path fill="none" stroke="black" d="M78.45,-200.45C89.32,-189.66 101.98,-177.09 113.02,-166.13"/>
<polygon fill="black" stroke="black" points="115.73,-168.37 120.36,-158.84 110.8,-163.4 115.73,-168.37"/>
</g>
<!-- 2&#45;&gt;1 -->
<g id="edge4" class="edge">
<title>2&#45;&gt;1</title>
<path fill="none" stroke="black" d="M52.52,-110.73C52.52,-102.87 52.52,-94.01 52.52,-85.24"/>
<polygon fill="black" stroke="black" points="56.02,-85.06 52.52,-75.06 49.02,-85.06 56.02,-85.06"/>
</g>
<!-- 3&#45;&gt;1 -->
<g id="edge5" class="edge">
<title>3&#45;&gt;1</title>
<path fill="none" stroke="black" d="M121.86,-115.97C111.48,-104.37 98.26,-89.59 86.14,-76.05"/>
<polygon fill="black" stroke="black" points="88.45,-73.38 79.17,-68.26 83.23,-78.05 88.45,-73.38"/>
</g>
</g>
</svg>
