<?xml version="1.0" encoding="UTF-8" standalone="no"?>
<!DOCTYPE svg PUBLIC "-//W3C//DTD SVG 1.1//EN"
 "http://www.w3.org/Graphics/SVG/1.1/DTD/svg11.dtd">
<!-- Generated by graphviz version 2.43.0 (0)
 -->
<!-- Title: %3 Pages: 1 -->
<svg width="260pt" height="351pt"
 viewBox="0.00 0.00 260.37 351.43" xmlns="http://www.w3.org/2000/svg" xmlns:xlink="http://www.w3.org/1999/xlink">
<g id="graph0" class="graph" transform="scale(1 1) rotate(0) translate(4 347.43)">
<title>%3</title>
<polygon fill="white" stroke="transparent" points="-4,4 -4,-347.43 256.37,-347.43 256.37,4 -4,4"/>
<!-- 0 -->
<g id="node1" class="node">
<title>0</title>
<polygon fill="none" stroke="black" points="157.18,-343.43 95.18,-343.43 95.18,-290.43 157.18,-290.43 157.18,-343.43"/>
<text text-anchor="middle" x="126.18" y="-328.23" font-family="Times,serif" font-size="14.00">[0]</text>
<text text-anchor="middle" x="126.18" y="-313.23" font-family="Times,serif" font-size="14.00">C: 8</text>
<text text-anchor="middle" x="126.18" y="-298.23" font-family="Times,serif" font-size="14.00">T: 100</text>
</g>
<!-- 1 -->
<g id="node2" class="node">
<title>1</title>
<ellipse fill="none" stroke="black" cx="49.18" cy="-227.56" rx="38.37" ry="26.74"/>
<text text-anchor="middle" x="49.18" y="-231.36" font-family="Times,serif" font-size="14.00">[1]</text>
<text text-anchor="middle" x="49.18" y="-216.36" font-family="Times,serif" font-size="14.00">C: 11</text>
</g>
<!-- 0&#45;&gt;1 -->
<g id="edge1" class="edge">
<title>0&#45;&gt;1</title>
<path fill="none" stroke="black" d="M103.5,-290.19C94.73,-280.24 84.64,-268.79 75.55,-258.48"/>
<polygon fill="black" stroke="black" points="78.08,-256.05 68.84,-250.87 72.82,-260.68 78.08,-256.05"/>
</g>
<!-- 3 -->
<g id="node4" class="node">
<title>3</title>
<ellipse fill="none" stroke="black" cx="126.18" cy="-137.82" rx="31.64" ry="26.74"/>
<text text-anchor="middle" x="126.18" y="-141.62" font-family="Times,serif" font-size="14.00">[3]</text>
<text text-anchor="middle" x="126.18" y="-126.62" font-family="Times,serif" font-size="14.00">C: 2</text>
</g>
<!-- 0&#45;&gt;3 -->
<g id="edge2" class="edge">
<title>0&#45;&gt;3</title>
<path fill="none" stroke="black" d="M126.18,-290.18C126.18,-259.84 126.18,-209.22 126.18,-174.96"/>
<polygon fill="black" stroke="black" points="129.68,-174.9 126.18,-164.9 122.68,-174.9 129.68,-174.9"/>
</g>
<!-- 5 -->
<g id="node6" class="node">
<title>5</title>
<ellipse fill="none" stroke="black" cx="203.18" cy="-227.56" rx="38.37" ry="26.74"/>
<text text-anchor="middle" x="203.18" y="-231.36" font-family="Times,serif" font-size="14.00">[5]</text>
<text text-anchor="middle" x="203.18" y="-216.36" font-family="Times,serif" font-size="14.00">C: 11</text>
</g>
<!-- 0&#45;&gt;5 -->
<g id="edge3" class="edge">
<title>0&#45;&gt;5</title>
<path fill="none" stroke="black" d="M148.87,-290.19C157.64,-280.24 167.73,-268.79 176.81,-258.48"/>
<polygon fill="black" stroke="black" points="179.54,-260.68 183.53,-250.87 174.29,-256.05 179.54,-260.68"/>
</g>
<!-- 2 -->
<g id="node3" class="node">
<title>2</title>
<ellipse fill="none" stroke="black" cx="38.18" cy="-137.82" rx="38.37" ry="26.74"/>
<text text-anchor="middle" x="38.18" y="-141.62" font-family="Times,serif" font-size="14.00">[2]</text>
<text text-anchor="middle" x="38.18" y="-126.62" font-family="Times,serif" font-size="14.00">C: 37</text>
</g>
<!-- 1&#45;&gt;2 -->
<g id="edge4" class="edge">
<title>1&#45;&gt;2</title>
<path fill="none" stroke="black" d="M45.94,-200.71C44.92,-192.57 43.78,-183.43 42.69,-174.73"/>
<polygon fill="black" stroke="black" points="46.16,-174.28 41.44,-164.79 39.21,-175.15 46.16,-174.28"/>
</g>
<!-- 4 -->
<g id="node5" class="node">
<title>4</title>
<ellipse fill="none" stroke="black" stroke-width="2" cx="126.18" cy="-37.48" rx="45.01" ry="37.45"/>
<text text-anchor="middle" x="126.18" y="-48.78" font-family="Times,serif" font-size="14.00">[4]</text>
<text text-anchor="middle" x="126.18" y="-33.78" font-family="Times,serif" font-size="14.00">C: 41</text>
<text text-anchor="middle" x="126.18" y="-18.78" font-family="Times,serif" font-size="14.00">D: 135</text>
</g>
<!-- 2&#45;&gt;4 -->
<g id="edge5" class="edge">
<title>2&#45;&gt;4</title>
<path fill="none" stroke="black" d="M58.15,-114.51C68.41,-103.04 81.18,-88.77 92.88,-75.69"/>
<polygon fill="black" stroke="black" points="95.56,-77.95 99.62,-68.17 90.34,-73.28 95.56,-77.95"/>
</g>
<!-- 3&#45;&gt;4 -->
<g id="edge6" class="edge">
<title>3&#45;&gt;4</title>
<path fill="none" stroke="black" d="M126.18,-110.73C126.18,-102.87 126.18,-94.01 126.18,-85.24"/>
<polygon fill="black" stroke="black" points="129.68,-85.06 126.18,-75.06 122.68,-85.06 129.68,-85.06"/>
</g>
<!-- 6 -->
<g id="node7" class="node">
<title>6</title>
<ellipse fill="none" stroke="black" cx="214.18" cy="-137.82" rx="38.37" ry="26.74"/>
<text text-anchor="middle" x="214.18" y="-141.62" font-family="Times,serif" font-size="14.00">[6]</text>
<text text-anchor="middle" x="214.18" y="-126.62" font-family="Times,serif" font-size="14.00">C: 30</text>
</g>
<!-- 5&#45;&gt;6 -->
<g id="edge7" class="edge">
<title>5&#45;&gt;6</title>
<path fill="none" stroke="black" d="M206.42,-200.71C207.44,-192.57 208.59,-183.43 209.68,-174.73"/>
<polygon fill="black" stroke="black" points="213.16,-175.15 210.93,-164.79 206.21,-174.28 213.16,-175.15"/>
</g>
<!-- 6&#45;&gt;4 -->
<g id="edge8" class="edge">
<title>6&#45;&gt;4</title>
<path fill="none" stroke="black" d="M194.22,-114.51C183.96,-103.04 171.18,-88.77 159.49,-75.69"/>
<polygon fill="black" stroke="black" points="162.03,-73.28 152.75,-68.17 156.81,-77.95 162.03,-73.28"/>
</g>
</g>
</svg>
