<?xml version="1.0" encoding="UTF-8" standalone="no"?>
<!DOCTYPE svg PUBLIC "-//W3C//DTD SVG 1.1//EN"
 "http://www.w3.org/Graphics/SVG/1.1/DTD/svg11.dtd">
<!-- Generated by graphviz version 2.43.0 (0)
 -->
<!-- Title: %3 Pages: 1 -->
<svg width="260pt" height="710pt"
 viewBox="0.00 0.00 260.37 710.39" xmlns="http://www.w3.org/2000/svg" xmlns:xlink="http://www.w3.org/1999/xlink">
<g id="graph0" class="graph" transform="scale(1 1) rotate(0) translate(4 706.39)">
<title>%3</title>
<polygon fill="white" stroke="transparent" points="-4,4 -4,-706.39 256.37,-706.39 256.37,4 -4,4"/>
<!-- 0 -->
<g id="node1" class="node">
<title>0</title>
<polygon fill="none" stroke="black" points="194.18,-702.39 140.18,-702.39 140.18,-649.39 194.18,-649.39 194.18,-702.39"/>
<text text-anchor="middle" x="167.18" y="-687.19" font-family="Times,serif" font-size="14.00">[0]</text>
<text text-anchor="middle" x="167.18" y="-672.19" font-family="Times,serif" font-size="14.00">C: 2</text>
<text text-anchor="middle" x="167.18" y="-657.19" font-family="Times,serif" font-size="14.00">T: 50</text>
</g>
<!-- 1 -->
<g id="node2" class="node">
<title>1</title>
<ellipse fill="none" stroke="black" cx="126.18" cy="-586.52" rx="31.64" ry="26.74"/>
<text text-anchor="middle" x="126.18" y="-590.32" font-family="Times,serif" font-size="14.00">[1]</text>
<text text-anchor="middle" x="126.18" y="-575.32" font-family="Times,serif" font-size="14.00">C: 1</text>
</g>
<!-- 0&#45;&gt;1 -->
<g id="edge1" class="edge">
<title>0&#45;&gt;1</title>
<path fill="none" stroke="black" d="M155.1,-649.15C150.96,-640.32 146.26,-630.3 141.87,-620.95"/>
<polygon fill="black" stroke="black" points="145.03,-619.45 137.61,-611.88 138.69,-622.42 145.03,-619.45"/>
</g>
<!-- 7 -->
<g id="node8" class="node">
<title>7</title>
<ellipse fill="none" stroke="black" cx="208.18" cy="-586.52" rx="31.64" ry="26.74"/>
<text text-anchor="middle" x="208.18" y="-590.32" font-family="Times,serif" font-size="14.00">[7]</text>
<text text-anchor="middle" x="208.18" y="-575.32" font-family="Times,serif" font-size="14.00">C: 3</text>
</g>
<!-- 0&#45;&gt;7 -->
<g id="edge2" class="edge">
<title>0&#45;&gt;7</title>
<path fill="none" stroke="black" d="M179.26,-649.15C183.41,-640.32 188.11,-630.3 192.5,-620.95"/>
<polygon fill="black" stroke="black" points="195.67,-622.42 196.75,-611.88 189.34,-619.45 195.67,-622.42"/>
</g>
<!-- 2 -->
<g id="node3" class="node">
<title>2</title>
<ellipse fill="none" stroke="black" cx="126.18" cy="-496.78" rx="31.64" ry="26.74"/>
<text text-anchor="middle" x="126.18" y="-500.58" font-family="Times,serif" font-size="14.00">[2]</text>
<text text-anchor="middle" x="126.18" y="-485.58" font-family="Times,serif" font-size="14.00">C: 1</text>
</g>
<!-- 1&#45;&gt;2 -->
<g id="edge3" class="edge">
<title>1&#45;&gt;2</title>
<path fill="none" stroke="black" d="M126.18,-559.2C126.18,-551.23 126.18,-542.34 126.18,-533.85"/>
<polygon fill="black" stroke="black" points="129.68,-533.79 126.18,-523.79 122.68,-533.79 129.68,-533.79"/>
</g>
<!-- 3 -->
<g id="node4" class="node">
<title>3</title>
<ellipse fill="none" stroke="black" cx="126.18" cy="-407.04" rx="31.64" ry="26.74"/>
<text text-anchor="middle" x="126.18" y="-410.84" font-family="Times,serif" font-size="14.00">[3]</text>
<text text-anchor="middle" x="126.18" y="-395.84" font-family="Times,serif" font-size="14.00">C: 9</text>
</g>
<!-- 2&#45;&gt;3 -->
<g id="edge4" class="edge">
<title>2&#45;&gt;3</title>
<path fill="none" stroke="black" d="M126.18,-469.46C126.18,-461.49 126.18,-452.6 126.18,-444.11"/>
<polygon fill="black" stroke="black" points="129.68,-444.05 126.18,-434.05 122.68,-444.05 129.68,-444.05"/>
</g>
<!-- 4 -->
<g id="node5" class="node">
<title>4</title>
<ellipse fill="none" stroke="black" cx="43.18" cy="-317.3" rx="31.64" ry="26.74"/>
<text text-anchor="middle" x="43.18" y="-321.1" font-family="Times,serif" font-size="14.00">[4]</text>
<text text-anchor="middle" x="43.18" y="-306.1" font-family="Times,serif" font-size="14.00">C: 2</text>
</g>
<!-- 3&#45;&gt;4 -->
<g id="edge5" class="edge">
<title>3&#45;&gt;4</title>
<path fill="none" stroke="black" d="M106.51,-385.25C95.56,-373.67 81.76,-359.09 69.85,-346.49"/>
<polygon fill="black" stroke="black" points="72.13,-343.81 62.71,-338.95 67.04,-348.62 72.13,-343.81"/>
</g>
<!-- 13 -->
<g id="node14" class="node">
<title>13</title>
<ellipse fill="none" stroke="black" cx="126.18" cy="-317.3" rx="31.64" ry="26.74"/>
<text text-anchor="middle" x="126.18" y="-321.1" font-family="Times,serif" font-size="14.00">[13]</text>
<text text-anchor="middle" x="126.18" y="-306.1" font-family="Times,serif" font-size="14.00">C: 1</text>
</g>
<!-- 3&#45;&gt;13 -->
<g id="edge6" class="edge">
<title>3&#45;&gt;13</title>
<path fill="none" stroke="black" d="M126.18,-379.72C126.18,-371.75 126.18,-362.86 126.18,-354.37"/>
<polygon fill="black" stroke="black" points="129.68,-354.31 126.18,-344.31 122.68,-354.31 129.68,-354.31"/>
</g>
<!-- 5 -->
<g id="node6" class="node">
<title>5</title>
<ellipse fill="none" stroke="black" cx="41.18" cy="-227.56" rx="31.64" ry="26.74"/>
<text text-anchor="middle" x="41.18" y="-231.36" font-family="Times,serif" font-size="14.00">[5]</text>
<text text-anchor="middle" x="41.18" y="-216.36" font-family="Times,serif" font-size="14.00">C: 4</text>
</g>
<!-- 4&#45;&gt;5 -->
<g id="edge7" class="edge">
<title>4&#45;&gt;5</title>
<path fill="none" stroke="black" d="M42.58,-289.98C42.4,-282.01 42.2,-273.12 42.01,-264.63"/>
<polygon fill="black" stroke="black" points="45.5,-264.49 41.78,-254.57 38.51,-264.64 45.5,-264.49"/>
</g>
<!-- 6 -->
<g id="node7" class="node">
<title>6</title>
<ellipse fill="none" stroke="black" cx="38.18" cy="-137.82" rx="38.37" ry="26.74"/>
<text text-anchor="middle" x="38.18" y="-141.62" font-family="Times,serif" font-size="14.00">[6]</text>
<text text-anchor="middle" x="38.18" y="-126.62" font-family="Times,serif" font-size="14.00">C: 14</text>
</g>
<!-- 5&#45;&gt;6 -->
<g id="edge8" class="edge">
<title>5&#45;&gt;6</title>
<path fill="none" stroke="black" d="M40.28,-200.24C40.01,-192.27 39.71,-183.38 39.42,-174.89"/>
<polygon fill="black" stroke="black" points="42.91,-174.7 39.07,-164.83 35.92,-174.94 42.91,-174.7"/>
</g>
<!-- 12 -->
<g id="node13" class="node">
<title>12</title>
<ellipse fill="none" stroke="black" stroke-width="2" cx="126.18" cy="-37.48" rx="38.78" ry="37.45"/>
<text text-anchor="middle" x="126.18" y="-48.78" font-family="Times,serif" font-size="14.00">[12]</text>
<text text-anchor="middle" x="126.18" y="-33.78" font-family="Times,serif" font-size="14.00">C: 1</text>
<text text-anchor="middle" x="126.18" y="-18.78" font-family="Times,serif" font-size="14.00">D: 47</text>
</g>
<!-- 6&#45;&gt;12 -->
<g id="edge9" class="edge">
<title>6&#45;&gt;12</title>
<path fill="none" stroke="black" d="M58.15,-114.51C68.83,-102.57 82.24,-87.58 94.33,-74.08"/>
<polygon fill="black" stroke="black" points="97.2,-76.12 101.26,-66.33 91.98,-71.45 97.2,-76.12"/>
</g>
<!-- 8 -->
<g id="node9" class="node">
<title>8</title>
<ellipse fill="none" stroke="black" cx="208.18" cy="-496.78" rx="31.64" ry="26.74"/>
<text text-anchor="middle" x="208.18" y="-500.58" font-family="Times,serif" font-size="14.00">[8]</text>
<text text-anchor="middle" x="208.18" y="-485.58" font-family="Times,serif" font-size="14.00">C: 1</text>
</g>
<!-- 7&#45;&gt;8 -->
<g id="edge10" class="edge">
<title>7&#45;&gt;8</title>
<path fill="none" stroke="black" d="M208.18,-559.2C208.18,-551.23 208.18,-542.34 208.18,-533.85"/>
<polygon fill="black" stroke="black" points="211.68,-533.79 208.18,-523.79 204.68,-533.79 211.68,-533.79"/>
</g>
<!-- 9 -->
<g id="node10" class="node">
<title>9</title>
<ellipse fill="none" stroke="black" cx="209.18" cy="-407.04" rx="31.64" ry="26.74"/>
<text text-anchor="middle" x="209.18" y="-410.84" font-family="Times,serif" font-size="14.00">[9]</text>
<text text-anchor="middle" x="209.18" y="-395.84" font-family="Times,serif" font-size="14.00">C: 1</text>
</g>
<!-- 8&#45;&gt;9 -->
<g id="edge11" class="edge">
<title>8&#45;&gt;9</title>
<path fill="none" stroke="black" d="M208.48,-469.46C208.57,-461.49 208.68,-452.6 208.77,-444.11"/>
<polygon fill="black" stroke="black" points="212.27,-444.09 208.89,-434.05 205.27,-444.01 212.27,-444.09"/>
</g>
<!-- 10 -->
<g id="node11" class="node">
<title>10</title>
<ellipse fill="none" stroke="black" cx="212.18" cy="-317.3" rx="31.64" ry="26.74"/>
<text text-anchor="middle" x="212.18" y="-321.1" font-family="Times,serif" font-size="14.00">[10]</text>
<text text-anchor="middle" x="212.18" y="-306.1" font-family="Times,serif" font-size="14.00">C: 3</text>
</g>
<!-- 9&#45;&gt;10 -->
<g id="edge12" class="edge">
<title>9&#45;&gt;10</title>
<path fill="none" stroke="black" d="M210.08,-379.72C210.36,-371.75 210.66,-362.86 210.95,-354.37"/>
<polygon fill="black" stroke="black" points="214.45,-354.42 211.29,-344.31 207.45,-354.18 214.45,-354.42"/>
</g>
<!-- 11 -->
<g id="node12" class="node">
<title>11</title>
<ellipse fill="none" stroke="black" cx="214.18" cy="-137.82" rx="38.37" ry="26.74"/>
<text text-anchor="middle" x="214.18" y="-141.62" font-family="Times,serif" font-size="14.00">[11]</text>
<text text-anchor="middle" x="214.18" y="-126.62" font-family="Times,serif" font-size="14.00">C: 17</text>
</g>
<!-- 10&#45;&gt;11 -->
<g id="edge13" class="edge">
<title>10&#45;&gt;11</title>
<path fill="none" stroke="black" d="M212.48,-290.12C212.82,-259.62 213.39,-209.07 213.78,-174.88"/>
<polygon fill="black" stroke="black" points="217.28,-174.87 213.89,-164.83 210.28,-174.79 217.28,-174.87"/>
</g>
<!-- 11&#45;&gt;12 -->
<g id="edge14" class="edge">
<title>11&#45;&gt;12</title>
<path fill="none" stroke="black" d="M194.22,-114.51C183.53,-102.57 170.12,-87.58 158.04,-74.08"/>
<polygon fill="black" stroke="black" points="160.39,-71.45 151.11,-66.33 155.17,-76.12 160.39,-71.45"/>
</g>
<!-- 14 -->
<g id="node15" class="node">
<title>14</title>
<ellipse fill="none" stroke="black" cx="126.18" cy="-227.56" rx="31.64" ry="26.74"/>
<text text-anchor="middle" x="126.18" y="-231.36" font-family="Times,serif" font-size="14.00">[14]</text>
<text text-anchor="middle" x="126.18" y="-216.36" font-family="Times,serif" font-size="14.00">C: 4</text>
</g>
<!-- 13&#45;&gt;14 -->
<g id="edge15" class="edge">
<title>13&#45;&gt;14</title>
<path fill="none" stroke="black" d="M126.18,-289.98C126.18,-282.01 126.18,-273.12 126.18,-264.63"/>
<polygon fill="black" stroke="black" points="129.68,-264.57 126.18,-254.57 122.68,-264.57 129.68,-264.57"/>
</g>
<!-- 15 -->
<g id="node16" class="node">
<title>15</title>
<ellipse fill="none" stroke="black" cx="126.18" cy="-137.82" rx="31.64" ry="26.74"/>
<text text-anchor="middle" x="126.18" y="-141.62" font-family="Times,serif" font-size="14.00">[15]</text>
<text text-anchor="middle" x="126.18" y="-126.62" font-family="Times,serif" font-size="14.00">C: 6</text>
</g>
<!-- 14&#45;&gt;15 -->
<g id="edge16" class="edge">
<title>14&#45;&gt;15</title>
<path fill="none" stroke="black" d="M126.18,-200.24C126.18,-192.27 126.18,-183.38 126.18,-174.89"/>
<polygon fill="black" stroke="black" points="129.68,-174.83 126.18,-164.83 122.68,-174.83 129.68,-174.83"/>
</g>
<!-- 15&#45;&gt;12 -->
<g id="edge17" class="edge">
<title>15&#45;&gt;12</title>
<path fill="none" stroke="black" d="M126.18,-110.73C126.18,-102.87 126.18,-94.01 126.18,-85.24"/>
<polygon fill="black" stroke="black" points="129.68,-85.06 126.18,-75.06 122.68,-85.06 129.68,-85.06"/>
</g>
</g>
</svg>
