<?xml version="1.0" encoding="UTF-8" standalone="no"?>
<!DOCTYPE svg PUBLIC "-//W3C//DTD SVG 1.1//EN"
 "http://www.w3.org/Graphics/SVG/1.1/DTD/svg11.dtd">
<!-- Generated by graphviz version 2.43.0 (0)
 -->
<!-- Title: %3 Pages: 1 -->
<svg width="167pt" height="351pt"
 viewBox="0.00 0.00 167.37 351.43" xmlns="http://www.w3.org/2000/svg" xmlns:xlink="http://www.w3.org/1999/xlink">
<g id="graph0" class="graph" transform="scale(1 1) rotate(0) translate(4 347.43)">
<title>%3</title>
<polygon fill="white" stroke="transparent" points="-4,4 -4,-347.43 163.37,-347.43 163.37,4 -4,4"/>
<!-- 0 -->
<g id="node1" class="node">
<title>0</title>
<polygon fill="none" stroke="black" points="103.18,-343.43 49.18,-343.43 49.18,-290.43 103.18,-290.43 103.18,-343.43"/>
<text text-anchor="middle" x="76.18" y="-328.23" font-family="Times,serif" font-size="14.00">[0]</text>
<text text-anchor="middle" x="76.18" y="-313.23" font-family="Times,serif" font-size="14.00">C: 2</text>
<text text-anchor="middle" x="76.18" y="-298.23" font-family="Times,serif" font-size="14.00">T: 50</text>
</g>
<!-- 1 -->
<g id="node2" class="node">
<title>1</title>
<ellipse fill="none" stroke="black" cx="38.18" cy="-227.56" rx="38.37" ry="26.74"/>
<text text-anchor="middle" x="38.18" y="-231.36" font-family="Times,serif" font-size="14.00">[1]</text>
<text text-anchor="middle" x="38.18" y="-216.36" font-family="Times,serif" font-size="14.00">C: 40</text>
</g>
<!-- 0&#45;&gt;1 -->
<g id="edge1" class="edge">
<title>0&#45;&gt;1</title>
<path fill="none" stroke="black" d="M64.99,-290.19C61.25,-281.6 57.03,-271.89 53.05,-262.75"/>
<polygon fill="black" stroke="black" points="56.24,-261.29 49.04,-253.52 49.82,-264.09 56.24,-261.29"/>
</g>
<!-- 3 -->
<g id="node4" class="node">
<title>3</title>
<ellipse fill="none" stroke="black" cx="121.18" cy="-137.82" rx="38.37" ry="26.74"/>
<text text-anchor="middle" x="121.18" y="-141.62" font-family="Times,serif" font-size="14.00">[3]</text>
<text text-anchor="middle" x="121.18" y="-126.62" font-family="Times,serif" font-size="14.00">C: 15</text>
</g>
<!-- 0&#45;&gt;3 -->
<g id="edge2" class="edge">
<title>0&#45;&gt;3</title>
<path fill="none" stroke="black" d="M82.73,-290.18C90.48,-259.66 103.44,-208.64 112.15,-174.38"/>
<polygon fill="black" stroke="black" points="115.64,-174.87 114.71,-164.32 108.85,-173.15 115.64,-174.87"/>
</g>
<!-- 2 -->
<g id="node3" class="node">
<title>2</title>
<ellipse fill="none" stroke="black" cx="33.18" cy="-137.82" rx="31.64" ry="26.74"/>
<text text-anchor="middle" x="33.18" y="-141.62" font-family="Times,serif" font-size="14.00">[2]</text>
<text text-anchor="middle" x="33.18" y="-126.62" font-family="Times,serif" font-size="14.00">C: 5</text>
</g>
<!-- 1&#45;&gt;2 -->
<g id="edge3" class="edge">
<title>1&#45;&gt;2</title>
<path fill="none" stroke="black" d="M36.71,-200.71C36.25,-192.66 35.74,-183.63 35.25,-175.01"/>
<polygon fill="black" stroke="black" points="38.73,-174.58 34.66,-164.79 31.74,-174.98 38.73,-174.58"/>
</g>
<!-- 4 -->
<g id="node5" class="node">
<title>4</title>
<ellipse fill="none" stroke="black" stroke-width="2" cx="77.18" cy="-37.48" rx="38.78" ry="37.45"/>
<text text-anchor="middle" x="77.18" y="-48.78" font-family="Times,serif" font-size="14.00">[4]</text>
<text text-anchor="middle" x="77.18" y="-33.78" font-family="Times,serif" font-size="14.00">C: 8</text>
<text text-anchor="middle" x="77.18" y="-18.78" font-family="Times,serif" font-size="14.00">D: 60</text>
</g>
<!-- 2&#45;&gt;4 -->
<g id="edge4" class="edge">
<title>2&#45;&gt;4</title>
<path fill="none" stroke="black" d="M44.06,-112.51C48.27,-103.1 53.22,-92.03 57.99,-81.37"/>
<polygon fill="black" stroke="black" points="61.23,-82.71 62.12,-72.15 54.84,-79.85 61.23,-82.71"/>
</g>
<!-- 3&#45;&gt;4 -->
<g id="edge5" class="edge">
<title>3&#45;&gt;4</title>
<path fill="none" stroke="black" d="M110.08,-112.01C105.95,-102.77 101.13,-92 96.48,-81.6"/>
<polygon fill="black" stroke="black" points="99.55,-79.9 92.27,-72.2 93.16,-82.76 99.55,-79.9"/>
</g>
</g>
</svg>
