<?xml version="1.0" encoding="UTF-8" standalone="no"?>
<!DOCTYPE svg PUBLIC "-//W3C//DTD SVG 1.1//EN"
 "http://www.w3.org/Graphics/SVG/1.1/DTD/svg11.dtd">
<!-- Generated by graphviz version 2.43.0 (0)
 -->
<!-- Title: %3 Pages: 1 -->
<svg width="242pt" height="531pt"
 viewBox="0.00 0.00 242.00 530.91" xmlns="http://www.w3.org/2000/svg" xmlns:xlink="http://www.w3.org/1999/xlink">
<g id="graph0" class="graph" transform="scale(1 1) rotate(0) translate(4 526.91)">
<title>%3</title>
<polygon fill="white" stroke="transparent" points="-4,4 -4,-526.91 238,-526.91 238,4 -4,4"/>
<!-- 0 -->
<g id="node1" class="node">
<title>0</title>
<polygon fill="none" stroke="black" points="178.82,-522.91 124.82,-522.91 124.82,-469.91 178.82,-469.91 178.82,-522.91"/>
<text text-anchor="middle" x="151.82" y="-507.71" font-family="Times,serif" font-size="14.00">[0]</text>
<text text-anchor="middle" x="151.82" y="-492.71" font-family="Times,serif" font-size="14.00">C: 1</text>
<text text-anchor="middle" x="151.82" y="-477.71" font-family="Times,serif" font-size="14.00">T: 50</text>
</g>
<!-- 1 -->
<g id="node2" class="node">
<title>1</title>
<ellipse fill="none" stroke="black" cx="151.82" cy="-407.04" rx="38.37" ry="26.74"/>
<text text-anchor="middle" x="151.82" y="-410.84" font-family="Times,serif" font-size="14.00">[1]</text>
<text text-anchor="middle" x="151.82" y="-395.84" font-family="Times,serif" font-size="14.00">C: 21</text>
</g>
<!-- 0&#45;&gt;1 -->
<g id="edge1" class="edge">
<title>0&#45;&gt;1</title>
<path fill="none" stroke="black" d="M151.82,-469.67C151.82,-461.73 151.82,-452.83 151.82,-444.31"/>
<polygon fill="black" stroke="black" points="155.32,-444.21 151.82,-434.21 148.32,-444.21 155.32,-444.21"/>
</g>
<!-- 2 -->
<g id="node3" class="node">
<title>2</title>
<ellipse fill="none" stroke="black" cx="107.82" cy="-317.3" rx="31.64" ry="26.74"/>
<text text-anchor="middle" x="107.82" y="-321.1" font-family="Times,serif" font-size="14.00">[2]</text>
<text text-anchor="middle" x="107.82" y="-306.1" font-family="Times,serif" font-size="14.00">C: 4</text>
</g>
<!-- 1&#45;&gt;2 -->
<g id="edge2" class="edge">
<title>1&#45;&gt;2</title>
<path fill="none" stroke="black" d="M139.33,-381.14C134.71,-371.92 129.39,-361.32 124.46,-351.49"/>
<polygon fill="black" stroke="black" points="127.5,-349.74 119.89,-342.37 121.24,-352.87 127.5,-349.74"/>
</g>
<!-- 5 -->
<g id="node6" class="node">
<title>5</title>
<ellipse fill="none" stroke="black" cx="195.82" cy="-317.3" rx="38.37" ry="26.74"/>
<text text-anchor="middle" x="195.82" y="-321.1" font-family="Times,serif" font-size="14.00">[5]</text>
<text text-anchor="middle" x="195.82" y="-306.1" font-family="Times,serif" font-size="14.00">C: 10</text>
</g>
<!-- 1&#45;&gt;5 -->
<g id="edge3" class="edge">
<title>1&#45;&gt;5</title>
<path fill="none" stroke="black" d="M164.31,-381.14C168.85,-372.07 174.07,-361.68 178.93,-351.98"/>
<polygon fill="black" stroke="black" points="182.1,-353.48 183.45,-342.97 175.84,-350.34 182.1,-353.48"/>
</g>
<!-- 3 -->
<g id="node4" class="node">
<title>3</title>
<ellipse fill="none" stroke="black" cx="31.82" cy="-227.56" rx="31.64" ry="26.74"/>
<text text-anchor="middle" x="31.82" y="-231.36" font-family="Times,serif" font-size="14.00">[3]</text>
<text text-anchor="middle" x="31.82" y="-216.36" font-family="Times,serif" font-size="14.00">C: 5</text>
</g>
<!-- 2&#45;&gt;3 -->
<g id="edge4" class="edge">
<title>2&#45;&gt;3</title>
<path fill="none" stroke="black" d="M89.42,-295.06C79.62,-283.75 67.42,-269.67 56.78,-257.38"/>
<polygon fill="black" stroke="black" points="59.24,-254.87 50.05,-249.61 53.95,-259.46 59.24,-254.87"/>
</g>
<!-- 8 -->
<g id="node9" class="node">
<title>8</title>
<ellipse fill="none" stroke="black" cx="113.82" cy="-227.56" rx="31.64" ry="26.74"/>
<text text-anchor="middle" x="113.82" y="-231.36" font-family="Times,serif" font-size="14.00">[8]</text>
<text text-anchor="middle" x="113.82" y="-216.36" font-family="Times,serif" font-size="14.00">C: 1</text>
</g>
<!-- 2&#45;&gt;8 -->
<g id="edge5" class="edge">
<title>2&#45;&gt;8</title>
<path fill="none" stroke="black" d="M109.59,-290.45C110.14,-282.4 110.76,-273.37 111.35,-264.75"/>
<polygon fill="black" stroke="black" points="114.85,-264.75 112.04,-254.53 107.87,-264.27 114.85,-264.75"/>
</g>
<!-- 4 -->
<g id="node5" class="node">
<title>4</title>
<ellipse fill="none" stroke="black" cx="31.82" cy="-137.82" rx="31.64" ry="26.74"/>
<text text-anchor="middle" x="31.82" y="-141.62" font-family="Times,serif" font-size="14.00">[4]</text>
<text text-anchor="middle" x="31.82" y="-126.62" font-family="Times,serif" font-size="14.00">C: 6</text>
</g>
<!-- 3&#45;&gt;4 -->
<g id="edge6" class="edge">
<title>3&#45;&gt;4</title>
<path fill="none" stroke="black" d="M31.82,-200.24C31.82,-192.27 31.82,-183.38 31.82,-174.89"/>
<polygon fill="black" stroke="black" points="35.32,-174.83 31.82,-164.83 28.32,-174.83 35.32,-174.83"/>
</g>
<!-- 7 -->
<g id="node8" class="node">
<title>7</title>
<ellipse fill="none" stroke="black" stroke-width="2" cx="113.82" cy="-37.48" rx="38.78" ry="37.45"/>
<text text-anchor="middle" x="113.82" y="-48.78" font-family="Times,serif" font-size="14.00">[7]</text>
<text text-anchor="middle" x="113.82" y="-33.78" font-family="Times,serif" font-size="14.00">C: 10</text>
<text text-anchor="middle" x="113.82" y="-18.78" font-family="Times,serif" font-size="14.00">D: 61</text>
</g>
<!-- 4&#45;&gt;7 -->
<g id="edge7" class="edge">
<title>4&#45;&gt;7</title>
<path fill="none" stroke="black" d="M49.61,-115.48C59.46,-103.68 71.96,-88.68 83.32,-75.06"/>
<polygon fill="black" stroke="black" points="86.12,-77.16 89.84,-67.24 80.75,-72.68 86.12,-77.16"/>
</g>
<!-- 6 -->
<g id="node7" class="node">
<title>6</title>
<ellipse fill="none" stroke="black" cx="195.82" cy="-137.82" rx="31.64" ry="26.74"/>
<text text-anchor="middle" x="195.82" y="-141.62" font-family="Times,serif" font-size="14.00">[6]</text>
<text text-anchor="middle" x="195.82" y="-126.62" font-family="Times,serif" font-size="14.00">C: 5</text>
</g>
<!-- 5&#45;&gt;6 -->
<g id="edge8" class="edge">
<title>5&#45;&gt;6</title>
<path fill="none" stroke="black" d="M195.82,-290.12C195.82,-259.62 195.82,-209.07 195.82,-174.88"/>
<polygon fill="black" stroke="black" points="199.32,-174.83 195.82,-164.83 192.32,-174.83 199.32,-174.83"/>
</g>
<!-- 6&#45;&gt;7 -->
<g id="edge9" class="edge">
<title>6&#45;&gt;7</title>
<path fill="none" stroke="black" d="M178.03,-115.48C168.18,-103.68 155.68,-88.68 144.32,-75.06"/>
<polygon fill="black" stroke="black" points="146.89,-72.68 137.8,-67.24 141.52,-77.16 146.89,-72.68"/>
</g>
<!-- 9 -->
<g id="node10" class="node">
<title>9</title>
<ellipse fill="none" stroke="black" cx="113.82" cy="-137.82" rx="31.64" ry="26.74"/>
<text text-anchor="middle" x="113.82" y="-141.62" font-family="Times,serif" font-size="14.00">[9]</text>
<text text-anchor="middle" x="113.82" y="-126.62" font-family="Times,serif" font-size="14.00">C: 2</text>
</g>
<!-- 8&#45;&gt;9 -->
<g id="edge10" class="edge">
<title>8&#45;&gt;9</title>
<path fill="none" stroke="black" d="M113.82,-200.24C113.82,-192.27 113.82,-183.38 113.82,-174.89"/>
<polygon fill="black" stroke="black" points="117.32,-174.83 113.82,-164.83 110.32,-174.83 117.32,-174.83"/>
</g>
<!-- 9&#45;&gt;7 -->
<g id="edge11" class="edge">
<title>9&#45;&gt;7</title>
<path fill="none" stroke="black" d="M113.82,-110.73C113.82,-102.87 113.82,-94.01 113.82,-85.24"/>
<polygon fill="black" stroke="black" points="117.32,-85.06 113.82,-75.06 110.32,-85.06 117.32,-85.06"/>
</g>
</g>
</svg>
