<?xml version="1.0" encoding="UTF-8" standalone="no"?>
<!DOCTYPE svg PUBLIC "-//W3C//DTD SVG 1.1//EN"
 "http://www.w3.org/Graphics/SVG/1.1/DTD/svg11.dtd">
<!-- Generated by graphviz version 2.43.0 (0)
 -->
<!-- Title: %3 Pages: 1 -->
<svg width="109pt" height="262pt"
 viewBox="0.00 0.00 108.71 261.69" xmlns="http://www.w3.org/2000/svg" xmlns:xlink="http://www.w3.org/1999/xlink">
<g id="graph0" class="graph" transform="scale(1 1) rotate(0) translate(4 257.69)">
<title>%3</title>
<polygon fill="white" stroke="transparent" points="-4,4 -4,-257.69 104.71,-257.69 104.71,4 -4,4"/>
<!-- 0 -->
<g id="node1" class="node">
<title>0</title>
<polygon fill="none" stroke="black" points="88.82,-253.69 34.82,-253.69 34.82,-200.69 88.82,-200.69 88.82,-253.69"/>
<text text-anchor="middle" x="61.82" y="-238.49" font-family="Times,serif" font-size="14.00">[0]</text>
<text text-anchor="middle" x="61.82" y="-223.49" font-family="Times,serif" font-size="14.00">C: 60</text>
<text text-anchor="middle" x="61.82" y="-208.49" font-family="Times,serif" font-size="14.00">T: 50</text>
</g>
<!-- 1 -->
<g id="node2" class="node">
<title>1</title>
<ellipse fill="none" stroke="black" cx="31.82" cy="-137.82" rx="31.64" ry="26.74"/>
<text text-anchor="middle" x="31.82" y="-141.62" font-family="Times,serif" font-size="14.00">[1]</text>
<text text-anchor="middle" x="31.82" y="-126.62" font-family="Times,serif" font-size="14.00">C: 2</text>
</g>
<!-- 0&#45;&gt;1 -->
<g id="edge1" class="edge">
<title>0&#45;&gt;1</title>
<path fill="none" stroke="black" d="M52.98,-200.45C50.06,-191.95 46.77,-182.35 43.66,-173.3"/>
<polygon fill="black" stroke="black" points="46.95,-172.1 40.39,-163.78 40.33,-174.37 46.95,-172.1"/>
</g>
<!-- 2 -->
<g id="node3" class="node">
<title>2</title>
<ellipse fill="none" stroke="black" stroke-width="2" cx="61.82" cy="-37.48" rx="38.78" ry="37.45"/>
<text text-anchor="middle" x="61.82" y="-48.78" font-family="Times,serif" font-size="14.00">[2]</text>
<text text-anchor="middle" x="61.82" y="-33.78" font-family="Times,serif" font-size="14.00">C: 3</text>
<text text-anchor="middle" x="61.82" y="-18.78" font-family="Times,serif" font-size="14.00">D: 71</text>
</g>
<!-- 0&#45;&gt;2 -->
<g id="edge2" class="edge">
<title>0&#45;&gt;2</title>
<path fill="none" stroke="black" d="M67.44,-200.6C69.59,-189.6 71.77,-176.58 72.82,-164.69 74.93,-140.9 74.62,-134.77 72.82,-110.95 72.17,-102.38 71.1,-93.28 69.87,-84.54"/>
<polygon fill="black" stroke="black" points="73.31,-83.86 68.38,-74.48 66.39,-84.89 73.31,-83.86"/>
</g>
<!-- 1&#45;&gt;2 -->
<g id="edge3" class="edge">
<title>1&#45;&gt;2</title>
<path fill="none" stroke="black" d="M39.55,-111.5C42.15,-102.96 45.14,-93.17 48.06,-83.58"/>
<polygon fill="black" stroke="black" points="51.5,-84.31 51.07,-73.72 44.8,-82.27 51.5,-84.31"/>
</g>
</g>
</svg>
