<?xml version="1.0" encoding="UTF-8" standalone="no"?>
<!DOCTYPE svg PUBLIC "-//W3C//DTD SVG 1.1//EN"
 "http://www.w3.org/Graphics/SVG/1.1/DTD/svg11.dtd">
<!-- Generated by graphviz version 2.43.0 (0)
 -->
<!-- Title: %3 Pages: 1 -->
<svg width="193pt" height="441pt"
 viewBox="0.00 0.00 192.69 441.17" xmlns="http://www.w3.org/2000/svg" xmlns:xlink="http://www.w3.org/1999/xlink">
<g id="graph0" class="graph" transform="scale(1 1) rotate(0) translate(4 437.17)">
<title>%3</title>
<polygon fill="white" stroke="transparent" points="-4,4 -4,-437.17 188.69,-437.17 188.69,4 -4,4"/>
<!-- 0 -->
<g id="node1" class="node">
<title>0</title>
<polygon fill="none" stroke="black" points="127.51,-433.17 65.51,-433.17 65.51,-380.17 127.51,-380.17 127.51,-433.17"/>
<text text-anchor="middle" x="96.51" y="-417.97" font-family="Times,serif" font-size="14.00">[0]</text>
<text text-anchor="middle" x="96.51" y="-402.97" font-family="Times,serif" font-size="14.00">C: 9</text>
<text text-anchor="middle" x="96.51" y="-387.97" font-family="Times,serif" font-size="14.00">T: 100</text>
</g>
<!-- 1 -->
<g id="node2" class="node">
<title>1</title>
<ellipse fill="none" stroke="black" cx="96.51" cy="-317.3" rx="31.64" ry="26.74"/>
<text text-anchor="middle" x="96.51" y="-321.1" font-family="Times,serif" font-size="14.00">[1]</text>
<text text-anchor="middle" x="96.51" y="-306.1" font-family="Times,serif" font-size="14.00">C: 1</text>
</g>
<!-- 0&#45;&gt;1 -->
<g id="edge1" class="edge">
<title>0&#45;&gt;1</title>
<path fill="none" stroke="black" d="M96.51,-379.93C96.51,-371.99 96.51,-363.09 96.51,-354.57"/>
<polygon fill="black" stroke="black" points="100.01,-354.47 96.51,-344.47 93.01,-354.47 100.01,-354.47"/>
</g>
<!-- 2 -->
<g id="node3" class="node">
<title>2</title>
<ellipse fill="none" stroke="black" cx="52.51" cy="-227.56" rx="38.37" ry="26.74"/>
<text text-anchor="middle" x="52.51" y="-231.36" font-family="Times,serif" font-size="14.00">[2]</text>
<text text-anchor="middle" x="52.51" y="-216.36" font-family="Times,serif" font-size="14.00">C: 11</text>
</g>
<!-- 1&#45;&gt;2 -->
<g id="edge2" class="edge">
<title>1&#45;&gt;2</title>
<path fill="none" stroke="black" d="M84.48,-292.33C79.81,-283 74.37,-272.16 69.32,-262.09"/>
<polygon fill="black" stroke="black" points="72.43,-260.49 64.82,-253.12 66.17,-263.63 72.43,-260.49"/>
</g>
<!-- 4 -->
<g id="node5" class="node">
<title>4</title>
<ellipse fill="none" stroke="black" cx="143.51" cy="-227.56" rx="31.64" ry="26.74"/>
<text text-anchor="middle" x="143.51" y="-231.36" font-family="Times,serif" font-size="14.00">[4]</text>
<text text-anchor="middle" x="143.51" y="-216.36" font-family="Times,serif" font-size="14.00">C: 5</text>
</g>
<!-- 1&#45;&gt;4 -->
<g id="edge3" class="edge">
<title>1&#45;&gt;4</title>
<path fill="none" stroke="black" d="M109.35,-292.33C114.43,-282.85 120.35,-271.8 125.82,-261.59"/>
<polygon fill="black" stroke="black" points="129.04,-262.98 130.68,-252.51 122.87,-259.67 129.04,-262.98"/>
</g>
<!-- 3 -->
<g id="node4" class="node">
<title>3</title>
<ellipse fill="none" stroke="black" stroke-width="2" cx="52.51" cy="-37.48" rx="45.01" ry="37.45"/>
<text text-anchor="middle" x="52.51" y="-48.78" font-family="Times,serif" font-size="14.00">[3]</text>
<text text-anchor="middle" x="52.51" y="-33.78" font-family="Times,serif" font-size="14.00">C: 19</text>
<text text-anchor="middle" x="52.51" y="-18.78" font-family="Times,serif" font-size="14.00">D: 106</text>
</g>
<!-- 2&#45;&gt;3 -->
<g id="edge4" class="edge">
<title>2&#45;&gt;3</title>
<path fill="none" stroke="black" d="M30.69,-205.16C20.97,-194.1 10.59,-179.78 5.51,-164.69 -2.12,-142.06 -1.27,-133.86 5.51,-110.95 8.96,-99.27 14.96,-87.7 21.54,-77.35"/>
<polygon fill="black" stroke="black" points="24.49,-79.23 27.15,-68.97 18.68,-75.33 24.49,-79.23"/>
</g>
<!-- 6 -->
<g id="node7" class="node">
<title>6</title>
<ellipse fill="none" stroke="black" cx="52.51" cy="-137.82" rx="38.37" ry="26.74"/>
<text text-anchor="middle" x="52.51" y="-141.62" font-family="Times,serif" font-size="14.00">[6]</text>
<text text-anchor="middle" x="52.51" y="-126.62" font-family="Times,serif" font-size="14.00">C: 42</text>
</g>
<!-- 2&#45;&gt;6 -->
<g id="edge5" class="edge">
<title>2&#45;&gt;6</title>
<path fill="none" stroke="black" d="M52.51,-200.24C52.51,-192.27 52.51,-183.38 52.51,-174.89"/>
<polygon fill="black" stroke="black" points="56.01,-174.83 52.51,-164.83 49.01,-174.83 56.01,-174.83"/>
</g>
<!-- 5 -->
<g id="node6" class="node">
<title>5</title>
<ellipse fill="none" stroke="black" cx="146.51" cy="-137.82" rx="38.37" ry="26.74"/>
<text text-anchor="middle" x="146.51" y="-141.62" font-family="Times,serif" font-size="14.00">[5]</text>
<text text-anchor="middle" x="146.51" y="-126.62" font-family="Times,serif" font-size="14.00">C: 43</text>
</g>
<!-- 4&#45;&gt;5 -->
<g id="edge6" class="edge">
<title>4&#45;&gt;5</title>
<path fill="none" stroke="black" d="M144.41,-200.24C144.68,-192.27 144.98,-183.38 145.27,-174.89"/>
<polygon fill="black" stroke="black" points="148.77,-174.94 145.62,-164.83 141.78,-174.7 148.77,-174.94"/>
</g>
<!-- 5&#45;&gt;3 -->
<g id="edge7" class="edge">
<title>5&#45;&gt;3</title>
<path fill="none" stroke="black" d="M125.64,-115C114.33,-103.16 100.04,-88.21 87.11,-74.68"/>
<polygon fill="black" stroke="black" points="89.53,-72.15 80.09,-67.34 84.47,-76.98 89.53,-72.15"/>
</g>
<!-- 6&#45;&gt;3 -->
<g id="edge8" class="edge">
<title>6&#45;&gt;3</title>
<path fill="none" stroke="black" d="M52.51,-110.73C52.51,-102.87 52.51,-94.01 52.51,-85.24"/>
<polygon fill="black" stroke="black" points="56.01,-85.06 52.51,-75.06 49.01,-85.06 56.01,-85.06"/>
</g>
</g>
</svg>
