<?xml version="1.0" encoding="UTF-8" standalone="no"?>
<!DOCTYPE svg PUBLIC "-//W3C//DTD SVG 1.1//EN"
 "http://www.w3.org/Graphics/SVG/1.1/DTD/svg11.dtd">
<!-- Generated by graphviz version 2.43.0 (0)
 -->
<!-- Title: %3 Pages: 1 -->
<svg width="166pt" height="351pt"
 viewBox="0.00 0.00 166.00 351.43" xmlns="http://www.w3.org/2000/svg" xmlns:xlink="http://www.w3.org/1999/xlink">
<g id="graph0" class="graph" transform="scale(1 1) rotate(0) translate(4 347.43)">
<title>%3</title>
<polygon fill="white" stroke="transparent" points="-4,4 -4,-347.43 162,-347.43 162,4 -4,4"/>
<!-- 0 -->
<g id="node1" class="node">
<title>0</title>
<polygon fill="none" stroke="black" points="113.18,-343.43 51.18,-343.43 51.18,-290.43 113.18,-290.43 113.18,-343.43"/>
<text text-anchor="middle" x="82.18" y="-328.23" font-family="Times,serif" font-size="14.00">[0]</text>
<text text-anchor="middle" x="82.18" y="-313.23" font-family="Times,serif" font-size="14.00">C: 10</text>
<text text-anchor="middle" x="82.18" y="-298.23" font-family="Times,serif" font-size="14.00">T: 100</text>
</g>
<!-- 1 -->
<g id="node2" class="node">
<title>1</title>
<ellipse fill="none" stroke="black" cx="52.18" cy="-227.56" rx="31.64" ry="26.74"/>
<text text-anchor="middle" x="52.18" y="-231.36" font-family="Times,serif" font-size="14.00">[1]</text>
<text text-anchor="middle" x="52.18" y="-216.36" font-family="Times,serif" font-size="14.00">C: 8</text>
</g>
<!-- 0&#45;&gt;1 -->
<g id="edge1" class="edge">
<title>0&#45;&gt;1</title>
<path fill="none" stroke="black" d="M73.35,-290.19C70.43,-281.69 67.13,-272.09 64.02,-263.04"/>
<polygon fill="black" stroke="black" points="67.31,-261.84 60.75,-253.52 60.69,-264.11 67.31,-261.84"/>
</g>
<!-- 3 -->
<g id="node4" class="node">
<title>3</title>
<ellipse fill="none" stroke="black" cx="126.18" cy="-137.82" rx="31.64" ry="26.74"/>
<text text-anchor="middle" x="126.18" y="-141.62" font-family="Times,serif" font-size="14.00">[3]</text>
<text text-anchor="middle" x="126.18" y="-126.62" font-family="Times,serif" font-size="14.00">C: 9</text>
</g>
<!-- 0&#45;&gt;3 -->
<g id="edge2" class="edge">
<title>0&#45;&gt;3</title>
<path fill="none" stroke="black" d="M88.58,-290.18C96.16,-259.66 108.84,-208.64 117.35,-174.38"/>
<polygon fill="black" stroke="black" points="120.84,-174.87 119.85,-164.32 114.04,-173.18 120.84,-174.87"/>
</g>
<!-- 2 -->
<g id="node3" class="node">
<title>2</title>
<ellipse fill="none" stroke="black" cx="38.18" cy="-137.82" rx="38.37" ry="26.74"/>
<text text-anchor="middle" x="38.18" y="-141.62" font-family="Times,serif" font-size="14.00">[2]</text>
<text text-anchor="middle" x="38.18" y="-126.62" font-family="Times,serif" font-size="14.00">C: 13</text>
</g>
<!-- 1&#45;&gt;2 -->
<g id="edge3" class="edge">
<title>1&#45;&gt;2</title>
<path fill="none" stroke="black" d="M48.06,-200.71C46.76,-192.57 45.3,-183.43 43.91,-174.73"/>
<polygon fill="black" stroke="black" points="47.36,-174.12 42.33,-164.79 40.45,-175.22 47.36,-174.12"/>
</g>
<!-- 4 -->
<g id="node5" class="node">
<title>4</title>
<ellipse fill="none" stroke="black" stroke-width="2" cx="82.18" cy="-37.48" rx="45.01" ry="37.45"/>
<text text-anchor="middle" x="82.18" y="-48.78" font-family="Times,serif" font-size="14.00">[4]</text>
<text text-anchor="middle" x="82.18" y="-33.78" font-family="Times,serif" font-size="14.00">C: 90</text>
<text text-anchor="middle" x="82.18" y="-18.78" font-family="Times,serif" font-size="14.00">D: 157</text>
</g>
<!-- 2&#45;&gt;4 -->
<g id="edge4" class="edge">
<title>2&#45;&gt;4</title>
<path fill="none" stroke="black" d="M49.29,-112.01C53.34,-102.94 58.06,-92.41 62.63,-82.19"/>
<polygon fill="black" stroke="black" points="65.87,-83.5 66.76,-72.94 59.49,-80.64 65.87,-83.5"/>
</g>
<!-- 3&#45;&gt;4 -->
<g id="edge5" class="edge">
<title>3&#45;&gt;4</title>
<path fill="none" stroke="black" d="M115.31,-112.51C111.22,-103.37 106.43,-92.66 101.78,-82.29"/>
<polygon fill="black" stroke="black" points="104.86,-80.6 97.58,-72.9 98.47,-83.45 104.86,-80.6"/>
</g>
</g>
</svg>
