<?xml version="1.0" encoding="UTF-8" standalone="no"?>
<!DOCTYPE svg PUBLIC "-//W3C//DTD SVG 1.1//EN"
 "http://www.w3.org/Graphics/SVG/1.1/DTD/svg11.dtd">
<!-- Generated by graphviz version 2.43.0 (0)
 -->
<!-- Title: %3 Pages: 1 -->
<svg width="216pt" height="262pt"
 viewBox="0.00 0.00 216.37 261.69" xmlns="http://www.w3.org/2000/svg" xmlns:xlink="http://www.w3.org/1999/xlink">
<g id="graph0" class="graph" transform="scale(1 1) rotate(0) translate(4 257.69)">
<title>%3</title>
<polygon fill="white" stroke="transparent" points="-4,4 -4,-257.69 212.37,-257.69 212.37,4 -4,4"/>
<!-- 0 -->
<g id="node1" class="node">
<title>0</title>
<polygon fill="none" stroke="black" points="135.18,-253.69 73.18,-253.69 73.18,-200.69 135.18,-200.69 135.18,-253.69"/>
<text text-anchor="middle" x="104.18" y="-238.49" font-family="Times,serif" font-size="14.00">[0]</text>
<text text-anchor="middle" x="104.18" y="-223.49" font-family="Times,serif" font-size="14.00">C: 38</text>
<text text-anchor="middle" x="104.18" y="-208.49" font-family="Times,serif" font-size="14.00">T: 100</text>
</g>
<!-- 1 -->
<g id="node2" class="node">
<title>1</title>
<ellipse fill="none" stroke="black" cx="38.18" cy="-137.82" rx="38.37" ry="26.74"/>
<text text-anchor="middle" x="38.18" y="-141.62" font-family="Times,serif" font-size="14.00">[1]</text>
<text text-anchor="middle" x="38.18" y="-126.62" font-family="Times,serif" font-size="14.00">C: 12</text>
</g>
<!-- 0&#45;&gt;1 -->
<g id="edge1" class="edge">
<title>0&#45;&gt;1</title>
<path fill="none" stroke="black" d="M84.74,-200.45C77.55,-190.94 69.32,-180.04 61.8,-170.09"/>
<polygon fill="black" stroke="black" points="64.51,-167.87 55.69,-162 58.93,-172.09 64.51,-167.87"/>
</g>
<!-- 2 -->
<g id="node3" class="node">
<title>2</title>
<ellipse fill="none" stroke="black" stroke-width="2" cx="104.18" cy="-37.48" rx="45.01" ry="37.45"/>
<text text-anchor="middle" x="104.18" y="-48.78" font-family="Times,serif" font-size="14.00">[2]</text>
<text text-anchor="middle" x="104.18" y="-33.78" font-family="Times,serif" font-size="14.00">C: 64</text>
<text text-anchor="middle" x="104.18" y="-18.78" font-family="Times,serif" font-size="14.00">D: 129</text>
</g>
<!-- 0&#45;&gt;2 -->
<g id="edge2" class="edge">
<title>0&#45;&gt;2</title>
<path fill="none" stroke="black" d="M104.18,-200.49C104.18,-170.97 104.18,-121.93 104.18,-85.53"/>
<polygon fill="black" stroke="black" points="107.68,-85.15 104.18,-75.15 100.68,-85.15 107.68,-85.15"/>
</g>
<!-- 3 -->
<g id="node4" class="node">
<title>3</title>
<ellipse fill="none" stroke="black" cx="170.18" cy="-137.82" rx="38.37" ry="26.74"/>
<text text-anchor="middle" x="170.18" y="-141.62" font-family="Times,serif" font-size="14.00">[3]</text>
<text text-anchor="middle" x="170.18" y="-126.62" font-family="Times,serif" font-size="14.00">C: 16</text>
</g>
<!-- 0&#45;&gt;3 -->
<g id="edge3" class="edge">
<title>0&#45;&gt;3</title>
<path fill="none" stroke="black" d="M123.63,-200.45C130.82,-190.94 139.05,-180.04 146.56,-170.09"/>
<polygon fill="black" stroke="black" points="149.44,-172.09 152.68,-162 143.86,-167.87 149.44,-172.09"/>
</g>
<!-- 1&#45;&gt;2 -->
<g id="edge4" class="edge">
<title>1&#45;&gt;2</title>
<path fill="none" stroke="black" d="M53.99,-113.27C60.87,-103.02 69.12,-90.72 76.93,-79.08"/>
<polygon fill="black" stroke="black" points="79.85,-81.02 82.52,-70.76 74.04,-77.12 79.85,-81.02"/>
</g>
<!-- 3&#45;&gt;2 -->
<g id="edge5" class="edge">
<title>3&#45;&gt;2</title>
<path fill="none" stroke="black" d="M154.38,-113.27C147.5,-103.02 139.25,-90.72 131.44,-79.08"/>
<polygon fill="black" stroke="black" points="134.33,-77.12 125.85,-70.76 128.52,-81.02 134.33,-77.12"/>
</g>
</g>
</svg>
