<?xml version="1.0" encoding="UTF-8" standalone="no"?>
<!DOCTYPE svg PUBLIC "-//W3C//DTD SVG 1.1//EN"
 "http://www.w3.org/Graphics/SVG/1.1/DTD/svg11.dtd">
<!-- Generated by graphviz version 2.43.0 (0)
 -->
<!-- Title: %3 Pages: 1 -->
<svg width="174pt" height="621pt"
 viewBox="0.00 0.00 173.74 620.65" xmlns="http://www.w3.org/2000/svg" xmlns:xlink="http://www.w3.org/1999/xlink">
<g id="graph0" class="graph" transform="scale(1 1) rotate(0) translate(4 616.65)">
<title>%3</title>
<polygon fill="white" stroke="transparent" points="-4,4 -4,-616.65 169.74,-616.65 169.74,4 -4,4"/>
<!-- 0 -->
<g id="node1" class="node">
<title>0</title>
<polygon fill="none" stroke="black" points="114.56,-612.65 52.56,-612.65 52.56,-559.65 114.56,-559.65 114.56,-612.65"/>
<text text-anchor="middle" x="83.56" y="-597.45" font-family="Times,serif" font-size="14.00">[0]</text>
<text text-anchor="middle" x="83.56" y="-582.45" font-family="Times,serif" font-size="14.00">C: 16</text>
<text text-anchor="middle" x="83.56" y="-567.45" font-family="Times,serif" font-size="14.00">T: 100</text>
</g>
<!-- 1 -->
<g id="node2" class="node">
<title>1</title>
<ellipse fill="none" stroke="black" cx="39.56" cy="-496.78" rx="38.37" ry="26.74"/>
<text text-anchor="middle" x="39.56" y="-500.58" font-family="Times,serif" font-size="14.00">[1]</text>
<text text-anchor="middle" x="39.56" y="-485.58" font-family="Times,serif" font-size="14.00">C: 40</text>
</g>
<!-- 0&#45;&gt;1 -->
<g id="edge1" class="edge">
<title>0&#45;&gt;1</title>
<path fill="none" stroke="black" d="M70.6,-559.41C66.19,-550.65 61.19,-540.73 56.51,-531.45"/>
<polygon fill="black" stroke="black" points="59.6,-529.8 51.98,-522.44 53.35,-532.95 59.6,-529.8"/>
</g>
<!-- 6 -->
<g id="node7" class="node">
<title>6</title>
<ellipse fill="none" stroke="black" cx="127.56" cy="-496.78" rx="31.64" ry="26.74"/>
<text text-anchor="middle" x="127.56" y="-500.58" font-family="Times,serif" font-size="14.00">[6]</text>
<text text-anchor="middle" x="127.56" y="-485.58" font-family="Times,serif" font-size="14.00">C: 4</text>
</g>
<!-- 0&#45;&gt;6 -->
<g id="edge2" class="edge">
<title>0&#45;&gt;6</title>
<path fill="none" stroke="black" d="M96.52,-559.41C101.01,-550.5 106.1,-540.39 110.85,-530.97"/>
<polygon fill="black" stroke="black" points="114.07,-532.35 115.44,-521.85 107.82,-529.2 114.07,-532.35"/>
</g>
<!-- 2 -->
<g id="node3" class="node">
<title>2</title>
<ellipse fill="none" stroke="black" cx="39.56" cy="-407.04" rx="31.64" ry="26.74"/>
<text text-anchor="middle" x="39.56" y="-410.84" font-family="Times,serif" font-size="14.00">[2]</text>
<text text-anchor="middle" x="39.56" y="-395.84" font-family="Times,serif" font-size="14.00">C: 6</text>
</g>
<!-- 1&#45;&gt;2 -->
<g id="edge3" class="edge">
<title>1&#45;&gt;2</title>
<path fill="none" stroke="black" d="M39.56,-469.46C39.56,-461.49 39.56,-452.6 39.56,-444.11"/>
<polygon fill="black" stroke="black" points="43.06,-444.05 39.56,-434.05 36.06,-444.05 43.06,-444.05"/>
</g>
<!-- 3 -->
<g id="node4" class="node">
<title>3</title>
<ellipse fill="none" stroke="black" cx="39.56" cy="-317.3" rx="31.64" ry="26.74"/>
<text text-anchor="middle" x="39.56" y="-321.1" font-family="Times,serif" font-size="14.00">[3]</text>
<text text-anchor="middle" x="39.56" y="-306.1" font-family="Times,serif" font-size="14.00">C: 3</text>
</g>
<!-- 2&#45;&gt;3 -->
<g id="edge4" class="edge">
<title>2&#45;&gt;3</title>
<path fill="none" stroke="black" d="M39.56,-379.72C39.56,-371.75 39.56,-362.86 39.56,-354.37"/>
<polygon fill="black" stroke="black" points="43.06,-354.31 39.56,-344.31 36.06,-354.31 43.06,-354.31"/>
</g>
<!-- 4 -->
<g id="node5" class="node">
<title>4</title>
<ellipse fill="none" stroke="black" cx="39.56" cy="-227.56" rx="31.64" ry="26.74"/>
<text text-anchor="middle" x="39.56" y="-231.36" font-family="Times,serif" font-size="14.00">[4]</text>
<text text-anchor="middle" x="39.56" y="-216.36" font-family="Times,serif" font-size="14.00">C: 9</text>
</g>
<!-- 3&#45;&gt;4 -->
<g id="edge5" class="edge">
<title>3&#45;&gt;4</title>
<path fill="none" stroke="black" d="M39.56,-289.98C39.56,-282.01 39.56,-273.12 39.56,-264.63"/>
<polygon fill="black" stroke="black" points="43.06,-264.57 39.56,-254.57 36.06,-264.57 43.06,-264.57"/>
</g>
<!-- 5 -->
<g id="node6" class="node">
<title>5</title>
<ellipse fill="none" stroke="black" stroke-width="2" cx="45.56" cy="-37.48" rx="45.01" ry="37.45"/>
<text text-anchor="middle" x="45.56" y="-48.78" font-family="Times,serif" font-size="14.00">[5]</text>
<text text-anchor="middle" x="45.56" y="-33.78" font-family="Times,serif" font-size="14.00">C: 11</text>
<text text-anchor="middle" x="45.56" y="-18.78" font-family="Times,serif" font-size="14.00">D: 114</text>
</g>
<!-- 4&#45;&gt;5 -->
<g id="edge6" class="edge">
<title>4&#45;&gt;5</title>
<path fill="none" stroke="black" d="M23.25,-204.29C15.99,-193.02 8.27,-178.78 4.56,-164.69 -1.52,-141.6 -1.52,-134.05 4.56,-110.95 7.43,-100.04 12.37,-89.03 17.84,-79.02"/>
<polygon fill="black" stroke="black" points="21.01,-80.53 22.98,-70.12 14.95,-77.03 21.01,-80.53"/>
</g>
<!-- 11 -->
<g id="node12" class="node">
<title>11</title>
<ellipse fill="none" stroke="black" cx="45.56" cy="-137.82" rx="31.64" ry="26.74"/>
<text text-anchor="middle" x="45.56" y="-141.62" font-family="Times,serif" font-size="14.00">[11]</text>
<text text-anchor="middle" x="45.56" y="-126.62" font-family="Times,serif" font-size="14.00">C: 3</text>
</g>
<!-- 4&#45;&gt;11 -->
<g id="edge7" class="edge">
<title>4&#45;&gt;11</title>
<path fill="none" stroke="black" d="M41.33,-200.71C41.88,-192.66 42.5,-183.63 43.09,-175.01"/>
<polygon fill="black" stroke="black" points="46.59,-175.01 43.78,-164.79 39.61,-174.53 46.59,-175.01"/>
</g>
<!-- 7 -->
<g id="node8" class="node">
<title>7</title>
<ellipse fill="none" stroke="black" cx="127.56" cy="-407.04" rx="38.37" ry="26.74"/>
<text text-anchor="middle" x="127.56" y="-410.84" font-family="Times,serif" font-size="14.00">[7]</text>
<text text-anchor="middle" x="127.56" y="-395.84" font-family="Times,serif" font-size="14.00">C: 24</text>
</g>
<!-- 6&#45;&gt;7 -->
<g id="edge8" class="edge">
<title>6&#45;&gt;7</title>
<path fill="none" stroke="black" d="M127.56,-469.46C127.56,-461.49 127.56,-452.6 127.56,-444.11"/>
<polygon fill="black" stroke="black" points="131.06,-444.05 127.56,-434.05 124.06,-444.05 131.06,-444.05"/>
</g>
<!-- 8 -->
<g id="node9" class="node">
<title>8</title>
<ellipse fill="none" stroke="black" cx="127.56" cy="-317.3" rx="31.64" ry="26.74"/>
<text text-anchor="middle" x="127.56" y="-321.1" font-family="Times,serif" font-size="14.00">[8]</text>
<text text-anchor="middle" x="127.56" y="-306.1" font-family="Times,serif" font-size="14.00">C: 1</text>
</g>
<!-- 7&#45;&gt;8 -->
<g id="edge9" class="edge">
<title>7&#45;&gt;8</title>
<path fill="none" stroke="black" d="M127.56,-379.72C127.56,-371.75 127.56,-362.86 127.56,-354.37"/>
<polygon fill="black" stroke="black" points="131.06,-354.31 127.56,-344.31 124.06,-354.31 131.06,-354.31"/>
</g>
<!-- 9 -->
<g id="node10" class="node">
<title>9</title>
<ellipse fill="none" stroke="black" cx="127.56" cy="-227.56" rx="31.64" ry="26.74"/>
<text text-anchor="middle" x="127.56" y="-231.36" font-family="Times,serif" font-size="14.00">[9]</text>
<text text-anchor="middle" x="127.56" y="-216.36" font-family="Times,serif" font-size="14.00">C: 9</text>
</g>
<!-- 8&#45;&gt;9 -->
<g id="edge10" class="edge">
<title>8&#45;&gt;9</title>
<path fill="none" stroke="black" d="M127.56,-289.98C127.56,-282.01 127.56,-273.12 127.56,-264.63"/>
<polygon fill="black" stroke="black" points="131.06,-264.57 127.56,-254.57 124.06,-264.57 131.06,-264.57"/>
</g>
<!-- 10 -->
<g id="node11" class="node">
<title>10</title>
<ellipse fill="none" stroke="black" cx="127.56" cy="-137.82" rx="31.64" ry="26.74"/>
<text text-anchor="middle" x="127.56" y="-141.62" font-family="Times,serif" font-size="14.00">[10]</text>
<text text-anchor="middle" x="127.56" y="-126.62" font-family="Times,serif" font-size="14.00">C: 4</text>
</g>
<!-- 9&#45;&gt;10 -->
<g id="edge11" class="edge">
<title>9&#45;&gt;10</title>
<path fill="none" stroke="black" d="M127.56,-200.24C127.56,-192.27 127.56,-183.38 127.56,-174.89"/>
<polygon fill="black" stroke="black" points="131.06,-174.83 127.56,-164.83 124.06,-174.83 131.06,-174.83"/>
</g>
<!-- 10&#45;&gt;5 -->
<g id="edge12" class="edge">
<title>10&#45;&gt;5</title>
<path fill="none" stroke="black" d="M109.77,-115.48C100.33,-104.16 88.44,-89.91 77.47,-76.75"/>
<polygon fill="black" stroke="black" points="79.88,-74.17 70.78,-68.73 74.5,-78.65 79.88,-74.17"/>
</g>
<!-- 11&#45;&gt;5 -->
<g id="edge13" class="edge">
<title>11&#45;&gt;5</title>
<path fill="none" stroke="black" d="M45.56,-110.73C45.56,-102.87 45.56,-94.01 45.56,-85.24"/>
<polygon fill="black" stroke="black" points="49.06,-85.06 45.56,-75.06 42.06,-85.06 49.06,-85.06"/>
</g>
</g>
</svg>
