<?xml version="1.0" encoding="UTF-8" standalone="no"?>
<!DOCTYPE svg PUBLIC "-//W3C//DTD SVG 1.1//EN"
 "http://www.w3.org/Graphics/SVG/1.1/DTD/svg11.dtd">
<!-- Generated by graphviz version 2.43.0 (0)
 -->
<!-- Title: %3 Pages: 1 -->
<svg width="178pt" height="351pt"
 viewBox="0.00 0.00 178.37 351.43" xmlns="http://www.w3.org/2000/svg" xmlns:xlink="http://www.w3.org/1999/xlink">
<g id="graph0" class="graph" transform="scale(1 1) rotate(0) translate(4 347.43)">
<title>%3</title>
<polygon fill="white" stroke="transparent" points="-4,4 -4,-347.43 174.37,-347.43 174.37,4 -4,4"/>
<!-- 0 -->
<g id="node1" class="node">
<title>0</title>
<polygon fill="none" stroke="black" points="112.18,-343.43 58.18,-343.43 58.18,-290.43 112.18,-290.43 112.18,-343.43"/>
<text text-anchor="middle" x="85.18" y="-328.23" font-family="Times,serif" font-size="14.00">[0]</text>
<text text-anchor="middle" x="85.18" y="-313.23" font-family="Times,serif" font-size="14.00">C: 2</text>
<text text-anchor="middle" x="85.18" y="-298.23" font-family="Times,serif" font-size="14.00">T: 50</text>
</g>
<!-- 1 -->
<g id="node2" class="node">
<title>1</title>
<ellipse fill="none" stroke="black" cx="38.18" cy="-137.82" rx="38.37" ry="26.74"/>
<text text-anchor="middle" x="38.18" y="-141.62" font-family="Times,serif" font-size="14.00">[1]</text>
<text text-anchor="middle" x="38.18" y="-126.62" font-family="Times,serif" font-size="14.00">C: 41</text>
</g>
<!-- 0&#45;&gt;1 -->
<g id="edge1" class="edge">
<title>0&#45;&gt;1</title>
<path fill="none" stroke="black" d="M78.35,-290.18C70.25,-259.66 56.71,-208.64 47.62,-174.38"/>
<polygon fill="black" stroke="black" points="50.9,-173.09 44.95,-164.32 44.13,-174.88 50.9,-173.09"/>
</g>
<!-- 3 -->
<g id="node4" class="node">
<title>3</title>
<ellipse fill="none" stroke="black" cx="123.18" cy="-227.56" rx="31.64" ry="26.74"/>
<text text-anchor="middle" x="123.18" y="-231.36" font-family="Times,serif" font-size="14.00">[3]</text>
<text text-anchor="middle" x="123.18" y="-216.36" font-family="Times,serif" font-size="14.00">C: 8</text>
</g>
<!-- 0&#45;&gt;3 -->
<g id="edge2" class="edge">
<title>0&#45;&gt;3</title>
<path fill="none" stroke="black" d="M96.38,-290.19C100.18,-281.45 104.49,-271.55 108.52,-262.28"/>
<polygon fill="black" stroke="black" points="111.81,-263.49 112.59,-252.92 105.39,-260.7 111.81,-263.49"/>
</g>
<!-- 2 -->
<g id="node3" class="node">
<title>2</title>
<ellipse fill="none" stroke="black" stroke-width="2" cx="85.18" cy="-37.48" rx="38.78" ry="37.45"/>
<text text-anchor="middle" x="85.18" y="-48.78" font-family="Times,serif" font-size="14.00">[2]</text>
<text text-anchor="middle" x="85.18" y="-33.78" font-family="Times,serif" font-size="14.00">C: 2</text>
<text text-anchor="middle" x="85.18" y="-18.78" font-family="Times,serif" font-size="14.00">D: 58</text>
</g>
<!-- 1&#45;&gt;2 -->
<g id="edge3" class="edge">
<title>1&#45;&gt;2</title>
<path fill="none" stroke="black" d="M50.04,-112.01C54.54,-102.59 59.81,-91.57 64.87,-80.98"/>
<polygon fill="black" stroke="black" points="68.09,-82.36 69.24,-71.83 61.77,-79.35 68.09,-82.36"/>
</g>
<!-- 4 -->
<g id="node5" class="node">
<title>4</title>
<ellipse fill="none" stroke="black" cx="132.18" cy="-137.82" rx="38.37" ry="26.74"/>
<text text-anchor="middle" x="132.18" y="-141.62" font-family="Times,serif" font-size="14.00">[4]</text>
<text text-anchor="middle" x="132.18" y="-126.62" font-family="Times,serif" font-size="14.00">C: 12</text>
</g>
<!-- 3&#45;&gt;4 -->
<g id="edge4" class="edge">
<title>3&#45;&gt;4</title>
<path fill="none" stroke="black" d="M125.84,-200.71C126.66,-192.66 127.59,-183.63 128.47,-175.01"/>
<polygon fill="black" stroke="black" points="131.98,-175.1 129.52,-164.79 125.02,-174.38 131.98,-175.1"/>
</g>
<!-- 4&#45;&gt;2 -->
<g id="edge5" class="edge">
<title>4&#45;&gt;2</title>
<path fill="none" stroke="black" d="M120.32,-112.01C115.82,-102.59 110.56,-91.57 105.5,-80.98"/>
<polygon fill="black" stroke="black" points="108.59,-79.35 101.12,-71.83 102.28,-82.36 108.59,-79.35"/>
</g>
</g>
</svg>
