<?xml version="1.0" encoding="UTF-8" standalone="no"?>
<!DOCTYPE svg PUBLIC "-//W3C//DTD SVG 1.1//EN"
 "http://www.w3.org/Graphics/SVG/1.1/DTD/svg11.dtd">
<!-- Generated by graphviz version 2.43.0 (0)
 -->
<!-- Title: %3 Pages: 1 -->
<svg width="166pt" height="351pt"
 viewBox="0.00 0.00 166.00 351.43" xmlns="http://www.w3.org/2000/svg" xmlns:xlink="http://www.w3.org/1999/xlink">
<g id="graph0" class="graph" transform="scale(1 1) rotate(0) translate(4 347.43)">
<title>%3</title>
<polygon fill="white" stroke="transparent" points="-4,4 -4,-347.43 162,-347.43 162,4 -4,4"/>
<!-- 0 -->
<g id="node1" class="node">
<title>0</title>
<polygon fill="none" stroke="black" points="112.18,-343.43 50.18,-343.43 50.18,-290.43 112.18,-290.43 112.18,-343.43"/>
<text text-anchor="middle" x="81.18" y="-328.23" font-family="Times,serif" font-size="14.00">[0]</text>
<text text-anchor="middle" x="81.18" y="-313.23" font-family="Times,serif" font-size="14.00">C: 15</text>
<text text-anchor="middle" x="81.18" y="-298.23" font-family="Times,serif" font-size="14.00">T: 100</text>
</g>
<!-- 1 -->
<g id="node2" class="node">
<title>1</title>
<ellipse fill="none" stroke="black" cx="43.18" cy="-227.56" rx="38.37" ry="26.74"/>
<text text-anchor="middle" x="43.18" y="-231.36" font-family="Times,serif" font-size="14.00">[1]</text>
<text text-anchor="middle" x="43.18" y="-216.36" font-family="Times,serif" font-size="14.00">C: 29</text>
</g>
<!-- 0&#45;&gt;1 -->
<g id="edge1" class="edge">
<title>0&#45;&gt;1</title>
<path fill="none" stroke="black" d="M69.99,-290.19C66.25,-281.6 62.03,-271.89 58.05,-262.75"/>
<polygon fill="black" stroke="black" points="61.24,-261.29 54.04,-253.52 54.82,-264.09 61.24,-261.29"/>
</g>
<!-- 3 -->
<g id="node4" class="node">
<title>3</title>
<ellipse fill="none" stroke="black" cx="126.18" cy="-137.82" rx="31.64" ry="26.74"/>
<text text-anchor="middle" x="126.18" y="-141.62" font-family="Times,serif" font-size="14.00">[3]</text>
<text text-anchor="middle" x="126.18" y="-126.62" font-family="Times,serif" font-size="14.00">C: 6</text>
</g>
<!-- 0&#45;&gt;3 -->
<g id="edge2" class="edge">
<title>0&#45;&gt;3</title>
<path fill="none" stroke="black" d="M87.73,-290.18C95.48,-259.66 108.44,-208.64 117.15,-174.38"/>
<polygon fill="black" stroke="black" points="120.64,-174.87 119.71,-164.32 113.85,-173.15 120.64,-174.87"/>
</g>
<!-- 2 -->
<g id="node3" class="node">
<title>2</title>
<ellipse fill="none" stroke="black" cx="38.18" cy="-137.82" rx="38.37" ry="26.74"/>
<text text-anchor="middle" x="38.18" y="-141.62" font-family="Times,serif" font-size="14.00">[2]</text>
<text text-anchor="middle" x="38.18" y="-126.62" font-family="Times,serif" font-size="14.00">C: 32</text>
</g>
<!-- 1&#45;&gt;2 -->
<g id="edge3" class="edge">
<title>1&#45;&gt;2</title>
<path fill="none" stroke="black" d="M41.71,-200.71C41.25,-192.66 40.74,-183.63 40.25,-175.01"/>
<polygon fill="black" stroke="black" points="43.73,-174.58 39.66,-164.79 36.74,-174.98 43.73,-174.58"/>
</g>
<!-- 4 -->
<g id="node5" class="node">
<title>4</title>
<ellipse fill="none" stroke="black" stroke-width="2" cx="82.18" cy="-37.48" rx="45.01" ry="37.45"/>
<text text-anchor="middle" x="82.18" y="-48.78" font-family="Times,serif" font-size="14.00">[4]</text>
<text text-anchor="middle" x="82.18" y="-33.78" font-family="Times,serif" font-size="14.00">C: 48</text>
<text text-anchor="middle" x="82.18" y="-18.78" font-family="Times,serif" font-size="14.00">D: 161</text>
</g>
<!-- 2&#45;&gt;4 -->
<g id="edge4" class="edge">
<title>2&#45;&gt;4</title>
<path fill="none" stroke="black" d="M49.29,-112.01C53.34,-102.94 58.06,-92.41 62.63,-82.19"/>
<polygon fill="black" stroke="black" points="65.87,-83.5 66.76,-72.94 59.49,-80.64 65.87,-83.5"/>
</g>
<!-- 3&#45;&gt;4 -->
<g id="edge5" class="edge">
<title>3&#45;&gt;4</title>
<path fill="none" stroke="black" d="M115.31,-112.51C111.22,-103.37 106.43,-92.66 101.78,-82.29"/>
<polygon fill="black" stroke="black" points="104.86,-80.6 97.58,-72.9 98.47,-83.45 104.86,-80.6"/>
</g>
</g>
</svg>
