<?xml version="1.0" encoding="UTF-8" standalone="no"?>
<!DOCTYPE svg PUBLIC "-//W3C//DTD SVG 1.1//EN"
 "http://www.w3.org/Graphics/SVG/1.1/DTD/svg11.dtd">
<!-- Generated by graphviz version 2.43.0 (0)
 -->
<!-- Title: %3 Pages: 1 -->
<svg width="272pt" height="351pt"
 viewBox="0.00 0.00 272.37 351.43" xmlns="http://www.w3.org/2000/svg" xmlns:xlink="http://www.w3.org/1999/xlink">
<g id="graph0" class="graph" transform="scale(1 1) rotate(0) translate(4 347.43)">
<title>%3</title>
<polygon fill="white" stroke="transparent" points="-4,4 -4,-347.43 268.37,-347.43 268.37,4 -4,4"/>
<!-- 0 -->
<g id="node1" class="node">
<title>0</title>
<polygon fill="none" stroke="black" points="163.18,-343.43 101.18,-343.43 101.18,-290.43 163.18,-290.43 163.18,-343.43"/>
<text text-anchor="middle" x="132.18" y="-328.23" font-family="Times,serif" font-size="14.00">[0]</text>
<text text-anchor="middle" x="132.18" y="-313.23" font-family="Times,serif" font-size="14.00">C: 25</text>
<text text-anchor="middle" x="132.18" y="-298.23" font-family="Times,serif" font-size="14.00">T: 100</text>
</g>
<!-- 1 -->
<g id="node2" class="node">
<title>1</title>
<ellipse fill="none" stroke="black" cx="55.18" cy="-227.56" rx="31.64" ry="26.74"/>
<text text-anchor="middle" x="55.18" y="-231.36" font-family="Times,serif" font-size="14.00">[1]</text>
<text text-anchor="middle" x="55.18" y="-216.36" font-family="Times,serif" font-size="14.00">C: 3</text>
</g>
<!-- 0&#45;&gt;1 -->
<g id="edge1" class="edge">
<title>0&#45;&gt;1</title>
<path fill="none" stroke="black" d="M109.5,-290.19C100.45,-279.92 89.99,-268.05 80.68,-257.49"/>
<polygon fill="black" stroke="black" points="83.06,-254.9 73.82,-249.71 77.81,-259.53 83.06,-254.9"/>
</g>
<!-- 3 -->
<g id="node4" class="node">
<title>3</title>
<ellipse fill="none" stroke="black" cx="132.18" cy="-137.82" rx="38.37" ry="26.74"/>
<text text-anchor="middle" x="132.18" y="-141.62" font-family="Times,serif" font-size="14.00">[3]</text>
<text text-anchor="middle" x="132.18" y="-126.62" font-family="Times,serif" font-size="14.00">C: 79</text>
</g>
<!-- 0&#45;&gt;3 -->
<g id="edge2" class="edge">
<title>0&#45;&gt;3</title>
<path fill="none" stroke="black" d="M132.18,-290.18C132.18,-259.84 132.18,-209.22 132.18,-174.96"/>
<polygon fill="black" stroke="black" points="135.68,-174.9 132.18,-164.9 128.68,-174.9 135.68,-174.9"/>
</g>
<!-- 5 -->
<g id="node6" class="node">
<title>5</title>
<ellipse fill="none" stroke="black" cx="209.18" cy="-227.56" rx="31.64" ry="26.74"/>
<text text-anchor="middle" x="209.18" y="-231.36" font-family="Times,serif" font-size="14.00">[5]</text>
<text text-anchor="middle" x="209.18" y="-216.36" font-family="Times,serif" font-size="14.00">C: 6</text>
</g>
<!-- 0&#45;&gt;5 -->
<g id="edge3" class="edge">
<title>0&#45;&gt;5</title>
<path fill="none" stroke="black" d="M154.87,-290.19C163.92,-279.92 174.38,-268.05 183.69,-257.49"/>
<polygon fill="black" stroke="black" points="186.56,-259.53 190.54,-249.71 181.31,-254.9 186.56,-259.53"/>
</g>
<!-- 2 -->
<g id="node3" class="node">
<title>2</title>
<ellipse fill="none" stroke="black" cx="38.18" cy="-137.82" rx="38.37" ry="26.74"/>
<text text-anchor="middle" x="38.18" y="-141.62" font-family="Times,serif" font-size="14.00">[2]</text>
<text text-anchor="middle" x="38.18" y="-126.62" font-family="Times,serif" font-size="14.00">C: 18</text>
</g>
<!-- 1&#45;&gt;2 -->
<g id="edge4" class="edge">
<title>1&#45;&gt;2</title>
<path fill="none" stroke="black" d="M50.18,-200.71C48.58,-192.5 46.8,-183.27 45.1,-174.5"/>
<polygon fill="black" stroke="black" points="48.49,-173.64 43.16,-164.49 41.62,-174.97 48.49,-173.64"/>
</g>
<!-- 4 -->
<g id="node5" class="node">
<title>4</title>
<ellipse fill="none" stroke="black" stroke-width="2" cx="132.18" cy="-37.48" rx="45.01" ry="37.45"/>
<text text-anchor="middle" x="132.18" y="-48.78" font-family="Times,serif" font-size="14.00">[4]</text>
<text text-anchor="middle" x="132.18" y="-33.78" font-family="Times,serif" font-size="14.00">C: 136</text>
<text text-anchor="middle" x="132.18" y="-18.78" font-family="Times,serif" font-size="14.00">D: 336</text>
</g>
<!-- 2&#45;&gt;4 -->
<g id="edge5" class="edge">
<title>2&#45;&gt;4</title>
<path fill="none" stroke="black" d="M59.05,-115C70.36,-103.16 84.65,-88.21 97.58,-74.68"/>
<polygon fill="black" stroke="black" points="100.22,-76.98 104.6,-67.34 95.16,-72.15 100.22,-76.98"/>
</g>
<!-- 3&#45;&gt;4 -->
<g id="edge6" class="edge">
<title>3&#45;&gt;4</title>
<path fill="none" stroke="black" d="M132.18,-110.73C132.18,-102.87 132.18,-94.01 132.18,-85.24"/>
<polygon fill="black" stroke="black" points="135.68,-85.06 132.18,-75.06 128.68,-85.06 135.68,-85.06"/>
</g>
<!-- 6 -->
<g id="node7" class="node">
<title>6</title>
<ellipse fill="none" stroke="black" cx="226.18" cy="-137.82" rx="38.37" ry="26.74"/>
<text text-anchor="middle" x="226.18" y="-141.62" font-family="Times,serif" font-size="14.00">[6]</text>
<text text-anchor="middle" x="226.18" y="-126.62" font-family="Times,serif" font-size="14.00">C: 23</text>
</g>
<!-- 5&#45;&gt;6 -->
<g id="edge7" class="edge">
<title>5&#45;&gt;6</title>
<path fill="none" stroke="black" d="M214.19,-200.71C215.78,-192.5 217.57,-183.27 219.27,-174.5"/>
<polygon fill="black" stroke="black" points="222.74,-174.97 221.21,-164.49 215.87,-173.64 222.74,-174.97"/>
</g>
<!-- 6&#45;&gt;4 -->
<g id="edge8" class="edge">
<title>6&#45;&gt;4</title>
<path fill="none" stroke="black" d="M205.32,-115C194,-103.16 179.72,-88.21 166.79,-74.68"/>
<polygon fill="black" stroke="black" points="169.21,-72.15 159.77,-67.34 164.15,-76.98 169.21,-72.15"/>
</g>
</g>
</svg>
