<?xml version="1.0" encoding="UTF-8" standalone="no"?>
<!DOCTYPE svg PUBLIC "-//W3C//DTD SVG 1.1//EN"
 "http://www.w3.org/Graphics/SVG/1.1/DTD/svg11.dtd">
<!-- Generated by graphviz version 2.43.0 (0)
 -->
<!-- Title: %3 Pages: 1 -->
<svg width="168pt" height="621pt"
 viewBox="0.00 0.00 167.78 620.65" xmlns="http://www.w3.org/2000/svg" xmlns:xlink="http://www.w3.org/1999/xlink">
<g id="graph0" class="graph" transform="scale(1 1) rotate(0) translate(4 616.65)">
<title>%3</title>
<polygon fill="white" stroke="transparent" points="-4,4 -4,-616.65 163.78,-616.65 163.78,4 -4,4"/>
<!-- 0 -->
<g id="node1" class="node">
<title>0</title>
<polygon fill="none" stroke="black" points="117.96,-612.65 55.96,-612.65 55.96,-559.65 117.96,-559.65 117.96,-612.65"/>
<text text-anchor="middle" x="86.96" y="-597.45" font-family="Times,serif" font-size="14.00">[0]</text>
<text text-anchor="middle" x="86.96" y="-582.45" font-family="Times,serif" font-size="14.00">C: 7</text>
<text text-anchor="middle" x="86.96" y="-567.45" font-family="Times,serif" font-size="14.00">T: 100</text>
</g>
<!-- 1 -->
<g id="node2" class="node">
<title>1</title>
<ellipse fill="none" stroke="black" cx="86.96" cy="-496.78" rx="31.64" ry="26.74"/>
<text text-anchor="middle" x="86.96" y="-500.58" font-family="Times,serif" font-size="14.00">[1]</text>
<text text-anchor="middle" x="86.96" y="-485.58" font-family="Times,serif" font-size="14.00">C: 1</text>
</g>
<!-- 0&#45;&gt;1 -->
<g id="edge1" class="edge">
<title>0&#45;&gt;1</title>
<path fill="none" stroke="black" d="M86.96,-559.41C86.96,-551.47 86.96,-542.57 86.96,-534.05"/>
<polygon fill="black" stroke="black" points="90.47,-533.95 86.96,-523.95 83.47,-533.95 90.47,-533.95"/>
</g>
<!-- 2 -->
<g id="node3" class="node">
<title>2</title>
<ellipse fill="none" stroke="black" cx="86.96" cy="-407.04" rx="44.6" ry="26.74"/>
<text text-anchor="middle" x="86.96" y="-410.84" font-family="Times,serif" font-size="14.00">[2]</text>
<text text-anchor="middle" x="86.96" y="-395.84" font-family="Times,serif" font-size="14.00">C: 270</text>
</g>
<!-- 1&#45;&gt;2 -->
<g id="edge2" class="edge">
<title>1&#45;&gt;2</title>
<path fill="none" stroke="black" d="M86.96,-469.46C86.96,-461.49 86.96,-452.6 86.96,-444.11"/>
<polygon fill="black" stroke="black" points="90.47,-444.05 86.96,-434.05 83.47,-444.05 90.47,-444.05"/>
</g>
<!-- 3 -->
<g id="node4" class="node">
<title>3</title>
<ellipse fill="none" stroke="black" cx="86.96" cy="-317.3" rx="31.64" ry="26.74"/>
<text text-anchor="middle" x="86.96" y="-321.1" font-family="Times,serif" font-size="14.00">[3]</text>
<text text-anchor="middle" x="86.96" y="-306.1" font-family="Times,serif" font-size="14.00">C: 3</text>
</g>
<!-- 2&#45;&gt;3 -->
<g id="edge3" class="edge">
<title>2&#45;&gt;3</title>
<path fill="none" stroke="black" d="M86.96,-379.72C86.96,-371.75 86.96,-362.86 86.96,-354.37"/>
<polygon fill="black" stroke="black" points="90.47,-354.31 86.96,-344.31 83.47,-354.31 90.47,-354.31"/>
</g>
<!-- 4 -->
<g id="node5" class="node">
<title>4</title>
<ellipse fill="none" stroke="black" cx="45.96" cy="-227.56" rx="31.64" ry="26.74"/>
<text text-anchor="middle" x="45.96" y="-231.36" font-family="Times,serif" font-size="14.00">[4]</text>
<text text-anchor="middle" x="45.96" y="-216.36" font-family="Times,serif" font-size="14.00">C: 1</text>
</g>
<!-- 3&#45;&gt;4 -->
<g id="edge4" class="edge">
<title>3&#45;&gt;4</title>
<path fill="none" stroke="black" d="M75.54,-291.86C71.23,-282.64 66.25,-271.98 61.62,-262.07"/>
<polygon fill="black" stroke="black" points="64.73,-260.45 57.32,-252.87 58.39,-263.41 64.73,-260.45"/>
</g>
<!-- 7 -->
<g id="node8" class="node">
<title>7</title>
<ellipse fill="none" stroke="black" cx="127.96" cy="-227.56" rx="31.64" ry="26.74"/>
<text text-anchor="middle" x="127.96" y="-231.36" font-family="Times,serif" font-size="14.00">[7]</text>
<text text-anchor="middle" x="127.96" y="-216.36" font-family="Times,serif" font-size="14.00">C: 1</text>
</g>
<!-- 3&#45;&gt;7 -->
<g id="edge5" class="edge">
<title>3&#45;&gt;7</title>
<path fill="none" stroke="black" d="M98.39,-291.86C102.7,-282.64 107.68,-271.98 112.31,-262.07"/>
<polygon fill="black" stroke="black" points="115.54,-263.41 116.61,-252.87 109.2,-260.45 115.54,-263.41"/>
</g>
<!-- 5 -->
<g id="node6" class="node">
<title>5</title>
<ellipse fill="none" stroke="black" stroke-width="2" cx="45.96" cy="-37.48" rx="45.01" ry="37.45"/>
<text text-anchor="middle" x="45.96" y="-48.78" font-family="Times,serif" font-size="14.00">[5]</text>
<text text-anchor="middle" x="45.96" y="-33.78" font-family="Times,serif" font-size="14.00">C: 4</text>
<text text-anchor="middle" x="45.96" y="-18.78" font-family="Times,serif" font-size="14.00">D: 374</text>
</g>
<!-- 4&#45;&gt;5 -->
<g id="edge6" class="edge">
<title>4&#45;&gt;5</title>
<path fill="none" stroke="black" d="M27.54,-205.55C18.87,-194.26 9.46,-179.62 4.96,-164.69 -1.92,-141.82 -1.12,-134.05 4.96,-110.95 7.84,-100.04 12.77,-89.03 18.25,-79.02"/>
<polygon fill="black" stroke="black" points="21.41,-80.53 23.38,-70.12 15.35,-77.03 21.41,-80.53"/>
</g>
<!-- 6 -->
<g id="node7" class="node">
<title>6</title>
<ellipse fill="none" stroke="black" cx="45.96" cy="-137.82" rx="31.64" ry="26.74"/>
<text text-anchor="middle" x="45.96" y="-141.62" font-family="Times,serif" font-size="14.00">[6]</text>
<text text-anchor="middle" x="45.96" y="-126.62" font-family="Times,serif" font-size="14.00">C: 2</text>
</g>
<!-- 4&#45;&gt;6 -->
<g id="edge7" class="edge">
<title>4&#45;&gt;6</title>
<path fill="none" stroke="black" d="M45.96,-200.24C45.96,-192.27 45.96,-183.38 45.96,-174.89"/>
<polygon fill="black" stroke="black" points="49.47,-174.83 45.96,-164.83 42.47,-174.83 49.47,-174.83"/>
</g>
<!-- 6&#45;&gt;5 -->
<g id="edge8" class="edge">
<title>6&#45;&gt;5</title>
<path fill="none" stroke="black" d="M45.96,-110.73C45.96,-102.87 45.96,-94.01 45.96,-85.24"/>
<polygon fill="black" stroke="black" points="49.47,-85.06 45.96,-75.06 42.47,-85.06 49.47,-85.06"/>
</g>
<!-- 8 -->
<g id="node9" class="node">
<title>8</title>
<ellipse fill="none" stroke="black" cx="127.96" cy="-137.82" rx="31.64" ry="26.74"/>
<text text-anchor="middle" x="127.96" y="-141.62" font-family="Times,serif" font-size="14.00">[8]</text>
<text text-anchor="middle" x="127.96" y="-126.62" font-family="Times,serif" font-size="14.00">C: 1</text>
</g>
<!-- 7&#45;&gt;8 -->
<g id="edge9" class="edge">
<title>7&#45;&gt;8</title>
<path fill="none" stroke="black" d="M127.96,-200.24C127.96,-192.27 127.96,-183.38 127.96,-174.89"/>
<polygon fill="black" stroke="black" points="131.47,-174.83 127.96,-164.83 124.47,-174.83 131.47,-174.83"/>
</g>
<!-- 8&#45;&gt;5 -->
<g id="edge10" class="edge">
<title>8&#45;&gt;5</title>
<path fill="none" stroke="black" d="M110.17,-115.48C100.73,-104.16 88.85,-89.91 77.87,-76.75"/>
<polygon fill="black" stroke="black" points="80.28,-74.17 71.19,-68.73 74.91,-78.65 80.28,-74.17"/>
</g>
</g>
</svg>
