<?xml version="1.0" encoding="UTF-8" standalone="no"?>
<!DOCTYPE svg PUBLIC "-//W3C//DTD SVG 1.1//EN"
 "http://www.w3.org/Graphics/SVG/1.1/DTD/svg11.dtd">
<!-- Generated by graphviz version 2.43.0 (0)
 -->
<!-- Title: %3 Pages: 1 -->
<svg width="192pt" height="621pt"
 viewBox="0.00 0.00 191.73 620.65" xmlns="http://www.w3.org/2000/svg" xmlns:xlink="http://www.w3.org/1999/xlink">
<g id="graph0" class="graph" transform="scale(1 1) rotate(0) translate(4 616.65)">
<title>%3</title>
<polygon fill="white" stroke="transparent" points="-4,4 -4,-616.65 187.73,-616.65 187.73,4 -4,4"/>
<!-- 0 -->
<g id="node1" class="node">
<title>0</title>
<polygon fill="none" stroke="black" points="121.55,-612.65 67.55,-612.65 67.55,-559.65 121.55,-559.65 121.55,-612.65"/>
<text text-anchor="middle" x="94.55" y="-597.45" font-family="Times,serif" font-size="14.00">[0]</text>
<text text-anchor="middle" x="94.55" y="-582.45" font-family="Times,serif" font-size="14.00">C: 1</text>
<text text-anchor="middle" x="94.55" y="-567.45" font-family="Times,serif" font-size="14.00">T: 50</text>
</g>
<!-- 1 -->
<g id="node2" class="node">
<title>1</title>
<ellipse fill="none" stroke="black" cx="53.55" cy="-496.78" rx="31.64" ry="26.74"/>
<text text-anchor="middle" x="53.55" y="-500.58" font-family="Times,serif" font-size="14.00">[1]</text>
<text text-anchor="middle" x="53.55" y="-485.58" font-family="Times,serif" font-size="14.00">C: 1</text>
</g>
<!-- 0&#45;&gt;1 -->
<g id="edge1" class="edge">
<title>0&#45;&gt;1</title>
<path fill="none" stroke="black" d="M82.47,-559.41C78.32,-550.58 73.62,-540.56 69.23,-531.21"/>
<polygon fill="black" stroke="black" points="72.4,-529.71 64.98,-522.14 66.06,-532.68 72.4,-529.71"/>
</g>
<!-- 6 -->
<g id="node7" class="node">
<title>6</title>
<ellipse fill="none" stroke="black" cx="140.55" cy="-496.78" rx="31.64" ry="26.74"/>
<text text-anchor="middle" x="140.55" y="-500.58" font-family="Times,serif" font-size="14.00">[6]</text>
<text text-anchor="middle" x="140.55" y="-485.58" font-family="Times,serif" font-size="14.00">C: 5</text>
</g>
<!-- 0&#45;&gt;6 -->
<g id="edge2" class="edge">
<title>0&#45;&gt;6</title>
<path fill="none" stroke="black" d="M108.1,-559.41C112.88,-550.33 118.32,-540 123.36,-530.43"/>
<polygon fill="black" stroke="black" points="126.47,-532.03 128.03,-521.55 120.28,-528.77 126.47,-532.03"/>
</g>
<!-- 2 -->
<g id="node3" class="node">
<title>2</title>
<ellipse fill="none" stroke="black" cx="44.55" cy="-407.04" rx="44.6" ry="26.74"/>
<text text-anchor="middle" x="44.55" y="-410.84" font-family="Times,serif" font-size="14.00">[2]</text>
<text text-anchor="middle" x="44.55" y="-395.84" font-family="Times,serif" font-size="14.00">C: 112</text>
</g>
<!-- 1&#45;&gt;2 -->
<g id="edge3" class="edge">
<title>1&#45;&gt;2</title>
<path fill="none" stroke="black" d="M50.9,-469.93C50.07,-461.88 49.14,-452.85 48.26,-444.23"/>
<polygon fill="black" stroke="black" points="51.71,-443.6 47.21,-434.01 44.75,-444.32 51.71,-443.6"/>
</g>
<!-- 3 -->
<g id="node4" class="node">
<title>3</title>
<ellipse fill="none" stroke="black" cx="53.55" cy="-317.3" rx="31.64" ry="26.74"/>
<text text-anchor="middle" x="53.55" y="-321.1" font-family="Times,serif" font-size="14.00">[3]</text>
<text text-anchor="middle" x="53.55" y="-306.1" font-family="Times,serif" font-size="14.00">C: 1</text>
</g>
<!-- 2&#45;&gt;3 -->
<g id="edge4" class="edge">
<title>2&#45;&gt;3</title>
<path fill="none" stroke="black" d="M47.2,-380.19C48.03,-372.14 48.95,-363.11 49.84,-354.49"/>
<polygon fill="black" stroke="black" points="53.35,-354.58 50.88,-344.27 46.38,-353.86 53.35,-354.58"/>
</g>
<!-- 4 -->
<g id="node5" class="node">
<title>4</title>
<ellipse fill="none" stroke="black" cx="53.55" cy="-137.82" rx="31.64" ry="26.74"/>
<text text-anchor="middle" x="53.55" y="-141.62" font-family="Times,serif" font-size="14.00">[4]</text>
<text text-anchor="middle" x="53.55" y="-126.62" font-family="Times,serif" font-size="14.00">C: 4</text>
</g>
<!-- 3&#45;&gt;4 -->
<g id="edge5" class="edge">
<title>3&#45;&gt;4</title>
<path fill="none" stroke="black" d="M53.55,-290.12C53.55,-259.62 53.55,-209.07 53.55,-174.88"/>
<polygon fill="black" stroke="black" points="57.05,-174.83 53.55,-164.83 50.05,-174.83 57.05,-174.83"/>
</g>
<!-- 5 -->
<g id="node6" class="node">
<title>5</title>
<ellipse fill="none" stroke="black" stroke-width="2" cx="94.55" cy="-37.48" rx="45.01" ry="37.45"/>
<text text-anchor="middle" x="94.55" y="-48.78" font-family="Times,serif" font-size="14.00">[5]</text>
<text text-anchor="middle" x="94.55" y="-33.78" font-family="Times,serif" font-size="14.00">C: 1</text>
<text text-anchor="middle" x="94.55" y="-18.78" font-family="Times,serif" font-size="14.00">D: 156</text>
</g>
<!-- 4&#45;&gt;5 -->
<g id="edge6" class="edge">
<title>4&#45;&gt;5</title>
<path fill="none" stroke="black" d="M63.79,-112.26C67.57,-103.2 71.97,-92.64 76.24,-82.38"/>
<polygon fill="black" stroke="black" points="79.49,-83.68 80.11,-73.11 73.03,-80.99 79.49,-83.68"/>
</g>
<!-- 7 -->
<g id="node8" class="node">
<title>7</title>
<ellipse fill="none" stroke="black" cx="145.55" cy="-407.04" rx="38.37" ry="26.74"/>
<text text-anchor="middle" x="145.55" y="-410.84" font-family="Times,serif" font-size="14.00">[7]</text>
<text text-anchor="middle" x="145.55" y="-395.84" font-family="Times,serif" font-size="14.00">C: 17</text>
</g>
<!-- 6&#45;&gt;7 -->
<g id="edge7" class="edge">
<title>6&#45;&gt;7</title>
<path fill="none" stroke="black" d="M142.02,-469.93C142.48,-461.88 142.99,-452.85 143.49,-444.23"/>
<polygon fill="black" stroke="black" points="146.99,-444.2 144.07,-434.01 140,-443.8 146.99,-444.2"/>
</g>
<!-- 8 -->
<g id="node9" class="node">
<title>8</title>
<ellipse fill="none" stroke="black" cx="140.55" cy="-317.3" rx="31.64" ry="26.74"/>
<text text-anchor="middle" x="140.55" y="-321.1" font-family="Times,serif" font-size="14.00">[8]</text>
<text text-anchor="middle" x="140.55" y="-306.1" font-family="Times,serif" font-size="14.00">C: 1</text>
</g>
<!-- 7&#45;&gt;8 -->
<g id="edge8" class="edge">
<title>7&#45;&gt;8</title>
<path fill="none" stroke="black" d="M144.07,-380.19C143.62,-372.14 143.1,-363.11 142.61,-354.49"/>
<polygon fill="black" stroke="black" points="146.09,-354.06 142.03,-344.27 139.1,-354.46 146.09,-354.06"/>
</g>
<!-- 9 -->
<g id="node10" class="node">
<title>9</title>
<ellipse fill="none" stroke="black" cx="138.55" cy="-227.56" rx="31.64" ry="26.74"/>
<text text-anchor="middle" x="138.55" y="-231.36" font-family="Times,serif" font-size="14.00">[9]</text>
<text text-anchor="middle" x="138.55" y="-216.36" font-family="Times,serif" font-size="14.00">C: 1</text>
</g>
<!-- 8&#45;&gt;9 -->
<g id="edge9" class="edge">
<title>8&#45;&gt;9</title>
<path fill="none" stroke="black" d="M139.95,-289.98C139.77,-282.01 139.56,-273.12 139.37,-264.63"/>
<polygon fill="black" stroke="black" points="142.87,-264.49 139.14,-254.57 135.87,-264.64 142.87,-264.49"/>
</g>
<!-- 10 -->
<g id="node11" class="node">
<title>10</title>
<ellipse fill="none" stroke="black" cx="137.55" cy="-137.82" rx="31.64" ry="26.74"/>
<text text-anchor="middle" x="137.55" y="-141.62" font-family="Times,serif" font-size="14.00">[10]</text>
<text text-anchor="middle" x="137.55" y="-126.62" font-family="Times,serif" font-size="14.00">C: 1</text>
</g>
<!-- 9&#45;&gt;10 -->
<g id="edge10" class="edge">
<title>9&#45;&gt;10</title>
<path fill="none" stroke="black" d="M138.25,-200.24C138.16,-192.27 138.06,-183.38 137.96,-174.89"/>
<polygon fill="black" stroke="black" points="141.46,-174.79 137.84,-164.83 134.46,-174.87 141.46,-174.79"/>
</g>
<!-- 10&#45;&gt;5 -->
<g id="edge11" class="edge">
<title>10&#45;&gt;5</title>
<path fill="none" stroke="black" d="M126.81,-112.26C122.85,-103.2 118.23,-92.64 113.75,-82.38"/>
<polygon fill="black" stroke="black" points="116.9,-80.87 109.69,-73.11 110.49,-83.67 116.9,-80.87"/>
</g>
</g>
</svg>
