<?xml version="1.0" encoding="UTF-8" standalone="no"?>
<!DOCTYPE svg PUBLIC "-//W3C//DTD SVG 1.1//EN"
 "http://www.w3.org/Graphics/SVG/1.1/DTD/svg11.dtd">
<!-- Generated by graphviz version 2.43.0 (0)
 -->
<!-- Title: %3 Pages: 1 -->
<svg width="244pt" height="441pt"
 viewBox="0.00 0.00 244.37 441.17" xmlns="http://www.w3.org/2000/svg" xmlns:xlink="http://www.w3.org/1999/xlink">
<g id="graph0" class="graph" transform="scale(1 1) rotate(0) translate(4 437.17)">
<title>%3</title>
<polygon fill="white" stroke="transparent" points="-4,4 -4,-437.17 240.37,-437.17 240.37,4 -4,4"/>
<!-- 0 -->
<g id="node1" class="node">
<title>0</title>
<polygon fill="none" stroke="black" points="181.18,-433.17 127.18,-433.17 127.18,-380.17 181.18,-380.17 181.18,-433.17"/>
<text text-anchor="middle" x="154.18" y="-417.97" font-family="Times,serif" font-size="14.00">[0]</text>
<text text-anchor="middle" x="154.18" y="-402.97" font-family="Times,serif" font-size="14.00">C: 1</text>
<text text-anchor="middle" x="154.18" y="-387.97" font-family="Times,serif" font-size="14.00">T: 50</text>
</g>
<!-- 1 -->
<g id="node2" class="node">
<title>1</title>
<ellipse fill="none" stroke="black" cx="154.18" cy="-317.3" rx="38.37" ry="26.74"/>
<text text-anchor="middle" x="154.18" y="-321.1" font-family="Times,serif" font-size="14.00">[1]</text>
<text text-anchor="middle" x="154.18" y="-306.1" font-family="Times,serif" font-size="14.00">C: 13</text>
</g>
<!-- 0&#45;&gt;1 -->
<g id="edge1" class="edge">
<title>0&#45;&gt;1</title>
<path fill="none" stroke="black" d="M154.18,-379.93C154.18,-371.99 154.18,-363.09 154.18,-354.57"/>
<polygon fill="black" stroke="black" points="157.68,-354.47 154.18,-344.47 150.68,-354.47 157.68,-354.47"/>
</g>
<!-- 2 -->
<g id="node3" class="node">
<title>2</title>
<ellipse fill="none" stroke="black" cx="110.18" cy="-227.56" rx="31.64" ry="26.74"/>
<text text-anchor="middle" x="110.18" y="-231.36" font-family="Times,serif" font-size="14.00">[2]</text>
<text text-anchor="middle" x="110.18" y="-216.36" font-family="Times,serif" font-size="14.00">C: 1</text>
</g>
<!-- 1&#45;&gt;2 -->
<g id="edge2" class="edge">
<title>1&#45;&gt;2</title>
<path fill="none" stroke="black" d="M141.69,-291.4C137.07,-282.18 131.76,-271.58 126.83,-261.75"/>
<polygon fill="black" stroke="black" points="129.86,-260 122.25,-252.63 123.6,-263.13 129.86,-260"/>
</g>
<!-- 4 -->
<g id="node5" class="node">
<title>4</title>
<ellipse fill="none" stroke="black" cx="198.18" cy="-227.56" rx="38.37" ry="26.74"/>
<text text-anchor="middle" x="198.18" y="-231.36" font-family="Times,serif" font-size="14.00">[4]</text>
<text text-anchor="middle" x="198.18" y="-216.36" font-family="Times,serif" font-size="14.00">C: 23</text>
</g>
<!-- 1&#45;&gt;4 -->
<g id="edge3" class="edge">
<title>1&#45;&gt;4</title>
<path fill="none" stroke="black" d="M166.67,-291.4C171.22,-282.33 176.43,-271.94 181.29,-262.24"/>
<polygon fill="black" stroke="black" points="184.46,-263.74 185.81,-253.23 178.2,-260.6 184.46,-263.74"/>
</g>
<!-- 3 -->
<g id="node4" class="node">
<title>3</title>
<ellipse fill="none" stroke="black" cx="38.18" cy="-137.82" rx="38.37" ry="26.74"/>
<text text-anchor="middle" x="38.18" y="-141.62" font-family="Times,serif" font-size="14.00">[3]</text>
<text text-anchor="middle" x="38.18" y="-126.62" font-family="Times,serif" font-size="14.00">C: 79</text>
</g>
<!-- 2&#45;&gt;3 -->
<g id="edge4" class="edge">
<title>2&#45;&gt;3</title>
<path fill="none" stroke="black" d="M92.39,-204.87C83.59,-194.15 72.82,-181.04 63.21,-169.32"/>
<polygon fill="black" stroke="black" points="65.83,-167 56.78,-161.49 60.42,-171.44 65.83,-167"/>
</g>
<!-- 6 -->
<g id="node7" class="node">
<title>6</title>
<ellipse fill="none" stroke="black" cx="132.18" cy="-137.82" rx="38.37" ry="26.74"/>
<text text-anchor="middle" x="132.18" y="-141.62" font-family="Times,serif" font-size="14.00">[6]</text>
<text text-anchor="middle" x="132.18" y="-126.62" font-family="Times,serif" font-size="14.00">C: 15</text>
</g>
<!-- 2&#45;&gt;6 -->
<g id="edge5" class="edge">
<title>2&#45;&gt;6</title>
<path fill="none" stroke="black" d="M116.55,-201.19C118.65,-192.8 121.03,-183.31 123.28,-174.32"/>
<polygon fill="black" stroke="black" points="126.72,-175 125.76,-164.45 119.93,-173.3 126.72,-175"/>
</g>
<!-- 5 -->
<g id="node6" class="node">
<title>5</title>
<ellipse fill="none" stroke="black" stroke-width="2" cx="132.18" cy="-37.48" rx="45.01" ry="37.45"/>
<text text-anchor="middle" x="132.18" y="-48.78" font-family="Times,serif" font-size="14.00">[5]</text>
<text text-anchor="middle" x="132.18" y="-33.78" font-family="Times,serif" font-size="14.00">C: 13</text>
<text text-anchor="middle" x="132.18" y="-18.78" font-family="Times,serif" font-size="14.00">D: 149</text>
</g>
<!-- 3&#45;&gt;5 -->
<g id="edge6" class="edge">
<title>3&#45;&gt;5</title>
<path fill="none" stroke="black" d="M59.05,-115C70.36,-103.16 84.65,-88.21 97.58,-74.68"/>
<polygon fill="black" stroke="black" points="100.22,-76.98 104.6,-67.34 95.16,-72.15 100.22,-76.98"/>
</g>
<!-- 4&#45;&gt;5 -->
<g id="edge7" class="edge">
<title>4&#45;&gt;5</title>
<path fill="none" stroke="black" d="M196.96,-200.51C195.12,-176.54 190.56,-140.36 179.18,-110.95 174.79,-99.59 168.45,-88.14 161.84,-77.8"/>
<polygon fill="black" stroke="black" points="164.71,-75.8 156.26,-69.4 158.88,-79.67 164.71,-75.8"/>
</g>
<!-- 6&#45;&gt;5 -->
<g id="edge8" class="edge">
<title>6&#45;&gt;5</title>
<path fill="none" stroke="black" d="M132.18,-110.73C132.18,-102.87 132.18,-94.01 132.18,-85.24"/>
<polygon fill="black" stroke="black" points="135.68,-85.06 132.18,-75.06 128.68,-85.06 135.68,-85.06"/>
</g>
</g>
</svg>
