<?xml version="1.0" encoding="UTF-8" standalone="no"?>
<!DOCTYPE svg PUBLIC "-//W3C//DTD SVG 1.1//EN"
 "http://www.w3.org/Graphics/SVG/1.1/DTD/svg11.dtd">
<!-- Generated by graphviz version 2.43.0 (0)
 -->
<!-- Title: %3 Pages: 1 -->
<svg width="226pt" height="351pt"
 viewBox="0.00 0.00 226.00 351.43" xmlns="http://www.w3.org/2000/svg" xmlns:xlink="http://www.w3.org/1999/xlink">
<g id="graph0" class="graph" transform="scale(1 1) rotate(0) translate(4 347.43)">
<title>%3</title>
<polygon fill="white" stroke="transparent" points="-4,4 -4,-347.43 222,-347.43 222,4 -4,4"/>
<!-- 0 -->
<g id="node1" class="node">
<title>0</title>
<polygon fill="none" stroke="black" points="169.18,-343.43 115.18,-343.43 115.18,-290.43 169.18,-290.43 169.18,-343.43"/>
<text text-anchor="middle" x="142.18" y="-328.23" font-family="Times,serif" font-size="14.00">[0]</text>
<text text-anchor="middle" x="142.18" y="-313.23" font-family="Times,serif" font-size="14.00">C: 28</text>
<text text-anchor="middle" x="142.18" y="-298.23" font-family="Times,serif" font-size="14.00">T: 50</text>
</g>
<!-- 1 -->
<g id="node2" class="node">
<title>1</title>
<ellipse fill="none" stroke="black" cx="98.18" cy="-227.56" rx="38.37" ry="26.74"/>
<text text-anchor="middle" x="98.18" y="-231.36" font-family="Times,serif" font-size="14.00">[1]</text>
<text text-anchor="middle" x="98.18" y="-216.36" font-family="Times,serif" font-size="14.00">C: 23</text>
</g>
<!-- 0&#45;&gt;1 -->
<g id="edge1" class="edge">
<title>0&#45;&gt;1</title>
<path fill="none" stroke="black" d="M129.22,-290.19C124.81,-281.43 119.81,-271.51 115.14,-262.23"/>
<polygon fill="black" stroke="black" points="118.23,-260.58 110.6,-253.22 111.97,-263.73 118.23,-260.58"/>
</g>
<!-- 4 -->
<g id="node5" class="node">
<title>4</title>
<ellipse fill="none" stroke="black" cx="186.18" cy="-227.56" rx="31.64" ry="26.74"/>
<text text-anchor="middle" x="186.18" y="-231.36" font-family="Times,serif" font-size="14.00">[4]</text>
<text text-anchor="middle" x="186.18" y="-216.36" font-family="Times,serif" font-size="14.00">C: 1</text>
</g>
<!-- 0&#45;&gt;4 -->
<g id="edge2" class="edge">
<title>0&#45;&gt;4</title>
<path fill="none" stroke="black" d="M155.15,-290.19C159.63,-281.28 164.73,-271.17 169.47,-261.75"/>
<polygon fill="black" stroke="black" points="172.69,-263.13 174.07,-252.63 166.44,-259.98 172.69,-263.13"/>
</g>
<!-- 2 -->
<g id="node3" class="node">
<title>2</title>
<ellipse fill="none" stroke="black" cx="38.18" cy="-137.82" rx="38.37" ry="26.74"/>
<text text-anchor="middle" x="38.18" y="-141.62" font-family="Times,serif" font-size="14.00">[2]</text>
<text text-anchor="middle" x="38.18" y="-126.62" font-family="Times,serif" font-size="14.00">C: 19</text>
</g>
<!-- 1&#45;&gt;2 -->
<g id="edge3" class="edge">
<title>1&#45;&gt;2</title>
<path fill="none" stroke="black" d="M82.1,-203.05C75.31,-193.12 67.3,-181.39 59.98,-170.7"/>
<polygon fill="black" stroke="black" points="62.84,-168.68 54.31,-162.4 57.06,-172.63 62.84,-168.68"/>
</g>
<!-- 3 -->
<g id="node4" class="node">
<title>3</title>
<ellipse fill="none" stroke="black" cx="126.18" cy="-137.82" rx="31.64" ry="26.74"/>
<text text-anchor="middle" x="126.18" y="-141.62" font-family="Times,serif" font-size="14.00">[3]</text>
<text text-anchor="middle" x="126.18" y="-126.62" font-family="Times,serif" font-size="14.00">C: 2</text>
</g>
<!-- 1&#45;&gt;3 -->
<g id="edge4" class="edge">
<title>1&#45;&gt;3</title>
<path fill="none" stroke="black" d="M106.28,-201.19C109.03,-192.56 112.16,-182.77 115.1,-173.55"/>
<polygon fill="black" stroke="black" points="118.49,-174.43 118.2,-163.84 111.83,-172.3 118.49,-174.43"/>
</g>
<!-- 5 -->
<g id="node6" class="node">
<title>5</title>
<ellipse fill="none" stroke="black" stroke-width="2" cx="126.18" cy="-37.48" rx="38.78" ry="37.45"/>
<text text-anchor="middle" x="126.18" y="-48.78" font-family="Times,serif" font-size="14.00">[5]</text>
<text text-anchor="middle" x="126.18" y="-33.78" font-family="Times,serif" font-size="14.00">C: 2</text>
<text text-anchor="middle" x="126.18" y="-18.78" font-family="Times,serif" font-size="14.00">D: 93</text>
</g>
<!-- 2&#45;&gt;5 -->
<g id="edge5" class="edge">
<title>2&#45;&gt;5</title>
<path fill="none" stroke="black" d="M58.15,-114.51C68.83,-102.57 82.24,-87.58 94.33,-74.08"/>
<polygon fill="black" stroke="black" points="97.2,-76.12 101.26,-66.33 91.98,-71.45 97.2,-76.12"/>
</g>
<!-- 3&#45;&gt;5 -->
<g id="edge6" class="edge">
<title>3&#45;&gt;5</title>
<path fill="none" stroke="black" d="M126.18,-110.73C126.18,-102.87 126.18,-94.01 126.18,-85.24"/>
<polygon fill="black" stroke="black" points="129.68,-85.06 126.18,-75.06 122.68,-85.06 129.68,-85.06"/>
</g>
<!-- 4&#45;&gt;5 -->
<g id="edge7" class="edge">
<title>4&#45;&gt;5</title>
<path fill="none" stroke="black" d="M184.54,-200.66C182.42,-176.8 177.66,-140.69 167.18,-110.95 163.28,-99.88 157.73,-88.54 151.97,-78.21"/>
<polygon fill="black" stroke="black" points="154.92,-76.34 146.88,-69.43 148.86,-79.84 154.92,-76.34"/>
</g>
</g>
</svg>
