<?xml version="1.0" encoding="UTF-8" standalone="no"?>
<!DOCTYPE svg PUBLIC "-//W3C//DTD SVG 1.1//EN"
 "http://www.w3.org/Graphics/SVG/1.1/DTD/svg11.dtd">
<!-- Generated by graphviz version 2.43.0 (0)
 -->
<!-- Title: %3 Pages: 1 -->
<svg width="254pt" height="621pt"
 viewBox="0.00 0.00 254.00 620.65" xmlns="http://www.w3.org/2000/svg" xmlns:xlink="http://www.w3.org/1999/xlink">
<g id="graph0" class="graph" transform="scale(1 1) rotate(0) translate(4 616.65)">
<title>%3</title>
<polygon fill="white" stroke="transparent" points="-4,4 -4,-616.65 250,-616.65 250,4 -4,4"/>
<!-- 0 -->
<g id="node1" class="node">
<title>0</title>
<polygon fill="none" stroke="black" points="191.82,-612.65 129.82,-612.65 129.82,-559.65 191.82,-559.65 191.82,-612.65"/>
<text text-anchor="middle" x="160.82" y="-597.45" font-family="Times,serif" font-size="14.00">[0]</text>
<text text-anchor="middle" x="160.82" y="-582.45" font-family="Times,serif" font-size="14.00">C: 20</text>
<text text-anchor="middle" x="160.82" y="-567.45" font-family="Times,serif" font-size="14.00">T: 100</text>
</g>
<!-- 1 -->
<g id="node2" class="node">
<title>1</title>
<ellipse fill="none" stroke="black" cx="119.82" cy="-496.78" rx="31.64" ry="26.74"/>
<text text-anchor="middle" x="119.82" y="-500.58" font-family="Times,serif" font-size="14.00">[1]</text>
<text text-anchor="middle" x="119.82" y="-485.58" font-family="Times,serif" font-size="14.00">C: 1</text>
</g>
<!-- 0&#45;&gt;1 -->
<g id="edge1" class="edge">
<title>0&#45;&gt;1</title>
<path fill="none" stroke="black" d="M148.74,-559.41C144.59,-550.58 139.89,-540.56 135.5,-531.21"/>
<polygon fill="black" stroke="black" points="138.67,-529.71 131.25,-522.14 132.33,-532.68 138.67,-529.71"/>
</g>
<!-- 10 -->
<g id="node11" class="node">
<title>10</title>
<ellipse fill="none" stroke="black" cx="204.82" cy="-496.78" rx="31.64" ry="26.74"/>
<text text-anchor="middle" x="204.82" y="-500.58" font-family="Times,serif" font-size="14.00">[10]</text>
<text text-anchor="middle" x="204.82" y="-485.58" font-family="Times,serif" font-size="14.00">C: 2</text>
</g>
<!-- 0&#45;&gt;10 -->
<g id="edge2" class="edge">
<title>0&#45;&gt;10</title>
<path fill="none" stroke="black" d="M173.78,-559.41C178.27,-550.5 183.36,-540.39 188.11,-530.97"/>
<polygon fill="black" stroke="black" points="191.33,-532.35 192.7,-521.85 185.08,-529.2 191.33,-532.35"/>
</g>
<!-- 2 -->
<g id="node3" class="node">
<title>2</title>
<ellipse fill="none" stroke="black" cx="37.82" cy="-407.04" rx="31.64" ry="26.74"/>
<text text-anchor="middle" x="37.82" y="-410.84" font-family="Times,serif" font-size="14.00">[2]</text>
<text text-anchor="middle" x="37.82" y="-395.84" font-family="Times,serif" font-size="14.00">C: 1</text>
</g>
<!-- 1&#45;&gt;2 -->
<g id="edge3" class="edge">
<title>1&#45;&gt;2</title>
<path fill="none" stroke="black" d="M100.39,-474.99C89.56,-463.41 75.93,-448.83 64.16,-436.23"/>
<polygon fill="black" stroke="black" points="66.5,-433.6 57.11,-428.69 61.38,-438.38 66.5,-433.6"/>
</g>
<!-- 6 -->
<g id="node7" class="node">
<title>6</title>
<ellipse fill="none" stroke="black" cx="119.82" cy="-407.04" rx="31.64" ry="26.74"/>
<text text-anchor="middle" x="119.82" y="-410.84" font-family="Times,serif" font-size="14.00">[6]</text>
<text text-anchor="middle" x="119.82" y="-395.84" font-family="Times,serif" font-size="14.00">C: 2</text>
</g>
<!-- 1&#45;&gt;6 -->
<g id="edge4" class="edge">
<title>1&#45;&gt;6</title>
<path fill="none" stroke="black" d="M119.82,-469.46C119.82,-461.49 119.82,-452.6 119.82,-444.11"/>
<polygon fill="black" stroke="black" points="123.32,-444.05 119.82,-434.05 116.32,-444.05 123.32,-444.05"/>
</g>
<!-- 3 -->
<g id="node4" class="node">
<title>3</title>
<ellipse fill="none" stroke="black" cx="36.82" cy="-317.3" rx="31.64" ry="26.74"/>
<text text-anchor="middle" x="36.82" y="-321.1" font-family="Times,serif" font-size="14.00">[3]</text>
<text text-anchor="middle" x="36.82" y="-306.1" font-family="Times,serif" font-size="14.00">C: 4</text>
</g>
<!-- 2&#45;&gt;3 -->
<g id="edge5" class="edge">
<title>2&#45;&gt;3</title>
<path fill="none" stroke="black" d="M37.52,-379.72C37.43,-371.75 37.33,-362.86 37.23,-354.37"/>
<polygon fill="black" stroke="black" points="40.73,-354.27 37.12,-344.31 33.73,-354.35 40.73,-354.27"/>
</g>
<!-- 4 -->
<g id="node5" class="node">
<title>4</title>
<ellipse fill="none" stroke="black" cx="33.82" cy="-227.56" rx="31.64" ry="26.74"/>
<text text-anchor="middle" x="33.82" y="-231.36" font-family="Times,serif" font-size="14.00">[4]</text>
<text text-anchor="middle" x="33.82" y="-216.36" font-family="Times,serif" font-size="14.00">C: 1</text>
</g>
<!-- 3&#45;&gt;4 -->
<g id="edge6" class="edge">
<title>3&#45;&gt;4</title>
<path fill="none" stroke="black" d="M35.92,-289.98C35.65,-282.01 35.34,-273.12 35.05,-264.63"/>
<polygon fill="black" stroke="black" points="38.55,-264.44 34.71,-254.57 31.55,-264.68 38.55,-264.44"/>
</g>
<!-- 5 -->
<g id="node6" class="node">
<title>5</title>
<ellipse fill="none" stroke="black" cx="31.82" cy="-137.82" rx="31.64" ry="26.74"/>
<text text-anchor="middle" x="31.82" y="-141.62" font-family="Times,serif" font-size="14.00">[5]</text>
<text text-anchor="middle" x="31.82" y="-126.62" font-family="Times,serif" font-size="14.00">C: 1</text>
</g>
<!-- 4&#45;&gt;5 -->
<g id="edge7" class="edge">
<title>4&#45;&gt;5</title>
<path fill="none" stroke="black" d="M33.22,-200.24C33.04,-192.27 32.84,-183.38 32.64,-174.89"/>
<polygon fill="black" stroke="black" points="36.14,-174.74 32.41,-164.83 29.14,-174.9 36.14,-174.74"/>
</g>
<!-- 9 -->
<g id="node10" class="node">
<title>9</title>
<ellipse fill="none" stroke="black" stroke-width="2" cx="119.82" cy="-37.48" rx="45.01" ry="37.45"/>
<text text-anchor="middle" x="119.82" y="-48.78" font-family="Times,serif" font-size="14.00">[9]</text>
<text text-anchor="middle" x="119.82" y="-33.78" font-family="Times,serif" font-size="14.00">C: 3</text>
<text text-anchor="middle" x="119.82" y="-18.78" font-family="Times,serif" font-size="14.00">D: 120</text>
</g>
<!-- 5&#45;&gt;9 -->
<g id="edge8" class="edge">
<title>5&#45;&gt;9</title>
<path fill="none" stroke="black" d="M50.48,-115.97C60.86,-104.37 74.08,-89.59 86.2,-76.05"/>
<polygon fill="black" stroke="black" points="89.11,-78.05 93.17,-68.26 83.89,-73.38 89.11,-78.05"/>
</g>
<!-- 7 -->
<g id="node8" class="node">
<title>7</title>
<ellipse fill="none" stroke="black" cx="119.82" cy="-317.3" rx="31.64" ry="26.74"/>
<text text-anchor="middle" x="119.82" y="-321.1" font-family="Times,serif" font-size="14.00">[7]</text>
<text text-anchor="middle" x="119.82" y="-306.1" font-family="Times,serif" font-size="14.00">C: 1</text>
</g>
<!-- 6&#45;&gt;7 -->
<g id="edge9" class="edge">
<title>6&#45;&gt;7</title>
<path fill="none" stroke="black" d="M119.82,-379.72C119.82,-371.75 119.82,-362.86 119.82,-354.37"/>
<polygon fill="black" stroke="black" points="123.32,-354.31 119.82,-344.31 116.32,-354.31 123.32,-354.31"/>
</g>
<!-- 8 -->
<g id="node9" class="node">
<title>8</title>
<ellipse fill="none" stroke="black" cx="119.82" cy="-137.82" rx="38.37" ry="26.74"/>
<text text-anchor="middle" x="119.82" y="-141.62" font-family="Times,serif" font-size="14.00">[8]</text>
<text text-anchor="middle" x="119.82" y="-126.62" font-family="Times,serif" font-size="14.00">C: 59</text>
</g>
<!-- 7&#45;&gt;8 -->
<g id="edge10" class="edge">
<title>7&#45;&gt;8</title>
<path fill="none" stroke="black" d="M119.82,-290.12C119.82,-259.62 119.82,-209.07 119.82,-174.88"/>
<polygon fill="black" stroke="black" points="123.32,-174.83 119.82,-164.83 116.32,-174.83 123.32,-174.83"/>
</g>
<!-- 8&#45;&gt;9 -->
<g id="edge11" class="edge">
<title>8&#45;&gt;9</title>
<path fill="none" stroke="black" d="M119.82,-110.73C119.82,-102.87 119.82,-94.01 119.82,-85.24"/>
<polygon fill="black" stroke="black" points="123.32,-85.06 119.82,-75.06 116.32,-85.06 123.32,-85.06"/>
</g>
<!-- 11 -->
<g id="node12" class="node">
<title>11</title>
<ellipse fill="none" stroke="black" cx="207.82" cy="-407.04" rx="38.37" ry="26.74"/>
<text text-anchor="middle" x="207.82" y="-410.84" font-family="Times,serif" font-size="14.00">[11]</text>
<text text-anchor="middle" x="207.82" y="-395.84" font-family="Times,serif" font-size="14.00">C: 15</text>
</g>
<!-- 10&#45;&gt;11 -->
<g id="edge12" class="edge">
<title>10&#45;&gt;11</title>
<path fill="none" stroke="black" d="M205.72,-469.46C205.99,-461.49 206.3,-452.6 206.59,-444.11"/>
<polygon fill="black" stroke="black" points="210.09,-444.16 206.93,-434.05 203.09,-443.92 210.09,-444.16"/>
</g>
<!-- 12 -->
<g id="node13" class="node">
<title>12</title>
<ellipse fill="none" stroke="black" cx="207.82" cy="-317.3" rx="38.37" ry="26.74"/>
<text text-anchor="middle" x="207.82" y="-321.1" font-family="Times,serif" font-size="14.00">[12]</text>
<text text-anchor="middle" x="207.82" y="-306.1" font-family="Times,serif" font-size="14.00">C: 32</text>
</g>
<!-- 11&#45;&gt;12 -->
<g id="edge13" class="edge">
<title>11&#45;&gt;12</title>
<path fill="none" stroke="black" d="M207.82,-379.72C207.82,-371.75 207.82,-362.86 207.82,-354.37"/>
<polygon fill="black" stroke="black" points="211.32,-354.31 207.82,-344.31 204.32,-354.31 211.32,-354.31"/>
</g>
<!-- 13 -->
<g id="node14" class="node">
<title>13</title>
<ellipse fill="none" stroke="black" cx="207.82" cy="-227.56" rx="31.64" ry="26.74"/>
<text text-anchor="middle" x="207.82" y="-231.36" font-family="Times,serif" font-size="14.00">[13]</text>
<text text-anchor="middle" x="207.82" y="-216.36" font-family="Times,serif" font-size="14.00">C: 3</text>
</g>
<!-- 12&#45;&gt;13 -->
<g id="edge14" class="edge">
<title>12&#45;&gt;13</title>
<path fill="none" stroke="black" d="M207.82,-289.98C207.82,-282.01 207.82,-273.12 207.82,-264.63"/>
<polygon fill="black" stroke="black" points="211.32,-264.57 207.82,-254.57 204.32,-264.57 211.32,-264.57"/>
</g>
<!-- 14 -->
<g id="node15" class="node">
<title>14</title>
<ellipse fill="none" stroke="black" cx="207.82" cy="-137.82" rx="31.64" ry="26.74"/>
<text text-anchor="middle" x="207.82" y="-141.62" font-family="Times,serif" font-size="14.00">[14]</text>
<text text-anchor="middle" x="207.82" y="-126.62" font-family="Times,serif" font-size="14.00">C: 5</text>
</g>
<!-- 13&#45;&gt;14 -->
<g id="edge15" class="edge">
<title>13&#45;&gt;14</title>
<path fill="none" stroke="black" d="M207.82,-200.24C207.82,-192.27 207.82,-183.38 207.82,-174.89"/>
<polygon fill="black" stroke="black" points="211.32,-174.83 207.82,-164.83 204.32,-174.83 211.32,-174.83"/>
</g>
<!-- 14&#45;&gt;9 -->
<g id="edge16" class="edge">
<title>14&#45;&gt;9</title>
<path fill="none" stroke="black" d="M189.16,-115.97C178.78,-104.37 165.56,-89.59 153.44,-76.05"/>
<polygon fill="black" stroke="black" points="155.75,-73.38 146.47,-68.26 150.53,-78.05 155.75,-73.38"/>
</g>
</g>
</svg>
