<?xml version="1.0" encoding="UTF-8" standalone="no"?>
<!DOCTYPE svg PUBLIC "-//W3C//DTD SVG 1.1//EN"
 "http://www.w3.org/Graphics/SVG/1.1/DTD/svg11.dtd">
<!-- Generated by graphviz version 2.43.0 (0)
 -->
<!-- Title: %3 Pages: 1 -->
<svg width="166pt" height="531pt"
 viewBox="0.00 0.00 166.00 530.91" xmlns="http://www.w3.org/2000/svg" xmlns:xlink="http://www.w3.org/1999/xlink">
<g id="graph0" class="graph" transform="scale(1 1) rotate(0) translate(4 526.91)">
<title>%3</title>
<polygon fill="white" stroke="transparent" points="-4,4 -4,-526.91 162,-526.91 162,4 -4,4"/>
<!-- 0 -->
<g id="node1" class="node">
<title>0</title>
<polygon fill="none" stroke="black" points="102.82,-522.91 48.82,-522.91 48.82,-469.91 102.82,-469.91 102.82,-522.91"/>
<text text-anchor="middle" x="75.82" y="-507.71" font-family="Times,serif" font-size="14.00">[0]</text>
<text text-anchor="middle" x="75.82" y="-492.71" font-family="Times,serif" font-size="14.00">C: 2</text>
<text text-anchor="middle" x="75.82" y="-477.71" font-family="Times,serif" font-size="14.00">T: 50</text>
</g>
<!-- 1 -->
<g id="node2" class="node">
<title>1</title>
<ellipse fill="none" stroke="black" cx="75.82" cy="-407.04" rx="38.37" ry="26.74"/>
<text text-anchor="middle" x="75.82" y="-410.84" font-family="Times,serif" font-size="14.00">[1]</text>
<text text-anchor="middle" x="75.82" y="-395.84" font-family="Times,serif" font-size="14.00">C: 26</text>
</g>
<!-- 0&#45;&gt;1 -->
<g id="edge1" class="edge">
<title>0&#45;&gt;1</title>
<path fill="none" stroke="black" d="M75.82,-469.67C75.82,-461.73 75.82,-452.83 75.82,-444.31"/>
<polygon fill="black" stroke="black" points="79.32,-444.21 75.82,-434.21 72.32,-444.21 79.32,-444.21"/>
</g>
<!-- 2 -->
<g id="node3" class="node">
<title>2</title>
<ellipse fill="none" stroke="black" cx="75.82" cy="-317.3" rx="38.37" ry="26.74"/>
<text text-anchor="middle" x="75.82" y="-321.1" font-family="Times,serif" font-size="14.00">[2]</text>
<text text-anchor="middle" x="75.82" y="-306.1" font-family="Times,serif" font-size="14.00">C: 31</text>
</g>
<!-- 1&#45;&gt;2 -->
<g id="edge2" class="edge">
<title>1&#45;&gt;2</title>
<path fill="none" stroke="black" d="M75.82,-379.72C75.82,-371.75 75.82,-362.86 75.82,-354.37"/>
<polygon fill="black" stroke="black" points="79.32,-354.31 75.82,-344.31 72.32,-354.31 79.32,-354.31"/>
</g>
<!-- 3 -->
<g id="node4" class="node">
<title>3</title>
<ellipse fill="none" stroke="black" cx="31.82" cy="-137.82" rx="31.64" ry="26.74"/>
<text text-anchor="middle" x="31.82" y="-141.62" font-family="Times,serif" font-size="14.00">[3]</text>
<text text-anchor="middle" x="31.82" y="-126.62" font-family="Times,serif" font-size="14.00">C: 1</text>
</g>
<!-- 2&#45;&gt;3 -->
<g id="edge3" class="edge">
<title>2&#45;&gt;3</title>
<path fill="none" stroke="black" d="M69.42,-290.5C61.84,-259.91 49.17,-208.79 40.65,-174.45"/>
<polygon fill="black" stroke="black" points="43.96,-173.24 38.15,-164.37 37.16,-174.92 43.96,-173.24"/>
</g>
<!-- 5 -->
<g id="node6" class="node">
<title>5</title>
<ellipse fill="none" stroke="black" cx="112.82" cy="-227.56" rx="31.64" ry="26.74"/>
<text text-anchor="middle" x="112.82" y="-231.36" font-family="Times,serif" font-size="14.00">[5]</text>
<text text-anchor="middle" x="112.82" y="-216.36" font-family="Times,serif" font-size="14.00">C: 1</text>
</g>
<!-- 2&#45;&gt;5 -->
<g id="edge4" class="edge">
<title>2&#45;&gt;5</title>
<path fill="none" stroke="black" d="M86.32,-291.4C90.11,-282.43 94.44,-272.15 98.49,-262.54"/>
<polygon fill="black" stroke="black" points="101.76,-263.8 102.42,-253.23 95.31,-261.08 101.76,-263.8"/>
</g>
<!-- 4 -->
<g id="node5" class="node">
<title>4</title>
<ellipse fill="none" stroke="black" stroke-width="2" cx="75.82" cy="-37.48" rx="45.01" ry="37.45"/>
<text text-anchor="middle" x="75.82" y="-48.78" font-family="Times,serif" font-size="14.00">[4]</text>
<text text-anchor="middle" x="75.82" y="-33.78" font-family="Times,serif" font-size="14.00">C: 1</text>
<text text-anchor="middle" x="75.82" y="-18.78" font-family="Times,serif" font-size="14.00">D: 103</text>
</g>
<!-- 3&#45;&gt;4 -->
<g id="edge5" class="edge">
<title>3&#45;&gt;4</title>
<path fill="none" stroke="black" d="M42.7,-112.51C46.79,-103.37 51.58,-92.66 56.22,-82.29"/>
<polygon fill="black" stroke="black" points="59.53,-83.45 60.42,-72.9 53.14,-80.6 59.53,-83.45"/>
</g>
<!-- 6 -->
<g id="node7" class="node">
<title>6</title>
<ellipse fill="none" stroke="black" cx="119.82" cy="-137.82" rx="38.37" ry="26.74"/>
<text text-anchor="middle" x="119.82" y="-141.62" font-family="Times,serif" font-size="14.00">[6]</text>
<text text-anchor="middle" x="119.82" y="-126.62" font-family="Times,serif" font-size="14.00">C: 13</text>
</g>
<!-- 5&#45;&gt;6 -->
<g id="edge6" class="edge">
<title>5&#45;&gt;6</title>
<path fill="none" stroke="black" d="M114.88,-200.71C115.52,-192.66 116.24,-183.63 116.93,-175.01"/>
<polygon fill="black" stroke="black" points="120.44,-175.04 117.75,-164.79 113.46,-174.48 120.44,-175.04"/>
</g>
<!-- 6&#45;&gt;4 -->
<g id="edge7" class="edge">
<title>6&#45;&gt;4</title>
<path fill="none" stroke="black" d="M108.72,-112.01C104.66,-102.94 99.95,-92.41 95.38,-82.19"/>
<polygon fill="black" stroke="black" points="98.52,-80.64 91.24,-72.94 92.13,-83.5 98.52,-80.64"/>
</g>
</g>
</svg>
