<?xml version="1.0" encoding="UTF-8" standalone="no"?>
<!DOCTYPE svg PUBLIC "-//W3C//DTD SVG 1.1//EN"
 "http://www.w3.org/Graphics/SVG/1.1/DTD/svg11.dtd">
<!-- Generated by graphviz version 2.43.0 (0)
 -->
<!-- Title: %3 Pages: 1 -->
<svg width="216pt" height="531pt"
 viewBox="0.00 0.00 216.37 530.91" xmlns="http://www.w3.org/2000/svg" xmlns:xlink="http://www.w3.org/1999/xlink">
<g id="graph0" class="graph" transform="scale(1 1) rotate(0) translate(4 526.91)">
<title>%3</title>
<polygon fill="white" stroke="transparent" points="-4,4 -4,-526.91 212.37,-526.91 212.37,4 -4,4"/>
<!-- 0 -->
<g id="node1" class="node">
<title>0</title>
<polygon fill="none" stroke="black" points="156.18,-522.91 102.18,-522.91 102.18,-469.91 156.18,-469.91 156.18,-522.91"/>
<text text-anchor="middle" x="129.18" y="-507.71" font-family="Times,serif" font-size="14.00">[0]</text>
<text text-anchor="middle" x="129.18" y="-492.71" font-family="Times,serif" font-size="14.00">C: 8</text>
<text text-anchor="middle" x="129.18" y="-477.71" font-family="Times,serif" font-size="14.00">T: 50</text>
</g>
<!-- 1 -->
<g id="node2" class="node">
<title>1</title>
<ellipse fill="none" stroke="black" cx="129.18" cy="-407.04" rx="31.64" ry="26.74"/>
<text text-anchor="middle" x="129.18" y="-410.84" font-family="Times,serif" font-size="14.00">[1]</text>
<text text-anchor="middle" x="129.18" y="-395.84" font-family="Times,serif" font-size="14.00">C: 1</text>
</g>
<!-- 0&#45;&gt;1 -->
<g id="edge1" class="edge">
<title>0&#45;&gt;1</title>
<path fill="none" stroke="black" d="M129.18,-469.67C129.18,-461.73 129.18,-452.83 129.18,-444.31"/>
<polygon fill="black" stroke="black" points="132.68,-444.21 129.18,-434.21 125.68,-444.21 132.68,-444.21"/>
</g>
<!-- 2 -->
<g id="node3" class="node">
<title>2</title>
<ellipse fill="none" stroke="black" cx="129.18" cy="-317.3" rx="31.64" ry="26.74"/>
<text text-anchor="middle" x="129.18" y="-321.1" font-family="Times,serif" font-size="14.00">[2]</text>
<text text-anchor="middle" x="129.18" y="-306.1" font-family="Times,serif" font-size="14.00">C: 1</text>
</g>
<!-- 1&#45;&gt;2 -->
<g id="edge2" class="edge">
<title>1&#45;&gt;2</title>
<path fill="none" stroke="black" d="M129.18,-379.72C129.18,-371.75 129.18,-362.86 129.18,-354.37"/>
<polygon fill="black" stroke="black" points="132.68,-354.31 129.18,-344.31 125.68,-354.31 132.68,-354.31"/>
</g>
<!-- 3 -->
<g id="node4" class="node">
<title>3</title>
<ellipse fill="none" stroke="black" cx="88.18" cy="-227.56" rx="31.64" ry="26.74"/>
<text text-anchor="middle" x="88.18" y="-231.36" font-family="Times,serif" font-size="14.00">[3]</text>
<text text-anchor="middle" x="88.18" y="-216.36" font-family="Times,serif" font-size="14.00">C: 1</text>
</g>
<!-- 2&#45;&gt;3 -->
<g id="edge3" class="edge">
<title>2&#45;&gt;3</title>
<path fill="none" stroke="black" d="M117.76,-291.86C113.45,-282.64 108.47,-271.98 103.84,-262.07"/>
<polygon fill="black" stroke="black" points="106.95,-260.45 99.54,-252.87 100.61,-263.41 106.95,-260.45"/>
</g>
<!-- 5 -->
<g id="node6" class="node">
<title>5</title>
<ellipse fill="none" stroke="black" cx="170.18" cy="-227.56" rx="31.64" ry="26.74"/>
<text text-anchor="middle" x="170.18" y="-231.36" font-family="Times,serif" font-size="14.00">[5]</text>
<text text-anchor="middle" x="170.18" y="-216.36" font-family="Times,serif" font-size="14.00">C: 1</text>
</g>
<!-- 2&#45;&gt;5 -->
<g id="edge4" class="edge">
<title>2&#45;&gt;5</title>
<path fill="none" stroke="black" d="M140.6,-291.86C144.91,-282.64 149.89,-271.98 154.52,-262.07"/>
<polygon fill="black" stroke="black" points="157.76,-263.41 158.82,-252.87 151.42,-260.45 157.76,-263.41"/>
</g>
<!-- 4 -->
<g id="node5" class="node">
<title>4</title>
<ellipse fill="none" stroke="black" cx="38.18" cy="-137.82" rx="38.37" ry="26.74"/>
<text text-anchor="middle" x="38.18" y="-141.62" font-family="Times,serif" font-size="14.00">[4]</text>
<text text-anchor="middle" x="38.18" y="-126.62" font-family="Times,serif" font-size="14.00">C: 16</text>
</g>
<!-- 3&#45;&gt;4 -->
<g id="edge5" class="edge">
<title>3&#45;&gt;4</title>
<path fill="none" stroke="black" d="M74.78,-203.05C69.33,-193.47 62.92,-182.23 57,-171.85"/>
<polygon fill="black" stroke="black" points="59.96,-169.97 51.97,-163.01 53.88,-173.43 59.96,-169.97"/>
</g>
<!-- 7 -->
<g id="node8" class="node">
<title>7</title>
<ellipse fill="none" stroke="black" stroke-width="2" cx="104.18" cy="-37.48" rx="38.78" ry="37.45"/>
<text text-anchor="middle" x="104.18" y="-48.78" font-family="Times,serif" font-size="14.00">[7]</text>
<text text-anchor="middle" x="104.18" y="-33.78" font-family="Times,serif" font-size="14.00">C: 32</text>
<text text-anchor="middle" x="104.18" y="-18.78" font-family="Times,serif" font-size="14.00">D: 70</text>
</g>
<!-- 3&#45;&gt;7 -->
<g id="edge6" class="edge">
<title>3&#45;&gt;7</title>
<path fill="none" stroke="black" d="M90.41,-200.41C92.93,-170.74 97.1,-121.75 100.19,-85.42"/>
<polygon fill="black" stroke="black" points="103.71,-85.32 101.07,-75.06 96.74,-84.72 103.71,-85.32"/>
</g>
<!-- 4&#45;&gt;7 -->
<g id="edge7" class="edge">
<title>4&#45;&gt;7</title>
<path fill="none" stroke="black" d="M53.99,-113.27C61.11,-102.66 69.71,-89.84 77.77,-77.84"/>
<polygon fill="black" stroke="black" points="80.84,-79.54 83.51,-69.29 75.03,-75.64 80.84,-79.54"/>
</g>
<!-- 6 -->
<g id="node7" class="node">
<title>6</title>
<ellipse fill="none" stroke="black" cx="170.18" cy="-137.82" rx="38.37" ry="26.74"/>
<text text-anchor="middle" x="170.18" y="-141.62" font-family="Times,serif" font-size="14.00">[6]</text>
<text text-anchor="middle" x="170.18" y="-126.62" font-family="Times,serif" font-size="14.00">C: 15</text>
</g>
<!-- 5&#45;&gt;6 -->
<g id="edge8" class="edge">
<title>5&#45;&gt;6</title>
<path fill="none" stroke="black" d="M170.18,-200.24C170.18,-192.27 170.18,-183.38 170.18,-174.89"/>
<polygon fill="black" stroke="black" points="173.68,-174.83 170.18,-164.83 166.68,-174.83 173.68,-174.83"/>
</g>
<!-- 6&#45;&gt;7 -->
<g id="edge9" class="edge">
<title>6&#45;&gt;7</title>
<path fill="none" stroke="black" d="M154.38,-113.27C147.26,-102.66 138.66,-89.84 130.6,-77.84"/>
<polygon fill="black" stroke="black" points="133.34,-75.64 124.86,-69.29 127.53,-79.54 133.34,-75.64"/>
</g>
</g>
</svg>
