<?xml version="1.0" encoding="UTF-8" standalone="no"?>
<!DOCTYPE svg PUBLIC "-//W3C//DTD SVG 1.1//EN"
 "http://www.w3.org/Graphics/SVG/1.1/DTD/svg11.dtd">
<!-- Generated by graphviz version 2.43.0 (0)
 -->
<!-- Title: %3 Pages: 1 -->
<svg width="204pt" height="621pt"
 viewBox="0.00 0.00 204.00 620.65" xmlns="http://www.w3.org/2000/svg" xmlns:xlink="http://www.w3.org/1999/xlink">
<g id="graph0" class="graph" transform="scale(1 1) rotate(0) translate(4 616.65)">
<title>%3</title>
<polygon fill="white" stroke="transparent" points="-4,4 -4,-616.65 200,-616.65 200,4 -4,4"/>
<!-- 0 -->
<g id="node1" class="node">
<title>0</title>
<polygon fill="none" stroke="black" points="147.18,-612.65 93.18,-612.65 93.18,-559.65 147.18,-559.65 147.18,-612.65"/>
<text text-anchor="middle" x="120.18" y="-597.45" font-family="Times,serif" font-size="14.00">[0]</text>
<text text-anchor="middle" x="120.18" y="-582.45" font-family="Times,serif" font-size="14.00">C: 8</text>
<text text-anchor="middle" x="120.18" y="-567.45" font-family="Times,serif" font-size="14.00">T: 50</text>
</g>
<!-- 1 -->
<g id="node2" class="node">
<title>1</title>
<ellipse fill="none" stroke="black" cx="76.18" cy="-496.78" rx="38.37" ry="26.74"/>
<text text-anchor="middle" x="76.18" y="-500.58" font-family="Times,serif" font-size="14.00">[1]</text>
<text text-anchor="middle" x="76.18" y="-485.58" font-family="Times,serif" font-size="14.00">C: 37</text>
</g>
<!-- 0&#45;&gt;1 -->
<g id="edge1" class="edge">
<title>0&#45;&gt;1</title>
<path fill="none" stroke="black" d="M107.22,-559.41C102.81,-550.65 97.81,-540.73 93.14,-531.45"/>
<polygon fill="black" stroke="black" points="96.23,-529.8 88.6,-522.44 89.97,-532.95 96.23,-529.8"/>
</g>
<!-- 7 -->
<g id="node8" class="node">
<title>7</title>
<ellipse fill="none" stroke="black" cx="164.18" cy="-496.78" rx="31.64" ry="26.74"/>
<text text-anchor="middle" x="164.18" y="-500.58" font-family="Times,serif" font-size="14.00">[7]</text>
<text text-anchor="middle" x="164.18" y="-485.58" font-family="Times,serif" font-size="14.00">C: 1</text>
</g>
<!-- 0&#45;&gt;7 -->
<g id="edge2" class="edge">
<title>0&#45;&gt;7</title>
<path fill="none" stroke="black" d="M133.15,-559.41C137.63,-550.5 142.73,-540.39 147.47,-530.97"/>
<polygon fill="black" stroke="black" points="150.69,-532.35 152.07,-521.85 144.44,-529.2 150.69,-532.35"/>
</g>
<!-- 2 -->
<g id="node3" class="node">
<title>2</title>
<ellipse fill="none" stroke="black" cx="76.18" cy="-407.04" rx="31.64" ry="26.74"/>
<text text-anchor="middle" x="76.18" y="-410.84" font-family="Times,serif" font-size="14.00">[2]</text>
<text text-anchor="middle" x="76.18" y="-395.84" font-family="Times,serif" font-size="14.00">C: 3</text>
</g>
<!-- 1&#45;&gt;2 -->
<g id="edge3" class="edge">
<title>1&#45;&gt;2</title>
<path fill="none" stroke="black" d="M76.18,-469.46C76.18,-461.49 76.18,-452.6 76.18,-444.11"/>
<polygon fill="black" stroke="black" points="79.68,-444.05 76.18,-434.05 72.68,-444.05 79.68,-444.05"/>
</g>
<!-- 3 -->
<g id="node4" class="node">
<title>3</title>
<ellipse fill="none" stroke="black" cx="76.18" cy="-317.3" rx="31.64" ry="26.74"/>
<text text-anchor="middle" x="76.18" y="-321.1" font-family="Times,serif" font-size="14.00">[3]</text>
<text text-anchor="middle" x="76.18" y="-306.1" font-family="Times,serif" font-size="14.00">C: 5</text>
</g>
<!-- 2&#45;&gt;3 -->
<g id="edge4" class="edge">
<title>2&#45;&gt;3</title>
<path fill="none" stroke="black" d="M76.18,-379.72C76.18,-371.75 76.18,-362.86 76.18,-354.37"/>
<polygon fill="black" stroke="black" points="79.68,-354.31 76.18,-344.31 72.68,-354.31 79.68,-354.31"/>
</g>
<!-- 4 -->
<g id="node5" class="node">
<title>4</title>
<ellipse fill="none" stroke="black" cx="76.18" cy="-227.56" rx="31.64" ry="26.74"/>
<text text-anchor="middle" x="76.18" y="-231.36" font-family="Times,serif" font-size="14.00">[4]</text>
<text text-anchor="middle" x="76.18" y="-216.36" font-family="Times,serif" font-size="14.00">C: 2</text>
</g>
<!-- 3&#45;&gt;4 -->
<g id="edge5" class="edge">
<title>3&#45;&gt;4</title>
<path fill="none" stroke="black" d="M76.18,-289.98C76.18,-282.01 76.18,-273.12 76.18,-264.63"/>
<polygon fill="black" stroke="black" points="79.68,-264.57 76.18,-254.57 72.68,-264.57 79.68,-264.57"/>
</g>
<!-- 5 -->
<g id="node6" class="node">
<title>5</title>
<ellipse fill="none" stroke="black" cx="38.18" cy="-137.82" rx="38.37" ry="26.74"/>
<text text-anchor="middle" x="38.18" y="-141.62" font-family="Times,serif" font-size="14.00">[5]</text>
<text text-anchor="middle" x="38.18" y="-126.62" font-family="Times,serif" font-size="14.00">C: 12</text>
</g>
<!-- 4&#45;&gt;5 -->
<g id="edge6" class="edge">
<title>4&#45;&gt;5</title>
<path fill="none" stroke="black" d="M65.6,-202.12C61.71,-193.15 57.24,-182.81 53.04,-173.13"/>
<polygon fill="black" stroke="black" points="56.16,-171.53 48.98,-163.74 49.74,-174.31 56.16,-171.53"/>
</g>
<!-- 6 -->
<g id="node7" class="node">
<title>6</title>
<ellipse fill="none" stroke="black" stroke-width="2" cx="104.18" cy="-37.48" rx="38.78" ry="37.45"/>
<text text-anchor="middle" x="104.18" y="-48.78" font-family="Times,serif" font-size="14.00">[6]</text>
<text text-anchor="middle" x="104.18" y="-33.78" font-family="Times,serif" font-size="14.00">C: 2</text>
<text text-anchor="middle" x="104.18" y="-18.78" font-family="Times,serif" font-size="14.00">D: 82</text>
</g>
<!-- 4&#45;&gt;6 -->
<g id="edge7" class="edge">
<title>4&#45;&gt;6</title>
<path fill="none" stroke="black" d="M80.02,-200.81C84.45,-171.01 91.84,-121.37 97.29,-84.81"/>
<polygon fill="black" stroke="black" points="100.75,-85.28 98.76,-74.88 93.83,-84.25 100.75,-85.28"/>
</g>
<!-- 5&#45;&gt;6 -->
<g id="edge8" class="edge">
<title>5&#45;&gt;6</title>
<path fill="none" stroke="black" d="M53.99,-113.27C61.11,-102.66 69.71,-89.84 77.77,-77.84"/>
<polygon fill="black" stroke="black" points="80.84,-79.54 83.51,-69.29 75.03,-75.64 80.84,-79.54"/>
</g>
<!-- 8 -->
<g id="node9" class="node">
<title>8</title>
<ellipse fill="none" stroke="black" cx="164.18" cy="-407.04" rx="31.64" ry="26.74"/>
<text text-anchor="middle" x="164.18" y="-410.84" font-family="Times,serif" font-size="14.00">[8]</text>
<text text-anchor="middle" x="164.18" y="-395.84" font-family="Times,serif" font-size="14.00">C: 1</text>
</g>
<!-- 7&#45;&gt;8 -->
<g id="edge9" class="edge">
<title>7&#45;&gt;8</title>
<path fill="none" stroke="black" d="M164.18,-469.46C164.18,-461.49 164.18,-452.6 164.18,-444.11"/>
<polygon fill="black" stroke="black" points="167.68,-444.05 164.18,-434.05 160.68,-444.05 167.68,-444.05"/>
</g>
<!-- 9 -->
<g id="node10" class="node">
<title>9</title>
<ellipse fill="none" stroke="black" cx="164.18" cy="-317.3" rx="31.64" ry="26.74"/>
<text text-anchor="middle" x="164.18" y="-321.1" font-family="Times,serif" font-size="14.00">[9]</text>
<text text-anchor="middle" x="164.18" y="-306.1" font-family="Times,serif" font-size="14.00">C: 1</text>
</g>
<!-- 8&#45;&gt;9 -->
<g id="edge10" class="edge">
<title>8&#45;&gt;9</title>
<path fill="none" stroke="black" d="M164.18,-379.72C164.18,-371.75 164.18,-362.86 164.18,-354.37"/>
<polygon fill="black" stroke="black" points="167.68,-354.31 164.18,-344.31 160.68,-354.31 167.68,-354.31"/>
</g>
<!-- 10 -->
<g id="node11" class="node">
<title>10</title>
<ellipse fill="none" stroke="black" cx="164.18" cy="-227.56" rx="31.64" ry="26.74"/>
<text text-anchor="middle" x="164.18" y="-231.36" font-family="Times,serif" font-size="14.00">[10]</text>
<text text-anchor="middle" x="164.18" y="-216.36" font-family="Times,serif" font-size="14.00">C: 1</text>
</g>
<!-- 9&#45;&gt;10 -->
<g id="edge11" class="edge">
<title>9&#45;&gt;10</title>
<path fill="none" stroke="black" d="M164.18,-289.98C164.18,-282.01 164.18,-273.12 164.18,-264.63"/>
<polygon fill="black" stroke="black" points="167.68,-264.57 164.18,-254.57 160.68,-264.57 167.68,-264.57"/>
</g>
<!-- 11 -->
<g id="node12" class="node">
<title>11</title>
<ellipse fill="none" stroke="black" cx="164.18" cy="-137.82" rx="31.64" ry="26.74"/>
<text text-anchor="middle" x="164.18" y="-141.62" font-family="Times,serif" font-size="14.00">[11]</text>
<text text-anchor="middle" x="164.18" y="-126.62" font-family="Times,serif" font-size="14.00">C: 2</text>
</g>
<!-- 10&#45;&gt;11 -->
<g id="edge12" class="edge">
<title>10&#45;&gt;11</title>
<path fill="none" stroke="black" d="M164.18,-200.24C164.18,-192.27 164.18,-183.38 164.18,-174.89"/>
<polygon fill="black" stroke="black" points="167.68,-174.83 164.18,-164.83 160.68,-174.83 167.68,-174.83"/>
</g>
<!-- 11&#45;&gt;6 -->
<g id="edge13" class="edge">
<title>11&#45;&gt;6</title>
<path fill="none" stroke="black" d="M149.96,-113.52C143.67,-103.2 136.08,-90.75 128.9,-78.99"/>
<polygon fill="black" stroke="black" points="131.72,-76.89 123.52,-70.17 125.74,-80.53 131.72,-76.89"/>
</g>
</g>
</svg>
