<?xml version="1.0" encoding="UTF-8" standalone="no"?>
<!DOCTYPE svg PUBLIC "-//W3C//DTD SVG 1.1//EN"
 "http://www.w3.org/Graphics/SVG/1.1/DTD/svg11.dtd">
<!-- Generated by graphviz version 2.43.0 (0)
 -->
<!-- Title: %3 Pages: 1 -->
<svg width="166pt" height="621pt"
 viewBox="0.00 0.00 166.00 620.65" xmlns="http://www.w3.org/2000/svg" xmlns:xlink="http://www.w3.org/1999/xlink">
<g id="graph0" class="graph" transform="scale(1 1) rotate(0) translate(4 616.65)">
<title>%3</title>
<polygon fill="white" stroke="transparent" points="-4,4 -4,-616.65 162,-616.65 162,4 -4,4"/>
<!-- 0 -->
<g id="node1" class="node">
<title>0</title>
<polygon fill="none" stroke="black" points="109.18,-612.65 55.18,-612.65 55.18,-559.65 109.18,-559.65 109.18,-612.65"/>
<text text-anchor="middle" x="82.18" y="-597.45" font-family="Times,serif" font-size="14.00">[0]</text>
<text text-anchor="middle" x="82.18" y="-582.45" font-family="Times,serif" font-size="14.00">C: 20</text>
<text text-anchor="middle" x="82.18" y="-567.45" font-family="Times,serif" font-size="14.00">T: 50</text>
</g>
<!-- 1 -->
<g id="node2" class="node">
<title>1</title>
<ellipse fill="none" stroke="black" cx="41.18" cy="-496.78" rx="31.64" ry="26.74"/>
<text text-anchor="middle" x="41.18" y="-500.58" font-family="Times,serif" font-size="14.00">[1]</text>
<text text-anchor="middle" x="41.18" y="-485.58" font-family="Times,serif" font-size="14.00">C: 6</text>
</g>
<!-- 0&#45;&gt;1 -->
<g id="edge1" class="edge">
<title>0&#45;&gt;1</title>
<path fill="none" stroke="black" d="M70.1,-559.41C65.96,-550.58 61.26,-540.56 56.87,-531.21"/>
<polygon fill="black" stroke="black" points="60.03,-529.71 52.61,-522.14 53.69,-532.68 60.03,-529.71"/>
</g>
<!-- 6 -->
<g id="node7" class="node">
<title>6</title>
<ellipse fill="none" stroke="black" cx="124.18" cy="-496.78" rx="31.64" ry="26.74"/>
<text text-anchor="middle" x="124.18" y="-500.58" font-family="Times,serif" font-size="14.00">[6]</text>
<text text-anchor="middle" x="124.18" y="-485.58" font-family="Times,serif" font-size="14.00">C: 3</text>
</g>
<!-- 0&#45;&gt;6 -->
<g id="edge2" class="edge">
<title>0&#45;&gt;6</title>
<path fill="none" stroke="black" d="M94.56,-559.41C98.84,-550.5 103.7,-540.39 108.23,-530.97"/>
<polygon fill="black" stroke="black" points="111.44,-532.38 112.62,-521.85 105.13,-529.34 111.44,-532.38"/>
</g>
<!-- 2 -->
<g id="node3" class="node">
<title>2</title>
<ellipse fill="none" stroke="black" cx="38.18" cy="-407.04" rx="38.37" ry="26.74"/>
<text text-anchor="middle" x="38.18" y="-410.84" font-family="Times,serif" font-size="14.00">[2]</text>
<text text-anchor="middle" x="38.18" y="-395.84" font-family="Times,serif" font-size="14.00">C: 13</text>
</g>
<!-- 1&#45;&gt;2 -->
<g id="edge3" class="edge">
<title>1&#45;&gt;2</title>
<path fill="none" stroke="black" d="M40.28,-469.46C40.01,-461.49 39.71,-452.6 39.42,-444.11"/>
<polygon fill="black" stroke="black" points="42.91,-443.92 39.07,-434.05 35.92,-444.16 42.91,-443.92"/>
</g>
<!-- 3 -->
<g id="node4" class="node">
<title>3</title>
<ellipse fill="none" stroke="black" cx="41.18" cy="-317.3" rx="31.64" ry="26.74"/>
<text text-anchor="middle" x="41.18" y="-321.1" font-family="Times,serif" font-size="14.00">[3]</text>
<text text-anchor="middle" x="41.18" y="-306.1" font-family="Times,serif" font-size="14.00">C: 3</text>
</g>
<!-- 2&#45;&gt;3 -->
<g id="edge4" class="edge">
<title>2&#45;&gt;3</title>
<path fill="none" stroke="black" d="M39.08,-379.72C39.36,-371.75 39.66,-362.86 39.95,-354.37"/>
<polygon fill="black" stroke="black" points="43.45,-354.42 40.29,-344.31 36.45,-354.18 43.45,-354.42"/>
</g>
<!-- 4 -->
<g id="node5" class="node">
<title>4</title>
<ellipse fill="none" stroke="black" cx="41.18" cy="-137.82" rx="31.64" ry="26.74"/>
<text text-anchor="middle" x="41.18" y="-141.62" font-family="Times,serif" font-size="14.00">[4]</text>
<text text-anchor="middle" x="41.18" y="-126.62" font-family="Times,serif" font-size="14.00">C: 5</text>
</g>
<!-- 3&#45;&gt;4 -->
<g id="edge5" class="edge">
<title>3&#45;&gt;4</title>
<path fill="none" stroke="black" d="M41.18,-290.12C41.18,-259.62 41.18,-209.07 41.18,-174.88"/>
<polygon fill="black" stroke="black" points="44.68,-174.83 41.18,-164.83 37.68,-174.83 44.68,-174.83"/>
</g>
<!-- 5 -->
<g id="node6" class="node">
<title>5</title>
<ellipse fill="none" stroke="black" stroke-width="2" cx="82.18" cy="-37.48" rx="38.78" ry="37.45"/>
<text text-anchor="middle" x="82.18" y="-48.78" font-family="Times,serif" font-size="14.00">[5]</text>
<text text-anchor="middle" x="82.18" y="-33.78" font-family="Times,serif" font-size="14.00">C: 2</text>
<text text-anchor="middle" x="82.18" y="-18.78" font-family="Times,serif" font-size="14.00">D: 68</text>
</g>
<!-- 4&#45;&gt;5 -->
<g id="edge6" class="edge">
<title>4&#45;&gt;5</title>
<path fill="none" stroke="black" d="M51.42,-112.26C55.24,-103.11 59.69,-92.43 64,-82.09"/>
<polygon fill="black" stroke="black" points="67.28,-83.31 67.9,-72.73 60.82,-80.62 67.28,-83.31"/>
</g>
<!-- 7 -->
<g id="node8" class="node">
<title>7</title>
<ellipse fill="none" stroke="black" cx="126.18" cy="-407.04" rx="31.64" ry="26.74"/>
<text text-anchor="middle" x="126.18" y="-410.84" font-family="Times,serif" font-size="14.00">[7]</text>
<text text-anchor="middle" x="126.18" y="-395.84" font-family="Times,serif" font-size="14.00">C: 1</text>
</g>
<!-- 6&#45;&gt;7 -->
<g id="edge7" class="edge">
<title>6&#45;&gt;7</title>
<path fill="none" stroke="black" d="M124.78,-469.46C124.97,-461.49 125.17,-452.6 125.36,-444.11"/>
<polygon fill="black" stroke="black" points="128.86,-444.12 125.59,-434.05 121.86,-443.97 128.86,-444.12"/>
</g>
<!-- 8 -->
<g id="node9" class="node">
<title>8</title>
<ellipse fill="none" stroke="black" cx="124.18" cy="-317.3" rx="31.64" ry="26.74"/>
<text text-anchor="middle" x="124.18" y="-321.1" font-family="Times,serif" font-size="14.00">[8]</text>
<text text-anchor="middle" x="124.18" y="-306.1" font-family="Times,serif" font-size="14.00">C: 7</text>
</g>
<!-- 7&#45;&gt;8 -->
<g id="edge8" class="edge">
<title>7&#45;&gt;8</title>
<path fill="none" stroke="black" d="M125.58,-379.72C125.4,-371.75 125.2,-362.86 125.01,-354.37"/>
<polygon fill="black" stroke="black" points="128.5,-354.23 124.78,-344.31 121.51,-354.38 128.5,-354.23"/>
</g>
<!-- 9 -->
<g id="node10" class="node">
<title>9</title>
<ellipse fill="none" stroke="black" cx="123.18" cy="-227.56" rx="31.64" ry="26.74"/>
<text text-anchor="middle" x="123.18" y="-231.36" font-family="Times,serif" font-size="14.00">[9]</text>
<text text-anchor="middle" x="123.18" y="-216.36" font-family="Times,serif" font-size="14.00">C: 1</text>
</g>
<!-- 8&#45;&gt;9 -->
<g id="edge9" class="edge">
<title>8&#45;&gt;9</title>
<path fill="none" stroke="black" d="M123.88,-289.98C123.79,-282.01 123.69,-273.12 123.59,-264.63"/>
<polygon fill="black" stroke="black" points="127.09,-264.53 123.48,-254.57 120.09,-264.61 127.09,-264.53"/>
</g>
<!-- 10 -->
<g id="node11" class="node">
<title>10</title>
<ellipse fill="none" stroke="black" cx="123.18" cy="-137.82" rx="31.64" ry="26.74"/>
<text text-anchor="middle" x="123.18" y="-141.62" font-family="Times,serif" font-size="14.00">[10]</text>
<text text-anchor="middle" x="123.18" y="-126.62" font-family="Times,serif" font-size="14.00">C: 1</text>
</g>
<!-- 9&#45;&gt;10 -->
<g id="edge10" class="edge">
<title>9&#45;&gt;10</title>
<path fill="none" stroke="black" d="M123.18,-200.24C123.18,-192.27 123.18,-183.38 123.18,-174.89"/>
<polygon fill="black" stroke="black" points="126.68,-174.83 123.18,-164.83 119.68,-174.83 126.68,-174.83"/>
</g>
<!-- 10&#45;&gt;5 -->
<g id="edge11" class="edge">
<title>10&#45;&gt;5</title>
<path fill="none" stroke="black" d="M112.94,-112.26C109.13,-103.11 104.68,-92.43 100.37,-82.09"/>
<polygon fill="black" stroke="black" points="103.54,-80.62 96.47,-72.73 97.08,-83.31 103.54,-80.62"/>
</g>
</g>
</svg>
