<?xml version="1.0" encoding="UTF-8" standalone="no"?>
<!DOCTYPE svg PUBLIC "-//W3C//DTD SVG 1.1//EN"
 "http://www.w3.org/Graphics/SVG/1.1/DTD/svg11.dtd">
<!-- Generated by graphviz version 2.43.0 (0)
 -->
<!-- Title: %3 Pages: 1 -->
<svg width="204pt" height="441pt"
 viewBox="0.00 0.00 204.00 441.17" xmlns="http://www.w3.org/2000/svg" xmlns:xlink="http://www.w3.org/1999/xlink">
<g id="graph0" class="graph" transform="scale(1 1) rotate(0) translate(4 437.17)">
<title>%3</title>
<polygon fill="white" stroke="transparent" points="-4,4 -4,-437.17 200,-437.17 200,4 -4,4"/>
<!-- 0 -->
<g id="node1" class="node">
<title>0</title>
<polygon fill="none" stroke="black" points="135.18,-433.17 73.18,-433.17 73.18,-380.17 135.18,-380.17 135.18,-433.17"/>
<text text-anchor="middle" x="104.18" y="-417.97" font-family="Times,serif" font-size="14.00">[0]</text>
<text text-anchor="middle" x="104.18" y="-402.97" font-family="Times,serif" font-size="14.00">C: 21</text>
<text text-anchor="middle" x="104.18" y="-387.97" font-family="Times,serif" font-size="14.00">T: 100</text>
</g>
<!-- 1 -->
<g id="node2" class="node">
<title>1</title>
<ellipse fill="none" stroke="black" cx="104.18" cy="-317.3" rx="38.37" ry="26.74"/>
<text text-anchor="middle" x="104.18" y="-321.1" font-family="Times,serif" font-size="14.00">[1]</text>
<text text-anchor="middle" x="104.18" y="-306.1" font-family="Times,serif" font-size="14.00">C: 20</text>
</g>
<!-- 0&#45;&gt;1 -->
<g id="edge1" class="edge">
<title>0&#45;&gt;1</title>
<path fill="none" stroke="black" d="M104.18,-379.93C104.18,-371.99 104.18,-363.09 104.18,-354.57"/>
<polygon fill="black" stroke="black" points="107.68,-354.47 104.18,-344.47 100.68,-354.47 107.68,-354.47"/>
</g>
<!-- 2 -->
<g id="node3" class="node">
<title>2</title>
<ellipse fill="none" stroke="black" cx="104.18" cy="-227.56" rx="31.64" ry="26.74"/>
<text text-anchor="middle" x="104.18" y="-231.36" font-family="Times,serif" font-size="14.00">[2]</text>
<text text-anchor="middle" x="104.18" y="-216.36" font-family="Times,serif" font-size="14.00">C: 3</text>
</g>
<!-- 1&#45;&gt;2 -->
<g id="edge2" class="edge">
<title>1&#45;&gt;2</title>
<path fill="none" stroke="black" d="M104.18,-289.98C104.18,-282.01 104.18,-273.12 104.18,-264.63"/>
<polygon fill="black" stroke="black" points="107.68,-264.57 104.18,-254.57 100.68,-264.57 107.68,-264.57"/>
</g>
<!-- 3 -->
<g id="node4" class="node">
<title>3</title>
<ellipse fill="none" stroke="black" cx="38.18" cy="-137.82" rx="38.37" ry="26.74"/>
<text text-anchor="middle" x="38.18" y="-141.62" font-family="Times,serif" font-size="14.00">[3]</text>
<text text-anchor="middle" x="38.18" y="-126.62" font-family="Times,serif" font-size="14.00">C: 58</text>
</g>
<!-- 2&#45;&gt;3 -->
<g id="edge3" class="edge">
<title>2&#45;&gt;3</title>
<path fill="none" stroke="black" d="M87.53,-204.42C79.66,-193.97 70.14,-181.3 61.56,-169.9"/>
<polygon fill="black" stroke="black" points="64.33,-167.76 55.52,-161.88 58.74,-171.97 64.33,-167.76"/>
</g>
<!-- 4 -->
<g id="node5" class="node">
<title>4</title>
<ellipse fill="none" stroke="black" stroke-width="2" cx="104.18" cy="-37.48" rx="45.01" ry="37.45"/>
<text text-anchor="middle" x="104.18" y="-48.78" font-family="Times,serif" font-size="14.00">[4]</text>
<text text-anchor="middle" x="104.18" y="-33.78" font-family="Times,serif" font-size="14.00">C: 20</text>
<text text-anchor="middle" x="104.18" y="-18.78" font-family="Times,serif" font-size="14.00">D: 146</text>
</g>
<!-- 2&#45;&gt;4 -->
<g id="edge4" class="edge">
<title>2&#45;&gt;4</title>
<path fill="none" stroke="black" d="M104.18,-200.41C104.18,-170.74 104.18,-121.75 104.18,-85.42"/>
<polygon fill="black" stroke="black" points="107.68,-85.06 104.18,-75.06 100.68,-85.06 107.68,-85.06"/>
</g>
<!-- 5 -->
<g id="node6" class="node">
<title>5</title>
<ellipse fill="none" stroke="black" cx="164.18" cy="-137.82" rx="31.64" ry="26.74"/>
<text text-anchor="middle" x="164.18" y="-141.62" font-family="Times,serif" font-size="14.00">[5]</text>
<text text-anchor="middle" x="164.18" y="-126.62" font-family="Times,serif" font-size="14.00">C: 3</text>
</g>
<!-- 2&#45;&gt;5 -->
<g id="edge5" class="edge">
<title>2&#45;&gt;5</title>
<path fill="none" stroke="black" d="M119.64,-203.97C126.77,-193.53 135.36,-180.97 143.09,-169.68"/>
<polygon fill="black" stroke="black" points="146.03,-171.57 148.78,-161.34 140.25,-167.62 146.03,-171.57"/>
</g>
<!-- 3&#45;&gt;4 -->
<g id="edge6" class="edge">
<title>3&#45;&gt;4</title>
<path fill="none" stroke="black" d="M53.99,-113.27C60.87,-103.02 69.12,-90.72 76.93,-79.08"/>
<polygon fill="black" stroke="black" points="79.85,-81.02 82.52,-70.76 74.04,-77.12 79.85,-81.02"/>
</g>
<!-- 5&#45;&gt;4 -->
<g id="edge7" class="edge">
<title>5&#45;&gt;4</title>
<path fill="none" stroke="black" d="M149.96,-113.52C143.83,-103.47 136.47,-91.4 129.47,-79.92"/>
<polygon fill="black" stroke="black" points="132.4,-78 124.2,-71.29 126.42,-81.65 132.4,-78"/>
</g>
</g>
</svg>
