<?xml version="1.0" encoding="UTF-8" standalone="no"?>
<!DOCTYPE svg PUBLIC "-//W3C//DTD SVG 1.1//EN"
 "http://www.w3.org/Graphics/SVG/1.1/DTD/svg11.dtd">
<!-- Generated by graphviz version 2.43.0 (0)
 -->
<!-- Title: %3 Pages: 1 -->
<svg width="154pt" height="351pt"
 viewBox="0.00 0.00 153.64 351.43" xmlns="http://www.w3.org/2000/svg" xmlns:xlink="http://www.w3.org/1999/xlink">
<g id="graph0" class="graph" transform="scale(1 1) rotate(0) translate(4 347.43)">
<title>%3</title>
<polygon fill="white" stroke="transparent" points="-4,4 -4,-347.43 149.64,-347.43 149.64,4 -4,4"/>
<!-- 0 -->
<g id="node1" class="node">
<title>0</title>
<polygon fill="none" stroke="black" points="99.82,-343.43 45.82,-343.43 45.82,-290.43 99.82,-290.43 99.82,-343.43"/>
<text text-anchor="middle" x="72.82" y="-328.23" font-family="Times,serif" font-size="14.00">[0]</text>
<text text-anchor="middle" x="72.82" y="-313.23" font-family="Times,serif" font-size="14.00">C: 10</text>
<text text-anchor="middle" x="72.82" y="-298.23" font-family="Times,serif" font-size="14.00">T: 50</text>
</g>
<!-- 1 -->
<g id="node2" class="node">
<title>1</title>
<ellipse fill="none" stroke="black" cx="39.82" cy="-227.56" rx="38.37" ry="26.74"/>
<text text-anchor="middle" x="39.82" y="-231.36" font-family="Times,serif" font-size="14.00">[1]</text>
<text text-anchor="middle" x="39.82" y="-216.36" font-family="Times,serif" font-size="14.00">C: 40</text>
</g>
<!-- 0&#45;&gt;1 -->
<g id="edge1" class="edge">
<title>0&#45;&gt;1</title>
<path fill="none" stroke="black" d="M63.1,-290.19C59.91,-281.76 56.32,-272.26 52.93,-263.28"/>
<polygon fill="black" stroke="black" points="56.17,-261.94 49.36,-253.82 49.62,-264.41 56.17,-261.94"/>
</g>
<!-- 3 -->
<g id="node4" class="node">
<title>3</title>
<ellipse fill="none" stroke="black" cx="113.82" cy="-137.82" rx="31.64" ry="26.74"/>
<text text-anchor="middle" x="113.82" y="-141.62" font-family="Times,serif" font-size="14.00">[3]</text>
<text text-anchor="middle" x="113.82" y="-126.62" font-family="Times,serif" font-size="14.00">C: 3</text>
</g>
<!-- 0&#45;&gt;3 -->
<g id="edge2" class="edge">
<title>0&#45;&gt;3</title>
<path fill="none" stroke="black" d="M78.78,-290.18C85.85,-259.66 97.66,-208.64 105.59,-174.38"/>
<polygon fill="black" stroke="black" points="109.07,-174.85 107.92,-164.32 102.25,-173.27 109.07,-174.85"/>
</g>
<!-- 2 -->
<g id="node3" class="node">
<title>2</title>
<ellipse fill="none" stroke="black" cx="31.82" cy="-137.82" rx="31.64" ry="26.74"/>
<text text-anchor="middle" x="31.82" y="-141.62" font-family="Times,serif" font-size="14.00">[2]</text>
<text text-anchor="middle" x="31.82" y="-126.62" font-family="Times,serif" font-size="14.00">C: 4</text>
</g>
<!-- 1&#45;&gt;2 -->
<g id="edge3" class="edge">
<title>1&#45;&gt;2</title>
<path fill="none" stroke="black" d="M37.46,-200.71C36.73,-192.66 35.91,-183.63 35.12,-175.01"/>
<polygon fill="black" stroke="black" points="38.58,-174.43 34.19,-164.79 31.61,-175.07 38.58,-174.43"/>
</g>
<!-- 4 -->
<g id="node5" class="node">
<title>4</title>
<ellipse fill="none" stroke="black" stroke-width="2" cx="72.82" cy="-37.48" rx="38.78" ry="37.45"/>
<text text-anchor="middle" x="72.82" y="-48.78" font-family="Times,serif" font-size="14.00">[4]</text>
<text text-anchor="middle" x="72.82" y="-33.78" font-family="Times,serif" font-size="14.00">C: 5</text>
<text text-anchor="middle" x="72.82" y="-18.78" font-family="Times,serif" font-size="14.00">D: 82</text>
</g>
<!-- 2&#45;&gt;4 -->
<g id="edge4" class="edge">
<title>2&#45;&gt;4</title>
<path fill="none" stroke="black" d="M42.06,-112.26C45.87,-103.11 50.33,-92.43 54.64,-82.09"/>
<polygon fill="black" stroke="black" points="57.92,-83.31 58.54,-72.73 51.46,-80.62 57.92,-83.31"/>
</g>
<!-- 3&#45;&gt;4 -->
<g id="edge5" class="edge">
<title>3&#45;&gt;4</title>
<path fill="none" stroke="black" d="M103.58,-112.26C99.77,-103.11 95.31,-92.43 91,-82.09"/>
<polygon fill="black" stroke="black" points="94.18,-80.62 87.1,-72.73 87.72,-83.31 94.18,-80.62"/>
</g>
</g>
</svg>
