<?xml version="1.0" encoding="UTF-8" standalone="no"?>
<!DOCTYPE svg PUBLIC "-//W3C//DTD SVG 1.1//EN"
 "http://www.w3.org/Graphics/SVG/1.1/DTD/svg11.dtd">
<!-- Generated by graphviz version 2.43.0 (0)
 -->
<!-- Title: %3 Pages: 1 -->
<svg width="166pt" height="531pt"
 viewBox="0.00 0.00 166.00 530.91" xmlns="http://www.w3.org/2000/svg" xmlns:xlink="http://www.w3.org/1999/xlink">
<g id="graph0" class="graph" transform="scale(1 1) rotate(0) translate(4 526.91)">
<title>%3</title>
<polygon fill="white" stroke="transparent" points="-4,4 -4,-526.91 162,-526.91 162,4 -4,4"/>
<!-- 0 -->
<g id="node1" class="node">
<title>0</title>
<polygon fill="none" stroke="black" points="113.18,-522.91 51.18,-522.91 51.18,-469.91 113.18,-469.91 113.18,-522.91"/>
<text text-anchor="middle" x="82.18" y="-507.71" font-family="Times,serif" font-size="14.00">[0]</text>
<text text-anchor="middle" x="82.18" y="-492.71" font-family="Times,serif" font-size="14.00">C: 5</text>
<text text-anchor="middle" x="82.18" y="-477.71" font-family="Times,serif" font-size="14.00">T: 100</text>
</g>
<!-- 1 -->
<g id="node2" class="node">
<title>1</title>
<ellipse fill="none" stroke="black" cx="82.18" cy="-407.04" rx="31.64" ry="26.74"/>
<text text-anchor="middle" x="82.18" y="-410.84" font-family="Times,serif" font-size="14.00">[1]</text>
<text text-anchor="middle" x="82.18" y="-395.84" font-family="Times,serif" font-size="14.00">C: 1</text>
</g>
<!-- 0&#45;&gt;1 -->
<g id="edge1" class="edge">
<title>0&#45;&gt;1</title>
<path fill="none" stroke="black" d="M82.18,-469.67C82.18,-461.73 82.18,-452.83 82.18,-444.31"/>
<polygon fill="black" stroke="black" points="85.68,-444.21 82.18,-434.21 78.68,-444.21 85.68,-444.21"/>
</g>
<!-- 2 -->
<g id="node3" class="node">
<title>2</title>
<ellipse fill="none" stroke="black" cx="82.18" cy="-317.3" rx="38.37" ry="26.74"/>
<text text-anchor="middle" x="82.18" y="-321.1" font-family="Times,serif" font-size="14.00">[2]</text>
<text text-anchor="middle" x="82.18" y="-306.1" font-family="Times,serif" font-size="14.00">C: 18</text>
</g>
<!-- 1&#45;&gt;2 -->
<g id="edge2" class="edge">
<title>1&#45;&gt;2</title>
<path fill="none" stroke="black" d="M82.18,-379.72C82.18,-371.75 82.18,-362.86 82.18,-354.37"/>
<polygon fill="black" stroke="black" points="85.68,-354.31 82.18,-344.31 78.68,-354.31 85.68,-354.31"/>
</g>
<!-- 3 -->
<g id="node4" class="node">
<title>3</title>
<ellipse fill="none" stroke="black" cx="38.18" cy="-137.82" rx="38.37" ry="26.74"/>
<text text-anchor="middle" x="38.18" y="-141.62" font-family="Times,serif" font-size="14.00">[3]</text>
<text text-anchor="middle" x="38.18" y="-126.62" font-family="Times,serif" font-size="14.00">C: 21</text>
</g>
<!-- 2&#45;&gt;3 -->
<g id="edge3" class="edge">
<title>2&#45;&gt;3</title>
<path fill="none" stroke="black" d="M75.79,-290.5C68.2,-259.91 55.53,-208.79 47.02,-174.45"/>
<polygon fill="black" stroke="black" points="50.32,-173.24 44.52,-164.37 43.53,-174.92 50.32,-173.24"/>
</g>
<!-- 5 -->
<g id="node6" class="node">
<title>5</title>
<ellipse fill="none" stroke="black" cx="119.18" cy="-227.56" rx="31.64" ry="26.74"/>
<text text-anchor="middle" x="119.18" y="-231.36" font-family="Times,serif" font-size="14.00">[5]</text>
<text text-anchor="middle" x="119.18" y="-216.36" font-family="Times,serif" font-size="14.00">C: 1</text>
</g>
<!-- 2&#45;&gt;5 -->
<g id="edge4" class="edge">
<title>2&#45;&gt;5</title>
<path fill="none" stroke="black" d="M92.69,-291.4C96.47,-282.43 100.8,-272.15 104.85,-262.54"/>
<polygon fill="black" stroke="black" points="108.12,-263.8 108.78,-253.23 101.67,-261.08 108.12,-263.8"/>
</g>
<!-- 4 -->
<g id="node5" class="node">
<title>4</title>
<ellipse fill="none" stroke="black" stroke-width="2" cx="82.18" cy="-37.48" rx="45.01" ry="37.45"/>
<text text-anchor="middle" x="82.18" y="-48.78" font-family="Times,serif" font-size="14.00">[4]</text>
<text text-anchor="middle" x="82.18" y="-33.78" font-family="Times,serif" font-size="14.00">C: 78</text>
<text text-anchor="middle" x="82.18" y="-18.78" font-family="Times,serif" font-size="14.00">D: 147</text>
</g>
<!-- 3&#45;&gt;4 -->
<g id="edge5" class="edge">
<title>3&#45;&gt;4</title>
<path fill="none" stroke="black" d="M49.29,-112.01C53.34,-102.94 58.06,-92.41 62.63,-82.19"/>
<polygon fill="black" stroke="black" points="65.87,-83.5 66.76,-72.94 59.49,-80.64 65.87,-83.5"/>
</g>
<!-- 6 -->
<g id="node7" class="node">
<title>6</title>
<ellipse fill="none" stroke="black" cx="126.18" cy="-137.82" rx="31.64" ry="26.74"/>
<text text-anchor="middle" x="126.18" y="-141.62" font-family="Times,serif" font-size="14.00">[6]</text>
<text text-anchor="middle" x="126.18" y="-126.62" font-family="Times,serif" font-size="14.00">C: 1</text>
</g>
<!-- 5&#45;&gt;6 -->
<g id="edge6" class="edge">
<title>5&#45;&gt;6</title>
<path fill="none" stroke="black" d="M121.25,-200.71C121.89,-192.66 122.61,-183.63 123.3,-175.01"/>
<polygon fill="black" stroke="black" points="126.81,-175.04 124.11,-164.79 119.83,-174.48 126.81,-175.04"/>
</g>
<!-- 6&#45;&gt;4 -->
<g id="edge7" class="edge">
<title>6&#45;&gt;4</title>
<path fill="none" stroke="black" d="M115.31,-112.51C111.22,-103.37 106.43,-92.66 101.78,-82.29"/>
<polygon fill="black" stroke="black" points="104.86,-80.6 97.58,-72.9 98.47,-83.45 104.86,-80.6"/>
</g>
</g>
</svg>
