<?xml version="1.0" encoding="UTF-8" standalone="no"?>
<!DOCTYPE svg PUBLIC "-//W3C//DTD SVG 1.1//EN"
 "http://www.w3.org/Graphics/SVG/1.1/DTD/svg11.dtd">
<!-- Generated by graphviz version 2.43.0 (0)
 -->
<!-- Title: %3 Pages: 1 -->
<svg width="166pt" height="441pt"
 viewBox="0.00 0.00 166.00 441.17" xmlns="http://www.w3.org/2000/svg" xmlns:xlink="http://www.w3.org/1999/xlink">
<g id="graph0" class="graph" transform="scale(1 1) rotate(0) translate(4 437.17)">
<title>%3</title>
<polygon fill="white" stroke="transparent" points="-4,4 -4,-437.17 162,-437.17 162,4 -4,4"/>
<!-- 0 -->
<g id="node1" class="node">
<title>0</title>
<polygon fill="none" stroke="black" points="112.18,-433.17 50.18,-433.17 50.18,-380.17 112.18,-380.17 112.18,-433.17"/>
<text text-anchor="middle" x="81.18" y="-417.97" font-family="Times,serif" font-size="14.00">[0]</text>
<text text-anchor="middle" x="81.18" y="-402.97" font-family="Times,serif" font-size="14.00">C: 11</text>
<text text-anchor="middle" x="81.18" y="-387.97" font-family="Times,serif" font-size="14.00">T: 100</text>
</g>
<!-- 1 -->
<g id="node2" class="node">
<title>1</title>
<ellipse fill="none" stroke="black" cx="81.18" cy="-317.3" rx="44.6" ry="26.74"/>
<text text-anchor="middle" x="81.18" y="-321.1" font-family="Times,serif" font-size="14.00">[1]</text>
<text text-anchor="middle" x="81.18" y="-306.1" font-family="Times,serif" font-size="14.00">C: 146</text>
</g>
<!-- 0&#45;&gt;1 -->
<g id="edge1" class="edge">
<title>0&#45;&gt;1</title>
<path fill="none" stroke="black" d="M81.18,-379.93C81.18,-371.99 81.18,-363.09 81.18,-354.57"/>
<polygon fill="black" stroke="black" points="84.68,-354.47 81.18,-344.47 77.68,-354.47 84.68,-354.47"/>
</g>
<!-- 2 -->
<g id="node3" class="node">
<title>2</title>
<ellipse fill="none" stroke="black" cx="43.18" cy="-227.56" rx="38.37" ry="26.74"/>
<text text-anchor="middle" x="43.18" y="-231.36" font-family="Times,serif" font-size="14.00">[2]</text>
<text text-anchor="middle" x="43.18" y="-216.36" font-family="Times,serif" font-size="14.00">C: 11</text>
</g>
<!-- 1&#45;&gt;2 -->
<g id="edge2" class="edge">
<title>1&#45;&gt;2</title>
<path fill="none" stroke="black" d="M70.19,-290.93C66.42,-282.21 62.13,-272.3 58.1,-262.99"/>
<polygon fill="black" stroke="black" points="61.21,-261.37 54.02,-253.58 54.78,-264.15 61.21,-261.37"/>
</g>
<!-- 4 -->
<g id="node5" class="node">
<title>4</title>
<ellipse fill="none" stroke="black" cx="126.18" cy="-137.82" rx="31.64" ry="26.74"/>
<text text-anchor="middle" x="126.18" y="-141.62" font-family="Times,serif" font-size="14.00">[4]</text>
<text text-anchor="middle" x="126.18" y="-126.62" font-family="Times,serif" font-size="14.00">C: 3</text>
</g>
<!-- 1&#45;&gt;4 -->
<g id="edge3" class="edge">
<title>1&#45;&gt;4</title>
<path fill="none" stroke="black" d="M87.73,-290.5C95.48,-259.91 108.44,-208.79 117.15,-174.45"/>
<polygon fill="black" stroke="black" points="120.64,-174.93 119.71,-164.37 113.86,-173.21 120.64,-174.93"/>
</g>
<!-- 3 -->
<g id="node4" class="node">
<title>3</title>
<ellipse fill="none" stroke="black" cx="38.18" cy="-137.82" rx="38.37" ry="26.74"/>
<text text-anchor="middle" x="38.18" y="-141.62" font-family="Times,serif" font-size="14.00">[3]</text>
<text text-anchor="middle" x="38.18" y="-126.62" font-family="Times,serif" font-size="14.00">C: 54</text>
</g>
<!-- 2&#45;&gt;3 -->
<g id="edge4" class="edge">
<title>2&#45;&gt;3</title>
<path fill="none" stroke="black" d="M41.71,-200.71C41.25,-192.66 40.74,-183.63 40.25,-175.01"/>
<polygon fill="black" stroke="black" points="43.73,-174.58 39.66,-164.79 36.74,-174.98 43.73,-174.58"/>
</g>
<!-- 5 -->
<g id="node6" class="node">
<title>5</title>
<ellipse fill="none" stroke="black" stroke-width="2" cx="82.18" cy="-37.48" rx="45.01" ry="37.45"/>
<text text-anchor="middle" x="82.18" y="-48.78" font-family="Times,serif" font-size="14.00">[5]</text>
<text text-anchor="middle" x="82.18" y="-33.78" font-family="Times,serif" font-size="14.00">C: 35</text>
<text text-anchor="middle" x="82.18" y="-18.78" font-family="Times,serif" font-size="14.00">D: 282</text>
</g>
<!-- 3&#45;&gt;5 -->
<g id="edge5" class="edge">
<title>3&#45;&gt;5</title>
<path fill="none" stroke="black" d="M49.29,-112.01C53.34,-102.94 58.06,-92.41 62.63,-82.19"/>
<polygon fill="black" stroke="black" points="65.87,-83.5 66.76,-72.94 59.49,-80.64 65.87,-83.5"/>
</g>
<!-- 4&#45;&gt;5 -->
<g id="edge6" class="edge">
<title>4&#45;&gt;5</title>
<path fill="none" stroke="black" d="M115.31,-112.51C111.22,-103.37 106.43,-92.66 101.78,-82.29"/>
<polygon fill="black" stroke="black" points="104.86,-80.6 97.58,-72.9 98.47,-83.45 104.86,-80.6"/>
</g>
</g>
</svg>
