<?xml version="1.0" encoding="UTF-8" standalone="no"?>
<!DOCTYPE svg PUBLIC "-//W3C//DTD SVG 1.1//EN"
 "http://www.w3.org/Graphics/SVG/1.1/DTD/svg11.dtd">
<!-- Generated by graphviz version 2.43.0 (0)
 -->
<!-- Title: %3 Pages: 1 -->
<svg width="236pt" height="351pt"
 viewBox="0.00 0.00 235.64 351.43" xmlns="http://www.w3.org/2000/svg" xmlns:xlink="http://www.w3.org/1999/xlink">
<g id="graph0" class="graph" transform="scale(1 1) rotate(0) translate(4 347.43)">
<title>%3</title>
<polygon fill="white" stroke="transparent" points="-4,4 -4,-347.43 231.64,-347.43 231.64,4 -4,4"/>
<!-- 0 -->
<g id="node1" class="node">
<title>0</title>
<polygon fill="none" stroke="black" points="145.32,-343.43 82.32,-343.43 82.32,-290.43 145.32,-290.43 145.32,-343.43"/>
<text text-anchor="middle" x="113.82" y="-328.23" font-family="Times,serif" font-size="14.00">[0]</text>
<text text-anchor="middle" x="113.82" y="-313.23" font-family="Times,serif" font-size="14.00">C: 241</text>
<text text-anchor="middle" x="113.82" y="-298.23" font-family="Times,serif" font-size="14.00">T: 100</text>
</g>
<!-- 1 -->
<g id="node2" class="node">
<title>1</title>
<ellipse fill="none" stroke="black" cx="42.82" cy="-227.56" rx="31.64" ry="26.74"/>
<text text-anchor="middle" x="42.82" y="-231.36" font-family="Times,serif" font-size="14.00">[1]</text>
<text text-anchor="middle" x="42.82" y="-216.36" font-family="Times,serif" font-size="14.00">C: 1</text>
</g>
<!-- 0&#45;&gt;1 -->
<g id="edge1" class="edge">
<title>0&#45;&gt;1</title>
<path fill="none" stroke="black" d="M92.9,-290.19C84.77,-280.18 75.4,-268.65 66.98,-258.29"/>
<polygon fill="black" stroke="black" points="69.5,-255.84 60.47,-250.29 64.06,-260.25 69.5,-255.84"/>
</g>
<!-- 3 -->
<g id="node4" class="node">
<title>3</title>
<ellipse fill="none" stroke="black" cx="113.82" cy="-137.82" rx="31.64" ry="26.74"/>
<text text-anchor="middle" x="113.82" y="-141.62" font-family="Times,serif" font-size="14.00">[3]</text>
<text text-anchor="middle" x="113.82" y="-126.62" font-family="Times,serif" font-size="14.00">C: 4</text>
</g>
<!-- 0&#45;&gt;3 -->
<g id="edge2" class="edge">
<title>0&#45;&gt;3</title>
<path fill="none" stroke="black" d="M113.82,-290.18C113.82,-259.84 113.82,-209.22 113.82,-174.96"/>
<polygon fill="black" stroke="black" points="117.32,-174.9 113.82,-164.9 110.32,-174.9 117.32,-174.9"/>
</g>
<!-- 5 -->
<g id="node6" class="node">
<title>5</title>
<ellipse fill="none" stroke="black" cx="184.82" cy="-227.56" rx="31.64" ry="26.74"/>
<text text-anchor="middle" x="184.82" y="-231.36" font-family="Times,serif" font-size="14.00">[5]</text>
<text text-anchor="middle" x="184.82" y="-216.36" font-family="Times,serif" font-size="14.00">C: 8</text>
</g>
<!-- 0&#45;&gt;5 -->
<g id="edge3" class="edge">
<title>0&#45;&gt;5</title>
<path fill="none" stroke="black" d="M134.74,-290.19C142.87,-280.18 152.24,-268.65 160.66,-258.29"/>
<polygon fill="black" stroke="black" points="163.58,-260.25 167.17,-250.29 158.14,-255.84 163.58,-260.25"/>
</g>
<!-- 2 -->
<g id="node3" class="node">
<title>2</title>
<ellipse fill="none" stroke="black" cx="31.82" cy="-137.82" rx="31.64" ry="26.74"/>
<text text-anchor="middle" x="31.82" y="-141.62" font-family="Times,serif" font-size="14.00">[2]</text>
<text text-anchor="middle" x="31.82" y="-126.62" font-family="Times,serif" font-size="14.00">C: 1</text>
</g>
<!-- 1&#45;&gt;2 -->
<g id="edge4" class="edge">
<title>1&#45;&gt;2</title>
<path fill="none" stroke="black" d="M39.58,-200.71C38.56,-192.57 37.41,-183.43 36.32,-174.73"/>
<polygon fill="black" stroke="black" points="39.79,-174.28 35.08,-164.79 32.85,-175.15 39.79,-174.28"/>
</g>
<!-- 4 -->
<g id="node5" class="node">
<title>4</title>
<ellipse fill="none" stroke="black" stroke-width="2" cx="113.82" cy="-37.48" rx="45.01" ry="37.45"/>
<text text-anchor="middle" x="113.82" y="-48.78" font-family="Times,serif" font-size="14.00">[4]</text>
<text text-anchor="middle" x="113.82" y="-33.78" font-family="Times,serif" font-size="14.00">C: 1</text>
<text text-anchor="middle" x="113.82" y="-18.78" font-family="Times,serif" font-size="14.00">D: 279</text>
</g>
<!-- 2&#45;&gt;4 -->
<g id="edge5" class="edge">
<title>2&#45;&gt;4</title>
<path fill="none" stroke="black" d="M49.61,-115.48C59.05,-104.16 70.94,-89.91 81.91,-76.75"/>
<polygon fill="black" stroke="black" points="84.88,-78.65 88.6,-68.73 79.5,-74.17 84.88,-78.65"/>
</g>
<!-- 3&#45;&gt;4 -->
<g id="edge6" class="edge">
<title>3&#45;&gt;4</title>
<path fill="none" stroke="black" d="M113.82,-110.73C113.82,-102.87 113.82,-94.01 113.82,-85.24"/>
<polygon fill="black" stroke="black" points="117.32,-85.06 113.82,-75.06 110.32,-85.06 117.32,-85.06"/>
</g>
<!-- 6 -->
<g id="node7" class="node">
<title>6</title>
<ellipse fill="none" stroke="black" cx="195.82" cy="-137.82" rx="31.64" ry="26.74"/>
<text text-anchor="middle" x="195.82" y="-141.62" font-family="Times,serif" font-size="14.00">[6]</text>
<text text-anchor="middle" x="195.82" y="-126.62" font-family="Times,serif" font-size="14.00">C: 4</text>
</g>
<!-- 5&#45;&gt;6 -->
<g id="edge7" class="edge">
<title>5&#45;&gt;6</title>
<path fill="none" stroke="black" d="M188.06,-200.71C189.08,-192.57 190.23,-183.43 191.32,-174.73"/>
<polygon fill="black" stroke="black" points="194.79,-175.15 192.56,-164.79 187.85,-174.28 194.79,-175.15"/>
</g>
<!-- 6&#45;&gt;4 -->
<g id="edge8" class="edge">
<title>6&#45;&gt;4</title>
<path fill="none" stroke="black" d="M178.03,-115.48C168.59,-104.16 156.7,-89.91 145.73,-76.75"/>
<polygon fill="black" stroke="black" points="148.14,-74.17 139.04,-68.73 142.76,-78.65 148.14,-74.17"/>
</g>
</g>
</svg>
