<?xml version="1.0" encoding="UTF-8" standalone="no"?>
<!DOCTYPE svg PUBLIC "-//W3C//DTD SVG 1.1//EN"
 "http://www.w3.org/Graphics/SVG/1.1/DTD/svg11.dtd">
<!-- Generated by graphviz version 2.43.0 (0)
 -->
<!-- Title: %3 Pages: 1 -->
<svg width="260pt" height="710pt"
 viewBox="0.00 0.00 260.37 710.39" xmlns="http://www.w3.org/2000/svg" xmlns:xlink="http://www.w3.org/1999/xlink">
<g id="graph0" class="graph" transform="scale(1 1) rotate(0) translate(4 706.39)">
<title>%3</title>
<polygon fill="white" stroke="transparent" points="-4,4 -4,-706.39 256.37,-706.39 256.37,4 -4,4"/>
<!-- 0 -->
<g id="node1" class="node">
<title>0</title>
<polygon fill="none" stroke="black" points="198.18,-702.39 136.18,-702.39 136.18,-649.39 198.18,-649.39 198.18,-702.39"/>
<text text-anchor="middle" x="167.18" y="-687.19" font-family="Times,serif" font-size="14.00">[0]</text>
<text text-anchor="middle" x="167.18" y="-672.19" font-family="Times,serif" font-size="14.00">C: 1</text>
<text text-anchor="middle" x="167.18" y="-657.19" font-family="Times,serif" font-size="14.00">T: 100</text>
</g>
<!-- 1 -->
<g id="node2" class="node">
<title>1</title>
<ellipse fill="none" stroke="black" cx="167.18" cy="-586.52" rx="31.64" ry="26.74"/>
<text text-anchor="middle" x="167.18" y="-590.32" font-family="Times,serif" font-size="14.00">[1]</text>
<text text-anchor="middle" x="167.18" y="-575.32" font-family="Times,serif" font-size="14.00">C: 1</text>
</g>
<!-- 0&#45;&gt;1 -->
<g id="edge1" class="edge">
<title>0&#45;&gt;1</title>
<path fill="none" stroke="black" d="M167.18,-649.15C167.18,-641.21 167.18,-632.31 167.18,-623.79"/>
<polygon fill="black" stroke="black" points="170.68,-623.69 167.18,-613.69 163.68,-623.69 170.68,-623.69"/>
</g>
<!-- 2 -->
<g id="node3" class="node">
<title>2</title>
<ellipse fill="none" stroke="black" cx="120.18" cy="-496.78" rx="44.6" ry="26.74"/>
<text text-anchor="middle" x="120.18" y="-500.58" font-family="Times,serif" font-size="14.00">[2]</text>
<text text-anchor="middle" x="120.18" y="-485.58" font-family="Times,serif" font-size="14.00">C: 144</text>
</g>
<!-- 1&#45;&gt;2 -->
<g id="edge2" class="edge">
<title>1&#45;&gt;2</title>
<path fill="none" stroke="black" d="M154.34,-561.55C149.39,-552.3 143.63,-541.56 138.28,-531.56"/>
<polygon fill="black" stroke="black" points="141.31,-529.81 133.5,-522.65 135.14,-533.12 141.31,-529.81"/>
</g>
<!-- 7 -->
<g id="node8" class="node">
<title>7</title>
<ellipse fill="none" stroke="black" cx="214.18" cy="-496.78" rx="31.64" ry="26.74"/>
<text text-anchor="middle" x="214.18" y="-500.58" font-family="Times,serif" font-size="14.00">[7]</text>
<text text-anchor="middle" x="214.18" y="-485.58" font-family="Times,serif" font-size="14.00">C: 2</text>
</g>
<!-- 1&#45;&gt;7 -->
<g id="edge3" class="edge">
<title>1&#45;&gt;7</title>
<path fill="none" stroke="black" d="M180.03,-561.55C185.1,-552.07 191.02,-541.02 196.49,-530.81"/>
<polygon fill="black" stroke="black" points="199.72,-532.2 201.36,-521.73 193.55,-528.89 199.72,-532.2"/>
</g>
<!-- 3 -->
<g id="node4" class="node">
<title>3</title>
<ellipse fill="none" stroke="black" cx="120.18" cy="-407.04" rx="31.64" ry="26.74"/>
<text text-anchor="middle" x="120.18" y="-410.84" font-family="Times,serif" font-size="14.00">[3]</text>
<text text-anchor="middle" x="120.18" y="-395.84" font-family="Times,serif" font-size="14.00">C: 1</text>
</g>
<!-- 2&#45;&gt;3 -->
<g id="edge4" class="edge">
<title>2&#45;&gt;3</title>
<path fill="none" stroke="black" d="M120.18,-469.46C120.18,-461.49 120.18,-452.6 120.18,-444.11"/>
<polygon fill="black" stroke="black" points="123.68,-444.05 120.18,-434.05 116.68,-444.05 123.68,-444.05"/>
</g>
<!-- 4 -->
<g id="node5" class="node">
<title>4</title>
<ellipse fill="none" stroke="black" cx="38.18" cy="-317.3" rx="38.37" ry="26.74"/>
<text text-anchor="middle" x="38.18" y="-321.1" font-family="Times,serif" font-size="14.00">[4]</text>
<text text-anchor="middle" x="38.18" y="-306.1" font-family="Times,serif" font-size="14.00">C: 10</text>
</g>
<!-- 3&#45;&gt;4 -->
<g id="edge5" class="edge">
<title>3&#45;&gt;4</title>
<path fill="none" stroke="black" d="M100.75,-385.25C90.24,-374 77.09,-359.93 65.55,-347.59"/>
<polygon fill="black" stroke="black" points="68.01,-345.09 58.62,-340.17 62.89,-349.87 68.01,-345.09"/>
</g>
<!-- 12 -->
<g id="node13" class="node">
<title>12</title>
<ellipse fill="none" stroke="black" cx="126.18" cy="-317.3" rx="31.64" ry="26.74"/>
<text text-anchor="middle" x="126.18" y="-321.1" font-family="Times,serif" font-size="14.00">[12]</text>
<text text-anchor="middle" x="126.18" y="-306.1" font-family="Times,serif" font-size="14.00">C: 7</text>
</g>
<!-- 3&#45;&gt;12 -->
<g id="edge6" class="edge">
<title>3&#45;&gt;12</title>
<path fill="none" stroke="black" d="M121.95,-380.19C122.5,-372.14 123.12,-363.11 123.71,-354.49"/>
<polygon fill="black" stroke="black" points="127.22,-354.49 124.41,-344.27 120.23,-354.01 127.22,-354.49"/>
</g>
<!-- 5 -->
<g id="node6" class="node">
<title>5</title>
<ellipse fill="none" stroke="black" cx="41.18" cy="-227.56" rx="31.64" ry="26.74"/>
<text text-anchor="middle" x="41.18" y="-231.36" font-family="Times,serif" font-size="14.00">[5]</text>
<text text-anchor="middle" x="41.18" y="-216.36" font-family="Times,serif" font-size="14.00">C: 1</text>
</g>
<!-- 4&#45;&gt;5 -->
<g id="edge7" class="edge">
<title>4&#45;&gt;5</title>
<path fill="none" stroke="black" d="M39.08,-289.98C39.36,-282.01 39.66,-273.12 39.95,-264.63"/>
<polygon fill="black" stroke="black" points="43.45,-264.68 40.29,-254.57 36.45,-264.44 43.45,-264.68"/>
</g>
<!-- 6 -->
<g id="node7" class="node">
<title>6</title>
<ellipse fill="none" stroke="black" cx="43.18" cy="-137.82" rx="31.64" ry="26.74"/>
<text text-anchor="middle" x="43.18" y="-141.62" font-family="Times,serif" font-size="14.00">[6]</text>
<text text-anchor="middle" x="43.18" y="-126.62" font-family="Times,serif" font-size="14.00">C: 1</text>
</g>
<!-- 5&#45;&gt;6 -->
<g id="edge8" class="edge">
<title>5&#45;&gt;6</title>
<path fill="none" stroke="black" d="M41.78,-200.24C41.97,-192.27 42.17,-183.38 42.36,-174.89"/>
<polygon fill="black" stroke="black" points="45.86,-174.9 42.59,-164.83 38.86,-174.74 45.86,-174.9"/>
</g>
<!-- 11 -->
<g id="node12" class="node">
<title>11</title>
<ellipse fill="none" stroke="black" stroke-width="2" cx="126.18" cy="-37.48" rx="45.01" ry="37.45"/>
<text text-anchor="middle" x="126.18" y="-48.78" font-family="Times,serif" font-size="14.00">[11]</text>
<text text-anchor="middle" x="126.18" y="-33.78" font-family="Times,serif" font-size="14.00">C: 1</text>
<text text-anchor="middle" x="126.18" y="-18.78" font-family="Times,serif" font-size="14.00">D: 176</text>
</g>
<!-- 6&#45;&gt;11 -->
<g id="edge9" class="edge">
<title>6&#45;&gt;11</title>
<path fill="none" stroke="black" d="M61.19,-115.48C70.84,-104.06 83.01,-89.64 94.2,-76.37"/>
<polygon fill="black" stroke="black" points="96.88,-78.63 100.65,-68.73 91.53,-74.11 96.88,-78.63"/>
</g>
<!-- 8 -->
<g id="node9" class="node">
<title>8</title>
<ellipse fill="none" stroke="black" cx="214.18" cy="-407.04" rx="31.64" ry="26.74"/>
<text text-anchor="middle" x="214.18" y="-410.84" font-family="Times,serif" font-size="14.00">[8]</text>
<text text-anchor="middle" x="214.18" y="-395.84" font-family="Times,serif" font-size="14.00">C: 1</text>
</g>
<!-- 7&#45;&gt;8 -->
<g id="edge10" class="edge">
<title>7&#45;&gt;8</title>
<path fill="none" stroke="black" d="M214.18,-469.46C214.18,-461.49 214.18,-452.6 214.18,-444.11"/>
<polygon fill="black" stroke="black" points="217.68,-444.05 214.18,-434.05 210.68,-444.05 217.68,-444.05"/>
</g>
<!-- 9 -->
<g id="node10" class="node">
<title>9</title>
<ellipse fill="none" stroke="black" cx="214.18" cy="-317.3" rx="38.37" ry="26.74"/>
<text text-anchor="middle" x="214.18" y="-321.1" font-family="Times,serif" font-size="14.00">[9]</text>
<text text-anchor="middle" x="214.18" y="-306.1" font-family="Times,serif" font-size="14.00">C: 60</text>
</g>
<!-- 8&#45;&gt;9 -->
<g id="edge11" class="edge">
<title>8&#45;&gt;9</title>
<path fill="none" stroke="black" d="M214.18,-379.72C214.18,-371.75 214.18,-362.86 214.18,-354.37"/>
<polygon fill="black" stroke="black" points="217.68,-354.31 214.18,-344.31 210.68,-354.31 217.68,-354.31"/>
</g>
<!-- 10 -->
<g id="node11" class="node">
<title>10</title>
<ellipse fill="none" stroke="black" cx="214.18" cy="-137.82" rx="38.37" ry="26.74"/>
<text text-anchor="middle" x="214.18" y="-141.62" font-family="Times,serif" font-size="14.00">[10]</text>
<text text-anchor="middle" x="214.18" y="-126.62" font-family="Times,serif" font-size="14.00">C: 28</text>
</g>
<!-- 9&#45;&gt;10 -->
<g id="edge12" class="edge">
<title>9&#45;&gt;10</title>
<path fill="none" stroke="black" d="M214.18,-290.12C214.18,-259.62 214.18,-209.07 214.18,-174.88"/>
<polygon fill="black" stroke="black" points="217.68,-174.83 214.18,-164.83 210.68,-174.83 217.68,-174.83"/>
</g>
<!-- 10&#45;&gt;11 -->
<g id="edge13" class="edge">
<title>10&#45;&gt;11</title>
<path fill="none" stroke="black" d="M194.22,-114.51C183.96,-103.04 171.18,-88.77 159.49,-75.69"/>
<polygon fill="black" stroke="black" points="162.03,-73.28 152.75,-68.17 156.81,-77.95 162.03,-73.28"/>
</g>
<!-- 13 -->
<g id="node14" class="node">
<title>13</title>
<ellipse fill="none" stroke="black" cx="126.18" cy="-227.56" rx="31.64" ry="26.74"/>
<text text-anchor="middle" x="126.18" y="-231.36" font-family="Times,serif" font-size="14.00">[13]</text>
<text text-anchor="middle" x="126.18" y="-216.36" font-family="Times,serif" font-size="14.00">C: 1</text>
</g>
<!-- 12&#45;&gt;13 -->
<g id="edge14" class="edge">
<title>12&#45;&gt;13</title>
<path fill="none" stroke="black" d="M126.18,-289.98C126.18,-282.01 126.18,-273.12 126.18,-264.63"/>
<polygon fill="black" stroke="black" points="129.68,-264.57 126.18,-254.57 122.68,-264.57 129.68,-264.57"/>
</g>
<!-- 14 -->
<g id="node15" class="node">
<title>14</title>
<ellipse fill="none" stroke="black" cx="126.18" cy="-137.82" rx="31.64" ry="26.74"/>
<text text-anchor="middle" x="126.18" y="-141.62" font-family="Times,serif" font-size="14.00">[14]</text>
<text text-anchor="middle" x="126.18" y="-126.62" font-family="Times,serif" font-size="14.00">C: 1</text>
</g>
<!-- 13&#45;&gt;14 -->
<g id="edge15" class="edge">
<title>13&#45;&gt;14</title>
<path fill="none" stroke="black" d="M126.18,-200.24C126.18,-192.27 126.18,-183.38 126.18,-174.89"/>
<polygon fill="black" stroke="black" points="129.68,-174.83 126.18,-164.83 122.68,-174.83 129.68,-174.83"/>
</g>
<!-- 14&#45;&gt;11 -->
<g id="edge16" class="edge">
<title>14&#45;&gt;11</title>
<path fill="none" stroke="black" d="M126.18,-110.73C126.18,-102.87 126.18,-94.01 126.18,-85.24"/>
<polygon fill="black" stroke="black" points="129.68,-85.06 126.18,-75.06 122.68,-85.06 129.68,-85.06"/>
</g>
</g>
</svg>
