<?xml version="1.0" encoding="UTF-8" standalone="no"?>
<!DOCTYPE svg PUBLIC "-//W3C//DTD SVG 1.1//EN"
 "http://www.w3.org/Graphics/SVG/1.1/DTD/svg11.dtd">
<!-- Generated by graphviz version 2.43.0 (0)
 -->
<!-- Title: %3 Pages: 1 -->
<svg width="178pt" height="710pt"
 viewBox="0.00 0.00 178.37 710.39" xmlns="http://www.w3.org/2000/svg" xmlns:xlink="http://www.w3.org/1999/xlink">
<g id="graph0" class="graph" transform="scale(1 1) rotate(0) translate(4 706.39)">
<title>%3</title>
<polygon fill="white" stroke="transparent" points="-4,4 -4,-706.39 174.37,-706.39 174.37,4 -4,4"/>
<!-- 0 -->
<g id="node1" class="node">
<title>0</title>
<polygon fill="none" stroke="black" points="116.18,-702.39 54.18,-702.39 54.18,-649.39 116.18,-649.39 116.18,-702.39"/>
<text text-anchor="middle" x="85.18" y="-687.19" font-family="Times,serif" font-size="14.00">[0]</text>
<text text-anchor="middle" x="85.18" y="-672.19" font-family="Times,serif" font-size="14.00">C: 44</text>
<text text-anchor="middle" x="85.18" y="-657.19" font-family="Times,serif" font-size="14.00">T: 100</text>
</g>
<!-- 1 -->
<g id="node2" class="node">
<title>1</title>
<ellipse fill="none" stroke="black" cx="85.18" cy="-586.52" rx="38.37" ry="26.74"/>
<text text-anchor="middle" x="85.18" y="-590.32" font-family="Times,serif" font-size="14.00">[1]</text>
<text text-anchor="middle" x="85.18" y="-575.32" font-family="Times,serif" font-size="14.00">C: 64</text>
</g>
<!-- 0&#45;&gt;1 -->
<g id="edge1" class="edge">
<title>0&#45;&gt;1</title>
<path fill="none" stroke="black" d="M85.18,-649.15C85.18,-641.21 85.18,-632.31 85.18,-623.79"/>
<polygon fill="black" stroke="black" points="88.68,-623.69 85.18,-613.69 81.68,-623.69 88.68,-623.69"/>
</g>
<!-- 2 -->
<g id="node3" class="node">
<title>2</title>
<ellipse fill="none" stroke="black" cx="85.18" cy="-496.78" rx="38.37" ry="26.74"/>
<text text-anchor="middle" x="85.18" y="-500.58" font-family="Times,serif" font-size="14.00">[2]</text>
<text text-anchor="middle" x="85.18" y="-485.58" font-family="Times,serif" font-size="14.00">C: 37</text>
</g>
<!-- 1&#45;&gt;2 -->
<g id="edge2" class="edge">
<title>1&#45;&gt;2</title>
<path fill="none" stroke="black" d="M85.18,-559.2C85.18,-551.23 85.18,-542.34 85.18,-533.85"/>
<polygon fill="black" stroke="black" points="88.68,-533.79 85.18,-523.79 81.68,-533.79 88.68,-533.79"/>
</g>
<!-- 3 -->
<g id="node4" class="node">
<title>3</title>
<ellipse fill="none" stroke="black" cx="85.18" cy="-407.04" rx="31.64" ry="26.74"/>
<text text-anchor="middle" x="85.18" y="-410.84" font-family="Times,serif" font-size="14.00">[3]</text>
<text text-anchor="middle" x="85.18" y="-395.84" font-family="Times,serif" font-size="14.00">C: 1</text>
</g>
<!-- 2&#45;&gt;3 -->
<g id="edge3" class="edge">
<title>2&#45;&gt;3</title>
<path fill="none" stroke="black" d="M85.18,-469.46C85.18,-461.49 85.18,-452.6 85.18,-444.11"/>
<polygon fill="black" stroke="black" points="88.68,-444.05 85.18,-434.05 81.68,-444.05 88.68,-444.05"/>
</g>
<!-- 4 -->
<g id="node5" class="node">
<title>4</title>
<ellipse fill="none" stroke="black" cx="38.18" cy="-317.3" rx="38.37" ry="26.74"/>
<text text-anchor="middle" x="38.18" y="-321.1" font-family="Times,serif" font-size="14.00">[4]</text>
<text text-anchor="middle" x="38.18" y="-306.1" font-family="Times,serif" font-size="14.00">C: 40</text>
</g>
<!-- 3&#45;&gt;4 -->
<g id="edge4" class="edge">
<title>3&#45;&gt;4</title>
<path fill="none" stroke="black" d="M72.34,-382.07C67.35,-372.75 61.54,-361.9 56.14,-351.83"/>
<polygon fill="black" stroke="black" points="59.15,-350.02 51.34,-342.86 52.98,-353.33 59.15,-350.02"/>
</g>
<!-- 7 -->
<g id="node8" class="node">
<title>7</title>
<ellipse fill="none" stroke="black" cx="132.18" cy="-317.3" rx="38.37" ry="26.74"/>
<text text-anchor="middle" x="132.18" y="-321.1" font-family="Times,serif" font-size="14.00">[7]</text>
<text text-anchor="middle" x="132.18" y="-306.1" font-family="Times,serif" font-size="14.00">C: 19</text>
</g>
<!-- 3&#45;&gt;7 -->
<g id="edge5" class="edge">
<title>3&#45;&gt;7</title>
<path fill="none" stroke="black" d="M98.03,-382.07C103.02,-372.75 108.83,-361.9 114.23,-351.83"/>
<polygon fill="black" stroke="black" points="117.39,-353.33 119.03,-342.86 111.22,-350.02 117.39,-353.33"/>
</g>
<!-- 5 -->
<g id="node6" class="node">
<title>5</title>
<ellipse fill="none" stroke="black" cx="42.18" cy="-137.82" rx="38.37" ry="26.74"/>
<text text-anchor="middle" x="42.18" y="-141.62" font-family="Times,serif" font-size="14.00">[5]</text>
<text text-anchor="middle" x="42.18" y="-126.62" font-family="Times,serif" font-size="14.00">C: 44</text>
</g>
<!-- 4&#45;&gt;5 -->
<g id="edge6" class="edge">
<title>4&#45;&gt;5</title>
<path fill="none" stroke="black" d="M38.77,-290.12C39.46,-259.62 40.6,-209.07 41.37,-174.88"/>
<polygon fill="black" stroke="black" points="44.87,-174.91 41.6,-164.83 37.87,-174.75 44.87,-174.91"/>
</g>
<!-- 6 -->
<g id="node7" class="node">
<title>6</title>
<ellipse fill="none" stroke="black" stroke-width="2" cx="86.18" cy="-37.48" rx="45.01" ry="37.45"/>
<text text-anchor="middle" x="86.18" y="-48.78" font-family="Times,serif" font-size="14.00">[6]</text>
<text text-anchor="middle" x="86.18" y="-33.78" font-family="Times,serif" font-size="14.00">C: 3</text>
<text text-anchor="middle" x="86.18" y="-18.78" font-family="Times,serif" font-size="14.00">D: 279</text>
</g>
<!-- 5&#45;&gt;6 -->
<g id="edge7" class="edge">
<title>5&#45;&gt;6</title>
<path fill="none" stroke="black" d="M53.29,-112.01C57.34,-102.94 62.06,-92.41 66.63,-82.19"/>
<polygon fill="black" stroke="black" points="69.87,-83.5 70.76,-72.94 63.49,-80.64 69.87,-83.5"/>
</g>
<!-- 8 -->
<g id="node9" class="node">
<title>8</title>
<ellipse fill="none" stroke="black" cx="131.18" cy="-227.56" rx="31.64" ry="26.74"/>
<text text-anchor="middle" x="131.18" y="-231.36" font-family="Times,serif" font-size="14.00">[8]</text>
<text text-anchor="middle" x="131.18" y="-216.36" font-family="Times,serif" font-size="14.00">C: 5</text>
</g>
<!-- 7&#45;&gt;8 -->
<g id="edge8" class="edge">
<title>7&#45;&gt;8</title>
<path fill="none" stroke="black" d="M131.88,-289.98C131.79,-282.01 131.69,-273.12 131.59,-264.63"/>
<polygon fill="black" stroke="black" points="135.09,-264.53 131.48,-254.57 128.09,-264.61 135.09,-264.53"/>
</g>
<!-- 9 -->
<g id="node10" class="node">
<title>9</title>
<ellipse fill="none" stroke="black" cx="131.18" cy="-137.82" rx="31.64" ry="26.74"/>
<text text-anchor="middle" x="131.18" y="-141.62" font-family="Times,serif" font-size="14.00">[9]</text>
<text text-anchor="middle" x="131.18" y="-126.62" font-family="Times,serif" font-size="14.00">C: 3</text>
</g>
<!-- 8&#45;&gt;9 -->
<g id="edge9" class="edge">
<title>8&#45;&gt;9</title>
<path fill="none" stroke="black" d="M131.18,-200.24C131.18,-192.27 131.18,-183.38 131.18,-174.89"/>
<polygon fill="black" stroke="black" points="134.68,-174.83 131.18,-164.83 127.68,-174.83 134.68,-174.83"/>
</g>
<!-- 9&#45;&gt;6 -->
<g id="edge10" class="edge">
<title>9&#45;&gt;6</title>
<path fill="none" stroke="black" d="M120.06,-112.51C115.88,-103.37 110.98,-92.66 106.23,-82.29"/>
<polygon fill="black" stroke="black" points="109.28,-80.53 101.93,-72.9 102.91,-83.45 109.28,-80.53"/>
</g>
</g>
</svg>
