<?xml version="1.0" encoding="UTF-8" standalone="no"?>
<!DOCTYPE svg PUBLIC "-//W3C//DTD SVG 1.1//EN"
 "http://www.w3.org/Graphics/SVG/1.1/DTD/svg11.dtd">
<!-- Generated by graphviz version 2.43.0 (0)
 -->
<!-- Title: %3 Pages: 1 -->
<svg width="166pt" height="621pt"
 viewBox="0.00 0.00 166.00 620.65" xmlns="http://www.w3.org/2000/svg" xmlns:xlink="http://www.w3.org/1999/xlink">
<g id="graph0" class="graph" transform="scale(1 1) rotate(0) translate(4 616.65)">
<title>%3</title>
<polygon fill="white" stroke="transparent" points="-4,4 -4,-616.65 162,-616.65 162,4 -4,4"/>
<!-- 0 -->
<g id="node1" class="node">
<title>0</title>
<polygon fill="none" stroke="black" points="102.82,-612.65 48.82,-612.65 48.82,-559.65 102.82,-559.65 102.82,-612.65"/>
<text text-anchor="middle" x="75.82" y="-597.45" font-family="Times,serif" font-size="14.00">[0]</text>
<text text-anchor="middle" x="75.82" y="-582.45" font-family="Times,serif" font-size="14.00">C: 35</text>
<text text-anchor="middle" x="75.82" y="-567.45" font-family="Times,serif" font-size="14.00">T: 50</text>
</g>
<!-- 1 -->
<g id="node2" class="node">
<title>1</title>
<ellipse fill="none" stroke="black" cx="31.82" cy="-496.78" rx="31.64" ry="26.74"/>
<text text-anchor="middle" x="31.82" y="-500.58" font-family="Times,serif" font-size="14.00">[1]</text>
<text text-anchor="middle" x="31.82" y="-485.58" font-family="Times,serif" font-size="14.00">C: 1</text>
</g>
<!-- 0&#45;&gt;1 -->
<g id="edge1" class="edge">
<title>0&#45;&gt;1</title>
<path fill="none" stroke="black" d="M62.86,-559.41C58.37,-550.5 53.28,-540.39 48.53,-530.97"/>
<polygon fill="black" stroke="black" points="51.56,-529.2 43.94,-521.85 45.31,-532.35 51.56,-529.2"/>
</g>
<!-- 6 -->
<g id="node7" class="node">
<title>6</title>
<ellipse fill="none" stroke="black" cx="119.82" cy="-496.78" rx="38.37" ry="26.74"/>
<text text-anchor="middle" x="119.82" y="-500.58" font-family="Times,serif" font-size="14.00">[6]</text>
<text text-anchor="middle" x="119.82" y="-485.58" font-family="Times,serif" font-size="14.00">C: 43</text>
</g>
<!-- 0&#45;&gt;6 -->
<g id="edge2" class="edge">
<title>0&#45;&gt;6</title>
<path fill="none" stroke="black" d="M88.78,-559.41C93.19,-550.65 98.19,-540.73 102.87,-531.45"/>
<polygon fill="black" stroke="black" points="106.03,-532.95 107.4,-522.44 99.78,-529.8 106.03,-532.95"/>
</g>
<!-- 2 -->
<g id="node3" class="node">
<title>2</title>
<ellipse fill="none" stroke="black" cx="31.82" cy="-407.04" rx="31.64" ry="26.74"/>
<text text-anchor="middle" x="31.82" y="-410.84" font-family="Times,serif" font-size="14.00">[2]</text>
<text text-anchor="middle" x="31.82" y="-395.84" font-family="Times,serif" font-size="14.00">C: 1</text>
</g>
<!-- 1&#45;&gt;2 -->
<g id="edge3" class="edge">
<title>1&#45;&gt;2</title>
<path fill="none" stroke="black" d="M31.82,-469.46C31.82,-461.49 31.82,-452.6 31.82,-444.11"/>
<polygon fill="black" stroke="black" points="35.32,-444.05 31.82,-434.05 28.32,-444.05 35.32,-444.05"/>
</g>
<!-- 3 -->
<g id="node4" class="node">
<title>3</title>
<ellipse fill="none" stroke="black" cx="31.82" cy="-317.3" rx="31.64" ry="26.74"/>
<text text-anchor="middle" x="31.82" y="-321.1" font-family="Times,serif" font-size="14.00">[3]</text>
<text text-anchor="middle" x="31.82" y="-306.1" font-family="Times,serif" font-size="14.00">C: 1</text>
</g>
<!-- 2&#45;&gt;3 -->
<g id="edge4" class="edge">
<title>2&#45;&gt;3</title>
<path fill="none" stroke="black" d="M31.82,-379.72C31.82,-371.75 31.82,-362.86 31.82,-354.37"/>
<polygon fill="black" stroke="black" points="35.32,-354.31 31.82,-344.31 28.32,-354.31 35.32,-354.31"/>
</g>
<!-- 4 -->
<g id="node5" class="node">
<title>4</title>
<ellipse fill="none" stroke="black" cx="35.82" cy="-137.82" rx="31.64" ry="26.74"/>
<text text-anchor="middle" x="35.82" y="-141.62" font-family="Times,serif" font-size="14.00">[4]</text>
<text text-anchor="middle" x="35.82" y="-126.62" font-family="Times,serif" font-size="14.00">C: 1</text>
</g>
<!-- 3&#45;&gt;4 -->
<g id="edge5" class="edge">
<title>3&#45;&gt;4</title>
<path fill="none" stroke="black" d="M32.41,-290.12C33.1,-259.62 34.24,-209.07 35.01,-174.88"/>
<polygon fill="black" stroke="black" points="38.51,-174.91 35.23,-164.83 31.51,-174.75 38.51,-174.91"/>
</g>
<!-- 5 -->
<g id="node6" class="node">
<title>5</title>
<ellipse fill="none" stroke="black" stroke-width="2" cx="76.82" cy="-37.48" rx="45.01" ry="37.45"/>
<text text-anchor="middle" x="76.82" y="-48.78" font-family="Times,serif" font-size="14.00">[5]</text>
<text text-anchor="middle" x="76.82" y="-33.78" font-family="Times,serif" font-size="14.00">C: 1</text>
<text text-anchor="middle" x="76.82" y="-18.78" font-family="Times,serif" font-size="14.00">D: 176</text>
</g>
<!-- 4&#45;&gt;5 -->
<g id="edge6" class="edge">
<title>4&#45;&gt;5</title>
<path fill="none" stroke="black" d="M46.06,-112.26C49.84,-103.2 54.24,-92.64 58.52,-82.38"/>
<polygon fill="black" stroke="black" points="61.77,-83.68 62.38,-73.11 55.3,-80.99 61.77,-83.68"/>
</g>
<!-- 7 -->
<g id="node8" class="node">
<title>7</title>
<ellipse fill="none" stroke="black" cx="119.82" cy="-407.04" rx="38.37" ry="26.74"/>
<text text-anchor="middle" x="119.82" y="-410.84" font-family="Times,serif" font-size="14.00">[7]</text>
<text text-anchor="middle" x="119.82" y="-395.84" font-family="Times,serif" font-size="14.00">C: 15</text>
</g>
<!-- 6&#45;&gt;7 -->
<g id="edge7" class="edge">
<title>6&#45;&gt;7</title>
<path fill="none" stroke="black" d="M119.82,-469.46C119.82,-461.49 119.82,-452.6 119.82,-444.11"/>
<polygon fill="black" stroke="black" points="123.32,-444.05 119.82,-434.05 116.32,-444.05 123.32,-444.05"/>
</g>
<!-- 8 -->
<g id="node9" class="node">
<title>8</title>
<ellipse fill="none" stroke="black" cx="119.82" cy="-317.3" rx="38.37" ry="26.74"/>
<text text-anchor="middle" x="119.82" y="-321.1" font-family="Times,serif" font-size="14.00">[8]</text>
<text text-anchor="middle" x="119.82" y="-306.1" font-family="Times,serif" font-size="14.00">C: 30</text>
</g>
<!-- 7&#45;&gt;8 -->
<g id="edge8" class="edge">
<title>7&#45;&gt;8</title>
<path fill="none" stroke="black" d="M119.82,-379.72C119.82,-371.75 119.82,-362.86 119.82,-354.37"/>
<polygon fill="black" stroke="black" points="123.32,-354.31 119.82,-344.31 116.32,-354.31 123.32,-354.31"/>
</g>
<!-- 9 -->
<g id="node10" class="node">
<title>9</title>
<ellipse fill="none" stroke="black" cx="118.82" cy="-227.56" rx="31.64" ry="26.74"/>
<text text-anchor="middle" x="118.82" y="-231.36" font-family="Times,serif" font-size="14.00">[9]</text>
<text text-anchor="middle" x="118.82" y="-216.36" font-family="Times,serif" font-size="14.00">C: 1</text>
</g>
<!-- 8&#45;&gt;9 -->
<g id="edge9" class="edge">
<title>8&#45;&gt;9</title>
<path fill="none" stroke="black" d="M119.52,-289.98C119.43,-282.01 119.33,-273.12 119.23,-264.63"/>
<polygon fill="black" stroke="black" points="122.73,-264.53 119.12,-254.57 115.73,-264.61 122.73,-264.53"/>
</g>
<!-- 10 -->
<g id="node11" class="node">
<title>10</title>
<ellipse fill="none" stroke="black" cx="118.82" cy="-137.82" rx="31.64" ry="26.74"/>
<text text-anchor="middle" x="118.82" y="-141.62" font-family="Times,serif" font-size="14.00">[10]</text>
<text text-anchor="middle" x="118.82" y="-126.62" font-family="Times,serif" font-size="14.00">C: 1</text>
</g>
<!-- 9&#45;&gt;10 -->
<g id="edge10" class="edge">
<title>9&#45;&gt;10</title>
<path fill="none" stroke="black" d="M118.82,-200.24C118.82,-192.27 118.82,-183.38 118.82,-174.89"/>
<polygon fill="black" stroke="black" points="122.32,-174.83 118.82,-164.83 115.32,-174.83 122.32,-174.83"/>
</g>
<!-- 10&#45;&gt;5 -->
<g id="edge11" class="edge">
<title>10&#45;&gt;5</title>
<path fill="none" stroke="black" d="M108.33,-112.26C104.46,-103.2 99.95,-92.64 95.57,-82.38"/>
<polygon fill="black" stroke="black" points="98.76,-80.93 91.61,-73.11 92.32,-83.68 98.76,-80.93"/>
</g>
</g>
</svg>
