<?xml version="1.0" encoding="UTF-8" standalone="no"?>
<!DOCTYPE svg PUBLIC "-//W3C//DTD SVG 1.1//EN"
 "http://www.w3.org/Graphics/SVG/1.1/DTD/svg11.dtd">
<!-- Generated by graphviz version 2.43.0 (0)
 -->
<!-- Title: %3 Pages: 1 -->
<svg width="230pt" height="262pt"
 viewBox="0.00 0.00 229.73 261.69" xmlns="http://www.w3.org/2000/svg" xmlns:xlink="http://www.w3.org/1999/xlink">
<g id="graph0" class="graph" transform="scale(1 1) rotate(0) translate(4 257.69)">
<title>%3</title>
<polygon fill="white" stroke="transparent" points="-4,4 -4,-257.69 225.73,-257.69 225.73,4 -4,4"/>
<!-- 0 -->
<g id="node1" class="node">
<title>0</title>
<polygon fill="none" stroke="black" points="148.55,-253.69 86.55,-253.69 86.55,-200.69 148.55,-200.69 148.55,-253.69"/>
<text text-anchor="middle" x="117.55" y="-238.49" font-family="Times,serif" font-size="14.00">[0]</text>
<text text-anchor="middle" x="117.55" y="-223.49" font-family="Times,serif" font-size="14.00">C: 18</text>
<text text-anchor="middle" x="117.55" y="-208.49" font-family="Times,serif" font-size="14.00">T: 100</text>
</g>
<!-- 1 -->
<g id="node2" class="node">
<title>1</title>
<ellipse fill="none" stroke="black" cx="44.55" cy="-137.82" rx="44.6" ry="26.74"/>
<text text-anchor="middle" x="44.55" y="-141.62" font-family="Times,serif" font-size="14.00">[1]</text>
<text text-anchor="middle" x="44.55" y="-126.62" font-family="Times,serif" font-size="14.00">C: 147</text>
</g>
<!-- 0&#45;&gt;1 -->
<g id="edge1" class="edge">
<title>0&#45;&gt;1</title>
<path fill="none" stroke="black" d="M96.04,-200.45C88.08,-190.92 78.96,-180.01 70.63,-170.04"/>
<polygon fill="black" stroke="black" points="73.26,-167.72 64.16,-162.29 67.88,-172.21 73.26,-167.72"/>
</g>
<!-- 2 -->
<g id="node3" class="node">
<title>2</title>
<ellipse fill="none" stroke="black" stroke-width="2" cx="117.55" cy="-37.48" rx="45.01" ry="37.45"/>
<text text-anchor="middle" x="117.55" y="-48.78" font-family="Times,serif" font-size="14.00">[2]</text>
<text text-anchor="middle" x="117.55" y="-33.78" font-family="Times,serif" font-size="14.00">C: 47</text>
<text text-anchor="middle" x="117.55" y="-18.78" font-family="Times,serif" font-size="14.00">D: 318</text>
</g>
<!-- 0&#45;&gt;2 -->
<g id="edge2" class="edge">
<title>0&#45;&gt;2</title>
<path fill="none" stroke="black" d="M117.55,-200.49C117.55,-170.97 117.55,-121.93 117.55,-85.53"/>
<polygon fill="black" stroke="black" points="121.05,-85.15 117.55,-75.15 114.05,-85.15 121.05,-85.15"/>
</g>
<!-- 3 -->
<g id="node4" class="node">
<title>3</title>
<ellipse fill="none" stroke="black" cx="183.55" cy="-137.82" rx="38.37" ry="26.74"/>
<text text-anchor="middle" x="183.55" y="-141.62" font-family="Times,serif" font-size="14.00">[3]</text>
<text text-anchor="middle" x="183.55" y="-126.62" font-family="Times,serif" font-size="14.00">C: 48</text>
</g>
<!-- 0&#45;&gt;3 -->
<g id="edge3" class="edge">
<title>0&#45;&gt;3</title>
<path fill="none" stroke="black" d="M136.99,-200.45C144.18,-190.94 152.41,-180.04 159.93,-170.09"/>
<polygon fill="black" stroke="black" points="162.8,-172.09 166.04,-162 157.22,-167.87 162.8,-172.09"/>
</g>
<!-- 1&#45;&gt;2 -->
<g id="edge4" class="edge">
<title>1&#45;&gt;2</title>
<path fill="none" stroke="black" d="M62.22,-113.02C70.04,-102.49 79.44,-89.82 88.26,-77.94"/>
<polygon fill="black" stroke="black" points="91.09,-79.99 94.24,-69.87 85.47,-75.82 91.09,-79.99"/>
</g>
<!-- 3&#45;&gt;2 -->
<g id="edge5" class="edge">
<title>3&#45;&gt;2</title>
<path fill="none" stroke="black" d="M167.74,-113.27C160.87,-103.02 152.61,-90.72 144.8,-79.08"/>
<polygon fill="black" stroke="black" points="147.69,-77.12 139.22,-70.76 141.88,-81.02 147.69,-77.12"/>
</g>
</g>
</svg>
